<?xml version="1.0" encoding="UTF-8" standalone="no"?><svg xmlns="http://www.w3.org/2000/svg" xmlns:xlink="http://www.w3.org/1999/xlink" contentScriptType="application/ecmascript" contentStyleType="text/css" height="524px" preserveAspectRatio="none" style="width:292px;height:524px;" version="1.1" viewBox="0 0 292 524" width="292px" zoomAndPan="magnify"><defs><filter height="300%" id="f5ny8did8mwyr" width="300%" x="-1" y="-1"><feGaussianBlur result="blurOut" stdDeviation="2.0"/><feColorMatrix in="blurOut" result="blurOut2" type="matrix" values="0 0 0 0 0 0 0 0 0 0 0 0 0 0 0 0 0 0 .4 0"/><feOffset dx="4.0" dy="4.0" in="blurOut2" result="blurOut3"/><feBlend in="SourceGraphic" in2="blurOut3" mode="normal"/></filter></defs><g><text fill="#000000" font-family="sans-serif" font-size="18" lengthAdjust="spacing" textLength="164" x="62.25" y="29.4023">TLS Authentication</text><rect fill="#FFFFFF" filter="url(#f5ny8did8mwyr)" height="134.5527" style="stroke:#000000;stroke-width:2.0;" width="268.5" x="10" y="121.998"/><rect fill="#FFFFFF" filter="url(#f5ny8did8mwyr)" height="163.8633" style="stroke:#000000;stroke-width:2.0;" width="268.5" x="10" y="270.5508"/><line style="stroke:#A80036;stroke-width:1.0;stroke-dasharray:5.0,5.0;" x1="49" x2="49" y1="75.6875" y2="480.7246"/><line style="stroke:#A80036;stroke-width:1.0;stroke-dasharray:5.0,5.0;" x1="237.5" x2="237.5" y1="75.6875" y2="480.7246"/><rect fill="#FEFECE" filter="url(#f5ny8did8mwyr)" height="30.4883" style="stroke:#A80036;stroke-width:1.5;" width="54" x="20" y="40.1992"/><text fill="#000000" font-family="sans-serif" font-size="14" lengthAdjust="spacing" textLength="40" x="27" y="60.7344">Client</text><rect fill="#FEFECE" filter="url(#f5ny8did8mwyr)" height="30.4883" style="stroke:#A80036;stroke-width:1.5;" width="54" x="20" y="479.7246"/><text fill="#000000" font-family="sans-serif" font-size="14" lengthAdjust="spacing" textLength="40" x="27" y="500.2598">Client</text><rect fill="#FEFECE" filter="url(#f5ny8did8mwyr)" height="30.4883" style="stroke:#A80036;stroke-width:1.5;" width="57" x="207.5" y="40.1992"/><text fill="#000000" font-family="sans-serif" font-size="14" lengthAdjust="spacing" textLength="43" x="214.5" y="60.7344">Server</text><rect fill="#FEFECE" filter="url(#f5ny8did8mwyr)" height="30.4883" style="stroke:#A80036;stroke-width:1.5;" width="57" x="207.5" y="479.7246"/><text fill="#000000" font-family="sans-serif" font-size="14" lengthAdjust="spacing" textLength="43" x="214.5" y="500.2598">Server</text><polygon fill="#000000" points="60,102.998,50,106.998,60,110.998,56,106.998" style="stroke:#000000;stroke-width:1.0;"/><polygon fill="#000000" points="226,102.998,236,106.998,226,110.998,230,106.998" style="stroke:#000000;stroke-width:1.0;"/><line style="stroke:#000000;stroke-width:1.0;stroke-dasharray:2.0,2.0;" x1="54" x2="232" y1="106.998" y2="106.998"/><text fill="#000000" font-family="sans-serif" font-size="13" lengthAdjust="spacing" textLength="98" x="66" y="102.2559">TCP connection</text><path d="M10,121.998 L108,121.998 L108,128.998 L98,138.998 L10,138.998 L10,121.998 " fill="#EEEEEE" style="stroke:#000000;stroke-width:1.0;"/><rect fill="none" height="134.5527" style="stroke:#000000;stroke-width:2.0;" width="268.5" x="10" y="121.998"/><text fill="#000000" font-family="sans-serif" font-size="13" font-weight="bold" lengthAdjust="spacing" textLength="53" x="25" y="135.5664">Phase 1</text><polygon fill="#A80036" points="226,156.6191,236,160.6191,226,164.6191,230,160.6191" style="stroke:#A80036;stroke-width:1.0;"/><line style="stroke:#A80036;stroke-width:1.0;" x1="49" x2="232" y1="160.6191" y2="160.6191"/><text fill="#000000" font-family="sans-serif" font-size="13" lengthAdjust="spacing" textLength="70" x="56" y="155.877">ClientHello</text><polygon fill="#0000FF" points="60,185.9297,50,189.9297,60,193.9297,56,189.9297" style="stroke:#0000FF;stroke-width:1.0;"/><line style="stroke:#0000FF;stroke-width:1.0;stroke-dasharray:2.0,2.0;" x1="54" x2="237" y1="189.9297" y2="189.9297"/><text fill="#000000" font-family="sans-serif" font-size="13" lengthAdjust="spacing" textLength="71" x="66" y="185.1875">ServerHello</text><polygon fill="#0000FF" points="60,215.2402,50,219.2402,60,223.2402,56,219.2402" style="stroke:#0000FF;stroke-width:1.0;"/><line style="stroke:#0000FF;stroke-width:1.0;stroke-dasharray:2.0,2.0;" x1="54" x2="237" y1="219.2402" y2="219.2402"/><text fill="#000000" font-family="sans-serif" font-size="13" lengthAdjust="spacing" textLength="165" x="66" y="214.498">Server Certificate Message</text><polygon fill="#0000FF" points="60,244.5508,50,248.5508,60,252.5508,56,248.5508" style="stroke:#0000FF;stroke-width:1.0;"/><line style="stroke:#0000FF;stroke-width:1.0;stroke-dasharray:2.0,2.0;" x1="54" x2="237" y1="248.5508" y2="248.5508"/><text fill="#000000" font-family="sans-serif" font-size="13" lengthAdjust="spacing" textLength="104" x="66" y="243.8086">ServerHelloDone</text><path d="M10,270.5508 L108,270.5508 L108,277.5508 L98,287.5508 L10,287.5508 L10,270.5508 " fill="#EEEEEE" style="stroke:#000000;stroke-width:1.0;"/><rect fill="none" height="163.8633" style="stroke:#000000;stroke-width:2.0;" width="268.5" x="10" y="270.5508"/><text fill="#000000" font-family="sans-serif" font-size="13" font-weight="bold" lengthAdjust="spacing" textLength="53" x="25" y="284.1191">Phase 2</text><polygon fill="#A80036" points="226,305.1719,236,309.1719,226,313.1719,230,309.1719" style="stroke:#A80036;stroke-width:1.0;"/><line style="stroke:#A80036;stroke-width:1.0;" x1="49" x2="232" y1="309.1719" y2="309.1719"/><text fill="#000000" font-family="sans-serif" font-size="13" lengthAdjust="spacing" textLength="127" x="56" y="304.4297">Client Key Exchange</text><polygon fill="#A80036" points="226,334.4824,236,338.4824,226,342.4824,230,338.4824" style="stroke:#A80036;stroke-width:1.0;"/><line style="stroke:#A80036;stroke-width:1.0;" x1="49" x2="232" y1="338.4824" y2="338.4824"/><text fill="#000000" font-family="sans-serif" font-size="13" lengthAdjust="spacing" textLength="125" x="56" y="333.7402">Change Cipher Spec</text><polygon fill="#A80036" points="226,363.793,236,367.793,226,371.793,230,367.793" style="stroke:#A80036;stroke-width:1.0;"/><line style="stroke:#A80036;stroke-width:1.0;" x1="49" x2="232" y1="367.793" y2="367.793"/><text fill="#000000" font-family="sans-serif" font-size="13" lengthAdjust="spacing" textLength="90" x="56" y="363.0508">ClientFinished</text><polygon fill="#0000FF" points="60,393.1035,50,397.1035,60,401.1035,56,397.1035" style="stroke:#0000FF;stroke-width:1.0;"/><line style="stroke:#0000FF;stroke-width:1.0;stroke-dasharray:2.0,2.0;" x1="54" x2="237" y1="397.1035" y2="397.1035"/><text fill="#000000" font-family="sans-serif" font-size="13" lengthAdjust="spacing" textLength="125" x="66" y="392.3613">Change Cipher Spec</text><polygon fill="#0000FF" points="60,422.4141,50,426.4141,60,430.4141,56,426.4141" style="stroke:#0000FF;stroke-width:1.0;"/><line style="stroke:#0000FF;stroke-width:1.0;stroke-dasharray:2.0,2.0;" x1="54" x2="237" y1="426.4141" y2="426.4141"/><text fill="#000000" font-family="sans-serif" font-size="13" lengthAdjust="spacing" textLength="95" x="66" y="421.6719">Server Finished</text><polygon fill="#000000" points="60,458.7246,50,462.7246,60,466.7246,56,462.7246" style="stroke:#000000;stroke-width:1.0;"/><polygon fill="#000000" points="226,458.7246,236,462.7246,226,466.7246,230,462.7246" style="stroke:#000000;stroke-width:1.0;"/><line style="stroke:#000000;stroke-width:1.0;stroke-dasharray:2.0,2.0;" x1="54" x2="232" y1="462.7246" y2="462.7246"/><text fill="#000000" font-family="sans-serif" font-size="13" lengthAdjust="spacing" textLength="164" x="66" y="457.9824">Encrypted communication</text><!--MD5=[3e7b74d8ef430649ef56495a9c5bdfcf]
@startuml
Title TLS Authentication
Client <[#black]- -> Server: TCP connection
group Phase 1
Client -> Server: ClientHello
Client <[#blue]- - Server: ServerHello
Client <[#blue]- - Server: Server Certificate Message
Client <[#blue]- - Server: ServerHelloDone
end
group Phase 2
Client -> Server: Client Key Exchange
Client -> Server: Change Cipher Spec
Client -> Server: ClientFinished
Client <[#blue]- - Server: Change Cipher Spec
Client <[#blue]- - Server: Server Finished
end
Client <[#black]- -> Server: Encrypted communication
@enduml

PlantUML version 1.2021.00(Sun Jan 10 02:25:05 PST 2021)
(GPL source distribution)
Java Runtime: Java(TM) SE Runtime Environment
JVM: Java HotSpot(TM) 64-Bit Server VM
Default Encoding: UTF-8
Language: en
Country: US
--></g></svg>