<svg xmlns="http://www.w3.org/2000/svg" viewBox="0 0 100 100"><path d="M30.6 86.3H2.4c-.4 0-.9-.2-1.1-.6-.3-.3-.3-.8-.2-1.2l5.8-18.1c.2-.6.7-1 1.3-1h28.2c.4 0 .9.2 1.1.6.3.4.3.8.2 1.2l-5.8 18.1c-.2.6-.7 1-1.3 1zM4.3 83.6h25.3l4.9-15.4H9.2L4.3 83.6z"/><path d="M1.4 86.3c-.8 0-1.4-.6-1.4-1.4V60.1c0-1.5 1.2-2.7 2.7-2.7h9.6c1.5 0 2.7 1.2 2.7 2.7v1h1.6c.8 0 1.4.6 1.4 1.4 0 .8-.6 1.4-1.4 1.4h-2.9c-.8 0-1.4-.6-1.4-1.4v-2.4H2.7v24.8c0 .8-.6 1.4-1.3 1.4zM35.2 64c-.4 0-.7-.1-1-.4-.5-.5-.5-1.4 0-1.9l3.2-3.2-3.2-3.2c-.5-.5-.5-1.4 0-1.9s1.4-.5 1.9 0l4.2 4.2c.3.3.4.6.4 1s-.1.7-.4 1l-4.2 4.2c-.2.1-.6.2-.9.2z"/><path d="M20.1 76.7c-.8 0-1.4-.6-1.4-1.4 0-10.1 8.1-18.3 18.1-18.3.6 0 1.2 0 1.9.1.8.1 1.3.8 1.2 1.5-.1.8-.8 1.3-1.5 1.2-.5-.1-1-.1-1.6-.1-8.5 0-15.4 7-15.4 15.6.1.8-.5 1.4-1.3 1.4zM45.2 74.7c-.5 0-.9-.1-1.3-.4-.6-.4-1-1.2-1-1.9V25.9c0-1 .6-1.8 1.5-2.2l26.2-9.9c.7-.3 1.5-.2 2.2.3.6.4 1 1.2 1 1.9v46.4c0 1-.6 1.8-1.5 2.2l-26.2 9.9c-.3.1-.6.2-.9.2zm2.4-47.2V69l21.5-8.1V19.4l-21.5 8.1z"/><path d="M50.7 37.2c-.5 0-.9-.3-1.1-.8-.2-.6.1-1.3.7-1.5L65.9 29c.6-.2 1.3.1 1.5.7.2.6-.1 1.3-.7 1.5l-15.6 5.9c-.2.1-.3.1-.4.1zM50.7 52.3c-.5 0-.9-.3-1.1-.8-.2-.6.1-1.3.7-1.5l15.6-5.9c.6-.2 1.3.1 1.5.7.2.6-.1 1.3-.7 1.5l-15.6 5.9c-.2.1-.3.1-.4.1zM50.7 59.8c-.5 0-.9-.3-1.1-.8-.2-.6.1-1.3.7-1.5l15.6-5.9c.6-.2 1.3.1 1.5.7.2.6-.1 1.3-.7 1.5l-15.6 5.9c-.2.1-.3.1-.4.1zM50.7 44.8c-.5 0-.9-.3-1.1-.8-.2-.6.1-1.3.7-1.5l15.6-5.9c.6-.2 1.3.1 1.5.7.2.6-.1 1.3-.7 1.5l-15.6 5.9c-.2 0-.3.1-.4.1zM88 69.9c-.6 0-1.2-.5-1.2-1.2V55.1c0-.4.2-.7.5-1 .3-.2.7-.3 1.1-.1l9.6 3.6c.6.2.9.9.7 1.5-.2.6-.9.9-1.5.7l-8-3v11.9c0 .7-.5 1.2-1.2 1.2z"/><path d="M88 71.1c-.3 0-.6-.1-.8-.2l-16.6-6.3c-.9-.3-1.5-1.2-1.5-2.2V16c0-.8.4-1.5 1-1.9.6-.4 1.4-.5 2.2-.3l26.2 9.9c.9.3 1.5 1.2 1.5 2.2v32.9c0 .6-.2 1.2-.7 1.6l-9.6 9.9c-.4.5-1 .8-1.7.8zM73.8 60.8L87.4 66l7.9-8.1V27.6l-21.5-8.1v41.3z"/><path d="M92.8 37.4c-.1 0-.3 0-.4-.1l-15.6-5.9c-.6-.2-.9-.9-.7-1.5.2-.6.9-.9 1.5-.7l15.6 5.9c.6.2.9.9.7 1.5-.2.5-.7.8-1.1.8zM92.8 52.5c-.1 0-.3 0-.4-.1l-15.6-5.9c-.6-.2-.9-.9-.7-1.5.2-.6.9-.9 1.5-.7l15.6 5.9c.6.2.9.9.7 1.5-.2.5-.7.8-1.1.8zM92.8 45c-.1 0-.3 0-.4-.1L76.7 39c-.6-.2-.9-.9-.7-1.5.2-.6.9-.9 1.5-.7l15.6 5.9c.6.2.9.9.7 1.5-.1.5-.6.8-1 .8z"/></svg>