<svg xmlns="http://www.w3.org/2000/svg" viewBox="0 0 100 100"><path d="M94.9 8.7H5.1C2.7 8.7.8 6.8.8 4.4S2.7 0 5.1 0H95c2.4 0 4.3 1.9 4.3 4.3s-2 4.4-4.4 4.4zM94.9 31.5H5.1c-2.4 0-4.3-1.9-4.3-4.3s1.9-4.3 4.3-4.3H95c2.4 0 4.3 1.9 4.3 4.3s-2 4.3-4.4 4.3zM94.9 54.3H5.1C2.7 54.3.8 52.4.8 50s1.9-4.3 4.3-4.3H95c2.4 0 4.3 1.9 4.3 4.3s-2 4.3-4.4 4.3zM94.9 77.2H5.1c-2.4 0-4.3-1.9-4.3-4.3s1.9-4.3 4.3-4.3H95c2.4 0 4.3 1.9 4.3 4.3s-2 4.3-4.4 4.3zM94.9 100H5.1c-2.4 0-4.3-1.9-4.3-4.3s1.9-4.3 4.3-4.3H95c2.4 0 4.3 1.9 4.3 4.3s-2 4.3-4.4 4.3z"/></svg>