<svg xmlns="http://www.w3.org/2000/svg" viewBox="0 0 100 100"><path d="M69.3 77V1.6c0-.9-.7-1.6-1.6-1.6H11c-.9 0-1.6.7-1.6 1.6V77c0 .9.7 1.6 1.6 1.6h56.7c.9 0 1.6-.7 1.6-1.6zM46.6 8.5h7.9c.9 0 1.6.7 1.6 1.6 0 .9-.7 1.6-1.6 1.6h-7.9c-.9 0-1.6-.7-1.6-1.6 0-.9.7-1.6 1.6-1.6zm7.1 8.6c0 .9-.7 1.6-1.6 1.6H23.6c-.9 0-1.6-.7-1.6-1.6 0-.9.7-1.6 1.6-1.6h28.5c.9 0 1.6.7 1.6 1.6zM32.9 8.5h7.9c.9 0 1.6.7 1.6 1.6 0 .9-.7 1.6-1.6 1.6h-7.9c-.9 0-1.6-.7-1.6-1.6 0-.9.7-1.6 1.6-1.6zm-13.7 0h7.9c.9 0 1.6.7 1.6 1.6 0 .9-.7 1.6-1.6 1.6h-7.9c-.9 0-1.6-.7-1.6-1.6 0-.9.7-1.6 1.6-1.6zm27.3 23.4H23.6c-.9 0-1.6-.7-1.6-1.6 0-.9.7-1.6 1.6-1.6h22.9c.9 0 1.6.7 1.6 1.6 0 .9-.7 1.6-1.6 1.6zm1.6 5.1c0 .9-.7 1.6-1.6 1.6H23.6c-.9 0-1.6-.7-1.6-1.6 0-.9.7-1.6 1.6-1.6h22.9c.9 0 1.6.7 1.6 1.6zm-21 15.3h-7.9c-.9 0-1.6-.7-1.6-1.6 0-.9.7-1.6 1.6-1.6h7.9c.9 0 1.6.7 1.6 1.6 0 .9-.7 1.6-1.6 1.6zm31.7-6.9H23.6c-.9 0-1.6-.7-1.6-1.6 0-.9.7-1.6 1.6-1.6h35.2c.9 0 1.6.7 1.6 1.6 0 .9-.7 1.6-1.6 1.6zm0-19.9H23.6c-.9 0-1.6-.7-1.6-1.6 0-.9.7-1.6 1.6-1.6h35.2c.9 0 1.6.7 1.6 1.6 0 .9-.7 1.6-1.6 1.6z"/><path d="M78.4 89.3H21.6c-.9 0-1.6-.7-1.6-1.6V84h53c.9 0 1.6-.7 1.6-1.6V10.7h3.7c.9 0 1.6.7 1.6 1.6v75.4c.1.9-.6 1.6-1.5 1.6zM90.7 23v75.4c0 .9-.7 1.6-1.6 1.6H32.3c-.9 0-1.6-.7-1.6-1.6v-3.7h53c.9 0 1.6-.7 1.6-1.6V21.4H89c.9 0 1.7.7 1.7 1.6z"/></svg>