<svg xmlns="http://www.w3.org/2000/svg" viewBox="0 0 100 100"><path d="M95.8 100H4.2C1.9 100 0 98.1 0 95.8V4.2C0 1.9 1.9 0 4.2 0h91.6c2.3 0 4.2 1.9 4.2 4.2v91.6c0 2.3-1.9 4.2-4.2 4.2zM8.4 91.6h83.2V8.4H8.4v83.2z"/><path d="M24.4 80c-1.3 0-2.4-1.1-2.4-2.4V55.8c0-1.3 1.1-2.4 2.4-2.4 1.3 0 2.4 1.1 2.4 2.4v21.8c0 1.3-1.1 2.4-2.4 2.4zM34.8 80c-1.3 0-2.4-1.1-2.4-2.4V34.7c0-1.3 1.1-2.4 2.4-2.4 1.3 0 2.4 1.1 2.4 2.4v42.9c0 1.3-1.1 2.4-2.4 2.4zM45.1 80c-1.3 0-2.4-1.1-2.4-2.4V24.5c0-1.3 1.1-2.4 2.4-2.4 1.3 0 2.4 1.1 2.4 2.4v53.1c0 1.3-1.1 2.4-2.4 2.4zM55.5 80c-1.3 0-2.4-1.1-2.4-2.4V43.1c0-1.3 1.1-2.4 2.4-2.4 1.3 0 2.4 1.1 2.4 2.4v34.5c0 1.3-1.1 2.4-2.4 2.4zM76.2 80c-1.3 0-2.4-1.1-2.4-2.4v-12c0-1.3 1.1-2.4 2.4-2.4 1.3 0 2.4 1.1 2.4 2.4v12c0 1.3-1.1 2.4-2.4 2.4zM65.8 80c-1.3 0-2.4-1.1-2.4-2.4V24.5c0-1.3 1.1-2.4 2.4-2.4 1.3 0 2.4 1.1 2.4 2.4v53.1c0 1.3-1 2.4-2.4 2.4z"/></svg>