<svg xmlns="http://www.w3.org/2000/svg" viewBox="0 0 100 100"><path d="M98.1 45.5L54.5 1.9c-2.5-2.5-6.6-2.5-9.1 0L36.3 11l11.5 11.5c2.7-.9 5.7-.3 7.9 1.8 2.1 2.1 2.7 5.2 1.8 7.9l11.1 11.1c2.7-.9 5.8-.3 7.9 1.8 3 3 3 7.8 0 10.8-3 3-7.8 3-10.8 0-2.3-2.3-2.8-5.6-1.7-8.3L53.6 37.3v27.2c.7.4 1.4.8 2 1.4 3 3 3 7.8 0 10.8-3 3-7.8 3-10.8 0-3-3-3-7.8 0-10.8.7-.7 1.6-1.3 2.5-1.7V36.8c-.9-.4-1.8-.9-2.5-1.7-2.3-2.3-2.8-5.6-1.6-8.4L31.8 15.4 1.9 45.3c-2.5 2.5-2.5 6.6 0 9.1l43.7 43.7c2.5 2.5 6.6 2.5 9.1 0l43.5-43.5c2.4-2.5 2.4-6.5-.1-9.1z"/></svg>