<svg xmlns="http://www.w3.org/2000/svg" viewBox="0 0 100 100"><path d="M88.1 97.9V2.1C88.1 1 87.2 0 86 0H13.9c-1.1 0-2.1.9-2.1 2.1V98c0 1.1.9 2.1 2.1 2.1H86c1.2-.1 2.1-1 2.1-2.2zM59.2 10.8h10.1c1.1 0 2 .9 2 2s-.9 2-2 2H59.2c-1.1 0-2-.9-2-2s.9-2 2-2zm9.1 10.9c0 1.1-.9 2-2 2H30c-1.1 0-2-.9-2-2s.9-2 2-2h36.2c1.2 0 2.1.9 2.1 2zM41.8 10.8h10.1c1.1 0 2 .9 2 2s-.9 2-2 2H41.8c-1.1 0-2-.9-2-2s.9-2 2-2zm-17.4 0h10.1c1.1 0 2 .9 2 2s-.9 2-2 2H24.4c-1.1 0-2-.9-2-2s.9-2 2-2zm34.7 29.8H30c-1.1 0-2-.9-2-2s.9-2 2-2h29.1c1.1 0 2 .9 2 2 .1 1.1-.9 2-2 2zm2.1 6.4c0 1.1-.9 2-2 2H30c-1.1 0-2-.9-2-2s.9-2 2-2h29.1c1.1 0 2.1.9 2.1 2zM34.5 66.5H24.4c-1.1 0-2-.9-2-2s.9-2 2-2h10.1c1.1 0 2 .9 2 2 .1 1.1-.9 2-2 2zm40.3-8.7H30c-1.1 0-2-.9-2-2s.9-2 2-2h44.8c1.1 0 2 .9 2 2 .1 1.1-.9 2-2 2zm0-25.3H30c-1.1 0-2-.9-2-2s.9-2 2-2h44.8c1.1 0 2 .9 2 2 .1 1-.9 2-2 2z"/></svg>