<svg xmlns="http://www.w3.org/2000/svg" viewBox="0 0 100 100"><path d="M71.5 42.1H40.1c-1.1 0-2-.9-2-2V22.3c0-1.1.9-2 2-2h31.4c1.1 0 2 .9 2 2V40c0 1.2-.9 2.1-2 2.1zM42.2 38h27.3V24.4H42.2V38z"/><path d="M88.7 98.2H18.5c-2.3 0-4.1-1.8-4.1-4.1V5.9c0-2.3 1.8-4.1 4.1-4.1h70.2c2.3 0 4.1 1.8 4.1 4.1v88.3c0 2.2-1.8 4-4.1 4zM22.6 90h62V10h-62v80z"/><path d="M25.6 26.4H11.3c-2.3 0-4.1-1.8-4.1-4.1s1.8-4.1 4.1-4.1h14.3c2.3 0 4.1 1.8 4.1 4.1s-1.8 4.1-4.1 4.1zM25.6 44.7H11.3c-2.3 0-4.1-1.8-4.1-4.1s1.8-4.1 4.1-4.1h14.3c2.3 0 4.1 1.8 4.1 4.1s-1.8 4.1-4.1 4.1zM25.6 63H11.3c-2.3 0-4.1-1.8-4.1-4.1s1.8-4.1 4.1-4.1h14.3c2.3 0 4.1 1.8 4.1 4.1S27.9 63 25.6 63zM25.6 81.3H11.3c-2.3 0-4.1-1.8-4.1-4.1s1.8-4.1 4.1-4.1h14.3c2.3 0 4.1 1.8 4.1 4.1 0 2.2-1.8 4.1-4.1 4.1zM59.3 78.8c-1.9 0-3.4 1.5-3.4 3.4s1.5 3.4 3.4 3.4 3.4-1.5 3.4-3.4-1.5-3.4-3.4-3.4zM68.2 78.8c-1.9 0-3.4 1.5-3.4 3.4s1.5 3.4 3.4 3.4 3.4-1.5 3.4-3.4-1.5-3.4-3.4-3.4zM77.1 78.8c-1.9 0-3.4 1.5-3.4 3.4s1.5 3.4 3.4 3.4 3.4-1.5 3.4-3.4-1.6-3.4-3.4-3.4z"/></svg>