<svg xmlns="http://www.w3.org/2000/svg" viewBox="0 0 100 100"><path d="M73.7 73.1H26.8c-2.6 0-4.7-2.1-4.7-4.7V31.9c0-2.6 2.1-4.7 4.7-4.7h46.9c2.6 0 4.7 2.1 4.7 4.7v36.6c0 2.5-2.1 4.6-4.7 4.6zM26.8 31.9v36.6h46.9V31.9H26.8z"/><path d="M70.6 35.4h-5v4.4h5v-4.4M70.6 43.8h-5v4.4h5v-4.4M70.6 52.1h-5v4.4h5v-4.4M70.6 60.5h-5v4.4h5v-4.4M35 35.4h-5v4.4h5v-4.4M35 43.8h-5v4.4h5v-4.4M35 52.1h-5v4.4h5v-4.4M35 60.5h-5v4.4h5v-4.4"/><g><path d="M24.5 79.5c-1.3 0-2.3-1-2.3-2.3v-54c0-1.3 1-2.3 2.3-2.3 1.3 0 2.3 1 2.3 2.3v53.9c0 1.3-1 2.4-2.3 2.4z"/></g><g><path d="M76.1 79.5c-1.3 0-2.3-1-2.3-2.3v-54c0-1.3 1-2.3 2.3-2.3 1.3 0 2.3 1 2.3 2.3v53.9c0 1.3-1 2.4-2.3 2.4z"/></g><g><path d="M93.1 96.3H6.9c-2.2 0-4-1.8-4-4V7.6c0-2.2 1.8-4 4-4h86.3c2.2 0 4 1.8 4 4v84.7c-.1 2.3-1.9 4-4.1 4zm-82.3-7.9h78.3V11.6H10.8v76.8z"/></g></svg>