<svg xmlns="http://www.w3.org/2000/svg" viewBox="0 0 100 100"><path d="M92.5 100h-85c-2.3 0-4.2-1.9-4.2-4.2V24.9c0-2.3 1.9-4.2 4.2-4.2h85c2.3 0 4.2 1.9 4.2 4.2v70.8c0 2.4-1.9 4.3-4.2 4.3zm-80.8-8.5h76.5V29.2H11.7v62.3z"/><path d="M79.8 85.2H20.2c-1.2 0-2.1-.9-2.1-2.1V37.6c0-1.2.9-2.1 2.1-2.1h59.6c1.2 0 2.1.9 2.1 2.1v45.5c0 1.2-.9 2.1-2.1 2.1zM22.3 81h55.4V39.7H22.3V81zM87.1 14.2H12.9c-1.2 0-2.1-.9-2.1-2.1 0-1.2.9-2.1 2.1-2.1h74.2c1.2 0 2.1.9 2.1 2.1 0 1.1-.9 2.1-2.1 2.1zM78.6 4.2H21.4c-1.2 0-2.1-.9-2.1-2.1 0-1.2.9-2.1 2.1-2.1h57.3c1.2 0 2.1.9 2.1 2.1 0 1.2-1 2.1-2.2 2.1z"/></svg>