<svg xmlns="http://www.w3.org/2000/svg" viewBox="0 0 100 100"><path d="M50.3 47.3c-8.3 0-15.1-7.5-15.1-16.8 0-9.2 6.8-16.8 15.1-16.8s15.1 7.5 15.1 16.8-6.8 16.8-15.1 16.8zm0-25.6c-3.9 0-7.1 3.9-7.1 8.8s3.2 8.8 7.1 8.8c3.9 0 7.1-3.9 7.1-8.8 0-4.8-3.2-8.8-7.1-8.8zM71.4 86.2H28.7c-2.1 0-3.8-1.6-4-3.7l-.9-13.8c-.4-5.6 3.8-11.8 9.3-13.8 11-3.9 23-3.9 33.9 0 5.5 2 9.7 8.2 9.3 13.8l-.9 13.8c-.2 2.1-1.9 3.7-4 3.7zm-39-7.9h35.2l.7-10.1c.1-1.7-1.5-4.9-4.1-5.8-9.1-3.3-19.3-3.3-28.5 0-2.5.9-4.2 4.1-4.1 5.8.3 3.3.6 6.7.8 10.1z"/><path d="M71.4 86.2H28.7c-2.1 0-3.8-1.6-4-3.7l-.9-13.8c-.4-5.6 3.8-11.8 9.3-13.8 11-3.9 23-3.9 33.9 0 5.5 2 9.7 8.2 9.3 13.8l-.9 13.8c-.2 2.1-1.9 3.7-4 3.7zm-39-7.9h35.2l.7-10.1c.1-1.7-1.5-4.9-4.1-5.8-9.1-3.3-19.3-3.3-28.5 0-2.5.9-4.2 4.1-4.1 5.8.3 3.3.6 6.7.8 10.1zM97.2 79.8h-17c-1.1 0-2-.9-2-2s.9-2 2-2h15.1l.7-10c.1-2.2-1.8-5.5-4.5-6.5-3.9-1.4-7.9-2.1-12.1-2.2-1.1 0-2-.9-2-2s.9-2 2-2c4.6.1 9.1.9 13.3 2.4 4.1 1.5 7.4 6.3 7.1 10.5L99 77.9c.1 1.1-.8 1.9-1.8 1.9zM84.1 48.8c-5.9 0-10.6-5.4-10.6-11.9 0-6.6 4.8-11.9 10.6-11.9 5.9 0 10.6 5.4 10.6 11.9S90 48.8 84.1 48.8zm0-19.9c-3.7 0-6.7 3.6-6.7 8s3 8 6.7 8 6.6-3.6 6.6-8c0-4.5-2.9-8-6.6-8zM19.8 79.8h-17c-1 0-1.9-.8-2-1.9L0 66c-.3-4.2 3-9 7.1-10.5 4.3-1.5 8.8-2.4 13.4-2.4 1.2.2 2 .9 2 2s-.9 2-2 2c-4.1.1-8.2.8-12.1 2.2-2.7 1-4.6 4.3-4.5 6.5l.7 10h15.1c1.1 0 2 .9 2 2 .1 1.1-.8 2-1.9 2zM15.9 48.8c-5.9 0-10.6-5.4-10.6-11.9 0-6.6 4.8-11.9 10.6-11.9 5.9 0 10.6 5.4 10.6 11.9s-4.7 11.9-10.6 11.9zm0-19.9c-3.7 0-6.6 3.6-6.6 8s3 8 6.6 8c3.7 0 6.7-3.6 6.7-8-.1-4.5-3-8-6.7-8z"/></svg>