<svg xmlns="http://www.w3.org/2000/svg" viewBox="0 0 100 100"><path d="M67.1 52.3h-16c-1.2 0-2.3-1-2.3-2.3 0-1.2 1-2.3 2.3-2.3h15.1l12.5-13.2c.4-.4 1-.7 1.6-.7H97c1.2 0 2.3 1 2.3 2.3s-1 2.3-2.3 2.3H81.2L68.8 51.6c-.5.4-1.1.7-1.7.7z"/><path d="M89 47.2c-.6 0-1.2-.2-1.6-.7-.9-.9-.9-2.3 0-3.2l7.1-7.1-7.1-7.1c-.9-.9-.9-2.3 0-3.2.9-.9 2.3-.9 3.2 0l8.7 8.7c.9.9.9 2.3 0 3.2l-8.7 8.7c-.4.4-1 .7-1.6.7zM97 66.1H80.3c-.6 0-1.2-.3-1.6-.7L66.2 52.2H51.1c-1.2 0-2.3-1-2.3-2.3 0-1.2 1-2.3 2.3-2.3h16.1c.6 0 1.2.3 1.6.7l12.5 13.2H97c1.2 0 2.3 1 2.3 2.3 0 1.3-1 2.3-2.3 2.3zM89 74.8c-.6 0-1.2-.2-1.6-.7-.9-.9-.9-2.3 0-3.2l7.1-7.1-7.1-7.1c-.9-.9-.9-2.3 0-3.2.9-.9 2.3-.9 3.2 0l8.7 8.7c.9.9.9 2.3 0 3.2l-8.7 8.7c-.4.5-1 .7-1.6.7zM20.4 64.6c-9.3 0-17.2-2.4-20.3-5.7L0 59v5.4c2.8 3.6 11 6.3 20.8 6.3 9.6 0 17.8-2.6 20.7-6.2v-5.6c-.1-.1-.2-.3-.4-.4-2.8 3.5-11 6.1-20.7 6.1zM41.1 46.1c-1 1.3-2.7 2.4-4.9 3.4-4 1.7-9.6 2.8-15.9 2.8-6.3 0-11.9-1.1-15.9-2.8-1.9-.8-3.5-1.8-4.5-2.9l-.1.1V52c.1.1.1.2.2.3 1 1.2 2.6 2.3 4.7 3.2 4 1.7 9.6 2.8 15.9 2.8s11.9-1.1 15.9-2.8c1.8-.8 3.3-1.7 4.3-2.8.2-.2.4-.4.5-.6v-5.6c.1-.2-.1-.3-.2-.4zM5.1 43.1c3.8 1.8 9.3 2.9 15.6 2.9 6.3 0 11.9-1.2 15.7-3 1.9-.9 3.3-2 4.1-3.2.5-.7.8-1.5.8-2.3 0-4.7-9.2-8.5-20.5-8.5S.3 32.8.3 37.5c0 .7.2 1.3.5 1.9.6 1.4 2.2 2.6 4.3 3.7z"/></svg>