<svg xmlns="http://www.w3.org/2000/svg" viewBox="0 0 100 100"><path d="M95.8 100H4.2C1.9 100 0 98.1 0 95.8V4.2C0 1.9 1.9 0 4.2 0h91.6c2.3 0 4.2 1.9 4.2 4.2v91.6c0 2.3-1.9 4.2-4.2 4.2zM8.4 91.6h83.2V8.4H8.4v83.2z"/><path d="M77.2 79.1H23.7c-1.4 0-2.5-1.1-2.5-2.5V23.1c0-1.4 1.1-2.5 2.5-2.5h53.5c1.4 0 2.5 1.1 2.5 2.5v53.5c-.1 1.4-1.2 2.5-2.5 2.5zm-51.1-4.9h48.6V25.6H26.1v48.6z"/><path d="M70 71H31c-1 0-1.8-.8-1.8-1.8v-39c0-1 .8-1.8 1.8-1.8h39c1 0 1.8.8 1.8 1.8v39c0 1-.8 1.8-1.8 1.8zm-37.2-3.6h35.4V32H32.8v35.4z"/><path d="M63.4 64H37.7c-.7 0-1.2-.5-1.2-1.2V37.1c0-.7.5-1.2 1.2-1.2h25.7c.7 0 1.2.5 1.2 1.2v25.7c0 .7-.6 1.2-1.2 1.2zm-24.5-2.3h23.4V38.3H38.9v23.4z"/></svg>