<svg xmlns="http://www.w3.org/2000/svg" viewBox="0 0 100 100"><path d="M42.9 47.2H4.3c-2.4 0-4.3-1.9-4.3-4.3V4.3C0 1.9 1.9 0 4.3 0h38.6c2.4 0 4.3 1.9 4.3 4.3v38.6c-.1 2.3-2 4.3-4.3 4.3zM8.5 38.6h30.1V8.5H8.5v30.1zM95.7 47.2H57.1c-2.4 0-4.3-1.9-4.3-4.3V4.3c0-2.4 1.9-4.3 4.3-4.3h38.6c2.4 0 4.3 1.9 4.3 4.3v38.6c0 2.3-1.9 4.3-4.3 4.3zm-34.3-8.6h30.1V8.5H61.4v30.1zM42.9 100H4.3C1.9 100 0 98.1 0 95.7V57.1c0-2.4 1.9-4.3 4.3-4.3h38.6c2.4 0 4.3 1.9 4.3 4.3v38.6c-.1 2.4-2 4.3-4.3 4.3zM8.5 91.5h30.1V61.4H8.5v30.1zM95.7 100H57.1c-2.4 0-4.3-1.9-4.3-4.3V57.1c0-2.4 1.9-4.3 4.3-4.3h38.6c2.4 0 4.3 1.9 4.3 4.3v38.6c0 2.4-1.9 4.3-4.3 4.3zm-34.3-8.5h30.1V61.4H61.4v30.1z"/></svg>