<svg xmlns="http://www.w3.org/2000/svg" viewBox="0 0 100 100"><path d="M29.9 79.9C13.4 79.9 0 66.5 0 50s13.4-29.9 29.9-29.9c10.6 0 20.5 5.7 25.8 14.8h29.1c8.3 0 15.1 6.8 15.1 15.1 0 7.5-5.6 13.9-13.1 14.9l-1.9.3-1.4-1.4-2.6-3-5.3 6-5.3-6-3.5 4.2-1.9.2h-9.2c-5.3 9-15.2 14.7-25.8 14.7zm0-51.9c-12.2 0-22 9.9-22 22s9.9 22 22 22c8.4 0 16.2-4.9 19.9-12.6l1.1-2.2h12.2l7.3-8.4 5.3 6 5.3-6 6.8 7.7c2.6-1.1 4.4-3.7 4.4-6.6 0-4-3.2-7.2-7.2-7.2H51l-1.1-2.2C46.2 32.9 38.4 28 29.9 28z"/><path d="M22.5 44.4c-3.1 0-5.6 2.5-5.6 5.6s2.5 5.6 5.6 5.6 5.6-2.5 5.6-5.6-2.5-5.6-5.6-5.6z"/></svg>