<svg xmlns="http://www.w3.org/2000/svg" viewBox="0 0 100 100"><path d="M72.3 41.8H39.7c-1.2 0-2.1-.9-2.1-2.1V21.3c0-1.2.9-2.1 2.1-2.1h32.5c1.2 0 2.1.9 2.1 2.1v18.4c.1 1.2-.9 2.1-2 2.1zm-30.4-4.2h28.3V23.4H41.9v14.2z"/><path d="M90.1 100H17.3c-2.3 0-4.2-1.9-4.2-4.2V4.2C13.1 1.9 15 0 17.3 0h72.8c2.3 0 4.2 1.9 4.2 4.2v91.5c.1 2.4-1.8 4.3-4.2 4.3zm-68.5-8.5h64.3v-83H21.6v83z"/><path d="M24.7 25.6H9.9c-2.3 0-4.2-1.9-4.2-4.2s1.9-4.2 4.2-4.2h14.9c2.3 0 4.2 1.9 4.2 4.2s-1.9 4.2-4.3 4.2zM24.7 44.5H9.9c-2.3 0-4.2-1.9-4.2-4.2 0-2.3 1.9-4.2 4.2-4.2h14.9c2.3 0 4.2 1.9 4.2 4.2 0 2.3-1.9 4.2-4.3 4.2zM24.7 63.5H9.9c-2.3 0-4.2-1.9-4.2-4.2 0-2.3 1.9-4.2 4.2-4.2h14.9c2.3 0 4.2 1.9 4.2 4.2 0 2.3-1.9 4.2-4.3 4.2zM24.7 82.4H9.9c-2.3 0-4.2-1.9-4.2-4.2 0-2.3 1.9-4.2 4.2-4.2h14.9c2.3 0 4.2 1.9 4.2 4.2 0 2.3-1.9 4.2-4.3 4.2z"/></svg>