<svg xmlns="http://www.w3.org/2000/svg" viewBox="0 0 100 100"><path d="M59.1 43.3c-.5 0-1.1-.2-1.5-.6-.8-.8-.8-2.1 0-2.9l6.6-6.6c.8-.8 2.1-.8 2.9 0 .8.8.8 2.1 0 2.9l-6.6 6.6c-.3.4-.9.6-1.4.6zM34.7 67.8c-.5 0-1.1-.2-1.5-.6-.8-.8-.8-2.1 0-2.9l6.6-6.6c.8-.8 2.1-.8 2.9 0 .8.8.8 2.1 0 2.9l-6.6 6.6c-.4.4-.9.6-1.4.6zM65.7 67.8c-.5 0-1.1-.2-1.5-.6l-6.6-6.6c-.8-.8-.8-2.1 0-2.9.8-.8 2.1-.8 2.9 0l6.6 6.6c.8.8.8 2.1 0 2.9-.3.4-.9.6-1.4.6zM41.3 43.3c-.5 0-1.1-.2-1.5-.6l-6.6-6.6c-.8-.8-.8-2.1 0-2.9.8-.8 2.1-.8 2.9 0l6.6 6.6c.8.8.8 2.1 0 2.9-.4.4-.9.6-1.4.6zM50.2 57.8c-4.2 0-7.6-3.4-7.6-7.6 0-4.2 3.4-7.6 7.6-7.6 4.2 0 7.6 3.4 7.6 7.6 0 4.2-3.4 7.6-7.6 7.6zm0-11.1c-1.9 0-3.5 1.5-3.5 3.5 0 1.9 1.5 3.5 3.5 3.5 1.9 0 3.5-1.5 3.5-3.5-.1-1.9-1.6-3.5-3.5-3.5zM26.2 30H4.6C2.3 30 .4 28.1.4 25.8V4.2C.4 1.9 2.3 0 4.6 0h21.6c2.3 0 4.2 1.9 4.2 4.2v21.6c0 2.3-1.9 4.2-4.2 4.2zM8.7 21.6H22V8.3H8.7v13.3zM95.4 30H73.8c-2.3 0-4.2-1.9-4.2-4.2V4.2c0-2.3 1.9-4.2 4.2-4.2h21.6c2.3 0 4.2 1.9 4.2 4.2v21.6c0 2.3-1.9 4.2-4.2 4.2zM78 21.6h13.3V8.3H78v13.3zM26.2 100H4.6c-2.3 0-4.2-1.9-4.2-4.2V74.2c0-2.3 1.9-4.2 4.2-4.2h21.6c2.3 0 4.2 1.9 4.2 4.2v21.6c0 2.3-1.9 4.2-4.2 4.2zM8.7 91.7H22V78.4H8.7v13.3zM95.4 100H73.8c-2.3 0-4.2-1.9-4.2-4.2V74.2c0-2.3 1.9-4.2 4.2-4.2h21.6c2.3 0 4.2 1.9 4.2 4.2v21.6c0 2.3-1.9 4.2-4.2 4.2zM78 91.7h13.3V78.4H78v13.3z"/></svg>