<svg xmlns="http://www.w3.org/2000/svg" viewBox="0 0 100 100"><path d="M89 21.4h-3.7V93c0 .9-.7 1.6-1.6 1.6h-53v3.7c0 .9.7 1.6 1.6 1.6H89c.9 0 1.6-.7 1.6-1.6V23c.1-.9-.7-1.6-1.6-1.6z"/><path d="M80 87.7V12.3c0-.9-.7-1.6-1.6-1.6h-3.7v71.7c0 .9-.7 1.6-1.6 1.6H20v3.7c0 .9.7 1.6 1.6 1.6h56.7c1 0 1.7-.7 1.7-1.6zM47.2 56.3c0 1.8-1.4 3.2-3.2 3.2h-9.6c-1.8 0-3.2-1.4-3.2-3.2v-.7H24v8.1h30.4v-8.1h-7.2v.7z"/><path d="M34.4 54.1v2.3H44v-2.3c0-.9.7-1.6 1.6-1.6h7v-9.9H26.2v9.9h6.6c.9 0 1.6.7 1.6 1.6z"/><path d="M67.7 0H11c-.9 0-1.6.7-1.6 1.6V77c0 .9.7 1.6 1.6 1.6h56.7c.9 0 1.6-.7 1.6-1.6V1.6c0-.9-.7-1.6-1.6-1.6zM28 33h22.8c.4 0 .8.4.8.8s-.4.8-.8.8H28c-.4 0-.8-.4-.8-.8s.3-.8.8-.8zm-1.5 3.2h25.9c.4 0 .8.4.8.8s-.4.8-.8.8H26.5c-.4 0-.8-.4-.8-.8s.3-.8.8-.8zm31.1 29.2c0 .9-.7 1.6-1.6 1.6H22.4c-.9 0-1.6-.7-1.6-1.6V54.1c0-.9.7-1.6 1.6-1.6h.6V41c0-.9.7-1.6 1.6-1.6h29.6c.9 0 1.6.7 1.6 1.6v11.5h.2c.9 0 1.6.7 1.6 1.6v11.3z"/></svg>