<svg xmlns="http://www.w3.org/2000/svg" viewBox="0 0 100 100"><path d="M95.8 91.5H4.2c-2.3 0-4.2-1.9-4.2-4.2V12.7c0-2.3 1.9-4.2 4.2-4.2h91.6c2.3 0 4.2 1.9 4.2 4.2v74.7c0 2.3-1.9 4.1-4.2 4.1zM8.4 83.1h83.2V16.9H8.4v66.2z"/><path d="M82.3 29.1H17.7c-1.2 0-2.1-.9-2.1-2.1 0-1.2.9-2.1 2.1-2.1h64.6c1.2 0 2.1.9 2.1 2.1 0 1.2-1 2.1-2.1 2.1zM68.1 45.5H31.9c-1.2 0-2.1-.9-2.1-2.1s.9-2.1 2.1-2.1h36.2c1.2 0 2.1.9 2.1 2.1s-.9 2.1-2.1 2.1zM76.5 37.3h-53c-1.2 0-2.1-.9-2.1-2.1s.9-2.1 2.1-2.1h53c1.2 0 2.1.9 2.1 2.1s-1 2.1-2.1 2.1zM50 64.1H19.3c-1.2 0-2.1-.9-2.1-2.1s.9-2.1 2.1-2.1H50c1.2 0 2.1.9 2.1 2.1s-1 2.1-2.1 2.1zM38.4 72.1h-19c-1.2 0-2.1-.9-2.1-2.1s.9-2.1 2.1-2.1h19c1.2 0 2.1.9 2.1 2.1s-1 2.1-2.1 2.1zM71.5 73c-6.2 0-11.3-5.1-11.3-11.3 0-6.2 5.1-11.3 11.3-11.3 6.2 0 11.3 5.1 11.3 11.3 0 6.2-5.1 11.3-11.3 11.3zm0-18.4c-3.9 0-7.1 3.2-7.1 7.1s3.2 7.1 7.1 7.1c3.9 0 7.1-3.2 7.1-7.1s-3.2-7.1-7.1-7.1z"/><path d="M74.5 73.2c-.2 0-.4 0-.6-.1l-2.5-.7-2.4.7c-.8.2-1.7-.1-2.2-.7l-1.6-2-2.4-.9c-.8-.3-1.4-1-1.4-1.9l-.1-2.6-1.4-2.1c-.5-.7-.5-1.6 0-2.4l1.4-2.1.1-2.6c0-.9.6-1.6 1.4-1.9l2.4-.9 1.6-2c.5-.7 1.4-1 2.2-.7l2.5.7 2.5-.7c.8-.2 1.7 0 2.2.7l1.6 2 2.4.9c.8.3 1.4 1 1.4 1.9l.1 2.6 1.4 2.1c.5.7.5 1.6 0 2.4L81.6 65l-.1 2.6c0 .9-.6 1.6-1.4 1.9l-2.4.9-1.6 2c-.3.5-.9.8-1.6.8zM65.6 66l1.6.6c.4.1.7.4.9.7l1.1 1.4 1.7-.5c.4-.1.8-.1 1.2 0l1.7.5 1.1-1.4c.2-.3.6-.6.9-.7l1.6-.6.1-1.7c0-.4.1-.8.4-1.1l1-1.4-1-1.4c-.2-.3-.3-.7-.4-1.1l-.1-1.7-1.6-.6c-.4-.1-.7-.4-.9-.7l-1.1-1.4-1.7.5c-.4.1-.8.1-1.2 0l-1.7-.5-1.1 1.4c-.2.3-.6.6-1 .7l-1.6.6-.1 1.7c0 .4-.1.8-.4 1.1l-1 1.4 1 1.4c.2.3.4.7.4 1.1l.2 1.7z"/><path d="M78.5 78.6c-.6 0-1.3-.3-1.7-.8l-3.5-4.7c-.7-.9-.5-2.2.4-2.9.9-.7 2.2-.5 2.9.4l3.5 4.7c.7.9.5 2.2-.4 2.9-.3.3-.8.4-1.2.4zM64.5 78.6c-.4 0-.9-.1-1.3-.4-.9-.7-1.1-2-.4-2.9l3.5-4.7c.7-.9 2-1.1 2.9-.4.9.7 1.1 2 .4 2.9l-3.5 4.7c-.3.5-1 .8-1.6.8z"/></svg>