<svg xmlns="http://www.w3.org/2000/svg" viewBox="0 0 100 100"><path d="M50.1 15.5c-6.9 0-12.5 5.5-12.5 12.3 0 6.8 5.6 12.4 12.5 12.4s12.4-5.5 12.4-12.4c.1-6.8-5.5-12.3-12.4-12.3zM50.1 60.1c-6.9 0-12.5 5.5-12.5 12.3 0 6.8 5.6 12.4 12.5 12.4s12.4-5.5 12.4-12.4c.1-6.8-5.5-12.3-12.4-12.3zM72.6 37.8c-6.9 0-12.5 5.5-12.5 12.4 0 6.8 5.6 12.4 12.5 12.4S85 57.1 85 50.2c.1-6.9-5.5-12.4-12.4-12.4zM27.7 37.8c-6.9 0-12.5 5.5-12.5 12.4 0 6.8 5.6 12.4 12.5 12.4s12.4-5.5 12.4-12.4-5.6-12.4-12.4-12.4z"/><path d="M95.8 99.2H4.2C1.9 99.2 0 97.3 0 95V5C0 2.7 1.9.8 4.2.8h91.6C98.1.8 100 2.7 100 5v90c0 2.3-1.9 4.2-4.2 4.2zM8.4 90.8h83.1V9.2H8.4v81.6z"/></svg>