<svg xmlns="http://www.w3.org/2000/svg" viewBox="0 0 100 100"><path d="M50 100C22.4 100 0 77.6 0 50S22.4 0 50 0s50 22.4 50 50-22.4 50-50 50zm0-91.6C27.1 8.4 8.4 27.1 8.4 50c0 22.9 18.7 41.6 41.6 41.6S91.6 72.9 91.6 50C91.6 27.1 72.9 8.4 50 8.4z"/><path d="M50 97.9c-15.8 0-28.6-21.5-28.6-47.9S34.2 2.1 50 2.1 78.6 23.6 78.6 50 65.8 97.9 50 97.9zm0-91.6C36.6 6.3 25.6 25.9 25.6 50S36.5 93.7 50 93.7c13.4 0 24.4-19.6 24.4-43.7S63.4 6.3 50 6.3z"/><path d="M50 97.9c-1.2 0-2.1-.9-2.1-2.1V4.2c0-1.2.9-2.1 2.1-2.1 26.4 0 47.9 21.5 47.9 47.9S76.4 97.9 50 97.9zm2.1-91.5v87.3C75.2 92.5 93.7 73.4 93.7 50c0-23.4-18.5-42.5-41.6-43.6z"/><path d="M92.8 68.2H7.2c-.9 0-1.7-.5-2-1.4C3.1 61.4 2.1 55.7 2.1 50c0-5.7 1-11.4 3.1-16.9.3-.8 1.1-1.4 2-1.4h85.6c.9 0 1.7.5 2 1.4 2.1 5.5 3.1 11.2 3.1 16.9 0 5.7-1 11.4-3.1 16.9-.3.8-1.1 1.3-2 1.3zM8.7 64h82.7c1.6-4.6 2.4-9.3 2.4-14 0-4.7-.8-9.5-2.4-14H8.7c-1.6 4.6-2.4 9.3-2.4 14 0 4.7.8 9.5 2.4 14z"/></svg>