<svg xmlns="http://www.w3.org/2000/svg" viewBox="0 0 100 100"><path d="M92.2 47c0-1.7-.6-3.2-2-4.3-.4-.3-.5-.6-.5-1v-2.9c-.1-2.7-1.9-4.9-4.5-5.8-.8-.2-1.6-.3-2.4-.3H16.2c-1.6.1-3.1.7-4.2 1.9-1.2 1.2-1.7 2.6-1.8 4.3v2.9c0 .3-.1.6-.4.8-.1.1-.2.1-.3.2-1.2 1-1.8 2.3-1.8 3.8v8.8c0 .4 0 .7.1 1.1.3 1.2 1 2.2 2 3 .3.2.4.4.4.7v3c.1 2.9 2.1 5.3 5 6 .6.1 1.3.2 2 .2H83.6c2.7-.2 4.7-1.5 5.8-4.1.3-.8.4-1.6.4-2.4v-2.5c0-.4.1-.7.5-1 1.4-1.1 2-2.5 2-4.3-.1-2.7 0-5.4-.1-8.1zm-14.9 8.9H23.5c-.4 0-.9 0-1.3-.1-2.2-.2-4-2.3-4-4.5-.1-2.4 1.7-4.4 3.8-4.7.5-.1 1-.1 1.5-.1h53.2c.6 0 1.1 0 1.7.1 2 .3 3.6 2.3 3.7 4.3 0 2.4-1.9 4.9-4.8 5zM49.9 30.9H16c-1.4 0-1.2.1-1-1.2 1.6-9.3 6.2-16.8 13.7-22.6 3-2.3 6.2-3.9 9.7-5.2C41.1.9 44 .4 46.8.1c3.2-.3 6.4-.1 9.5.4C61.9 1.6 67 3.8 71.5 7.3c4.6 3.6 8.1 8 10.5 13.3 1.2 2.7 2.1 5.6 2.6 8.5.1.4.2.9.2 1.3 0 .2-.1.3-.3.3h-.8c-11.1.2-22.4.2-33.8.2zM50 100H30.8c-5.7-.4-9.9-3.2-12.7-8.2-1.1-2-1.6-4.1-1.6-6.3v-7.3-5.7-.7c0-.1.1-.2.2-.2H24.4c.2 0 .3.1.3.3V85c0 1.6.5 3.1 1.6 4.4 1.3 1.5 2.9 2.3 4.9 2.4 1.3.1 2.6 0 3.8 0 .9 0 1.7-.4 2.3-1.2 1.3-1.7 2.6-3.3 3.9-4.9.1-.2.3-.4.4-.6.5-.6 1.2-.9 1.9-.9h12.8c.8 0 1.5.3 2 1 .6.7 1.1 1.3 1.6 2 .8 1 1.6 2.1 2.4 3.1.1.2.3.4.5.6.5.5 1.1.9 1.8.9h3.8c2.1-.1 3.9-.9 5.2-2.5 1-1.2 1.5-2.7 1.5-4.3v-2.3-10.4c0-.8 0-.8.8-.8H83c.2 0 .3.1.3.3v13.6c-.1 4.2-1.7 7.7-4.7 10.6-2.7 2.5-5.9 3.9-9.6 4.1h-1.6c-5.6-.1-11.5-.1-17.4-.1z"/><path d="M50 74.5h11.8c.4 0 .6.1.8.4.8 1 1.6 1.9 2.4 2.8.1.1.2.3.4.4.2.3.2.4-.1.6-.9.8-1.8 1.5-2.6 2.3-.2.2-.3.2-.5-.1-.5-.6-1-1.1-1.5-1.7-.3-.4-.6-.5-1.1-.5H40.3c-1.1 0-.8-.1-1.6.7-.4.4-.8.9-1.2 1.3-.3.4-.3.4-.8 0-.8-.7-1.6-1.3-2.4-2-.4-.4-.4-.4-.1-.8.2-.3.5-.6.8-.9.6-.7 1.3-1.4 1.9-2.2.3-.4.6-.6 1.1-.5h.4c4.1.2 7.8.2 11.6.2z"/></svg>