<svg xmlns="http://www.w3.org/2000/svg" viewBox="0 0 100 100"><path d="M31.1 73.1c-1.1 0-2.1-.4-3-1.2-1.6-1.6-1.6-4.3 0-5.9l36.6-36.6c1.6-1.6 4.3-1.6 5.9 0 1.6 1.6 1.6 4.3 0 5.9L34.1 71.8c-.8.9-1.9 1.3-3 1.3z"/><path d="M67.2 56.5c-.7 0-1.4 0-2-.1-2.3-.2-4-2.2-3.8-4.5.2-2.3 2.3-4 4.5-3.8 4.2.4 8.2-1.1 11.1-4l10.4-10.4c5.5-5.5 5.5-14.4 0-19.9l-1.2-1.2C80.8 7 71.9 7 66.4 12.5L56 22.9c-2.9 2.9-4.4 7-4 11.1.2 2.3-1.5 4.3-3.8 4.5-2.3.2-4.3-1.5-4.5-3.8-.7-6.5 1.7-13 6.4-17.7L60.5 6.6c8.7-8.8 23-8.8 31.8 0l1.2 1.2c8.8 8.8 8.8 23 0 31.8L83 50c-4.2 4.1-9.8 6.5-15.8 6.5zM23.6 100c-5.8 0-11.5-2.2-15.9-6.6l-1.2-1.2C2.3 88 0 82.4 0 76.4s2.3-11.6 6.6-15.9L17 50.1c4.7-4.7 11.1-7 17.8-6.4 2.3.2 4 2.2 3.8 4.5-.2 2.3-2.2 4-4.5 3.8-4.1-.4-8.2 1.1-11.1 4L12.5 66.4c-2.7 2.7-4.1 6.2-4.1 10s1.5 7.3 4.1 10l1.2 1.2c5.5 5.5 14.4 5.5 19.9 0L44 77.1c2.9-2.9 4.4-7 4-11.1-.2-2.3 1.5-4.3 3.8-4.5 2.3-.2 4.3 1.5 4.5 3.8.7 6.5-1.7 13-6.3 17.7L39.5 93.4c-4.3 4.4-10.1 6.6-15.9 6.6z"/></svg>