<svg xmlns="http://www.w3.org/2000/svg" viewBox="0 0 100 100"><path d="M95.8 100H4.2C1.9 100 0 98.1 0 95.8V4.2C0 1.9 1.9 0 4.2 0h45.5c2.3 0 4.2 1.9 4.2 4.2 0 2.3-1.9 4.2-4.2 4.2H8.4v83.2h83.2V50.3c0-2.3 1.9-4.2 4.2-4.2 2.3 0 4.2 1.9 4.2 4.2v45.5c0 2.3-1.9 4.2-4.2 4.2z"/><path d="M81.3 47.8H56.4c-2.3 0-4.2-1.9-4.2-4.2V18.7c0-2.3 1.9-4.2 4.2-4.2 2.3 0 4.2 1.9 4.2 4.2v20.7h20.7c2.3 0 4.2 1.9 4.2 4.2 0 2.3-1.9 4.2-4.2 4.2z"/><path d="M59.8 44.4c-1.1 0-2.1-.4-3-1.2-1.6-1.6-1.6-4.3 0-5.9l36-36c1.6-1.6 4.3-1.6 5.9 0 1.6 1.6 1.6 4.3 0 5.9l-36 36c-.7.8-1.8 1.2-2.9 1.2zM33.7 78.3c-7.3 0-13.4-1.9-15.9-4.5l-.1.1V78c2.2 2.9 8.6 4.9 16.3 4.9 7.5 0 13.9-2 16.2-4.8v-4.4l-.3-.3c-2.1 2.8-8.6 4.9-16.2 4.9zM50 63.8c-.8 1-2.1 1.9-3.8 2.7-3.1 1.4-7.5 2.2-12.4 2.2s-9.3-.9-12.4-2.2c-1.5-.7-2.7-1.4-3.5-2.3v4.3l.2.2c.8.9 2.1 1.8 3.7 2.5 3.1 1.4 7.5 2.2 12.4 2.2s9.3-.9 12.4-2.2c1.4-.6 2.6-1.4 3.4-2.2l.4-.4v-4.4l-.4-.4zM21.8 61.4c2.9 1.4 7.3 2.3 12.2 2.3 4.9 0 9.3-.9 12.3-2.3 1.5-.7 2.6-1.6 3.2-2.5.4-.6.6-1.2.6-1.8 0-3.7-7.2-6.6-16.1-6.6-8.9 0-16.1 3-16.1 6.6 0 .5.1 1 .4 1.5.6 1.1 1.8 2 3.5 2.8z"/></svg>