<svg xmlns="http://www.w3.org/2000/svg" viewBox="0 0 100 100"><path d="M57.8 52.8c-1.7 0 .3.9 2.5 1.2.6-.5 1.1-.9 1.6-1.4-1.3.4-2.7.4-4.1.2M66.7 50.6c1-1.4 1.7-2.9 2-4.4-.2 1.1-.8 2-1.4 3-3.1 2-.3-1.2 0-2.3-3.3 4.2-.4 2.5-.6 3.7M70 42.1c.2-3-.6-2-.9-.9.4.1.6 2.1.9.9M51.6 1.3c.9.2 1.9.3 1.8.5.9-.2 1.1-.4-1.8-.5M53.3 1.8l-.6.1.6-.1"/><path d="M80.9 43.2c.1 2.7-.8 4-1.6 6.3l-1.4.7c-1.2 2.3.1 1.4-.7 3.3-1.8 1.6-5.6 5.1-6.7 5.4-.9 0 .6-1 .8-1.4-2.4 1.7-2 2.5-5.7 3.5l-.1-.2c-9.2 4.3-22.1-4.3-21.9-16-.1.7-.3.6-.5.9-.5-6 2.8-12.1 8.3-14.6 5.4-2.7 11.7-1.6 15.6 2-2.1-2.8-6.3-5.7-11.4-5.4-4.9.1-9.5 3.2-11 6.6-2.5 1.6-2.8 6.1-3.9 6.9-1.5 10.8 2.8 15.5 9.9 21 1.1.8.3.9.5 1.5-2.4-1.1-4.6-2.8-6.4-4.9 1 1.4 2 2.7 3.3 3.8-2.2-.8-5.3-5.4-6.1-5.6 3.9 6.9 15.7 12.2 21.9 9.6-2.9.1-6.5.1-9.7-1.1-1.4-.7-3.2-2.1-2.9-2.4 8.5 3.2 17.2 2.4 24.5-3.5 1.9-1.5 3.9-3.9 4.5-4-.9 1.3.2.6-.5 1.8 1.9-3-.8-1.2 1.9-5.2l1 1.4c-.4-2.6 3.1-5.6 2.7-9.6.8-1.2.9 1.3 0 4.1 1.2-3.1.3-3.6.6-6.1.3.9.8 1.8 1 2.7-.8-3 .8-5 1.2-6.7-.4-.2-1.2 1.3-1.4-2.2 0-1.5.4-.8.6-1.2-.3-.2-1.1-1.3-1.6-3.6.3-.5.9 1.4 1.4 1.4-.3-1.8-.8-3.1-.8-4.5-1.4-2.9-.5.4-1.6-1.2-1.5-4.6 1.2-1.1 1.4-3.1 2.2 3.2 3.5 8.2 4.1 10.3-.4-2.5-1.2-4.9-2-7.3.7.3-1.1-5.2.9-1.6-2.1-7.7-9-14.9-15.3-18.3.8.7 1.7 1.6 1.4 1.7-3.1-1.9-2.6-2-3-2.8-2.6-1-2.7.1-4.4 0-4.9-2.6-5.9-2.3-10.3-3.9l.2.9c-3.2-1.1-3.7.4-7.2 0-.2-.2 1.1-.6 2.2-.8-3.1.4-2.9-.6-6 .1.7-.5 1.5-.9 2.3-1.3-2.5.2-6 1.5-4.9.3C40 2.8 32.7 5.4 28.6 9.2l-.1-.9c-1.9 2.3-8.2 6.7-8.7 9.6l-.5.1c-1 1.7-1.6 3.5-2.4 5.2-1.3 2.2-1.9.8-1.7 1.2-2.5 5.1-3.8 9.4-4.8 12.9.8 1.1 0 6.9.3 11.5-1.3 22.8 16 44.9 34.8 50 2.8 1 6.9 1 10.4 1.1-4.1-1.2-4.7-.6-8.7-2-2.9-1.4-3.5-2.9-5.6-4.7l.8 1.4c-4-1.4-2.3-1.8-5.6-2.8l.9-1.1c-1.3-.1-3.5-2.2-4-3.4l-1.4.1c-1.7-2.1-2.6-3.6-2.6-4.8l-.5.8c-.5-.9-6.3-7.9-3.3-6.3-.6-.5-1.3-.8-2.1-2.3l.6-.7c-1.4-1.9-2.7-4.2-2.6-5 .8 1 1.3 1.2 1.8 1.4-3.6-9.1-3.9-.5-6.6-9.2h.6c-.4-.7-.7-1.4-1.1-2.1l.3-2.5c-2.6-3-.7-12.9-.4-18.3.3-2.2 2.2-4.5 3.7-8.2l-.9-.2c1.7-3 9.8-12 13.5-11.5 1.8-2.3-.4 0-.7-.6 4-4.1 5.2-2.9 7.9-3.6 2.9-1.7-2.5.7-1.1-.7 5-1.3 3.5-2.9 10.1-3.5.7.4-1.6.6-2.2 1.1 4.2-2 13.2-1.6 19 1.1 6.8 3.2 14.4 12.5 14.7 21.4l.3.1c-.2 3.5.5 7.6-.7 11.3l.9-1.9"/><path d="M39.8 55.1l-.2 1.2c1.1 1.5 2 3.1 3.3 4.2-1-1.9-1.8-2.8-3.1-5.4M42.3 55c-.6-.6-.9-1.4-1.3-2.2.4 1.3 1.1 2.5 1.8 3.7l-.5-1.5M87.9 45.1l-.2.6c-.4 3.2-1.4 6.3-2.9 9.2 1.6-3 2.6-6.4 3.1-9.8M51.9.5C53 .1 54.6.3 55.8 0c-1.5.1-3.1.2-4.6.4l.7.1M12.6 21.4c.3 2.4-1.8 3.3.5 1.7 1.1-2.7-.6-.7-.5-1.7M9.9 32.5c.5-1.6.6-2.6.8-3.5-1.4 1.8-.6 2.2-.8 3.5"/></svg>