<svg xmlns="http://www.w3.org/2000/svg" viewBox="0 0 100 100"><path d="M78.7 73.6h-4.6v-8h4.6c3.1 0 6-1.3 8.1-3.6 3.4-3.2 5.2-7.1 5.2-11.3 0-8.2-6.7-14.9-14.9-14.9-1.6 0-3.1.2-4.6.7-1.2.4-2.4.2-3.4-.5s-1.7-1.8-1.8-3c-1-10.3-9.6-18.1-20.1-18.1-11.1 0-20.1 9-20.1 20.1 0 1.3.1 2.6.4 3.9.2 1.2-.1 2.4-.8 3.3-.8.9-1.9 1.5-3.1 1.5H19c-6 0-10.9 4.9-10.9 10.9S13 65.5 19 65.5h9.2v8H19C8.5 73.5 0 65 0 54.6c0-10.5 8.5-19 19-19v-.7C19 19.4 31.6 6.8 47.2 6.8c13.1 0 24.1 8.8 27.3 21 .9-.1 1.7-.1 2.6-.1 12.7 0 23 10.3 23 23 0 6.4-2.8 12.6-7.5 17-3.5 3.6-8.6 5.9-13.9 5.9z"/><path d="M65.8 93.2H36.4c-3.1 0-5.7-2.5-5.7-5.7V70.2c0-3.1 2.5-5.7 5.7-5.7h29.4c3.1 0 5.7 2.5 5.7 5.7v17.4c-.1 3.1-2.6 5.6-5.7 5.6zm-27-8h24.6V72.6H38.8v12.6z"/><path d="M61.6 72.2c-2.2 0-4-1.8-4-4v-4.5c0-3.6-2.9-6.5-6.5-6.5s-6.5 2.9-6.5 6.5v4.5c0 2.2-1.8 4-4 4s-4-1.8-4-4v-4.5c0-8 6.5-14.5 14.5-14.5s14.5 6.5 14.5 14.5v4.5c0 2.2-1.8 4-4 4zM51.1 73.3c-1.9 0-3.4 1.5-3.4 3.4 0 1.3.7 2.4 1.8 3v3.8h3.3v-3.8c1.1-.6 1.8-1.7 1.8-3-.1-1.9-1.6-3.4-3.5-3.4z"/></svg>