<svg xmlns="http://www.w3.org/2000/svg" viewBox="0 0 100 100"><path d="M95.8 99.2H4.2C1.9 99.2 0 97.3 0 95V5C0 2.7 1.9.8 4.2.8h91.6C98.1.8 100 2.7 100 5v90c0 2.3-1.9 4.2-4.2 4.2zM8.4 90.8h83.1V9.2H8.4v81.6z"/><path d="M82.1 69.8H17.9c-1.2 0-2.1-.9-2.1-2.1v-49c0-1.2.9-2.1 2.1-2.1h64.2c1.2 0 2.1.9 2.1 2.1v49c0 1.1-.9 2.1-2.1 2.1zM20 65.6h60V20.8H20v44.8zM28.7 82.4c0-1 .8-1.8 1.8-1.8h8.8c1 0 1.8.8 1.8 1.8s-.8 1.8-1.8 1.8h-8.8c-1-.1-1.8-.8-1.8-1.8zM43.8 82.4c0-1 .8-1.8 1.8-1.8h8.8c1 0 1.8.8 1.8 1.8s-.8 1.8-1.8 1.8h-8.8c-1-.1-1.8-.8-1.8-1.8zM59 82.4c0-1 .8-1.8 1.8-1.8h8.8c1 0 1.8.8 1.8 1.8s-.8 1.8-1.8 1.8h-8.8c-1-.1-1.8-.8-1.8-1.8z"/></svg>