<svg xmlns="http://www.w3.org/2000/svg" viewBox="0 0 100 100"><path d="M27.2 54h9.6c.8 0 1.6.2 2.4.3-.5.6-.9 1.2-1.4 1.7-2.1 2.2-4.2 4.3-6.4 6.4-2.9 2.9-5.7 5.8-8.6 8.6-1.2 1.1-1.2 1.1-2.4 0-1.7-1.7-3.3-3.4-5-5-1-1-1.5-1.9-1.3-3.5.3-2.1-.1-4.3-.1-6.5 0-1.8.3-2.1 2.2-2.1 3.6 0 7.3.1 11 .1zM75.4 46.1c-3.2-.2-6.4-.4-9.6-.5-.9 0-1.8.3-2.8.3-.6 0-1.2-.2-1.9-.3.3-.5.5-1.2.9-1.6l4.2-4.2c3.7-3.7 7.4-7.4 11-11.1.8-.8 1.3-.8 2 0 1.8 1.9 3.7 3.8 5.6 5.6.7.7 1.1 1.5 1 2.5v7.1c0 1.7-.4 2-2 2-2.8.1-5.7 0-8.5 0 .1.1.1.2.1.2zM54.2 26.9V16.4c0-1.7.1-1.8 1.8-1.8 2.4 0 4.9-.1 7.3 0 .8 0 1.7.3 2.3.8 1.9 1.7 3.7 3.4 5.5 5.2.8.8.8 1.5 0 2.4C66 28.1 61 33.2 55.9 38.2c-.3.3-.8.4-1.2.6-.1-.4-.4-.8-.4-1.3-.2-3.4-.1-7-.1-10.6zM45.7 73.2V84c0 1.7-.1 1.8-1.7 1.8h-7.3c-1 0-1.8-.2-2.5-1l-5.4-5.4c-.8-.8-.6-1.4.1-2.1l15.8-15.8c.2-.2.6-.3.9-.4.1.4.2.7.2 1.1-.1 3.6-.1 7.3-.1 11zM73.3 54.5h10.5c2.1 0 2.1 0 2.1 2 0 1.8-.1 3.6 0 5.4.1 1.5-.4 2.6-1.3 3.6-1.8 1.9-3.7 3.7-5.5 5.6-.7.7-1.3.5-1.9 0l-3.6-3.6C69.8 63.7 66 59.9 62.2 56c-.3-.3-.6-.7-.8-1.1.5-.1 1-.3 1.5-.3 3.4-.1 6.9-.1 10.4-.1zM45 39L34.4 28.1c-1.7-1.8-3.4-3.5-5.2-5.2-.8-.8-1.1-1.6-.3-2.4 1.9-1.8 3.8-3.6 5.8-5.4.4-.3 1-.5 1.5-.5 2.6-.1 5.3 0 7.9 0 1 0 1.6.3 1.6 1.4v22.6c-.2.3-.5.4-.7.4zM54.2 73V62.8c0-.4.2-.9.3-1.3.4.2.9.2 1.2.5l15.2 15.2c.7.7.7 1.3.1 1.9-1.8 1.9-3.7 3.7-5.6 5.5-.4.3-1 .5-1.5.5-2.7.1-5.5.1-8.2 0-1.5 0-1.5-.1-1.6-1.7.1-3.4.1-6.9.1-10.4zM26.6 45.4H16.1c-1.6 0-1.6-.1-1.7-1.6v-7.1c0-.9.3-1.6 1-2.2l5.4-5.4c.8-.8 1.3-.8 2.1 0 5 5.1 10.1 10.2 15.2 15.3.2.2.3.6.4.9-.3.1-.5.2-.8.2-3.7-.1-7.4-.1-11.1-.1zM51.3 73v13.3c0 2.3 0 2.3 2.4 2.3h5.9c.4 0 .7.2 1.1.3-.2.4-.4.8-.7 1.1-3 3.1-6 6.1-9.1 9.1-1.2 1.1-1.3 1.1-2.5 0-2.2-2.1-4.3-4.3-6.4-6.4l-3.2-3.2c-.1-.1-.3-.4-.2-.5.2-.2.4-.4.6-.4h7.4c1.8 0 1.9-.1 1.9-1.9V60c0-.8 0-1.7.3-2.5.1-.4.8-.9 1.2-1 .3-.1.9.5 1 .9.2.7.3 1.5.3 2.2.1 4.5 0 8.9 0 13.4z"/><path d="M22.3 85.8h-6.2c-1.7 0-2.1-.3-2.1-1.9V70.6c0-.3.2-.7.3-1 .3.1.7.2 1 .4 1.3 1.2 2.6 2.5 3.8 3.8 2.7 2.7 2.7 2.7 5.5-.1 5.9-5.9 11.7-11.8 17.6-17.7.5-.5 1-1.1 1.7-1.5.4-.2 1.2-.3 1.5-.1.3.3.4 1.1.2 1.5-.3.7-.9 1.2-1.4 1.7L25.8 76c-.4.4-.8.9-1.2 1.2-1 .7-.7 1.3.1 2 1.7 1.6 3.4 3.3 5 5 .3.3.4.8.5 1.2-.3.1-.7.3-1 .3-2.3.1-4.6 0-6.9.1zM38.6 11c.2-.2.3-.5.5-.7C42.2 7.2 45.3 4 48.4.9c1.3-1.2 1.3-1.3 2.5-.1 3.2 3.1 6.3 6.3 9.4 9.4.2.2.3.5.4.7-.3.1-.6.3-.9.3H53c-1.5 0-1.5.1-1.6 1.7v28.7c-.1.9-.6 1.8-1.5 1.7-.5 0-1-1-1.3-1.6-.2-.6-.1-1.3-.1-2V14.5c0-3.5.3-3.2-3.2-3.2h-6.2c-.1-.1-.3-.2-.5-.3zM85.5 30.5l-3.6-3.6-2.4-2.4c-.8-.9-1.6-.9-2.4 0-1.5 1.6-3.1 3.1-4.6 4.6-4.9 5-9.9 9.9-14.8 14.9-.5.5-1.1 1.1-1.7 1.5-.3.2-1.1.2-1.2 0-.3-.4-.6-1.1-.4-1.5.4-.7 1-1.3 1.6-1.9 6-6 12.1-12.1 18.1-18.2.5-.5.9-1 1.4-1.4.7-.6.7-1.2 0-1.9l-4.8-4.8c-.7-.8-.6-1.3.4-1.5.4-.1.8-.1 1.1-.1h11.3c1.9 0 2.3.3 2.3 2v13.6c.1.2-.1.4-.3.7zM69.2 85.2c2-2 3.7-3.7 5.3-5.4 2.1-2.1 1.8-1.6.1-3.4L56 57.8c-.5-.5-1.1-1-1.5-1.7-.6-.8-.2-1.5.7-1.6.8-.1 1.3.1 1.9.8l19.5 19.8c1.3 1.3 1.3 1.3 2.7-.1 1.8-1.7 3.5-3.5 5.2-5.2.2-.2.7-.3 1-.3.1 0 .3.5.3.7v13.6c0 .8-.3 1.3-1.1 1.3-4.9.1-9.9.1-15.5.1zM88.8 61.5c-.1-1-.2-1.6-.2-2.1v-4.8c-.1-3.9.5-3.4-3.2-3.4H59.7c-.8 0-1.5 0-2.2-.1-.4-.1-.9-.7-.9-.9.1-.5.5-1.1.9-1.2.7-.2 1.5-.1 2.2-.1h27.5c1.1.1 1.5-.3 1.5-1.4-.1-2.5 0-4.9 0-7.4 0-.4.1-.7.2-1.1.3.1.7.2.9.4l9.6 9.6c.5.5.9 1 .2 1.7L88.8 61.5zM14.7 30.7c-.1-.8-.2-1.3-.2-1.7V16.2c0-.8.1-1.5 1.2-1.5h15c-1.8 1.9-3.3 3.3-4.7 4.8l-1.4 1.4c-.5.6-.5 1.2 0 1.8.5.6 1 1.1 1.6 1.6 5.9 6 11.9 11.9 17.8 17.9.5.5 1.1 1.1 1.5 1.7.2.3.2.8.1 1.1-.1.2-.7.5-.9.4-.7-.3-1.5-.7-2.1-1.2l-12-12c-2.5-2.5-4.9-5-7.4-7.4-1.1-1.1-1.2-1.1-2.3 0-2.1 1.8-4 3.7-6.2 5.9zM10.5 61.2C7.1 57.8 3.8 54.3.4 50.9c-.5-.5-.5-.9 0-1.4 3.4-3.3 6.7-6.7 10.1-10 .1-.1.3-.1.7-.2v7.4c0 2 0 2 2.1 2h27.2c.7 0 1.3-.1 2 0 .5.1.9.6 1.3.9-.4.4-.6 1.1-1.1 1.2-.8.3-1.7.3-2.5.3H14.1c-3.2 0-2.9-.3-2.9 2.8V61c-.2.1-.5.2-.7.2z"/></svg>