<svg xmlns="http://www.w3.org/2000/svg" viewBox="0 0 100 100"><path d="M17.4 44.9c-2.3 0-4.2-1.9-4.2-4.2V17.6c0-2.3 1.9-4.2 4.2-4.2h23.1c2.3 0 4.2 1.9 4.2 4.2 0 2.3-1.9 4.2-4.2 4.2H21.6v18.9c0 2.3-1.9 4.2-4.2 4.2zM82.6 44.9c-2.3 0-4.2-1.9-4.2-4.2V21.8H59.5c-2.3 0-4.2-1.9-4.2-4.2 0-2.3 1.9-4.2 4.2-4.2h23.1c2.3 0 4.2 1.9 4.2 4.2v23.1c0 2.3-1.9 4.2-4.2 4.2zM40.5 86.6H17.4c-2.3 0-4.2-1.9-4.2-4.2V59.3c0-2.3 1.9-4.2 4.2-4.2 2.3 0 4.2 1.9 4.2 4.2v18.9h18.9c2.3 0 4.2 1.9 4.2 4.2 0 2.3-1.9 4.2-4.2 4.2zM82.6 86.6H59.5c-2.3 0-4.2-1.9-4.2-4.2 0-2.3 1.9-4.2 4.2-4.2h18.9V59.3c0-2.3 1.9-4.2 4.2-4.2 2.3 0 4.2 1.9 4.2 4.2v23.1c0 2.3-1.9 4.2-4.2 4.2z"/><path d="M95.8 100H4.2C1.9 100 0 98.1 0 95.8V4.2C0 1.9 1.9 0 4.2 0h91.6c2.3 0 4.2 1.9 4.2 4.2v91.6c0 2.3-1.9 4.2-4.2 4.2zM8.4 91.6h83.2V8.4H8.4v83.2z"/></svg>