<svg xmlns="http://www.w3.org/2000/svg" viewBox="0 0 100 100"><path d="M41.2 9.1c2.7 0 6 4.3 8.8 4.3s6.1-4.3 8.8-4.3c.2 0 .3 0 .5.1 2.9.7 3.9 6.6 6.5 7.9.5.2 1.1.3 1.8.3 1.9 0 4.3-.7 6.2-.7.9 0 1.7.2 2.2.6 2.3 1.8.6 7.7 2.5 9.9 1.8 2.3 7.9 2 9.2 4.6 1.3 2.6-2.7 7.1-2.1 10 .6 2.8 6.2 5.1 6.2 8.1s-5.6 5.3-6.2 8.1c-.7 2.9 3.3 7.4 2.1 10-1.3 2.7-7.3 2.3-9.2 4.6-1.8 2.3-.2 8.1-2.5 10-.6.5-1.4.6-2.2.6-1.9 0-4.3-.7-6.2-.7-.7 0-1.3.1-1.8.3-2.6 1.3-3.6 7.2-6.5 7.9-.2 0-.3.1-.5.1-2.7 0-6-4.3-8.8-4.3s-6.1 4.3-8.8 4.3c-.2 0-.4 0-.5-.1-2.9-.7-3.9-6.6-6.6-7.9-.5-.2-1.1-.3-1.8-.3-1.9 0-4.3.7-6.2.7-.9 0-1.7-.2-2.2-.6-2.3-1.8-.6-7.7-2.5-10-1.8-2.3-7.9-2-9.1-4.6-1.3-2.6 2.7-7.1 2.1-10-.7-2.7-6.3-5-6.3-8s5.6-5.3 6.2-8.1c.7-2.9-3.3-7.4-2.1-10 1.3-2.7 7.3-2.3 9.2-4.6 1.8-2.3.2-8.1 2.5-10 .6-.5 1.4-.6 2.2-.6 1.9 0 4.3.8 6.2.8.7 0 1.3-.1 1.8-.3 2.6-1.3 3.6-7.2 6.6-7.9.1-.2.3-.2.5-.2m0-8.1c-.8 0-1.6.1-2.3.3C34 2.4 31.7 6.4 30.2 9c-1.2-.2-2.6-.4-4.1-.4-2.8 0-5.3.8-7.3 2.4-3.9 3.1-4.3 7.7-4.5 10.7-2.9.8-7.3 2.2-9.4 6.7-2.2 4.5-.5 8.8.6 11.5C3.3 41.8 0 45 0 50s3.3 8.2 5.6 10.2c-1.2 2.7-2.8 7-.6 11.5 2.2 4.5 6.6 5.9 9.4 6.7.2 3 .6 7.6 4.5 10.7 2 1.6 4.4 2.4 7.3 2.4 1.5 0 2.9-.2 4.1-.4 1.4 2.6 3.8 6.6 8.7 7.7.7.2 1.5.3 2.3.3 3.8 0 6.7-2 8.8-3.5 2.1 1.5 5 3.5 8.8 3.5.8 0 1.6-.1 2.3-.3 4.9-1.1 7.2-5.1 8.7-7.7 1.2.2 2.6.4 4.1.4 2.8 0 5.3-.8 7.3-2.4 3.9-3.1 4.3-7.7 4.4-10.7 2.9-.8 7.3-2.2 9.4-6.7 2.2-4.5.5-8.8-.6-11.5 2.2-2 5.6-5.2 5.6-10.2 0-5-3.3-8.2-5.6-10.2 1.1-2.7 2.8-7 .6-11.5-2.2-4.5-6.6-5.9-9.4-6.7-.2-3-.6-7.6-4.4-10.7-2-1.6-4.4-2.4-7.3-2.4-1.5 0-2.9.2-4.1.4-1.4-2.6-3.8-6.6-8.7-7.7-.8-.1-1.6-.2-2.4-.2C55 1 52.1 3 50 4.5 47.9 2.9 45 1 41.2 1z"/><path d="M69.6 71.2h-39c-1 0-1.8-.8-1.8-1.8V31c0-1 .8-1.8 1.8-1.8h39c1 0 1.8.8 1.8 1.8v38.4c0 1-.8 1.8-1.8 1.8zm-37.2-3.6h35.4V32.8H32.4v34.8z"/><path d="M63.8 58.6H36.4c-.5 0-.9-.4-.9-.9V36.8c0-.5.4-.9.9-.9h27.4c.5 0 .9.4.9.9v20.9c0 .5-.4.9-.9.9zm-26.5-1.8h25.6V37.7H37.3v19.1z"/><g><path d="M41 64c0-.4.3-.8.8-.8h3.7c.4 0 .8.3.8.8 0 .4-.3.8-.8.8h-3.7c-.4 0-.8-.4-.8-.8zM47.5 64c0-.4.3-.8.8-.8H52c.4 0 .8.3.8.8 0 .4-.3.8-.8.8h-3.7c-.5 0-.8-.4-.8-.8zM54 64c0-.4.3-.8.8-.8h3.7c.4 0 .8.3.8.8 0 .4-.3.8-.8.8h-3.7c-.5 0-.8-.4-.8-.8z"/></g></svg>