<svg xmlns="http://www.w3.org/2000/svg" viewBox="0 0 100 100"><path d="M21.1 39.1c-9.6 0-17.8-2.5-21-5.9l-.1.1v5.5c2.9 3.8 11.4 6.5 21.5 6.5 10 0 18.4-2.7 21.4-6.4v-5.8c-.1-.1-.2-.3-.4-.4-2.9 3.7-11.4 6.4-21.4 6.4zM42.5 19.9c-1 1.3-2.8 2.5-5 3.5-4.1 1.8-9.9 2.9-16.4 2.9-6.5 0-12.3-1.1-16.4-2.9-2-.9-3.6-1.9-4.6-3 0 0 0 .1-.1.1V26c.1.1.1.2.2.3 1 1.3 2.7 2.4 4.9 3.3 4.1 1.8 9.9 2.9 16.4 2.9s12.3-1.1 16.4-2.9c1.9-.8 3.4-1.8 4.5-2.9.2-.2.4-.4.5-.6v-5.8c-.1-.1-.3-.2-.4-.4zM5.3 16.8c3.9 1.9 9.7 3 16.1 3 6.5 0 12.3-1.2 16.2-3.1 2-1 3.4-2.1 4.3-3.3.5-.7.8-1.5.8-2.4 0-4.8-9.5-8.8-21.2-8.8C9.7 2.3.1 6.3.1 11.1c0 .7.2 1.4.6 2 .8 1.4 2.4 2.7 4.6 3.7zM78.2 39.1c-9.6 0-17.8-2.5-21-5.9l-.1.1v5.5c2.9 3.8 11.4 6.5 21.5 6.5 10 0 18.4-2.7 21.4-6.4v-5.8c-.1-.1-.2-.3-.4-.4-2.9 3.7-11.4 6.4-21.4 6.4zM99.6 19.9c-1 1.3-2.8 2.5-5 3.5-4.1 1.8-9.9 2.9-16.4 2.9-6.5 0-12.3-1.1-16.4-2.9-2-.9-3.6-1.9-4.6-3 0 0 0 .1-.1.1V26c.1.1.1.2.2.3 1 1.3 2.7 2.4 4.9 3.3 4.1 1.8 9.9 2.9 16.4 2.9s12.3-1.1 16.4-2.9c1.9-.8 3.4-1.8 4.5-2.9.2-.2.4-.4.5-.6v-5.8l-.4-.4zM62.4 16.8c3.9 1.9 9.7 3 16.1 3 6.5 0 12.3-1.2 16.2-3.1 2-1 3.4-2.1 4.3-3.3.5-.7.8-1.5.8-2.4 0-4.8-9.5-8.8-21.2-8.8S57.4 6.1 57.4 11c0 .7.2 1.4.6 2 .6 1.5 2.2 2.8 4.4 3.8zM21.1 91.5c-9.6 0-17.8-2.5-21-5.9l-.1.1v5.5c2.9 3.8 11.4 6.5 21.5 6.5 10 0 18.4-2.7 21.4-6.4v-5.8c-.1-.1-.2-.3-.4-.4-2.9 3.7-11.4 6.4-21.4 6.4zM42.5 72.3c-1 1.3-2.8 2.5-5 3.5-4.1 1.8-9.9 2.9-16.4 2.9-6.5 0-12.3-1.1-16.4-2.9-2-.9-3.6-1.9-4.6-3 0 0 0 .1-.1.1v5.5c.1.1.1.2.2.3 1 1.3 2.7 2.4 4.9 3.3 4.1 1.8 9.9 2.9 16.4 2.9s12.3-1.1 16.4-2.9c1.9-.8 3.4-1.8 4.5-2.9.2-.2.4-.4.5-.6v-5.8l-.4-.4zM5.3 69.2c3.9 1.9 9.7 3 16.1 3 6.5 0 12.3-1.2 16.2-3.1 2-1 3.4-2.1 4.3-3.3.5-.7.8-1.5.8-2.4 0-4.8-9.5-8.8-21.2-8.8S.3 58.5.3 63.4c0 .7.2 1.4.6 2 .6 1.5 2.2 2.7 4.4 3.8zM78.2 91.5c-9.6 0-17.8-2.5-21-5.9l-.1.1v5.5c2.9 3.8 11.4 6.5 21.5 6.5 10 0 18.4-2.7 21.4-6.4v-5.8c-.1-.1-.2-.3-.4-.4-2.9 3.7-11.4 6.4-21.4 6.4zM99.6 72.3c-1 1.3-2.8 2.5-5 3.5-4.1 1.8-9.9 2.9-16.4 2.9-6.5 0-12.3-1.1-16.4-2.9-2-.9-3.6-1.9-4.6-3 0 0 0 .1-.1.1v5.5c.1.1.1.2.2.3 1 1.3 2.7 2.4 4.9 3.3 4.1 1.8 9.9 2.9 16.4 2.9S90.9 83.8 95 82c1.9-.8 3.4-1.8 4.5-2.9.2-.2.4-.4.5-.6v-5.8c-.1-.1-.2-.3-.4-.4zM62.4 69.2c3.9 1.9 9.7 3 16.1 3 6.5 0 12.3-1.2 16.2-3.1 2-1 3.4-2.1 4.3-3.3.5-.7.8-1.5.8-2.4 0-4.8-9.5-8.8-21.2-8.8s-21.2 3.9-21.2 8.8c0 .7.2 1.4.6 2 .6 1.5 2.2 2.7 4.4 3.8z"/></svg>