<svg xmlns="http://www.w3.org/2000/svg" viewBox="0 0 100 100"><path d="M50.5 87.4H4c-.7 0-1.4-.3-1.8-.9-.4-.6-.5-1.3-.3-2l9.5-29.8c.3-.9 1.2-1.6 2.2-1.6h46.5c.7 0 1.4.3 1.8.9.4.6.5 1.3.3 2l-9.5 29.8c-.4.9-1.3 1.6-2.2 1.6zM7.1 82.9h41.7l8.1-25.3H15.1l-8 25.3z"/><path d="M2.3 87.4c-1.3 0-2.3-1-2.3-2.3V44.2c0-2.5 2-4.5 4.5-4.5h15.9c2.5 0 4.5 2 4.5 4.5v1.6h2.6c1.3 0 2.3 1 2.3 2.3 0 1.3-1 2.3-2.3 2.3h-4.8c-1.3 0-2.3-1-2.3-2.3v-3.9H4.5v40.9c0 1.3-1 2.3-2.2 2.3zM33.6 77.2c-.6 0-1.2-.2-1.6-.7l-6.9-6.9c-.9-.9-.9-2.3 0-3.2s2.3-.9 3.2 0l5.3 5.3 5.3-5.3c.9-.9 2.3-.9 3.2 0 .9.9.9 2.3 0 3.2l-6.9 6.9c-.4.5-1 .7-1.6.7z"/><path d="M33.6 75.9c-1.1 0-2.1-.9-2.3-2-.1-1-.2-2-.2-3C31.2 54.4 44.7 41 61.4 41c1.3 0 2.3 1 2.3 2.3 0 1.3-1 2.3-2.3 2.3-14.2 0-25.7 11.4-25.7 25.3 0 .9 0 1.7.1 2.6.1 1.2-.8 2.4-2 2.5-.1-.1-.1-.1-.2-.1zM67.8 46.5c-.3 0-.6-.1-.8-.2-.4-.2-.6-.6-.6-1.1V19.4c0-.5.4-1 .9-1.2l15.4-5.5c.4-.1.9-.1 1.3.1s.6.6.6 1.1v25.8c0 .5-.4 1-.9 1.2l-15.4 5.5c-.2.1-.3.1-.5.1zm1.4-26.2v23l12.7-4.5v-23l-12.7 4.5z"/><path d="M71 25.7c-.3 0-.5-.2-.6-.4-.1-.3 0-.7.4-.8l9.2-3.3c.4-.1.8 0 .9.4.1.3 0 .7-.4.8l-9.2 3.3H71zM71 34.1c-.3 0-.5-.2-.6-.4-.1-.3 0-.7.4-.8l9.2-3.3c.4-.1.8 0 .9.4.1.3 0 .7-.4.8L71.2 34c-.1 0-.1.1-.2.1zM71 38.2c-.3 0-.5-.2-.6-.4-.1-.3 0-.7.4-.8l9.2-3.3c.4-.1.8 0 .9.4.1.3 0 .7-.4.8l-9.2 3.3H71zM71 29.9c-.3 0-.5-.2-.6-.4-.1-.3 0-.7.4-.8l9.2-3.3c.4-.1.8 0 .9.4.1.3 0 .7-.4.8l-9.2 3.3H71zM93 43.8c-.4 0-.7-.3-.7-.7v-7.5c0-.2.1-.4.3-.5.2-.1.4-.1.6-.1l5.7 2c.4.1.5.5.4.8-.1.3-.5.5-.9.4l-4.7-1.7v6.6c-.1.4-.4.7-.7.7z"/><path d="M93 44.5c-.2 0-.3 0-.5-.1l-9.8-3.5c-.5-.2-.9-.7-.9-1.2V13.9c0-.4.2-.8.6-1.1.4-.2.8-.3 1.3-.1l15.4 5.5c.5.2.9.7.9 1.2v18.2c0 .3-.1.7-.4.9L93.9 44c-.2.3-.6.5-.9.5zm-8.4-5.7l8 2.9 4.6-4.5V20.4l-12.7-4.5v22.9h.1z"/><path d="M95.8 25.8h-.2l-9.2-3.3c-.4-.1-.5-.5-.4-.8.1-.3.5-.5.9-.4l9.2 3.3c.4.1.5.5.4.8-.2.2-.5.4-.7.4zM95.8 34.2h-.2l-9.2-3.3c-.4-.1-.5-.5-.4-.8.1-.3.5-.5.9-.4l9.2 3.3c.4.1.5.5.4.8-.2.2-.5.4-.7.4zM95.8 30h-.2l-9.2-3.3c-.4-.1-.5-.5-.4-.8.1-.3.5-.5.9-.4l9.2 3.3c.4.1.5.5.4.8-.2.2-.5.4-.7.4z"/></svg>