<svg xmlns="http://www.w3.org/2000/svg" viewBox="0 0 100 100"><path d="M64 98c-1.1 0-2-.9-2-2V72.5c0-1.1.9-2 2-2h23.5c1.1 0 2 .9 2 2s-.9 2-2 2H66v21.6c0 1.1-.9 1.9-2 1.9z"/><path d="M64 100H23.5c-2.2 0-3.9-1.8-3.9-3.9V15.6c0-2.2 1.8-3.9 3.9-3.9h64.1c2.2 0 3.9 1.8 3.9 3.9v57c0 1-.4 2-1.1 2.8L66.8 98.9c-.8.7-1.7 1.1-2.8 1.1zm-36.6-7.8h35L83.6 71V19.5H27.4v72.7z"/><path d="M59.8 32.4h-23c-1.1 0-2-.9-2-2s.9-2 2-2h23c1.1 0 2 .9 2 2-.1 1.1-1 2-2 2zM75 41.9H36.7c-1.1 0-2-.9-2-2s.9-2 2-2H75c1.1 0 2 .9 2 2-.1 1.1-1 2-2 2zM75 51.4H36.7c-1.1 0-2-.9-2-2s.9-2 2-2H75c1.1 0 2 .9 2 2-.1 1.1-1 2-2 2zM52.7 60.8h-16c-1.1 0-2-.9-2-2s.9-2 2-2h16c1.1 0 2 .9 2 2 0 1.2-.9 2-2 2zM48 18.7H25c-1.1 0-2-.9-2-2s.9-2 2-2h23c1.1 0 2 .9 2 2s-.9 2-2 2z"/><path d="M12.5 90.7c-2.2 0-3.9-1.8-3.9-3.9v-79c0-4.3 3.5-7.8 7.8-7.8h60.1c2.2 0 3.9 1.8 3.9 3.9 0 2.2-1.8 3.9-3.9 3.9H16.4v78.9c0 2.3-1.8 4-3.9 4z"/></svg>