<svg xmlns="http://www.w3.org/2000/svg" viewBox="0 0 100 100"><path d="M94.4 78H62.9c-1.4 0-2.8-.7-3.5-1.9l-8.3-12.6c-1.3-2-.7-4.6 1.2-5.9 2-1.3 4.6-.7 5.9 1.2l7 10.7h29.2c2.3 0 4.2 1.9 4.2 4.2 0 2.4-1.8 4.3-4.2 4.3zM42.3 43.5c-1.4 0-2.8-.7-3.6-2l-6.7-11H4.2c-2.3 0-4.2-1.9-4.2-4.2C0 23.9 1.9 22 4.2 22h30.2c1.5 0 2.9.8 3.6 2l8 13.1c1.2 2 .6 4.6-1.4 5.8-.8.4-1.5.6-2.3.6z"/><path d="M34.4 78H4.2C1.9 78 0 76.1 0 73.7c0-2.3 1.9-4.2 4.2-4.2H32L59.3 24c.8-1.3 2.1-2.1 3.6-2.1h31.5c2.3 0 4.2 1.9 4.2 4.2 0 2.3-1.9 4.2-4.2 4.2H65.3L38.1 75.9c-.8 1.3-2.2 2.1-3.7 2.1z"/><path d="M79.4 47c-1.1 0-2.2-.4-3-1.2-1.7-1.6-1.7-4.3 0-6l13.4-13.4L76.4 13c-1.7-1.7-1.7-4.3 0-6 1.7-1.7 4.3-1.7 6 0l16.4 16.4c1.7 1.7 1.7 4.3 0 6L82.4 45.7c-.8.9-1.9 1.3-3 1.3zM79.4 94.3c-1.1 0-2.2-.4-3-1.2-1.7-1.6-1.7-4.3 0-6l13.4-13.4-13.4-13.5c-1.7-1.7-1.7-4.3 0-6 1.7-1.7 4.3-1.7 6 0l16.4 16.4c1.7 1.7 1.7 4.3 0 6L82.4 93c-.8.9-1.9 1.3-3 1.3z"/></svg>