<svg xmlns="http://www.w3.org/2000/svg" viewBox="0 0 100 100"><path d="M43.9 93.9C19.7 93.9 0 74.2 0 50S19.7 6.1 43.9 6.1 87.7 25.8 87.7 50c0 2.3-1.8 4.1-4.1 4.1s-4.1-1.8-4.1-4.1c0-19.6-16-35.6-35.6-35.6-19.7 0-35.6 16-35.6 35.6s16 35.6 35.6 35.6c9.2 0 17.8-3.5 24.5-9.8 1.4-1.3 2.7-2.8 3.9-4.3 1.4-1.8 4-2.2 5.8-.8 1.8 1.4 2.2 4 .8 5.8-1.4 1.9-3.1 3.7-4.8 5.3-8.3 7.8-19 12.1-30.2 12.1zM83.4 59.7c-1 0-2-.3-2.7-1.1L68.2 47.5c-1.7-1.5-1.8-4.1-.3-5.8 1.5-1.7 4.1-1.8 5.8-.3l9.7 8.7 9.7-8.7c1.7-1.5 4.3-1.4 5.8.3s1.4 4.3-.3 5.8L86.1 58.7c-.7.7-1.7 1-2.7 1z"/></svg>