<svg xmlns="http://www.w3.org/2000/svg" viewBox="0 0 100 100"><path d="M33.7 47.3C23.4 47.3 15 37.9 15 26.4c0-11.5 8.4-20.9 18.7-20.9 10.3 0 18.7 9.4 18.7 20.9 0 11.5-8.4 20.9-18.7 20.9zm0-33.2c-5.6 0-10.1 5.5-10.1 12.3 0 6.8 4.5 12.3 10.1 12.3s10.1-5.5 10.1-12.3c0-6.8-4.6-12.3-10.1-12.3zM61 94.6H5.6c-2.3 0-4.1-1.8-4.3-4L0 72.6C-.4 65.7 4.7 58 11.5 55.5c14.1-5 29.5-5 43.5 0 6.9 2.5 12 10.2 11.5 17.1l-1.2 17.9c-.1 2.3-2 4.1-4.3 4.1zM9.6 85.9H57l1-13.8c.2-2.8-2.4-7.2-5.9-8.4-12-4.3-25.5-4.3-37.6 0-3.5 1.3-6 5.7-5.9 8.4l1 13.8z"/><path d="M61 94.6H5.6c-2.3 0-4.1-1.8-4.3-4L0 72.6C-.4 65.7 4.7 58 11.5 55.5c14.1-5 29.5-5 43.5 0 6.9 2.5 12 10.2 11.5 17.1l-1.2 17.9c-.1 2.3-2 4.1-4.3 4.1zM9.6 85.9H57l1-13.8c.2-2.8-2.4-7.2-5.9-8.4-12-4.3-25.5-4.3-37.6 0-3.5 1.3-6 5.7-5.9 8.4l1 13.8zM94.6 94.6H72.5c-2.4 0-4.3-1.9-4.3-4.3s1.9-4.3 4.3-4.3h18.1l.8-11.4c.2-2.2-2-5.7-4.7-6.7-4.8-1.7-9.9-2.7-15.1-2.7-2.4 0-4.3-2-4.2-4.4 0-2.4 2-4.3 4.4-4.2 6.1.1 12.2 1.2 17.9 3.3 6.2 2.3 10.8 9.2 10.4 15.4L99 90.8c-.2 2-2.1 3.8-4.4 3.8zM77.6 51.8c-8.6 0-15.5-7.7-15.5-17.3s7-17.3 15.5-17.3c8.6 0 15.5 7.7 15.5 17.3s-6.9 17.3-15.5 17.3zm0-25.9c-3.8 0-6.9 3.9-6.9 8.6 0 4.8 3.1 8.6 6.9 8.6 3.8 0 6.9-3.9 6.9-8.6 0-4.7-3.1-8.6-6.9-8.6z"/></svg>