<svg xmlns="http://www.w3.org/2000/svg" viewBox="0 0 100 100"><path d="M14.9 39.7c-.8 0-1.7-.3-2.3-.9L1.7 29.5C.8 28.7.3 27.4.5 26.2c.2-1.2 1-2.3 2.2-2.7l31-12.4c1.2-.5 2.6-.3 3.6.6L48.2 21c.9.8 1.4 2.1 1.2 3.3-.2 1.2-1 2.3-2.2 2.7l-31 12.4c-.4.2-.9.3-1.3.3zm-4.1-11.8l4.8 4.1 23.5-9.4-4.8-4.1-23.5 9.4zM45.2 90.9c-.7 0-1.5-.2-2.1-.7-.9-.7-1.5-1.7-1.5-2.9V52.4c0-2 1.6-3.6 3.6-3.6s3.6 1.6 3.6 3.6v30l30-9.5V57c0-2 1.6-3.6 3.6-3.6S86 55 86 57v18.6c0 1.6-1 2.9-2.5 3.4L46.3 90.7c-.3.2-.7.2-1.1.2z"/><path d="M65.5 64.3c-.8 0-1.7-.3-2.3-.9L52.3 54c-.9-.8-1.4-2.1-1.2-3.3.2-1.2 1-2.3 2.2-2.7l31-12.4c1.2-.5 2.6-.3 3.6.6l10.9 9.4c.9.8 1.4 2.1 1.2 3.3-.2 1.2-1 2.3-2.2 2.7L66.8 64c-.4.2-.9.3-1.3.3zm-4.1-11.8l4.8 4.1 23.5-9.4-4.8-4.1-23.5 9.4zM82.4 39c-.4 0-.9-.1-1.3-.3l-31-12.4c-1.1-.4-1.9-1.4-2.2-2.6-.2-1.2.1-2.4 1-3.2l10.7-10.4c1-1 2.5-1.3 3.8-.8l31 12.4c1.1.4 1.9 1.4 2.2 2.6.2 1.2-.2 2.4-1 3.2L84.9 38c-.7.6-1.6 1-2.5 1zM57.8 21.7l23.8 9.5 5.1-4.9-23.8-9.5-5.1 4.9zM44.6 90.9c-.5 0-.9-.1-1.4-.3L14.6 78.9c-1.3-.5-2.2-1.8-2.2-3.3V58.4c0-2 1.6-3.6 3.6-3.6s3.6 1.6 3.6 3.6v14.8L46 84c1.8.7 2.7 2.8 1.9 4.7-.5 1.4-1.9 2.2-3.3 2.2zM34.6 66.4c-.4 0-.9-.1-1.3-.3l-31-12.4C1.2 53.3.4 52.3.1 51.1c-.2-1.2.1-2.4 1-3.2l10.6-10.3c1-1 2.5-1.3 3.8-.8l31 12.4c1.1.4 1.9 1.4 2.2 2.6.2 1.2-.2 2.4-1 3.2L37.1 65.4c-.7.6-1.6 1-2.5 1zM10 49.1l23.8 9.5 5.1-4.9L15 44.2l-5 4.9z"/></svg>