<svg xmlns="http://www.w3.org/2000/svg" viewBox="0 0 100 100"><path d="M60.3 71.8c-1.1 0-2.1-.4-3-1.2-1.6-1.6-1.6-4.3 0-5.9L71.9 50 57.3 35.4c-1.6-1.6-1.6-4.3 0-5.9 1.6-1.6 4.3-1.6 5.9 0L80.8 47c1.6 1.6 1.6 4.3 0 5.9L63.2 70.5c-.8.9-1.9 1.3-2.9 1.3z"/><path d="M22.2 54.2c-2.3 0-4.2-1.9-4.2-4.2 0-2.3 1.9-4.2 4.2-4.2h50.9c2.3 0 4.2 1.9 4.2 4.2 0 2.3-1.9 4.2-4.2 4.2H22.2z"/><path d="M95.8 100H4.2C1.9 100 0 98.1 0 95.8V4.2C0 1.9 1.9 0 4.2 0h91.6c2.3 0 4.2 1.9 4.2 4.2v91.6c0 2.3-1.9 4.2-4.2 4.2zM8.4 91.6h83.2V8.4H8.4v83.2z"/></svg>