<svg xmlns="http://www.w3.org/2000/svg" viewBox="0 0 100 100"><path d="M82.6 55.7c-.2-1.1-.5-2.1-1-3.1-.6-1.1-1.3-2.2-2.2-3.1-.8-.8-1.7-1.4-2.6-1.9-1.1-.6-2.3-1-3.6-1.2-.5-.1-1.1-.1-1.6-.1s-1.1 0-1.6.1c-1.3.2-2.5.6-3.6 1.2-1 .5-1.9 1.2-2.6 1.9-.9.9-1.7 1.9-2.2 3.1-.5 1-.8 2-1 3.1-.1.6-.2 1.2-.2 1.9s.1 1.3.2 1.9c.2 1.1.5 2.1 1 3.1.6 1.1 1.3 2.2 2.2 3.1.6.6 1.4 1.2 2.1 1.6.2.1.3.2.5.3 1.1.6 2.3 1 3.6 1.2.5.1 1.1.1 1.6.1.6 0 1.1 0 1.6-.1 1.3-.2 2.5-.6 3.6-1.2.2-.1.4-.2.5-.3.8-.5 1.5-1 2.1-1.6.9-.9 1.7-1.9 2.2-3.1.5-1 .8-2 1-3.1.1-.6.2-1.3.2-1.9 0-.6-.1-1.2-.2-1.9zm-13.7-4.6c.2-.1.5-.2.7-.2.6-.2 1.2-.2 1.8-.2.6 0 1.2.1 1.8.2.3.1.5.1.7.2 1.2.4 2.2 1.2 3 2.1.2.2.3.4.4.6.7 1 1.1 2.2 1.1 3.5v.8c-.1 1.3-.5 2.4-1.1 3.5-.1.2-.3.4-.4.6-.8 1-1.8 1.7-2.9 2.1-.2.1-.5.2-.7.2-.6.2-1.2.2-1.8.2-.6 0-1.2-.1-1.8-.2-.3-.1-.5-.1-.7-.2-1.2-.4-2.2-1.2-2.9-2.1-.2-.2-.3-.4-.4-.6-.7-1-1.1-2.2-1.1-3.4v-.4-.4c.1-1.3.5-2.4 1.1-3.4.1-.2.3-.4.4-.6.7-1.1 1.7-1.9 2.8-2.3z"/><path d="M100 8.6v74.7c0 2.3-1.9 4.2-4.2 4.2H59.2v-8.4h32.4V12.8H8.4v66.3h3.1v8.4H4.2c-2.3 0-4.2-1.9-4.2-4.2V8.6c0-2.3 1.9-4.2 4.2-4.2h91.6c2.3 0 4.2 1.9 4.2 4.2z"/><path d="M84.4 22.9c0 1.2-.9 2.1-2.1 2.1H17.7c-1.2 0-2.1-.9-2.1-2.1 0-1.2.9-2.1 2.1-2.1h64.6c1.1.1 2.1 1 2.1 2.1zM68.1 41.5H31.9c-1.2 0-2.1-.9-2.1-2.1 0-1.2.9-2.1 2.1-2.1h36.2c1.2 0 2.1.9 2.1 2.1 0 1.1-.9 2.1-2.1 2.1zM78.6 31.2c0 1.2-.9 2.1-2.1 2.1h-53c-1.2 0-2.1-.9-2.1-2.1 0-1.2.9-2.1 2.1-2.1h53c1.1 0 2.1.9 2.1 2.1zM83.1 56.5l-.5-.7-.9-1.4-.1-1.7v-.9c0-.9-.6-1.6-1.4-1.9l-.8-.3-1.6-.6-1-1.3-.6-.7c-.5-.7-1.4-1-2.2-.7l-.8.2-1.7.5-1.6-.5-.9-.2c-.8-.2-1.7.1-2.2.7l-.5.7-1 1.3-1.6.6-.8.3c-.8.3-1.4 1.1-1.4 1.9v.9l-.1 1.7-1 1.4-.5.7c-.5.7-.5 1.6 0 2.4l.5.7 1 1.4.1 1.7v.9c0 .9.6 1.6 1.4 1.9l.8.3 1.6.6.7.9.4.5.5.7c.5.7 1.4 1 2.2.7l.8-.2 1.6-.5 1.6.5.8.2c.2.1.4.1.6.1.6 0 1.3-.3 1.7-.8l.5-.7.4-.5.7-.9 1.6-.6.8-.3c.8-.3 1.4-1 1.4-1.9v-.9l.1-1.7.9-1.4.5-.7c.5-.8.5-1.7 0-2.4zM78.5 58l-.7 1.1c-.2.3-.3.7-.4 1.1V62l-.4.1-1.2.4c-.4.1-.7.4-.9.7l-.8 1-.3.4-.4-.1-1.2-.4c-.4-.1-.8-.1-1.2 0l-1.2.4-.4.1-.3-.4-.8-1c-.2-.3-.6-.6-.9-.7l-1.4-.4-.4-.1v-1.8c0-.4-.1-.8-.4-1.1l-.7-1-.3-.4.3-.4.7-1.1c.2-.3.4-.7.4-1.1v-1.8l.4-.2 1.2-.4c.4-.1.7-.4.9-.7l.8-1 .3-.4.4.1 1.2.4c.4.1.8.1 1.2 0l1.2-.4.4-.1.3.4.8 1c.2.3.6.5.9.7l1.2.4.4.2v1.8c0 .4.1.8.4 1.1l.7 1.1.3.4-.1.3z"/><path d="M78.5 74.6c-.6 0-1.3-.3-1.7-.8l-3.5-4.7c-.7-.9-.5-2.2.4-2.9.9-.7 2.2-.5 2.9.4l3.5 4.7c.7.9.5 2.2-.4 2.9-.3.2-.8.4-1.2.4zM64.5 74.6c-.4 0-.9-.1-1.3-.4-.9-.7-1.1-2-.4-2.9l3.5-4.7c.7-.9 2-1.1 2.9-.4.9.7 1.1 2 .4 2.9l-3.5 4.7c-.3.5-1 .8-1.6.8zM50.4 95.6H19.5c-1.9 0-3.4-1.5-3.4-3.4V73.9c0-1.9 1.5-3.4 3.4-3.4h30.8c1.9 0 3.4 1.5 3.4 3.4v18.3c.1 1.8-1.5 3.4-3.3 3.4zM19.5 73.9v18.3h30.8V73.9H19.5z"/><path d="M45.9 73.5c-.9 0-1.7-.8-1.7-1.7v-4.7c0-5.1-4.2-9.3-9.3-9.3-5.1 0-9.3 4.2-9.3 9.3v4.7c0 .9-.8 1.7-1.7 1.7-.9 0-1.7-.8-1.7-1.7v-4.7c0-7 5.7-12.7 12.7-12.7 7 0 12.7 5.7 12.7 12.7v4.7c0 .9-.7 1.7-1.7 1.7zM35 77.2c-2 0-3.6 1.6-3.6 3.6 0 1.3.8 2.5 1.9 3.1v4h3.4v-4c1.1-.6 1.9-1.8 1.9-3.1-.1-2-1.7-3.6-3.6-3.6z"/></svg>