<svg xmlns="http://www.w3.org/2000/svg" viewBox="0 0 100 100"><path d="M4.2 26.2C1.9 26.2 0 24.3 0 22V4.4C0 2.1 1.9.2 4.2.2h17.6C24.1.2 26 2.1 26 4.4c0 2.3-1.9 4.2-4.2 4.2H8.4V22c0 2.3-1.9 4.2-4.2 4.2zM95.8 26.2c-2.3 0-4.2-1.9-4.2-4.2V8.6H78.2c-2.3 0-4.2-1.9-4.2-4.2C74 2.1 75.9.2 78.2.2h17.6c2.3 0 4.2 1.9 4.2 4.2V22c0 2.3-1.9 4.2-4.2 4.2zM21.8 99.8H4.2c-2.3 0-4.2-1.9-4.2-4.2V78c0-2.3 1.9-4.2 4.2-4.2s4.2 1.9 4.2 4.2v13.4h13.4c2.3 0 4.2 1.9 4.2 4.2s-1.9 4.2-4.2 4.2zM95.8 99.8H78.2c-2.3 0-4.2-1.9-4.2-4.2s1.9-4.2 4.2-4.2h13.4V78c0-2.3 1.9-4.2 4.2-4.2 2.3 0 4.2 1.9 4.2 4.2v17.6c0 2.3-1.9 4.2-4.2 4.2z"/><g><path d="M79 83.2H21c-2.3 0-4.2-1.9-4.2-4.2V21c0-2.3 1.9-4.2 4.2-4.2h58c2.3 0 4.2 1.9 4.2 4.2v58c0 2.3-1.9 4.2-4.2 4.2zm-53.8-8.4h49.6V25.2H25.2v49.6z"/></g></svg>