<svg xmlns="http://www.w3.org/2000/svg" viewBox="0 0 100 100"><path d="M72.3 41.8H39.7c-1.2 0-2.1-.9-2.1-2.1V21.3c0-1.2.9-2.1 2.1-2.1h32.5c1.2 0 2.1.9 2.1 2.1v18.4c.1 1.2-.9 2.1-2 2.1zm-30.4-4.2h28.3V23.4H41.9v14.2z"/><path d="M90.1 100H17.3c-2.3 0-4.2-1.9-4.2-4.2V4.2C13.1 1.9 15 0 17.3 0h72.8c2.3 0 4.2 1.9 4.2 4.2v91.5c.1 2.4-1.8 4.3-4.2 4.3zm-68.5-8.5h64.3v-83H21.6v83z"/><path d="M24.7 25.6H9.9c-2.3 0-4.2-1.9-4.2-4.2s1.9-4.2 4.2-4.2h14.9c2.3 0 4.2 1.9 4.2 4.2s-1.9 4.2-4.3 4.2zM24.7 44.5H9.9c-2.3 0-4.2-1.9-4.2-4.2 0-2.3 1.9-4.2 4.2-4.2h14.9c2.3 0 4.2 1.9 4.2 4.2 0 2.3-1.9 4.2-4.3 4.2zM24.7 63.5H9.9c-2.3 0-4.2-1.9-4.2-4.2 0-2.3 1.9-4.2 4.2-4.2h14.9c2.3 0 4.2 1.9 4.2 4.2 0 2.3-1.9 4.2-4.3 4.2zM24.7 82.4H9.9c-2.3 0-4.2-1.9-4.2-4.2 0-2.3 1.9-4.2 4.2-4.2h14.9c2.3 0 4.2 1.9 4.2 4.2 0 2.3-1.9 4.2-4.3 4.2z"/><g><path d="M54.1 86.8c-.2 0-.4-.1-.6-.2-.3-.2-.5-.6-.5-1v-22c0-.5.3-.9.7-1l12.4-4.7c.3-.1.7-.1 1 .1.3.2.5.5.5.9v22c0 .5-.3.9-.7 1l-12.4 4.7c-.1.1-.2.2-.4.2zm1.2-22.4V84l10.2-3.9V60.5l-10.2 3.9z"/><path d="M56.7 69c-.2 0-.4-.1-.5-.4-.1-.3 0-.6.3-.7l7.4-2.8c.3-.1.6 0 .7.3.1.3 0 .6-.3.7l-7.4 2.8c-.1.1-.1.1-.2.1zM56.7 76.1c-.2 0-.4-.1-.5-.4-.1-.3 0-.6.3-.7l7.4-2.8c.3-.1.6 0 .7.3.1.3 0 .6-.3.7L56.9 76c-.1.1-.1.1-.2.1zM56.7 79.7c-.2 0-.4-.1-.5-.4-.1-.3 0-.6.3-.7l7.4-2.8c.3-.1.6 0 .7.3.1.3 0 .6-.3.7l-7.4 2.8c-.1.1-.1.1-.2.1zM56.7 72.5c-.2 0-.4-.1-.5-.4-.1-.3 0-.6.3-.7l7.4-2.8c.3-.1.6 0 .7.3.1.3 0 .6-.3.7l-7.4 2.8c-.1.1-.1.1-.2.1z"/><g><path d="M74.5 84.5c-.3 0-.6-.2-.6-.6v-6.4c0-.2.1-.4.2-.5.2-.1.3-.1.5-.1l4.6 1.7c.3.1.4.4.3.7-.1.3-.4.4-.7.3L75 78.3v5.6c0 .3-.2.6-.5.6z"/><path d="M74.5 85c-.1 0-.3 0-.4-.1l-7.9-3c-.4-.2-.7-.6-.7-1v-22c0-.4.2-.7.5-.9.3-.2.7-.3 1-.1l12.4 4.7c.4.2.7.6.7 1v15.6c0 .3-.1.6-.3.8l-4.6 4.7c-.2.2-.4.3-.7.3zm-6.8-4.8l6.5 2.4 3.7-3.9V64.3l-10.2-3.9v19.8z"/><path d="M76.7 69.1h-.2l-7.4-2.8c-.3-.1-.4-.4-.3-.7.1-.3.4-.4.7-.3l7.4 2.8c.3.1.4.4.3.7-.1.1-.3.3-.5.3zM76.7 76.2h-.2l-7.4-2.8c-.3-.1-.4-.4-.3-.7.1-.3.4-.4.7-.3l7.4 2.8c.3.1.4.4.3.7-.1.2-.3.3-.5.3zM76.7 72.6h-.2l-7.4-2.8c-.3-.1-.4-.4-.3-.7.1-.3.4-.4.7-.3l7.4 2.8c.3.1.4.4.3.7-.1.2-.3.3-.5.3z"/></g></g></svg>