<svg xmlns="http://www.w3.org/2000/svg" viewBox="0 0 100 100"><path d="M78.2 100H21.8c-4.2 0-7.7-3.8-7.7-8.4V28.9c0-4.6 3.5-8.4 7.7-8.4h56.3c4.2 0 7.7 3.8 7.7 8.4v62.7c.1 4.6-3.4 8.4-7.6 8.4zm0-8.4v4.2-4.2zM21.8 28.9v62.7h56.3V28.9H21.8z"/><path d="M63.9 38.7c-2.1 0-3.8-1.9-3.8-4.2V8.4H39.9v26.1c0 2.3-1.7 4.2-3.8 4.2-2.1 0-3.8-1.9-3.8-4.2V8.4C32.3 3.8 35.8 0 40 0h20.2c4.2 0 7.7 3.8 7.7 8.4v26.1c-.1 2.3-1.8 4.2-4 4.2zM64.6 51.9h-30c-1.3 0-2.3-1-2.3-2.3 0-1.3 1-2.3 2.3-2.3h30c1.3 0 2.3 1 2.3 2.3 0 1.2-1.1 2.3-2.3 2.3zM64.6 66h-30c-1.3 0-2.3-1-2.3-2.3 0-1.3 1-2.3 2.3-2.3h30c1.3 0 2.3 1 2.3 2.3 0 1.3-1.1 2.3-2.3 2.3zM64.6 80.1h-30c-1.3 0-2.3-1-2.3-2.3 0-1.3 1-2.3 2.3-2.3h30c1.3 0 2.3 1 2.3 2.3 0 1.3-1.1 2.3-2.3 2.3z"/></svg>