<svg xmlns="http://www.w3.org/2000/svg" viewBox="0 0 100 100"><path d="M50.2 61.9c-.7 0-1.3-.2-1.9-.5L2 35.5c-1.3-.7-2-2-2-3.5 0-1.4.8-2.8 2-3.5L47.9 2.9c1.2-.7 2.7-.7 3.9 0L98 28.8c1.3.7 2 2 2 3.5 0 1.4-.8 2.8-2 3.5L52.1 61.4c-.6.3-1.3.5-1.9.5zM12.1 32.1l38.1 21.3L88 32.3 49.8 10.9 12.1 32.1z"/><path d="M50.2 79.8c-.7 0-1.3-.2-1.9-.5L2 53.4C.1 52.3-.6 49.9.5 48c1.1-1.9 3.5-2.6 5.4-1.5l44.3 24.8 43.9-24.6c1.9-1.1 4.3-.4 5.4 1.5 1.1 1.9.4 4.3-1.5 5.4L52.1 79.2c-.6.4-1.3.6-1.9.6z"/><path d="M50.2 97.6c-.7 0-1.3-.2-1.9-.5L2 71.2C.1 70.1-.6 67.7.5 65.8c1.1-1.9 3.5-2.6 5.4-1.5l44.3 24.8 43.9-24.6c1.9-1.1 4.3-.4 5.4 1.5 1.1 1.9.4 4.3-1.5 5.4L52.1 97.1c-.6.3-1.3.5-1.9.5z"/></svg>