<svg xmlns="http://www.w3.org/2000/svg" viewBox="0 0 100 100"><path d="M95.8 100H4.2C1.9 100 0 98.1 0 95.8V4.2C0 1.9 1.9 0 4.2 0h91.6c2.3 0 4.2 1.9 4.2 4.2v91.6c0 2.3-1.9 4.2-4.2 4.2zM8.4 91.6h83.2V8.4H8.4v83.2z"/><path d="M79.2 40.9H63c-2.3 0-4.2-1.9-4.2-4.2 0-2.3 1.9-4.2 4.2-4.2h16.2c2.3 0 4.2 1.9 4.2 4.2 0 2.3-1.8 4.2-4.2 4.2zM35.2 40.9H21.7c-2.3 0-4.2-1.9-4.2-4.2 0-2.3 1.9-4.2 4.2-4.2h13.5c2.3 0 4.2 1.9 4.2 4.2 0 2.3-1.9 4.2-4.2 4.2zM35.2 71.7H21.7c-2.3 0-4.2-1.9-4.2-4.2 0-2.3 1.9-4.2 4.2-4.2h13.5c2.3 0 4.2 1.9 4.2 4.2 0 2.3-1.9 4.2-4.2 4.2z"/><path d="M50.3 47.9h-14c-2.3 0-4.2-1.9-4.2-4.2v-14c0-2.3 1.9-4.2 4.2-4.2h14c2.3 0 4.2 1.9 4.2 4.2v14c0 2.3-1.8 4.2-4.2 4.2zm-9.7-8.4h5.6v-5.6h-5.6v5.6zM79.2 71.7H63c-2.3 0-4.2-1.9-4.2-4.2 0-2.3 1.9-4.2 4.2-4.2h16.2c2.3 0 4.2 1.9 4.2 4.2 0 2.3-1.8 4.2-4.2 4.2zM50.3 78.7h-14c-2.3 0-4.2-1.9-4.2-4.2v-14c0-2.3 1.9-4.2 4.2-4.2h14c2.3 0 4.2 1.9 4.2 4.2v14c0 2.3-1.8 4.2-4.2 4.2zm-9.7-8.4h5.6v-5.6h-5.6v5.6zM19.6 71.7c-2.3 0-4.2-1.9-4.2-4.2V19c0-2.3 1.9-4.2 4.2-4.2 2.3 0 4.2 1.9 4.2 4.2v48.5c0 2.3-1.9 4.2-4.2 4.2z"/></svg>