<svg xmlns="http://www.w3.org/2000/svg" viewBox="0 0 100 100"><path d="M28.6 50c0 3 .7 6 1.8 8.7l8.2-3.7c-.7-1.5-1-3.2-1-5 0-6.8 5.7-12.5 12.5-12.5v-9c-11.8 0-21.5 9.7-21.5 21.5zM54.7 61.7L58 70c6.2-2.3 10.9-7.5 12.9-13.8h-9.7c-1.5 2.5-3.8 4.5-6.5 5.5z"/><path d="M50.2 91.5c-11.5 0-21.9-4.7-29.4-12.2l-6 6c9 9.2 21.6 14.7 35.5 14.7 25.6 0 46.7-19.2 49.8-43.8h-8.5c-3.3 20-20.5 35.3-41.4 35.3zM50.2 8.5c9.4 0 17.9 3 24.9 8.3l5.2-6.8C71.9 3.7 61.4 0 50.2 0 28.9 0 10.7 13.2 3.3 31.8l8 3.2C17.4 19.5 32.6 8.5 50.2 8.5z"/><path d="M81.8 43.8h8.5c-2.2-14.3-12.2-26.3-25.4-31.5l-3 7.8c10 4.1 17.7 12.9 19.9 23.7zM18.1 50H9.5c0 17 10.5 31.7 25.6 37.7l3.2-7.8C26.4 75 18.1 63.5 18.1 50z"/><path d="M50.2 72.5c-12.5 0-22.6-10.2-22.6-22.5s10.2-22.5 22.6-22.5c10.4 0 19.1 6.8 21.7 16.3h8.7C77.8 29.7 65.2 19 50.2 19 33 19 19.1 32.8 19.1 50S33 81 50.2 81c15.1 0 27.6-10.7 30.4-24.7h-8.7c-2.7 9.4-11.4 16.2-21.7 16.2z"/><path d="M35 65.2c3.8 3.8 9.4 6.3 15.2 6.3v-9c-3.5 0-6.5-1.3-8.9-3.7L35 65.2zM58 30l-3.3 8.3c2.7 1 4.8 3 6.4 5.3h9.7C68.9 37.5 64 32.3 58 30zM91.3 43.8h8.5c-1-7.3-3.5-14.2-7.2-20.2l-7.2 4.5c3.1 4.6 5.1 9.9 5.9 15.7zM50.2 18V9.5C33 9.5 18.3 20.2 12.4 35.3l7.9 3C24.9 26.5 36.6 18 50.2 18zM50.2 82v8.5c20.2 0 37.1-14.8 40.1-34.2h-8.7C78.8 71 65.7 82 50.2 82zM0 50.1c.3 10.4 2.2 16.7 4.4 21.6l8.3-3.4c-1.8-4.4-3.8-9-4.1-18.2"/></svg>