<svg xmlns="http://www.w3.org/2000/svg" viewBox="0 0 100 100"><path d="M94.1 33.5c-2.1-1.6-7.4-3.9-9-3.9-.4 0-1.2.8-1.8 1.9-.9 1.6-3.3 3.9-4.2 3.9-.2 0 .3-1.1 1-2.5.8-1.5 1.3-3.2 1.3-4.1 0-4.3-4.6-16.8-8.3-22.6-1.7-2.7-2.6-3.6-4.5-4.6-3.3-1.8-7.3-2-12.5-.7-3.1.8-4.6.9-7.5.7-12-.9-11.5-.9-13.5.1-2.6 1.3-3.4 2.8-4.9 9.3-1.7 7-1.7 9.2-.2 11 1.6 1.9 6.6 4.2 11.7 5.4 6 1.4 10.2 2.6 11.3 3.4.6.4 1.2 1.3 1.5 2.1 1.3 3.4 2 4.8 2.7 5.5.5.4.8 1 .8 1.3 0 3.2-22.9-3.9-28.8-9-2.6-2.2-3.3-3.8-3-6.5l.3-2.2-5.8.2c-4.9.2-6.2.3-8 1.2-6.1 2.9-5.8 7.9.8 14.2 9.7 9.2 29.7 18.3 45.5 20.6 5.5.8 13.3.8 18.4 0 9.9-1.5 16.7-5.5 19.5-11.5 2.6-5.1 1.6-9.9-2.8-13.2zM47.4 15.1c-4.2.5-6.3 1-7 2-.9 1.1-1.9.7-4.1-1.6-1.6-1.6-2.2-2.6-2.2-3.5 0-2.2 1.6-3.4 2.9-2.1 2 1.9 2.6 2.1 7 1.8 4.6-.3 7.2.2 7.7 1.5.3 1.1-.4 1.5-4.3 1.9zM61 8.5c-2-.2-2.1-.7-.3-1.2 1.7-.5 2.7-1.8 1.7-2.4-1-.6-4.4-1-5.9-.7-.9.2-1.3.1-1.1-.2.5-.8 5.2-1.5 7.8-1.3 2.8.3 5 1.2 5.5 2.4.9 2-3.2 3.7-7.7 3.4zM96.3 73.9c-3.8-.5-8.8-.1-11.9 1-1.4.5-1.8.8-2 1.9-.2 1.1-.6 1.5-2.9 2.3-1.9.7-3.5 1.8-5.5 3.9-1.6 1.6-3.3 3-3.8 3.3-1.1.6-3.3 1.1-3.3.8 0-.2 3.5-5.4 7.5-11.1 1.4-2.1 1.9-3.2 2.1-4.9.1-1.2.6-3.6 1.1-5.4.5-1.8.8-3.3.7-3.4-.1-.1-1.1.1-2.1.4-2.3.8-3.8.8-6.4.1-1.6-.4-2.3-.4-3.9.2-1.9.7-2.1.7-3.8 0-1.7-.7-2.1-.7-6.3 0-7.8 1.4-10.3.6-15.5-4.7-3.2-3.3-4.4-4-5-3-.2.2-.7.4-1.3.4-.8 0-1.4-.6-2.5-2.2-.8-1.2-2-2.6-2.7-3.1-3.7-2.7-8-.7-8 3.6 0 1.8 3.6 7.2 5.4 8.2 2.4 1.2 1 3.1-2 2.7-1.6-.2-2.3-.7-4.3-2.9-2.2-2.4-2.7-2.7-4.2-2.7-1 0-2.6.4-3.6.8C9.6 61.3 6.2 62 2.7 62H0c7.4 22.1 28.3 38 52.8 38 19.9 0 37.3-10.4 47.2-26.1-.8.5-1.7.3-3.7 0zm-34.3.5c-.6 0-1.7-.4-2.5-.9s-2-.9-2.6-.9c-1.3 0-1.9-1.1-1.1-2 .7-.8 3-.8 4.4 0 1.5.9 2.8.8 3.8-.2 1.1-1.2 1.5-1.1 1.5.3.1 1.4-2.1 3.7-3.5 3.7z"/></svg>