<svg xmlns="http://www.w3.org/2000/svg" viewBox="0 0 100 100"><path d="M50 95.9c-.6 0-1.3-.1-1.8-.4L2.6 74.8C1 74 0 72.5 0 70.7V29.3c0-1.7 1-3.3 2.6-4.1L48.2 4.5c1.2-.5 2.5-.5 3.7 0l45.5 20.7c1.6.7 2.6 2.3 2.6 4.1v41.4c0 1.7-1 3.3-2.6 4.1L51.8 95.5c-.6.2-1.2.4-1.8.4zM8.9 67.8L50 86.5l41.1-18.7V32.2L50 13.5 8.9 32.2v35.6z"/><path d="M50 55.6c-.6 0-1.3-.1-1.8-.4L2.6 34.5c-2.2-1-3.2-3.7-2.2-5.9s3.6-3.2 5.9-2.2L50 46.2l43.7-19.9c2.3-1 4.9 0 5.9 2.2s0 4.9-2.2 5.9L51.8 55.2c-.6.2-1.2.4-1.8.4z"/><path d="M74.5 43.3c-.3 0-.6-.1-.9-.2L28.1 22.4c-1.1-.5-1.6-1.8-1.1-3 .5-1.1 1.8-1.6 3-1.1L75.5 39c1.1.5 1.6 1.8 1.1 3-.4.8-1.2 1.3-2.1 1.3zM50 94.3c-2.5 0-4.5-2-4.5-4.5V55.5c0-2.5 2-4.5 4.5-4.5s4.5 2 4.5 4.5v34.3c0 2.5-2 4.5-4.5 4.5z"/></svg>