<svg xmlns="http://www.w3.org/2000/svg" viewBox="0 0 100 100"><path d="M50 100C22.4 100 0 77.6 0 50S22.4 0 50 0s50 22.4 50 50-22.4 50-50 50zm0-91.4C27.2 8.6 8.6 27.2 8.6 50S27.2 91.4 50 91.4 91.4 72.8 91.4 50 72.9 8.6 50 8.6z"/><path d="M50 54.3c-2.4 0-4.3-1.9-4.3-4.3V19.1c0-2.4 1.9-4.3 4.3-4.3s4.3 1.9 4.3 4.3V50c0 2.4-1.9 4.3-4.3 4.3zM50 11.4c-2.4 0-4.3-1.9-4.3-4.3V4.3C45.7 1.9 47.6 0 50 0s4.3 1.9 4.3 4.3v2.8c0 2.3-1.9 4.3-4.3 4.3zM50 100c-2.4 0-4.3-1.9-4.3-4.3v-2.8c0-2.4 1.9-4.3 4.3-4.3s4.3 1.9 4.3 4.3v2.8c0 2.4-1.9 4.3-4.3 4.3zM95.7 54.3h-2.8c-2.4 0-4.3-1.9-4.3-4.3s1.9-4.3 4.3-4.3h2.8c2.4 0 4.3 1.9 4.3 4.3s-1.9 4.3-4.3 4.3zM7.1 54.3H4.3C1.9 54.3 0 52.4 0 50s1.9-4.3 4.3-4.3h2.8c2.4 0 4.3 1.9 4.3 4.3s-2 4.3-4.3 4.3zM69.5 18.4c-.4 0-.7-.1-1.1-.3-1-.6-1.4-1.9-.8-2.9l1.3-2.2c.6-1 1.9-1.4 2.9-.8 1 .6 1.4 1.9.8 2.9l-1.3 2.2c-.3.7-1.1 1.1-1.8 1.1zM29.2 88.1c-.4 0-.7-.1-1.1-.3-1-.6-1.4-1.9-.8-2.9l1.3-2.2c.6-1 1.9-1.4 2.9-.8 1 .6 1.4 1.9.8 2.9L31.1 87c-.4.7-1.1 1.1-1.9 1.1zM86 72.9c-.4 0-.7-.1-1.1-.3l-2.2-1.2c-1-.6-1.4-1.9-.8-2.9.6-1 1.9-1.4 2.9-.8l2.2 1.2c1 .6 1.4 1.9.8 2.9-.4.7-1.1 1.1-1.8 1.1zM16.2 32.6c-.4 0-.7-.1-1.1-.3L13 31.1c-1-.6-1.4-1.9-.8-2.9.6-1 1.9-1.4 2.9-.8l2.2 1.3c1 .6 1.4 1.9.8 2.9-.4.7-1.1 1-1.9 1z"/><g><path d="M30.5 18.4c-.7 0-1.5-.4-1.9-1.1l-1.3-2.2c-.6-1-.2-2.3.8-2.9 1-.6 2.3-.2 2.9.8l1.3 2.2c.6 1 .2 2.3-.8 2.9-.3.2-.6.3-1 .3zM70.8 88.1c-.7 0-1.5-.4-1.8-1.1l-1.3-2.2c-.6-1-.3-2.3.8-2.9 1-.6 2.3-.3 2.9.8l1.3 2.2c.6 1 .2 2.3-.8 2.9-.4.2-.8.3-1.1.3zM14.1 72.9c-.7 0-1.5-.4-1.9-1.1-.6-1-.2-2.3.8-2.9l2.2-1.2c1-.6 2.3-.2 2.9.8.6 1 .2 2.3-.8 2.9l-2.2 1.2c-.3.2-.7.3-1 .3zM83.8 32.6c-.7 0-1.5-.4-1.8-1.1-.6-1-.2-2.3.8-2.9l2.2-1.3c1-.6 2.3-.2 2.9.8.6 1 .2 2.3-.8 2.9l-2.2 1.3c-.4.2-.8.3-1.1.3z"/></g><g><path d="M37.1 67.2c-1.1 0-2.2-.4-3-1.3-1.7-1.7-1.7-4.4 0-6.1l12.4-12.4c1.7-1.7 4.4-1.7 6.1 0 1.7 1.7 1.7 4.4 0 6.1L40.1 66c-.8.8-1.9 1.2-3 1.2z"/></g></svg>