<svg xmlns="http://www.w3.org/2000/svg" viewBox="0 0 100 100"><path d="M49.9 56.5c-.4 0-.8-.1-1.1-.3L22.6 41.5c-.7-.4-1.2-1.1-1.2-2s.4-1.6 1.2-2l26-14.6c.7-.4 1.5-.4 2.2 0L77 37.7c.7.4 1.2 1.1 1.2 2s-.4 1.6-1.2 2L51 56.2c-.3.2-.7.3-1.1.3zM28.3 39.6l21.6 12.1 21.4-12-21.6-12.1-21.4 12z"/><path d="M49.9 66.6c-.4 0-.8-.1-1.1-.3L22.6 51.7c-1.1-.6-1.5-2-.9-3.1s2-1.5 3.1-.9l25.1 14.1 24.9-14c1.1-.6 2.5-.2 3.1.9.6 1.1.2 2.5-.9 3.1L51 66.3c-.3.2-.7.3-1.1.3z"/><path d="M49.9 76.8c-.4 0-.8-.1-1.1-.3L22.6 61.8c-1.1-.6-1.5-2-.9-3.1s2-1.5 3.1-.9l25.1 14.1 24.9-14c1.1-.6 2.5-.2 3.1.9.6 1.1.2 2.5-.9 3.1L51 76.5c-.3.2-.7.3-1.1.3z"/><path d="M95.8 100H4.2C1.9 100 0 98.1 0 95.8V4.2C0 1.9 1.9 0 4.2 0h91.6c2.3 0 4.2 1.9 4.2 4.2v91.6c0 2.3-1.9 4.2-4.2 4.2zM8.4 91.6h83.2V8.4H8.4v83.2z"/></svg>