<svg xmlns="http://www.w3.org/2000/svg" viewBox="0 0 100 100"><path d="M24.6 20.4c-1.1 0-2.3-.4-3.1-1.3l-7-7-7 7c-1.7 1.7-4.5 1.7-6.2 0-1.7-1.7-1.7-4.5 0-6.2L11.4 2.8c1.7-1.7 4.5-1.7 6.2 0l10.1 10.1c1.7 1.7 1.7 4.5 0 6.2-.8.9-2 1.3-3.1 1.3z"/><path d="M14.5 42.3c-2.4 0-4.4-2-4.4-4.4V8.7c0-2.4 2-4.4 4.4-4.4 2.4 0 4.4 2 4.4 4.4v29.2c0 2.4-2 4.4-4.4 4.4zM14.5 98.5c-1.1 0-2.3-.4-3.1-1.3L1.3 87.1c-1.7-1.7-1.7-4.5 0-6.2 1.7-1.7 4.5-1.7 6.2 0l7 7 7-7c1.7-1.7 4.5-1.7 6.2 0 1.7 1.7 1.7 4.5 0 6.2L17.6 97.2c-.8.9-2 1.3-3.1 1.3z"/><path d="M14.5 95.8c-2.4 0-4.4-2-4.4-4.4V62.2c0-2.4 2-4.4 4.4-4.4 2.4 0 4.4 2 4.4 4.4v29.2c0 2.4-2 4.4-4.4 4.4zM95.6 10.3H36.1c-2.4 0-4.4-2-4.4-4.4s2-4.4 4.4-4.4h59.5c2.4 0 4.4 2 4.4 4.4s-2 4.4-4.4 4.4zM95.6 98.5H36.1c-2.4 0-4.4-2-4.4-4.4 0-2.4 2-4.4 4.4-4.4h59.5c2.4 0 4.4 2 4.4 4.4 0 2.4-2 4.4-4.4 4.4zM95.6 69.1H36.1c-2.4 0-4.4-2-4.4-4.4s2-4.4 4.4-4.4h59.5c2.4 0 4.4 2 4.4 4.4s-2 4.4-4.4 4.4zM95.6 39.7H36.1c-2.4 0-4.4-2-4.4-4.4 0-2.4 2-4.4 4.4-4.4h59.5c2.4 0 4.4 2 4.4 4.4 0 2.4-2 4.4-4.4 4.4z"/></svg>