<svg xmlns="http://www.w3.org/2000/svg" viewBox="0 0 100 100"><path d="M95.8 98.1H4.2C1.9 98.1 0 96.3 0 94V61.5c0-2.3 1.9-4.2 4.2-4.2h91.7c2.3 0 4.2 1.9 4.2 4.2V94c-.1 2.3-2 4.1-4.3 4.1zM8.3 89.8h83.4V65.7H8.3v24.1zM85.5 51c-1.1 0-2.3-.5-3.1-1.4-1.5-1.7-1.4-4.3.3-5.9 5.2-4.7 8.1-10.8 8.1-17.3s-2.9-12.7-8.1-17.3C81 7.6 80.8 5 82.4 3.3c1.5-1.7 4.2-1.9 5.9-.3 7 6.3 10.9 14.6 10.9 23.5S95.3 43.8 88.3 50c-.8.7-1.8 1-2.8 1z"/><path d="M76 42.9c-1.1 0-2.3-.5-3.1-1.4-1.5-1.7-1.4-4.3.3-5.9 2.8-2.5 4.3-5.8 4.3-9.2s-1.5-6.7-4.3-9.2c-1.7-1.5-1.9-4.2-.3-5.9 1.5-1.7 4.2-1.9 5.9-.3 4.6 4.1 7.1 9.6 7.1 15.4 0 5.9-2.5 11.3-7.1 15.4-.8.8-1.8 1.1-2.8 1.1zM45 51c-1 0-2-.3-2.8-1.1-7-6.3-10.9-14.6-10.9-23.5S35.2 9.1 42.2 2.9c1.7-1.5 4.3-1.4 5.9.3 1.5 1.7 1.4 4.3-.3 5.9-5.2 4.6-8.1 10.8-8.1 17.3s2.9 12.7 8.1 17.3c1.7 1.5 1.9 4.2.3 5.9-.9 1-2 1.4-3.1 1.4z"/><path d="M54.4 42.9c-1 0-2-.3-2.8-1.1-4.6-4.1-7.1-9.6-7.1-15.4 0-5.9 2.5-11.3 7.1-15.4 1.7-1.5 4.3-1.4 5.9.3 1.5 1.7 1.4 4.3-.3 5.9-2.8 2.5-4.3 5.8-4.3 9.2s1.5 6.7 4.3 9.2c1.7 1.5 1.9 4.2.3 5.9-.8 1-2 1.4-3.1 1.4zM19.5 72.8c-2.7 0-4.9 2.2-4.9 4.9s2.2 4.9 4.9 4.9 4.9-2.2 4.9-4.9c.1-2.7-2.1-4.9-4.9-4.9zM35.5 72.8c-2.7 0-4.9 2.2-4.9 4.9s2.2 4.9 4.9 4.9 4.9-2.2 4.9-4.9-2.2-4.9-4.9-4.9zM51.5 72.8c-2.7 0-4.9 2.2-4.9 4.9s2.2 4.9 4.9 4.9 4.9-2.2 4.9-4.9-2.2-4.9-4.9-4.9z"/><g><path d="M65.2 64.4c-2.3 0-4.2-1.9-4.2-4.2V28.4c0-2.3 1.9-4.2 4.2-4.2 2.3 0 4.2 1.9 4.2 4.2v31.9c0 2.3-1.9 4.1-4.2 4.1z"/></g></svg>