<svg xmlns="http://www.w3.org/2000/svg" viewBox="0 0 100 100"><path d="M40.2 82.5c-1 0-2-.4-2.7-1.1-.8-.8-1.2-1.9-1.1-3l.8-14.1c.1-.9.5-1.8 1.1-2.5l41.9-41.9c1.4-1.4 4-1.4 5.5 0l13.2 13.2c1.5 1.5 1.5 3.9 0 5.5L57 80.6c-.7.7-1.6 1.1-2.5 1.1l-14.1.8h-.2zm4.6-16.2l-.5 8.3 8.3-.5 38.2-38.2-7.8-7.8-38.2 38.2z"/><path d="M88.7 44c-.5 0-1-.2-1.4-.6L75.4 31.5c-.8-.8-.8-2 0-2.7.8-.8 2-.8 2.7 0L90 40.7c.8.8.8 2 0 2.7-.3.4-.8.6-1.3.6zM42.4 68.8h-.8c-.3 0-.5.1-.7.2l-.6 9.7 9.3-.6c.1-.4.2-.7.2-1.1.4-4.7-2.8-8.2-7.4-8.2z"/><path d="M62.6 97.3H8.8C4 97.3 0 93.4 0 88.5V16.4c0-2.1 1.7-3.9 3.9-3.9 2.1 0 3.9 1.7 3.9 3.9v72.2c0 .6.5 1.1 1.1 1.1h53.8c.6 0 1.1-.5 1.1-1.1V65.8c0-2.1 1.7-3.9 3.9-3.9 2.1 0 3.9 1.7 3.9 3.9v22.8c-.2 4.8-4.2 8.7-9 8.7zM67.5 41.7c-2.1 0-3.9-1.7-3.9-3.9V27.6c0-.6-.5-1.1-1.1-1.1-2.1 0-3.9-1.7-3.9-3.9s1.7-3.9 3.9-3.9c4.9 0 8.8 3.9 8.8 8.8v10.2c.1 2.3-1.7 4-3.8 4z"/><path d="M61.8 26.5H11.9C5.3 26.5 0 21.2 0 14.6 0 8 5.3 2.7 11.9 2.7h55.6c2.1 0 3.9 1.7 3.9 3.9s-1.7 3.9-3.9 3.9H11.9c-2.3 0-4.2 1.9-4.2 4.2 0 2.3 1.9 4.2 4.2 4.2h49.9c2.1 0 3.9 1.7 3.9 3.9s-1.7 3.7-3.9 3.7zM41.5 40.7H17.8c-1.1 0-1.9-.9-1.9-1.9 0-1.1.9-1.9 1.9-1.9h23.6c1.1 0 1.9.9 1.9 1.9.1 1.1-.8 1.9-1.8 1.9zM41.5 51.3H17.8c-1.1 0-1.9-.9-1.9-1.9 0-1.1.9-1.9 1.9-1.9h23.6c1.1 0 1.9.9 1.9 1.9.1 1.1-.8 1.9-1.8 1.9z"/></svg>