<svg xmlns="http://www.w3.org/2000/svg" viewBox="0 0 100 100"><path d="M50.4 72.5c-12.7 0-23-10.3-23-23s10.3-23 23-23 23 10.3 23 23-10.3 23-23 23zm0-38.4C41.9 34.1 35 41 35 49.5s6.9 15.4 15.4 15.4S65.8 58 65.8 49.5c-.1-8.5-6.9-15.4-15.4-15.4z"/><path d="M35.9 38.8c-1 0-2-.4-2.7-1.1l-5.4-5.4c-1.5-1.5-1.5-3.9 0-5.4 1.5-1.5 3.9-1.5 5.4 0l5.4 5.4c1.5 1.5 1.5 3.9 0 5.4-.7.7-1.7 1.1-2.7 1.1zM70.2 73.1c-1 0-2-.4-2.7-1.1l-6.3-6.3c-1.5-1.5-1.5-3.9 0-5.4 1.5-1.5 3.9-1.5 5.4 0l6.3 6.3c1.5 1.5 1.5 3.9 0 5.4-.7.7-1.7 1.1-2.7 1.1zM64.9 38.8c-1 0-2-.4-2.7-1.1-1.5-1.5-1.5-3.9 0-5.4l5.4-5.4c1.5-1.5 3.9-1.5 5.4 0 1.5 1.5 1.5 3.9 0 5.4l-5.4 5.4c-.8.7-1.8 1.1-2.7 1.1zM30.5 73.1c-1 0-2-.4-2.7-1.1-1.5-1.5-1.5-3.9 0-5.4l6.3-6.3c1.5-1.5 3.9-1.5 5.4 0 1.5 1.5 1.5 3.9 0 5.4L33.2 72c-.7.7-1.7 1.1-2.7 1.1zM50.4 32.8c-2.1 0-3.8-1.7-3.8-3.8v-7.6c0-2.1 1.7-3.8 3.8-3.8 2.1 0 3.8 1.7 3.8 3.8V29c0 2.1-1.7 3.8-3.8 3.8zM50.4 81.3c-2.1 0-3.8-1.7-3.8-3.8v-8.9c0-2.1 1.7-3.8 3.8-3.8 2.1 0 3.8 1.7 3.8 3.8v8.9c0 2.1-1.7 3.8-3.8 3.8zM78.4 53.3h-7.6c-2.1 0-3.8-1.7-3.8-3.8 0-2.1 1.7-3.8 3.8-3.8h7.6c2.1 0 3.8 1.7 3.8 3.8.1 2.1-1.7 3.8-3.8 3.8zM31.3 53.3h-8.9c-2.1 0-3.8-1.7-3.8-3.8 0-2.1 1.7-3.8 3.8-3.8h8.9c2.1 0 3.8 1.7 3.8 3.8 0 2.1-1.7 3.8-3.8 3.8z"/><path d="M95.8 100H4.2C1.9 100 0 98.1 0 95.8V4.2C0 1.9 1.9 0 4.2 0h91.6c2.3 0 4.2 1.9 4.2 4.2v91.6c0 2.3-1.9 4.2-4.2 4.2zM8.4 91.6h83.2V8.4H8.4v83.2z"/></svg>