<svg xmlns="http://www.w3.org/2000/svg" viewBox="0 0 100 100"><path d="M76.6 80.8H23.4c-2.3 0-4.2-1.9-4.2-4.2V23.4c0-2.3 1.9-4.2 4.2-4.2h53.2c2.3 0 4.2 1.9 4.2 4.2v53.2c0 2.3-1.9 4.2-4.2 4.2zm-49-8.4h44.7V27.6H27.6v44.8zM2.1 86.8c-1.2 0-2.1-.9-2.1-2.1V15.3c0-1.2.9-2.1 2.1-2.1 1.2 0 2.1.9 2.1 2.1v69.4c0 1.2-.9 2.1-2.1 2.1zM11.6 82.2c-1.2 0-2.1-.9-2.1-2.1V20c0-1.2.9-2.1 2.1-2.1 1.2 0 2.1.9 2.1 2.1v60c0 1.2-.9 2.2-2.1 2.2zM97.9 86.8c-1.2 0-2.1-.9-2.1-2.1V15.3c0-1.2.9-2.1 2.1-2.1 1.2 0 2.1.9 2.1 2.1v69.4c0 1.2-.9 2.1-2.1 2.1zM88.4 82.2c-1.2 0-2.1-.9-2.1-2.1V20c0-1.2.9-2.1 2.1-2.1 1.2 0 2.1.9 2.1 2.1v60c0 1.2-.9 2.2-2.1 2.2z"/></svg>