<svg xmlns="http://www.w3.org/2000/svg" viewBox="0 0 100 100"><path d="M50.2 61.9c-.7 0-1.3-.2-1.9-.5L2 35.5c-1.3-.7-2-2-2-3.5 0-1.4.8-2.8 2-3.5L47.9 2.9c1.2-.7 2.7-.7 3.9 0L98 28.8c1.3.7 2 2 2 3.5 0 1.4-.8 2.8-2 3.5L52.1 61.4c-.6.3-1.3.5-1.9.5zM12.1 32.1l38.1 21.3L88 32.3 49.8 10.9 12.1 32.1z"/><path d="M50.2 79.8c-.7 0-1.3-.2-1.9-.5L2 53.4C.1 52.3-.6 49.9.5 48c1.1-1.9 3.5-2.6 5.4-1.5l44.3 24.8 43.9-24.6c1.9-1.1 4.3-.4 5.4 1.5 1.1 1.9.4 4.3-1.5 5.4L52.1 79.2c-.6.4-1.3.6-1.9.6z"/><path d="M50.2 97.6c-.7 0-1.3-.2-1.9-.5L2 71.2C.1 70.1-.6 67.7.5 65.8c1.1-1.9 3.5-2.6 5.4-1.5l44.3 24.8 43.9-24.6c1.9-1.1 4.3-.4 5.4 1.5 1.1 1.9.4 4.3-1.5 5.4L52.1 97.1c-.6.3-1.3.5-1.9.5zM49.8 41.6c-5 0-9.1-4.1-9.1-9.1s4.1-9.1 9.1-9.1 9.1 4.1 9.1 9.1c-.1 5-4.1 9.1-9.1 9.1zm0-15.1c-3.3 0-6.1 2.7-6.1 6.1 0 3.3 2.7 6.1 6.1 6.1 3.3 0 6.1-2.7 6.1-6.1-.1-3.4-2.8-6.1-6.1-6.1z"/><path d="M44.1 28.3c-.4 0-.8-.1-1.1-.4l-2.1-2.1c-.6-.6-.6-1.5 0-2.1.6-.6 1.5-.6 2.1 0l2.1 2.1c.6.6.6 1.5 0 2.1-.3.3-.7.4-1 .4zM57.6 41.9c-.4 0-.8-.1-1.1-.4L54 38.9c-.6-.6-.6-1.5 0-2.1.6-.6 1.5-.6 2.1 0l2.5 2.5c.6.6.6 1.5 0 2.1-.3.3-.6.5-1 .5zM55.5 28.3c-.4 0-.8-.1-1.1-.4-.6-.6-.6-1.5 0-2.1l2.1-2.1c.6-.6 1.5-.6 2.1 0 .6.6.6 1.5 0 2.1l-2.1 2.1c-.3.3-.6.4-1 .4zM41.9 41.9c-.4 0-.8-.1-1.1-.4-.6-.6-.6-1.5 0-2.1l2.5-2.5c.6-.6 1.5-.6 2.1 0 .6.6.6 1.5 0 2.1L43 41.4c-.3.3-.7.5-1.1.5zM49.8 26c-.8 0-1.5-.7-1.5-1.5v-3c0-.8.7-1.5 1.5-1.5s1.5.7 1.5 1.5v3c0 .8-.7 1.5-1.5 1.5zM49.8 45.1c-.8 0-1.5-.7-1.5-1.5v-3.5c0-.8.7-1.5 1.5-1.5s1.5.7 1.5 1.5v3.5c0 .8-.7 1.5-1.5 1.5zM60.8 34h-3c-.8 0-1.5-.7-1.5-1.5S57 31 57.8 31h3c.8 0 1.5.7 1.5 1.5 0 .9-.7 1.5-1.5 1.5zM42.2 34h-3.5c-.8 0-1.5-.7-1.5-1.5s.7-1.5 1.5-1.5h3.5c.8 0 1.5.7 1.5 1.5 0 .9-.6 1.5-1.5 1.5z"/></svg>