<svg xmlns="http://www.w3.org/2000/svg" viewBox="0 0 100 100"><path d="M72.3 41.8H39.7c-1.2 0-2.1-.9-2.1-2.1V21.3c0-1.2.9-2.1 2.1-2.1h32.5c1.2 0 2.1.9 2.1 2.1v18.4c.1 1.2-.9 2.1-2 2.1zm-30.4-4.2h28.3V23.4H41.9v14.2z"/><path d="M90.1 100H17.3c-2.3 0-4.2-1.9-4.2-4.2V4.2C13.1 1.9 15 0 17.3 0h72.8c2.3 0 4.2 1.9 4.2 4.2v91.5c.1 2.4-1.8 4.3-4.2 4.3zm-68.5-8.5h64.3v-83H21.6v83z"/><path d="M24.7 25.6H9.9c-2.3 0-4.2-1.9-4.2-4.2s1.9-4.2 4.2-4.2h14.9c2.3 0 4.2 1.9 4.2 4.2s-1.9 4.2-4.3 4.2zM24.7 44.5H9.9c-2.3 0-4.2-1.9-4.2-4.2 0-2.3 1.9-4.2 4.2-4.2h14.9c2.3 0 4.2 1.9 4.2 4.2 0 2.3-1.9 4.2-4.3 4.2zM24.7 63.5H9.9c-2.3 0-4.2-1.9-4.2-4.2 0-2.3 1.9-4.2 4.2-4.2h14.9c2.3 0 4.2 1.9 4.2 4.2 0 2.3-1.9 4.2-4.3 4.2zM24.7 82.4H9.9c-2.3 0-4.2-1.9-4.2-4.2 0-2.3 1.9-4.2 4.2-4.2h14.9c2.3 0 4.2 1.9 4.2 4.2 0 2.3-1.9 4.2-4.3 4.2z"/><g><path d="M72.7 69.7c-.3 0-.6-.1-.9-.4-.5-.5-.5-1.3 0-1.8l4-4-4-4c-.5-.5-.5-1.3 0-1.8s1.3-.5 1.8 0l4.9 4.9c.5.5.5 1.3 0 1.8l-4.9 4.9c-.2.3-.6.4-.9.4z"/><path d="M76 86.2H54.9c-2.6 0-4.7-2.1-4.7-4.7V66.9c0-2.6 2.1-4.7 4.7-4.7h7.8c.7 0 1.2.5 1.2 1.2s-.5 1.2-1.2 1.2h-7.8c-1.3 0-2.4 1.1-2.4 2.4v14.5c0 1.3 1.1 2.4 2.4 2.4H76c1.3 0 2.4-1.1 2.4-2.4V66.9c0-.7.5-1.2 1.2-1.2s1.2.5 1.2 1.2v14.5c0 2.6-2.2 4.8-4.8 4.8z"/><path d="M56 81.3h-.2c-.7-.1-1.1-.8-1-1.5 2-10.2 10.8-17.5 21.1-17.5.7 0 1.3.6 1.3 1.3 0 .7-.6 1.3-1.3 1.3-9.1 0-16.9 6.5-18.6 15.5-.2.5-.7.9-1.3.9z"/></g></svg>