<svg xmlns="http://www.w3.org/2000/svg" viewBox="0 0 100 100"><path d="M1.3 98.4C.5 97.3-.2 96 0 94.5L12.9 4.2c.3-2.4 2.5-4.2 5-3.9l35.5 3.5c1.1.1 2 .6 2.8 1.3l39 39c.8.8 1.2 1.7 1.3 2.8l3.5 35.5c.2 2.4-1.5 4.7-3.9 5L5.2 99.7c-1.4.2-2.9-.3-3.9-1.3zm20-88.6l-11.4 80 80.5-10.9-2.9-29.5-36.7-36.7-29.5-2.9z"/><path d="M93.8 84.5l-78-78c-.7-.7-.9-1.7-.4-2.6.4-.9 1.3-1.4 2.3-1.3l35.5 3.5c.5.1 1 .3 1.4.7l39 39c.4.4.6.9.7 1.4l3.5 35.5c.1 1-.4 1.9-1.3 2.3-1 .4-2 .2-2.7-.5zM23.5 7.7l69 69-2.8-28.4-37.8-37.8-28.4-2.8z"/><path d="M2.8 97.5c-.7-.7-.9-1.8-.4-2.7l48.2-86c.6-1.1 2-1.5 3.1-.9s1.5 2 .9 3.1L10.4 89.9l78.9-44.2c1.1-.6 2.5-.2 3.1.9.6 1.1.2 2.5-.9 3.1l-86 48.2c-.9.5-2 .3-2.7-.4z"/><path d="M54.9 45.4c-.4-.4-.6-.8-.7-1.4l-3.9-33.9c-.1-1.3.8-2.4 2-2.5 1.3-.2 2.4.8 2.5 2l3.7 32.1 32.1 3.7c1.3.1 2.2 1.3 2 2.5-.1 1.3-1.3 2.2-2.5 2L56.3 46c-.6 0-1-.3-1.4-.6z"/><path d="M91.7 81.9c-.2-.2-.3-.3-.4-.5L67.2 33 18.9 8.9c-1-.5-1.4-1.8-.9-2.8.5-1 1.7-1.4 2.8-.9l49 24.4c.4.2.7.5.9.9l24.4 49c.5 1 .1 2.3-.9 2.8-.9.4-1.9.2-2.5-.4z"/></svg>