<svg xmlns="http://www.w3.org/2000/svg" viewBox="0 0 100 100"><path d="M64.7 77.1H35.6c-1.3 0-2.3-1-2.3-2.3V45.6c0-1.3 1-2.3 2.3-2.3h29.1c1.3 0 2.3 1 2.3 2.3v29.1c0 1.3-1 2.4-2.3 2.4zm-26.8-4.7h24.5V48H37.9v24.4zM24 80.3c-.6 0-1.2-.5-1.2-1.2v-38c0-.6.5-1.2 1.2-1.2.6 0 1.2.5 1.2 1.2v38c-.1.7-.6 1.2-1.2 1.2zM29.2 77.8c-.6 0-1.2-.5-1.2-1.2V43.8c0-.6.5-1.2 1.2-1.2.6 0 1.2.5 1.2 1.2v32.9c-.1.6-.6 1.1-1.2 1.1zM76.4 80.3c-.6 0-1.2-.5-1.2-1.2v-38c0-.6.5-1.2 1.2-1.2.6 0 1.2.5 1.2 1.2v38c-.1.7-.6 1.2-1.2 1.2zM71.2 77.8c-.6 0-1.2-.5-1.2-1.2V43.8c0-.6.5-1.2 1.2-1.2.6 0 1.2.5 1.2 1.2v32.9c-.1.6-.6 1.1-1.2 1.1z"/><path d="M92.5 100h-85c-2.3 0-4.2-1.9-4.2-4.2V24.9c0-2.3 1.9-4.2 4.2-4.2h85c2.3 0 4.2 1.9 4.2 4.2v70.8c0 2.4-1.9 4.3-4.2 4.3zm-80.8-8.5h76.5V29.2H11.7v62.3zM87.1 14.2H12.9c-1.2 0-2.1-.9-2.1-2.1 0-1.2.9-2.1 2.1-2.1h74.2c1.2 0 2.1.9 2.1 2.1 0 1.1-.9 2.1-2.1 2.1zM78.6 4.2H21.4c-1.2 0-2.1-.9-2.1-2.1 0-1.2.9-2.1 2.1-2.1h57.3c1.2 0 2.1.9 2.1 2.1 0 1.2-1 2.1-2.2 2.1z"/></svg>