<svg xmlns="http://www.w3.org/2000/svg" viewBox="0 0 100 100"><path d="M95.8 100H4.2C1.9 100 0 98.1 0 95.8V4.2C0 1.9 1.9 0 4.2 0h91.6c2.3 0 4.2 1.9 4.2 4.2v91.6c0 2.3-1.9 4.2-4.2 4.2zM8.4 91.6h83.2V8.4H8.4v83.2z"/><path d="M94.3 30.8H5.7c-1.2 0-2.1-.9-2.1-2.1s.9-2.1 2.1-2.1h88.6c1.2 0 2.1.9 2.1 2.1s-.9 2.1-2.1 2.1zM19.1 12.4c-2.9 0-5.3 2.4-5.3 5.3s2.4 5.3 5.3 5.3 5.3-2.4 5.3-5.3c0-3-2.4-5.3-5.3-5.3zM33.5 12.4c-2.9 0-5.3 2.4-5.3 5.3s2.4 5.3 5.3 5.3 5.3-2.4 5.3-5.3c0-3-2.4-5.3-5.3-5.3zM47.8 12.4c-2.9 0-5.3 2.4-5.3 5.3s2.4 5.3 5.3 5.3 5.3-2.4 5.3-5.3c0-3-2.3-5.3-5.3-5.3zM75.2 78.5H48.4c-2.3 0-4.2-1.9-4.2-4.2 0-2.3 1.9-4.2 4.2-4.2h26.8c2.3 0 4.2 1.9 4.2 4.2.1 2.4-1.8 4.2-4.2 4.2zM24.8 78.6c-1.1 0-2.2-.4-3-1.2-1.6-1.6-1.6-4.3 0-5.9l12.3-12.3-12.3-12.4c-1.6-1.6-1.6-4.3 0-6 1.6-1.6 4.3-1.6 5.9 0L43 56.1c1.6 1.6 1.6 4.3 0 5.9L27.7 77.3c-.8.8-1.9 1.3-2.9 1.3z"/></svg>