<svg xmlns="http://www.w3.org/2000/svg" viewBox="0 0 100 100"><path d="M100 99.8H0V.2h100v99.6zM3.7 96.1h92.7V3.9H3.7v92.2z"/><path d="M34.3 49.8c0 2.3.5 4.5 1.4 6.6l6.2-2.8c-.5-1.1-.8-2.4-.8-3.8 0-5.2 4.3-9.5 9.5-9.5v-6.8c-9 .1-16.3 7.4-16.3 16.3zM54 58.7l2.5 6.3c4.7-1.8 8.2-5.7 9.8-10.5H59c-1.2 1.9-3 3.4-5 4.2z"/><path d="M50.6 81.3c-8.7 0-16.6-3.5-22.3-9.2l-4.6 4.5c6.8 6.9 16.3 11.1 26.9 11.1C70 87.7 86 73.2 88.4 54.5h-6.5c-2.4 15.2-15.5 26.8-31.3 26.8zM50.6 18.4c7.1 0 13.6 2.3 18.9 6.3l3.9-5.2C67.1 14.7 59.1 12 50.6 12c-16.1 0-29.9 10-35.5 24.1l6.1 2.4c4.6-11.8 16.1-20.1 29.4-20.1z"/><path d="M74.5 45.2H81c-1.6-10.9-9.2-20-19.3-23.9l-2.3 5.9c7.7 3.1 13.5 9.8 15.1 18zM26.3 49.8h-6.5c0 12.9 8 24 19.4 28.5l2.4-5.9c-9-3.6-15.3-12.3-15.3-22.6zM50.6 66.9c-9.5 0-17.1-7.7-17.1-17s7.7-17 17.1-17c7.9 0 14.4 5.2 16.5 12.4h6.6C71.5 34.4 62 26.4 50.6 26.4 37.5 26.4 27 36.8 27 49.8s10.5 23.5 23.6 23.5c11.4 0 20.9-8.1 23.1-18.7h-6.6c-2.1 7.1-8.6 12.3-16.5 12.3z"/><path d="M39.1 61.3c2.9 2.9 7.1 4.8 11.5 4.8v-6.8c-2.7 0-4.9-1-6.7-2.8l-4.8 4.8zM56.6 34.7L54 41c2 .8 3.7 2.3 4.8 4h7.3c-1.3-4.6-5-8.5-9.5-10.3zM81.8 45.2h6.5c-.8-5.6-2.7-10.7-5.4-15.3l-5.4 3.4c2.1 3.4 3.6 7.5 4.3 11.9zM50.6 25.6v-6.4c-13.1 0-24.2 8.1-28.6 19.6l6 2.3c3.5-9.1 12.3-15.5 22.6-15.5zM50.6 74.1v6.4c15.3 0 28.1-11.2 30.4-25.9h-6.6c-2.1 11.2-12 19.5-23.8 19.5zM12.6 49.9c.2 7.9 1.7 12.7 3.4 16.4l6.3-2.6c-1.4-3.3-2.9-6.8-3.1-13.8"/></svg>