<svg xmlns="http://www.w3.org/2000/svg" viewBox="0 0 100 100"><path d="M95.7 96.2H4.3c-2.4 0-4.3-1.9-4.3-4.3V61c0-2.4 1.9-4.3 4.3-4.3h28.3c2.4 0 4.3 1.9 4.3 4.3v6.1H63V61c0-2.4 1.9-4.3 4.3-4.3h28.3c2.4 0 4.3 1.9 4.3 4.3v30.8c.1 2.4-1.8 4.4-4.2 4.4zm-87-8.7h82.6V65.4H71.7v1.8c0 4.8-3.9 8.7-8.7 8.7H37c-4.8 0-8.7-3.9-8.7-8.7v-1.8H8.7v22.1z"/><path d="M90.8 64.7c-2.4 0-4.3-1.9-4.3-4.3V29.9H14.7v30.4c0 2.4-1.9 4.3-4.3 4.3s-4.3-1.9-4.3-4.3V25.6c0-2.4 1.9-4.3 4.3-4.3h80.4c2.4 0 4.3 1.9 4.3 4.3v34.8c0 2.4-1.9 4.3-4.3 4.3zM85.7 16.9H15.4c-1.2 0-2.2-1-2.2-2.2 0-1.2 1-2.2 2.2-2.2h70.3c1.2 0 2.2 1 2.2 2.2 0 1.2-1 2.2-2.2 2.2zM81.5 8.2h-62c-1.2 0-2.2-1-2.2-2.2 0-1.2 1-2.2 2.2-2.2h62c1.2 0 2.2 1 2.2 2.2 0 1.2-.9 2.2-2.2 2.2z"/></svg>