<svg xmlns="http://www.w3.org/2000/svg" viewBox="0 0 100 100"><path d="M43.3 21.9c-7.3 1.3-14 2.4-19.2 7.3-2 1.9-3.9 4.1-5.8 6.1-.9 1-2.5 1.2-3.4.2-.3-.3-.3-1.1-.1-1.4.6-.8 1.2-1.5 2-2.1 1.6-1.1 3.2-2.1 4.9-3 1-.5 1.1-1.1.6-2l-6-11.7c-.7-1.5-1.4-3-2.2-4.4-.4-.8-.4-1.4.1-2.1 2.2-3.3 5.4-5.2 9-6.7C27.1.4 31.2-.6 35.6 0c.4.1.7.1 1.1.2 2.1.3 3 1.4 3.4 3.6 1 5.4 2.3 10.7 3.5 16 .2.9.5 1.2 1.6 1 2.1-.3 4.2-.5 6.4-.6 1-.1 2.1 0 2.6 1.1.3.6-1 2.4-2 2.8-.4.1-.9 0-1.4-.2-2.6-.6-5.3-1.4-7.5-2zm-6.2-4.8c-.2 0-.4 0-.7.1-4 .7-7.8 2.1-11.3 4.2-2 1.2-2.1 1.3-.9 3.4.1.1.1.2.2.4.4.7.9.8 1.5.4 3.9-2.1 8.1-3.8 12.5-4.7.3-.1.8-.3.9-.6.4-.9-1.1-3.1-2.2-3.2z"/><path d="M84.6 28.7H33.2c-.8 0-1.5.7-1.5 1.5v68.3c0 .8.7 1.5 1.5 1.5h51.4c.8 0 1.5-.7 1.5-1.5V30.2c0-.8-.7-1.5-1.5-1.5zM78 51.1c0 .8-.6 1.5-1.5 1.5H44.7c-.8 0-1.5-.6-1.5-1.5 0-.8.6-1.4 1.5-1.4h31.9c.8 0 1.4.6 1.4 1.4zM44.7 61.5h20.7c.8 0 1.5.6 1.5 1.5 0 .8-.6 1.4-1.5 1.4H44.7c-.8 0-1.5-.6-1.5-1.4 0-.9.7-1.5 1.5-1.5zm-1.5-4.6c0-.8.6-1.5 1.5-1.5h20.7c.8 0 1.5.6 1.5 1.5 0 .8-.6 1.4-1.5 1.4H44.7c-.8.1-1.5-.6-1.5-1.4zm1.5 10.8h31.9c.8 0 1.5.6 1.5 1.4 0 .8-.6 1.5-1.5 1.5H44.7c-.8 0-1.5-.6-1.5-1.5 0-.7.7-1.4 1.5-1.4zm-1.5-22.8c0-.8.6-1.4 1.5-1.4h25.8c.8 0 1.5.6 1.5 1.4 0 .8-.6 1.5-1.5 1.5H44.7c-.8-.1-1.5-.7-1.5-1.5zm22.3-7.8h7.2c.8 0 1.4.6 1.4 1.5 0 .8-.6 1.4-1.4 1.4h-7.2c-.8 0-1.4-.6-1.4-1.4-.1-.8.6-1.5 1.4-1.5zm-12.4 0h7.2c.8 0 1.5.6 1.5 1.5 0 .8-.6 1.4-1.5 1.4h-7.2c-.8 0-1.5-.6-1.5-1.4 0-.8.7-1.5 1.5-1.5zm-12.4 0h7.2c.8 0 1.5.6 1.5 1.5 0 .8-.6 1.4-1.5 1.4h-7.2c-.8 0-1.5-.6-1.5-1.4 0-.8.7-1.5 1.5-1.5zm7.2 39.7h-7.2c-.8 0-1.5-.6-1.5-1.5 0-.8.6-1.4 1.5-1.4h7.2c.8 0 1.5.6 1.5 1.4-.1.9-.7 1.5-1.5 1.5zm31.7 21c0 .5-.4.8-.8.8H66.9c-.1 0-.2 0-.3-.1l-3.2-3.2c-.1-.1-.1-.2-.1-.3v-9.2c0-.4.4-.8.8-.8h4.5v-4.9c0-1 .8-1.9 1.9-1.9.7 0 1.3.4 1.6 1l3.2 5.6.2.2h3.3c.5 0 .8.4.8.8v12zm4.1-.6h-1.6c-.4 0-.8-.3-.8-.7v-9c0-.4.4-.8.8-.8h1.6c.5 0 .8.4.8.8v8.9c0 .4-.3.8-.8.8z"/></svg>