<svg xmlns="http://www.w3.org/2000/svg" viewBox="0 0 100 100"><path d="M59.1 72.6c-3.9 0-7.1-3.2-7.1-7.1 0-3.9 3.2-7.1 7.1-7.1 3.9 0 7.1 3.2 7.1 7.1 0 3.9-3.1 7.1-7.1 7.1zm0-11.8c-2.6 0-4.7 2.1-4.7 4.7s2.1 4.7 4.7 4.7 4.7-2.1 4.7-4.7c.1-2.6-2-4.7-4.7-4.7z"/><path d="M54.7 62.2c-.3 0-.6-.1-.8-.3l-1.6-1.6c-.5-.5-.5-1.2 0-1.7s1.2-.5 1.7 0l1.6 1.6c.5.5.5 1.2 0 1.7-.3.2-.6.3-.9.3zM65.2 72.8c-.3 0-.6-.1-.8-.3l-1.9-1.9c-.5-.5-.5-1.2 0-1.7s1.2-.5 1.7 0l1.9 1.9c.5.5.5 1.2 0 1.7-.3.2-.6.3-.9.3zM63.6 62.2c-.3 0-.6-.1-.8-.3-.5-.5-.5-1.2 0-1.7l1.6-1.6c.5-.5 1.2-.5 1.7 0s.5 1.2 0 1.7l-1.6 1.6c-.3.2-.6.3-.9.3zM53.1 72.8c-.3 0-.6-.1-.8-.3-.5-.5-.5-1.2 0-1.7l1.9-1.9c.5-.5 1.2-.5 1.7 0s.5 1.2 0 1.7L54 72.5c-.3.2-.6.3-.9.3z"/><g><path d="M59.2 60.4c-.7 0-1.2-.5-1.2-1.2v-2.3c0-.6.5-1.2 1.2-1.2.6 0 1.2.5 1.2 1.2v2.3c-.1.7-.6 1.2-1.2 1.2zM59.1 75.3c-.7 0-1.2-.5-1.2-1.2v-2.7c0-.6.5-1.2 1.2-1.2s1.2.5 1.2 1.2v2.7c0 .7-.5 1.2-1.2 1.2z"/></g><g><path d="M67.8 66.7h-2.3c-.7 0-1.2-.5-1.2-1.2 0-.6.5-1.2 1.2-1.2h2.3c.6 0 1.2.5 1.2 1.2-.1.7-.6 1.2-1.2 1.2zM53.3 66.7h-2.7c-.7 0-1.2-.5-1.2-1.2 0-.6.5-1.2 1.2-1.2h2.7c.7 0 1.2.5 1.2 1.2s-.6 1.2-1.2 1.2z"/></g><g><path d="M75.6 80.5c-3 0-5.4-2.4-5.4-5.4 0-3 2.4-5.4 5.4-5.4 3 0 5.4 2.4 5.4 5.4 0 3-2.4 5.4-5.4 5.4zm0-8.9c-2 0-3.6 1.6-3.6 3.6s1.6 3.6 3.6 3.6 3.6-1.6 3.6-3.6-1.6-3.6-3.6-3.6z"/><path d="M72.2 72.7c-.2 0-.5-.1-.6-.3l-1.2-1.2c-.3-.3-.3-.9 0-1.3.3-.3.9-.3 1.3 0l1.2 1.2c.3.3.3.9 0 1.3-.2.2-.4.3-.7.3zM80.2 80.7c-.2 0-.5-.1-.6-.3l-1.5-1.5c-.3-.4-.3-.9 0-1.3.3-.3.9-.3 1.3 0l1.5 1.5c.3.4.3.9 0 1.3-.2.2-.4.3-.7.3zM79 72.7c-.2 0-.5-.1-.6-.3-.3-.3-.3-.9 0-1.3l1.2-1.2c.3-.3.9-.3 1.3 0 .3.3.3.9 0 1.3l-1.2 1.2c-.3.2-.5.3-.7.3zM71 80.7c-.2 0-.5-.1-.6-.3-.3-.3-.3-.9 0-1.3l1.5-1.5c.3-.3.9-.3 1.3 0 .3.3.3.9 0 1.3l-1.5 1.5c-.3.2-.5.3-.7.3z"/><g><path d="M75.6 71.3c-.5 0-.9-.4-.9-.9v-1.8c0-.5.4-.9.9-.9s.9.4.9.9v1.8c0 .5-.4.9-.9.9zM75.6 82.6c-.5 0-.9-.4-.9-.9v-2.1c0-.5.4-.9.9-.9s.9.4.9.9v2.1c0 .5-.4.9-.9.9z"/></g><g><path d="M82.2 76.1h-1.8c-.5 0-.9-.4-.9-.9s.4-.9.9-.9h1.8c.5 0 .9.4.9.9s-.5.9-.9.9zM71.1 76.1H69c-.5 0-.9-.4-.9-.9s.4-.9.9-.9h2.1c.5 0 .9.4.9.9s-.4.9-.9.9z"/></g></g><g><path d="M62.6 85.6c-2.2 0-3.9-1.8-3.9-3.9 0-2.2 1.8-3.9 3.9-3.9 2.2 0 3.9 1.8 3.9 3.9 0 2.1-1.8 3.9-3.9 3.9zm0-6.5c-1.4 0-2.6 1.2-2.6 2.6 0 1.4 1.2 2.6 2.6 2.6 1.4 0 2.6-1.2 2.6-2.6 0-1.5-1.2-2.6-2.6-2.6z"/><path d="M60.1 79.9c-.2 0-.3-.1-.5-.2l-.9-.9c-.3-.3-.3-.7 0-.9.3-.3.7-.3.9 0l.9.9c.3.3.3.7 0 .9 0 .1-.2.2-.4.2zM66 85.7c-.2 0-.3-.1-.5-.2l-1.1-1.1c-.3-.3-.3-.7 0-.9.3-.3.7-.3.9 0l1.1 1.1c.3.3.3.7 0 .9-.1.1-.3.2-.4.2zM65.1 79.9c-.2 0-.3-.1-.5-.2-.3-.3-.3-.7 0-.9l.9-.9c.3-.3.7-.3.9 0 .3.3.3.7 0 .9l-.9.9c-.1.1-.3.2-.4.2zM59.2 85.7c-.2 0-.3-.1-.5-.2-.3-.3-.3-.7 0-.9l1.1-1.1c.3-.3.7-.3.9 0 .3.3.3.7 0 .9l-1.1 1.1c0 .1-.2.2-.4.2z"/><g><path d="M62.6 78.9c-.4 0-.7-.3-.7-.7v-1.3c0-.4.3-.7.7-.7.4 0 .7.3.7.7v1.3c-.1.4-.3.7-.7.7zM62.6 87.1c-.4 0-.7-.3-.7-.7v-1.5c0-.4.3-.6.7-.6.4 0 .7.3.7.7v1.5c-.1.3-.4.6-.7.6z"/></g><g><path d="M67.4 82.3h-1.3c-.4 0-.7-.3-.7-.7 0-.4.3-.7.7-.7h1.3c.4 0 .7.3.7.7-.1.4-.4.7-.7.7zM59.3 82.3h-1.5c-.4 0-.7-.3-.7-.7 0-.4.3-.7.7-.7h1.5c.4 0 .7.3.7.7 0 .4-.3.7-.7.7z"/></g></g><g><path d="M72.3 41.8H39.7c-1.2 0-2.1-.9-2.1-2.1V21.3c0-1.2.9-2.1 2.1-2.1h32.5c1.2 0 2.1.9 2.1 2.1v18.4c.1 1.2-.9 2.1-2 2.1zm-30.4-4.2h28.3V23.4H41.9v14.2z"/><path d="M90.1 100H17.3c-2.3 0-4.2-1.9-4.2-4.2V4.2C13.1 1.9 15 0 17.3 0h72.8c2.3 0 4.2 1.9 4.2 4.2v91.5c.1 2.4-1.8 4.3-4.2 4.3zm-68.5-8.5h64.3v-83H21.6v83z"/><path d="M24.7 25.6H9.9c-2.3 0-4.2-1.9-4.2-4.2s1.9-4.2 4.2-4.2h14.9c2.3 0 4.2 1.9 4.2 4.2s-1.9 4.2-4.3 4.2zM24.7 44.5H9.9c-2.3 0-4.2-1.9-4.2-4.2 0-2.3 1.9-4.2 4.2-4.2h14.9c2.3 0 4.2 1.9 4.2 4.2 0 2.3-1.9 4.2-4.3 4.2zM24.7 63.5H9.9c-2.3 0-4.2-1.9-4.2-4.2 0-2.3 1.9-4.2 4.2-4.2h14.9c2.3 0 4.2 1.9 4.2 4.2 0 2.3-1.9 4.2-4.3 4.2zM24.7 82.4H9.9c-2.3 0-4.2-1.9-4.2-4.2 0-2.3 1.9-4.2 4.2-4.2h14.9c2.3 0 4.2 1.9 4.2 4.2 0 2.3-1.9 4.2-4.3 4.2z"/></g></svg>