<svg xmlns="http://www.w3.org/2000/svg" viewBox="0 0 100 100"><path d="M95.8 100H4.2C1.9 100 0 98.1 0 95.8V4.2C0 1.9 1.9 0 4.2 0h91.6c2.3 0 4.2 1.9 4.2 4.2v91.6c0 2.3-1.9 4.2-4.2 4.2zM8.4 91.6h83.2V8.4H8.4v83.2z"/><path d="M71.2 73.4H27.3c-1.1 0-2-.9-2-2V27.5c0-1.1.9-2 2-2h43.9c1.1 0 2 .9 2 2v43.9c0 1.1-.9 2-2 2zm-41.9-4h39.9V29.5H29.3v39.9z"/><path d="M70.5 40.2H28.1c-.6 0-1-.5-1-1s.5-1 1-1h42.5c.6 0 1 .5 1 1s-.5 1-1.1 1zM34.5 31.4c-1.4 0-2.5 1.1-2.5 2.5s1.1 2.5 2.5 2.5 2.5-1.1 2.5-2.5-1.1-2.5-2.5-2.5zM41.4 31.4c-1.4 0-2.5 1.1-2.5 2.5s1.1 2.5 2.5 2.5 2.5-1.1 2.5-2.5-1.1-2.5-2.5-2.5zM48.2 31.4c-1.4 0-2.5 1.1-2.5 2.5s1.1 2.5 2.5 2.5 2.5-1.1 2.5-2.5c.1-1.4-1.1-2.5-2.5-2.5zM61.4 63.1H48.5c-1.1 0-2-.9-2-2s.9-2 2-2h12.9c1.1 0 2 .9 2 2s-.9 2-2 2zM37.2 63.1c-.5 0-1-.2-1.4-.6-.8-.8-.8-2.1 0-2.9l5.9-5.9-5.9-5.9c-.8-.8-.8-2.1 0-2.9.8-.8 2.1-.8 2.9 0l7.3 7.3c.8.8.8 2.1 0 2.9l-7.3 7.3c-.5.5-1 .7-1.5.7z"/></svg>