<svg xmlns="http://www.w3.org/2000/svg" viewBox="0 0 100 100"><path d="M86.1 0H13.9c-1.1 0-2.1.9-2.1 2.1V98c0 1.1.9 2.1 2.1 2.1H86c1.1 0 2.1-.9 2.1-2.1V2.1c0-1.2-.9-2.1-2-2.1zm-9.2 30.4c0 1.1-.9 2-2 2H30c-1.1 0-2-.9-2-2s.9-2 2-2h44.8c1.1 0 2.1.9 2.1 2zM30 45h29.1c1.1 0 2 .9 2 2s-.9 2-2 2H30c-1.1 0-2-.9-2-2s.9-2 2-2zm-2-6.4c0-1.1.9-2 2-2h29.1c1.1 0 2 .9 2 2s-.9 2-2 2H30c-1.1 0-2-.9-2-2zm2 15.1h44.8c1.1 0 2 .9 2 2s-.9 2-2 2H30c-1.1 0-2-.9-2-2s.9-2 2-2zm-2-32c0-1.1.9-2 2-2h36.2c1.1 0 2 .9 2 2s-.9 2-2 2H30c-1.1 0-2-.9-2-2zm31.2-10.9h10.1c1.1 0 2 .9 2 2s-.9 2-2 2H59.2c-1.1 0-2-.9-2-2s.9-2 2-2zm-17.4 0h10.1c1.1 0 2 .9 2 2s-.9 2-2 2H41.8c-1.1 0-2-.9-2-2s.9-2 2-2zm-17.4 0h10.1c1.1 0 2 .9 2 2s-.9 2-2 2H24.4c-1.1 0-2-.9-2-2s.9-2 2-2zm10.1 55.7H24.4c-1.1 0-2-.9-2-2s.9-2 2-2h10.1c1.1 0 2 .9 2 2 .1 1.1-.9 2-2 2zm49.8 22.4l-6.6 6.9c-.3.3-.7.5-1.1.5-.4 0-.8-.1-1.1-.4-.6-.6-.7-1.6-.1-2.3l3.9-4.1-17.1.4c-.9 0-1.6-.7-1.7-1.6 0-.9.7-1.6 1.6-1.7l17.1-.4-4.1-3.9c-.6-.6-.7-1.6-.1-2.3.6-.6 1.6-.7 2.3-.1l6.9 6.6c.7.7.7 1.7.1 2.4z"/></svg>