<svg xmlns="http://www.w3.org/2000/svg" viewBox="0 0 100 100"><path d="M50.4 95.9c-25.7 0-46.6-20.7-46.6-46s20.9-46 46.6-46S97 24.6 97 49.9s-20.9 46-46.6 46zm0-83.6c-21 0-38 16.9-38 37.6 0 20.7 17.1 37.6 38 37.6 21 0 38-16.9 38-37.6.1-20.8-17-37.6-38-37.6z"/><path d="M59.3 43.3c-1.1 0-2.2-.4-3-1.2-1.7-1.7-1.7-4.3 0-6L91.6 1.2C92.8 0 94.7-.4 96.3.3c1.6.7 2.6 2.2 2.6 3.9v13.9c0 2.3-1.9 4.2-4.3 4.2s-4.3-1.9-4.3-4.2v-3.7L62.3 42c-.8.9-1.9 1.3-3 1.3z"/><path d="M94.6 8.5H80.5c-2.4 0-4.3-1.9-4.3-4.2S78.1 0 80.5 0h14.1c2.4 0 4.3 1.9 4.3 4.2S97 8.5 94.6 8.5zM41.6 44.2c-1.1 0-2.2-.4-3-1.2L3.2 8.1c-1.2-1.2-1.5-3-.9-4.6C3 1.9 4.5.9 6.3.9h14.1c2.4 0 4.3 1.9 4.3 4.2s-1.9 4.2-4.3 4.2h-3.8l28 27.6c1.7 1.7 1.7 4.3 0 6-.9.9-2 1.3-3 1.3z"/><path d="M6.3 23.3C3.9 23.3 2 21.4 2 19V5.1C2 2.8 3.9.9 6.3.9s4.3 1.9 4.3 4.2V19c0 2.4-2 4.3-4.3 4.3z"/><g><path d="M19.5 99.1H5.4c-2.4 0-4.3-1.9-4.3-4.2s1.9-4.2 4.3-4.2h14.1c2.4 0 4.3 1.9 4.3 4.2s-1.9 4.2-4.3 4.2z"/><path d="M5.4 99.1c-.6 0-1.1-.1-1.6-.3-1.6-.7-2.6-2.2-2.6-3.9V81c0-2.3 1.9-4.2 4.3-4.2s4.3 1.9 4.3 4.2v3.7l28-27.6c1.7-1.7 4.4-1.7 6.1 0 1.7 1.7 1.7 4.3 0 6L8.4 97.9c-.8.8-1.9 1.2-3 1.2z"/></g><g><path d="M93.7 100H79.6c-2.4 0-4.3-1.9-4.3-4.2s1.9-4.2 4.3-4.2h3.8L55.4 64c-1.7-1.7-1.7-4.3 0-6 1.7-1.7 4.4-1.7 6.1 0l35.3 34.8c1.2 1.2 1.6 3 .9 4.6-.7 1.6-2.2 2.6-4 2.6zM93.7 100c-2.4 0-4.3-1.9-4.3-4.2v-14c0-2.3 1.9-4.2 4.3-4.2s4.3 1.9 4.3 4.2v13.9c0 2.4-1.9 4.3-4.3 4.3z"/></g></svg>