<svg xmlns="http://www.w3.org/2000/svg" viewBox="0 0 100 100"><path d="M88.4 1.3H11.6C5.2 1.3 0 6.5 0 13v74c0 6.4 5.2 11.6 11.6 11.6h76.7c6.4 0 11.6-5.2 11.6-11.6V13c.1-6.5-5.1-11.7-11.5-11.7zM44 63.3c0 8.9-7.1 16.1-15.8 16.1-8.2 0-14.9-6.5-15.6-14.8h-.2l.1-30.6h.1c.2-8.8 7.2-15.8 15.7-15.8 8.6 0 15.5 7.1 15.6 15.9l-.1 27.5c.2.5.2 1.1.2 1.7zm41.1 2.8v23.3h-22v-.1c-1.3 0-2.5-.2-3.7-.5-1.3-.4-2.6-.9-3.7-1.6-4.2-2.6-7.1-7.3-7.1-12.6V50.4h22c8 .2 14.5 6.7 14.5 14.8v.9zm2.2-33.8c-.3 8.2-6.9 14.8-14.9 14.8h-.9L48.2 47l.1-22.2v-.4c.2-8.2 6.8-14.8 14.8-14.8h.9l23.3.1v22.6z"/><path d="M37 33.5v.5c-.3 4.2-4.1 7.6-8.8 7.6-4.7 0-8.5-3.4-8.7-7.6v-.5c0-4.5 4-8.1 8.8-8.1 4.8-.1 8.7 3.6 8.7 8.1z"/></svg>