<svg xmlns="http://www.w3.org/2000/svg" viewBox="0 0 100 100"><path d="M95.8 100H4.2C1.9 100 0 98.1 0 95.8V4.2C0 1.9 1.9 0 4.2 0c2.3 0 4.2 1.9 4.2 4.2v87.4h87.4c2.3 0 4.2 1.9 4.2 4.2 0 2.3-1.9 4.2-4.2 4.2z"/><path d="M34.8 84.8H19.3c-2.1 0-3.9-1.7-3.9-3.9V59.2c0-2.1 1.7-3.9 3.9-3.9h15.5c2.1 0 3.9 1.7 3.9 3.9v21.7c0 2.1-1.8 3.9-3.9 3.9zM23.2 77h7.7V63.1h-7.7V77zM94.6 84.8H79.1c-2.1 0-3.9-1.7-3.9-3.9V4.2c0-2.1 1.7-3.9 3.9-3.9h15.5c2.1 0 3.9 1.7 3.9 3.9v76.7c0 2.1-1.8 3.9-3.9 3.9zM83 77h7.7V8H83v69zM64.7 84.8H49.2c-2.1 0-3.9-1.7-3.9-3.9V32.3c0-2.1 1.7-3.9 3.9-3.9h15.5c2.1 0 3.9 1.7 3.9 3.9v48.6c0 2.1-1.8 3.9-3.9 3.9zM53.1 77h7.7V36.2h-7.7V77z"/></svg>