<svg xmlns="http://www.w3.org/2000/svg" viewBox="0 0 100 100"><path d="M80.7 34.8H20.5c-.8 0-1.4-.6-1.4-1.4 0-.8.6-1.4 1.4-1.4h60.2c.8 0 1.4.6 1.4 1.4 0 .7-.6 1.4-1.4 1.4zM25.5 23.3c-1.4 0-2.6 1.1-2.6 2.6 0 1.4 1.1 2.6 2.6 2.6 1.4 0 2.6-1.1 2.6-2.6 0-1.4-1.2-2.6-2.6-2.6zM32.4 23.3c-1.4 0-2.6 1.1-2.6 2.6 0 1.4 1.1 2.6 2.6 2.6 1.4 0 2.6-1.1 2.6-2.6 0-1.4-1.2-2.6-2.6-2.6zM39.3 23.3c-1.4 0-2.6 1.1-2.6 2.6 0 1.4 1.1 2.6 2.6 2.6 1.4 0 2.6-1.1 2.6-2.6 0-1.4-1.1-2.6-2.6-2.6zM50.4 59.5H37.5c-1.1 0-2-.9-2-2s.9-2 2-2h12.9c1.1 0 2 .9 2 2 .1 1.1-.8 2-2 2zM26.1 59.5c-.5 0-1-.2-1.4-.6-.8-.8-.8-2.1 0-2.9l5.9-5.9-5.9-5.9c-.8-.8-.8-2.1 0-2.9.8-.8 2.1-.8 2.9 0l7.4 7.4c.8.8.8 2.1 0 2.9L27.6 59c-.5.3-1 .5-1.5.5z"/><g><path d="M95.8 99.2H4.2C1.9 99.2 0 97.3 0 95V5C0 2.7 1.9.8 4.2.8h91.6C98.1.8 100 2.7 100 5v90c0 2.3-1.9 4.2-4.2 4.2zM8.4 90.8h83.1V9.2H8.4v81.6z"/><path d="M82.1 69.8H17.9c-1.2 0-2.1-.9-2.1-2.1v-49c0-1.2.9-2.1 2.1-2.1h64.2c1.2 0 2.1.9 2.1 2.1v49c0 1.1-.9 2.1-2.1 2.1zM20 65.6h60V20.8H20v44.8z"/></g></svg>