<svg xmlns="http://www.w3.org/2000/svg" viewBox="0 0 100 100"><path d="M50.4 46.5c-11.4 0-20.7-10.4-20.7-23.2C29.6 10.4 38.9 0 50.4 0c11.4 0 20.7 10.4 20.7 23.2 0 12.9-9.3 23.3-20.7 23.3zm0-37.9c-6.7 0-12.1 6.6-12.1 14.6 0 8.1 5.4 14.6 12.1 14.6 6.7 0 12.1-6.5 12.1-14.6 0-8-5.5-14.6-12.1-14.6zM81.6 100H18.4c-2.3 0-4.2-1.8-4.3-4l-1.4-20.4c-.5-7.5 5.3-16.2 12.7-18.9 15.9-5.7 33.3-5.7 49.1 0 7.5 2.7 13.3 11.4 12.8 18.9L85.9 96c-.1 2.2-2 4-4.3 4zm-59.2-8.6h55.2L78.7 75c.2-3.4-2.9-8.7-7.1-10.2-13.8-5-29.3-5-43.2 0-4.2 1.5-7.3 6.8-7.1 10.2l1.1 16.4z"/></svg>