<svg xmlns="http://www.w3.org/2000/svg" viewBox="0 0 100 100"><path d="M41.2 92.8c-2.3 0-4.2-1.9-4.2-4.2V63H11.4c-2.3 0-4.2-1.9-4.2-4.2 0-2.3 1.9-4.2 4.2-4.2h29.8c2.3 0 4.2 1.9 4.2 4.2v29.8c-.1 2.3-1.9 4.2-4.2 4.2z"/><path d="M4.2 100c-1.1 0-2.1-.4-3-1.2-1.6-1.6-1.6-4.3 0-5.9l37-37c1.6-1.6 4.3-1.6 5.9 0 1.6 1.6 1.6 4.3 0 5.9l-37 37c-.8.8-1.8 1.2-2.9 1.2zM58.8 92.8c-2.3 0-4.2-1.9-4.2-4.2V58.8c0-2.3 1.9-4.2 4.2-4.2h29.8c2.3 0 4.2 1.9 4.2 4.2 0 2.3-1.9 4.2-4.2 4.2H63v25.6c0 2.3-1.9 4.2-4.2 4.2z"/><path d="M95.8 100c-1.1 0-2.1-.4-3-1.2l-37-37c-1.6-1.6-1.6-4.3 0-5.9 1.6-1.6 4.3-1.6 5.9 0l37 37c1.6 1.6 1.6 4.3 0 5.9-.8.8-1.8 1.2-2.9 1.2zM88.6 45.4H58.8c-2.3 0-4.2-1.9-4.2-4.2V11.4c0-2.3 1.9-4.2 4.2-4.2 2.3 0 4.2 1.9 4.2 4.2V37h25.6c2.3 0 4.2 1.9 4.2 4.2 0 2.3-1.9 4.2-4.2 4.2z"/><path d="M58.8 45.4c-1.1 0-2.1-.4-3-1.2-1.6-1.6-1.6-4.3 0-5.9l37-37c1.6-1.6 4.3-1.6 5.9 0 1.6 1.6 1.6 4.3 0 5.9l-37 37c-.7.8-1.8 1.2-2.9 1.2zM41.2 45.4H11.4c-2.3 0-4.2-1.9-4.2-4.2 0-2.3 1.9-4.2 4.2-4.2H37V11.4c0-2.3 1.9-4.2 4.2-4.2 2.3 0 4.2 1.9 4.2 4.2v29.8c-.1 2.3-1.9 4.2-4.2 4.2zM41.2 45.4c-1.1 0-2.1-.4-3-1.2l-37-37c-1.6-1.6-1.6-4.3 0-5.9 1.6-1.6 4.3-1.6 5.9 0l37 37c1.6 1.6 1.6 4.3 0 5.9-.8.8-1.9 1.2-2.9 1.2z"/></svg>