<svg xmlns="http://www.w3.org/2000/svg" viewBox="0 0 100 100"><path d="M74 82.6c-.9 0-1.8-.3-2.5-.8-1.9-1.4-2.3-4.1-.9-6L89.3 50 70.5 24.2c-1.4-1.9-1-4.6.9-6 1.9-1.4 4.6-1 6 .9L98 47.4c1.1 1.5 1.1 3.5 0 5.1L77.5 80.8c-.9 1.2-2.2 1.8-3.5 1.8z"/><path d="M94.6 54.3H41.3c-2.4 0-4.3-1.9-4.3-4.3s1.9-4.3 4.3-4.3h53.3c2.4 0 4.3 1.9 4.3 4.3s-1.9 4.3-4.3 4.3zM5.4 100c-2.4 0-4.3-1.9-4.3-4.3V4.3C1.1 1.9 3 0 5.4 0s4.3 1.9 4.3 4.3v91.4c0 2.4-1.9 4.3-4.3 4.3z"/><path d="M62.9 100H5.4c-2.4 0-4.3-1.9-4.3-4.3s1.9-4.3 4.3-4.3h57.5c2.4 0 4.3 1.9 4.3 4.3-.1 2.4-2 4.3-4.3 4.3zM62.9 8.6H5.4C3 8.6 1.1 6.7 1.1 4.3S3 0 5.4 0h57.5c2.4 0 4.3 1.9 4.3 4.3-.1 2.4-2 4.3-4.3 4.3z"/></svg>