<svg xmlns="http://www.w3.org/2000/svg" viewBox="0 0 100 100"><path d="M85.7 37.4l-65-.2c-1.1 0-2.2-.5-3-1.2-.8-.8-1.2-1.9-1.2-3l.1-21.3c0-2.3 1.9-4.2 4.2-4.2l65 .2c1.2 0 2.3.5 3.1 1.4l9.7 10.7c1.5 1.6 1.5 4.1 0 5.7L88.8 36c-.8.9-1.9 1.4-3.1 1.4zM25 28.8l58.9.2 5.9-6.4-5.9-6.4-58.9-.3v12.9zM79.2 71.1l-65-.2c-1.2 0-2.3-.5-3.1-1.4L1.4 58.9c-1.5-1.6-1.5-4.1 0-5.7l9.8-10.6c.8-.9 1.9-1.4 3.1-1.4l65 .2c2.3 0 4.2 1.9 4.2 4.2l-.1 21.3c0 1.1-.4 2.2-1.2 3-.8.8-1.9 1.2-3 1.2zm-63.1-8.6l58.9.2V49.9l-58.9-.2-5.9 6.4 5.9 6.4z"/><path d="M47 100c-2.3 0-4.2-1.9-4.2-4.2l.1-28.7c0-2.3 1.9-4.2 4.2-4.2 2.3 0 4.2 1.9 4.2 4.2l-.1 28.7c.1 2.3-1.8 4.2-4.2 4.2zM47.3 12.9c-2.3 0-4.2-1.9-4.2-4.2V4.2C43.1 1.9 45 0 47.3 0c2.3 0 4.2 1.9 4.2 4.2v4.5c0 2.3-1.9 4.2-4.2 4.2zM47.2 47.2c-2.3 0-4.2-1.9-4.2-4.2v-7c0-2.3 1.9-4.2 4.2-4.2 2.3 0 4.2 1.9 4.2 4.2v7c0 2.3-1.9 4.2-4.2 4.2z"/></svg>