<svg xmlns="http://www.w3.org/2000/svg" viewBox="0 0 100 100"><path d="M95.8 99.2H4.2C1.9 99.2 0 97.3 0 95V5C0 2.7 1.9.8 4.2.8h91.6C98.1.8 100 2.7 100 5v90c0 2.3-1.9 4.2-4.2 4.2zM8.4 90.8h83.1V9.2H8.4v81.6z"/><path d="M33.4 62.6c-.3 0-.6-.1-.8-.3-.4-.3-.6-.7-.6-1.2V31.6c0-.6.4-1.2 1-1.4l16.7-6.3c.5-.2 1-.1 1.4.2.4.3.6.7.6 1.2v29.5c0 .6-.4 1.2-1 1.4L34 62.5c-.2.1-.4.1-.6.1zm1.5-30V59l13.7-5.2V27.5l-13.7 5.1z"/><path d="M36.9 38.8c-.3 0-.6-.2-.7-.5-.1-.4 0-.8.4-1l9.9-3.8c.4-.1.8 0 1 .4.1.4 0 .8-.4 1l-9.9 3.8c-.2.1-.2.1-.3.1zM36.9 48.4c-.3 0-.6-.2-.7-.5-.1-.4 0-.8.4-1l9.9-3.8c.4-.1.8 0 1 .4.1.4 0 .8-.4 1l-9.9 3.8c-.2 0-.2.1-.3.1zM36.9 53.2c-.3 0-.6-.2-.7-.5-.1-.4 0-.8.4-1l9.9-3.8c.4-.1.8 0 1 .4.1.4 0 .8-.4 1l-9.9 3.8c-.2 0-.2.1-.3.1zM36.9 43.6c-.3 0-.6-.2-.7-.5-.1-.4 0-.8.4-1l9.9-3.8c.4-.1.8 0 1 .4.1.4 0 .8-.4 1l-9.9 3.8c-.2.1-.2.1-.3.1z"/><g><path d="M60.6 59.5c-.4 0-.7-.3-.7-.7v-8.6c0-.2.1-.5.3-.6.2-.1.5-.2.7-.1l6.1 2.3c.4.1.6.6.4 1-.1.4-.6.6-1 .4l-5.1-1.9v7.5c.1.4-.3.7-.7.7z"/><path d="M60.6 60.3c-.2 0-.4 0-.5-.1l-10.5-4c-.6-.2-1-.8-1-1.4V25.3c0-.5.2-.9.6-1.2.4-.3.9-.3 1.4-.2l16.6 6.3c.6.2 1 .8 1 1.4v20.9c0 .4-.2.8-.4 1l-6.1 6.3c-.3.3-.7.5-1.1.5zm-9-6.5l8.7 3.3 5-5.2V32.7l-13.7-5.2v26.3z"/><path d="M63.6 38.9h-.3l-9.9-3.8c-.4-.1-.6-.6-.4-1 .1-.4.6-.6 1-.4l9.9 3.8c.4.1.6.6.4 1-.1.2-.4.4-.7.4zM63.6 48.5h-.3l-9.9-3.8c-.4-.1-.6-.6-.4-1 .1-.4.6-.6 1-.4l9.9 3.8c.4.1.6.6.4 1-.1.2-.4.4-.7.4zM63.6 43.7h-.3l-9.9-3.8c-.4-.1-.6-.6-.4-1 .1-.4.6-.6 1-.4l9.9 3.8c.4.1.6.6.4 1-.1.2-.4.4-.7.4z"/></g><g><path d="M82.1 69.8H17.9c-1.2 0-2.1-.9-2.1-2.1v-49c0-1.2.9-2.1 2.1-2.1h64.2c1.2 0 2.1.9 2.1 2.1v49c0 1.1-.9 2.1-2.1 2.1zM20 65.6h60V20.8H20v44.8z"/></g></svg>