<svg xmlns="http://www.w3.org/2000/svg" viewBox="0 0 100 100"><path d="M4.3 100C1.9 100 0 98.1 0 95.8V58.2C0 55.9 1.9 54 4.3 54s4.3 1.9 4.3 4.2v37.7c-.1 2.2-2 4.1-4.3 4.1zM22.6 100c-2.4 0-4.3-1.9-4.3-4.2V21.7c0-2.3 1.9-4.2 4.3-4.2s4.3 1.9 4.3 4.2v74.1c-.1 2.3-2 4.2-4.3 4.2zM40.8 100c-2.4 0-4.3-1.9-4.3-4.2V4.2c0-2.3 1.9-4.2 4.3-4.2s4.3 1.9 4.3 4.2v91.7c0 2.2-1.9 4.1-4.3 4.1zM59.2 100c-2.4 0-4.3-1.9-4.3-4.2V36.3c0-2.3 1.9-4.2 4.3-4.2s4.3 1.9 4.3 4.2v59.6c-.1 2.2-2 4.1-4.3 4.1zM95.7 100c-2.4 0-4.3-1.9-4.3-4.2V75.2c0-2.3 1.9-4.2 4.3-4.2s4.3 1.9 4.3 4.2v20.7c0 2.2-1.9 4.1-4.3 4.1zM77.4 100c-2.4 0-4.3-1.9-4.3-4.2V4.2C73.1 1.9 75 0 77.4 0s4.3 1.9 4.3 4.2v91.7c0 2.2-1.9 4.1-4.3 4.1z"/></svg>