<svg xmlns="http://www.w3.org/2000/svg" viewBox="0 0 100 100"><path d="M50 1.2c-27.6 0-50 22.4-50 50C0 73.3 14.3 92 34.2 98.6c2.5.5 3.4-1.1 3.4-2.4 0-1.2 0-4.3-.1-8.5-13.9 3-16.8-6.7-16.8-6.7-2.3-5.8-5.6-7.3-5.6-7.3-4.5-3.1.3-3 .3-3 5 .4 7.7 5.2 7.7 5.2 4.5 7.6 11.7 5.4 14.6 4.2.5-3.2 1.7-5.4 3.2-6.7-11.1-1.3-22.8-5.6-22.8-24.7 0-5.5 1.9-9.9 5.1-13.4-.5-1.3-2.2-6.3.5-13.2 0 0 4.2-1.3 13.8 5.1 4-1.1 8.3-1.7 12.5-1.7 4.2 0 8.5.6 12.5 1.7 9.5-6.5 13.7-5.1 13.7-5.1 2.7 6.9 1 12 .5 13.2 3.2 3.5 5.1 8 5.1 13.4 0 19.2-11.7 23.4-22.8 24.7 1.8 1.5 3.4 4.6 3.4 9.3 0 6.7-.1 12.1-.1 13.7 0 1.3.9 2.9 3.4 2.4C85.7 92 100 73.3 100 51.2c0-27.6-22.4-50-50-50z"/></svg>