<svg xmlns="http://www.w3.org/2000/svg" viewBox="0 0 100 100"><path d="M33.4 68.4c-.7 0-1.3-.2-1.8-.7l-6.9-6.6c-1.1-1-1.1-2.7-.1-3.8 1-1.1 2.7-1.1 3.8-.1l6.9 6.6c1.1 1 1.1 2.7.1 3.8-.6.5-1.3.8-2 .8zM44.8 67.4c-.7 0-1.4-.3-1.9-.8-1-1-1-2.7 0-3.8L67.7 38c.4-.4 1-.7 1.6-.8l10.5-1.1c1.5-.2 2.8.9 2.9 2.4.2 1.5-.9 2.8-2.4 2.9l-9.5 1-24.2 24.3c-.5.5-1.2.7-1.8.7zM39 60.9c-.7 0-1.4-.3-1.9-.8L21.4 44.4c-.5-.5-.8-1.2-.8-1.9s.3-1.4.8-1.9L37.1 25c1-1 2.7-1 3.8 0l15.7 15.7c1 1 1 2.7 0 3.8L40.9 60.1c-.5.5-1.2.8-1.9.8zM27 42.5l12 12 11.9-11.9-11.9-12-12 11.9z"/><path d="M42.7 42.5L39 38.8l6-6 3.7 3.8-6 5.9M39.2 78.6c-2.3 0-4.4-.9-6-2.5-1.6-1.6-2.5-3.7-2.5-6s.9-4.4 2.5-6c3.2-3.2 8.8-3.2 12 0 1.6 1.6 2.5 3.7 2.5 6s-.9 4.4-2.5 6c-1.6 1.6-3.7 2.5-6 2.5zm0-11.6c-.8 0-1.6.3-2.2.9-.6.6-.9 1.4-.9 2.2 0 .8.3 1.6.9 2.2 1.2 1.2 3.2 1.2 4.4 0 1.2-1.2 1.2-3.2 0-4.4-.5-.5-1.3-.9-2.2-.9z"/><path d="M95.8 100H4.2C1.9 100 0 98.1 0 95.8V4.2C0 1.9 1.9 0 4.2 0h91.6c2.3 0 4.2 1.9 4.2 4.2v91.6c0 2.3-1.9 4.2-4.2 4.2zM8.4 91.6h83.2V8.4H8.4v83.2z"/></svg>