<svg xmlns="http://www.w3.org/2000/svg" viewBox="0 0 100 100"><path d="M44.6 55.7c-3-2.9-3-7.7-.1-10.7 2.9-3 7.7-3 10.7-.1 3 2.9 3 7.7.1 10.7-2.9 3-7.7 3.1-10.7.1zm7.8-7.8c-1.3-1.3-3.5-1.3-4.9 0-1.3 1.3-1.3 3.5 0 4.9 1.3 1.3 3.5 1.3 4.9 0 1.3-1.4 1.3-3.5 0-4.9zM59.7 100H40.1c-2.1 0-3.8-1.7-3.8-3.8V76.6c0-2.1 1.7-3.8 3.8-3.8h19.6c2.1 0 3.8 1.7 3.8 3.8v19.6c-.1 2.1-1.7 3.8-3.8 3.8zm-15.8-7.6h12v-12h-12v12zM59.8 27.2H40.2c-2.1 0-3.8-1.7-3.8-3.8V3.8c0-2.1 1.7-3.8 3.8-3.8h19.6c2.1 0 3.8 1.7 3.8 3.8v19.6c0 2.1-1.7 3.8-3.8 3.8zM44 19.6h12v-12H44v12zM23.7 100H4.1C2 100 .3 98.3.3 96.2V76.6c0-2.1 1.7-3.8 3.8-3.8h19.6c2.1 0 3.8 1.7 3.8 3.8v19.6c0 2.1-1.7 3.8-3.8 3.8zM7.9 92.4h12v-12h-12v12zM95.9 100H76.3c-2.1 0-3.8-1.7-3.8-3.8V76.6c0-2.1 1.7-3.8 3.8-3.8h19.6c2.1 0 3.8 1.7 3.8 3.8v19.6c0 2.1-1.7 3.8-3.8 3.8zm-15.8-7.6h12v-12h-12v12z"/><path d="M55.8 48.7h32.3v3.2H55.8zM11 48.7h32.4v3.2H11z"/><path d="M85.1 50.9h3v22.8h-3zM11 50.9h3.3v22.9H11zM48.4 54.6h3v22.8h-3zM48.6 23.1h3v22.8h-3z"/></svg>