<svg xmlns="http://www.w3.org/2000/svg" viewBox="0 0 100 100"><path d="M78.7 83.4H19c-10.5 0-19-8.5-19-19s8.5-19 19-19v-.7c0-15.5 12.6-28.2 28.2-28.2 13.1 0 24.1 8.8 27.3 21 .9-.1 1.7-.1 2.6-.1 12.7 0 23 10.3 23 23 0 6.4-2.8 12.7-7.5 17-3.5 3.7-8.6 6-13.9 6zM19 53.5c-6 0-10.9 4.9-10.9 10.9S13 75.3 19 75.3h59.7c3.1 0 6-1.3 8.1-3.6 3.4-3.2 5.2-7.1 5.2-11.3 0-8.2-6.7-14.9-14.9-14.9-1.5 0-3.1.2-4.6.7-1.2.4-2.4.2-3.4-.5s-1.7-1.8-1.8-3c-1-10.3-9.6-18.1-20.1-18.1-11.1 0-20.1 9-20.1 20.1 0 1.3.1 2.6.4 3.9.2 1.2-.1 2.4-.8 3.3-.8.9-1.9 1.5-3.1 1.5H19v.1z"/></svg>