<svg xmlns="http://www.w3.org/2000/svg" viewBox="0 0 100 100"><path d="M95.8 86.2H4.2c-2.3 0-4.2-1.4-4.2-3V16.8c0-1.7 1.9-3 4.2-3h91.6c2.3 0 4.2 1.4 4.2 3v66.4c0 1.7-1.9 3-4.2 3zM8.4 80.1h83.2V19.9H8.4v60.2z"/><path d="M94.3 36.1H5.7c-1.2 0-2.1-.7-2.1-1.5s.9-1.5 2.1-1.5h88.6c1.2 0 2.1.7 2.1 1.5s-.9 1.5-2.1 1.5zM19.1 22.7c-2.9 0-5.3 1.7-5.3 3.8 0 2.1 2.4 3.8 5.3 3.8s5.3-1.7 5.3-3.8c0-2.1-2.4-3.8-5.3-3.8zM33.5 22.7c-2.9 0-5.3 1.7-5.3 3.8 0 2.1 2.4 3.8 5.3 3.8s5.3-1.7 5.3-3.8c0-2.1-2.4-3.8-5.3-3.8zM47.8 22.7c-2.9 0-5.3 1.7-5.3 3.8 0 2.1 2.4 3.8 5.3 3.8s5.3-1.7 5.3-3.8c0-2.1-2.3-3.8-5.3-3.8zM50 48.3H21.3c-1.2 0-2.1-.7-2.1-1.5s.9-1.5 2.1-1.5H50c1.2 0 2.1.7 2.1 1.5 0 .9-.9 1.5-2.1 1.5zM50 58H21.3c-1.2 0-2.1-.7-2.1-1.5s.9-1.5 2.1-1.5H50c1.2 0 2.1.7 2.1 1.5S51.2 58 50 58zM50 67.6H21.3c-1.2 0-2.1-.7-2.1-1.5s.9-1.5 2.1-1.5H50c1.2 0 2.1.7 2.1 1.5 0 .9-.9 1.5-2.1 1.5zM78.7 67.6H60.5c-1.2 0-2.1-.7-2.1-1.5V46.8c0-.8.9-1.5 2.1-1.5h18.2c1.2 0 2.1.7 2.1 1.5v19.3c0 .9-.9 1.5-2.1 1.5zm-16.1-3h14V48.3h-14v16.3z"/></svg>