<svg xmlns="http://www.w3.org/2000/svg" viewBox="0 0 100 100"><path d="M4.2 41.1c-2.3 0-4.2-1.9-4.2-4.2V4.4C0 2.1 1.9.2 4.2.2h32.5c2.3 0 4.2 1.9 4.2 4.2 0 2.3-1.9 4.2-4.2 4.2H8.4v28.3c0 2.3-1.9 4.2-4.2 4.2zM95.8 41.1c-2.3 0-4.2-1.9-4.2-4.2V8.6H63.4c-2.3 0-4.2-1.9-4.2-4.2 0-2.3 1.9-4.2 4.2-4.2h32.5c2.3 0 4.2 1.9 4.2 4.2v32.5c-.1 2.3-2 4.2-4.3 4.2zM36.6 99.8H4.2c-2.3 0-4.2-1.9-4.2-4.2V63.1c0-2.3 1.9-4.2 4.2-4.2 2.3 0 4.2 1.9 4.2 4.2v28.3h28.3c2.3 0 4.2 1.9 4.2 4.2s-1.9 4.2-4.3 4.2zM95.8 99.8H63.4c-2.3 0-4.2-1.9-4.2-4.2s1.9-4.2 4.2-4.2h28.3V63.1c0-2.3 1.9-4.2 4.2-4.2 2.3 0 4.2 1.9 4.2 4.2v32.5c-.1 2.3-2 4.2-4.3 4.2z"/></svg>