<svg xmlns="http://www.w3.org/2000/svg" viewBox="0 0 100 100"><path d="M11.1 40.8c-5.1 0-9.2 4.1-9.2 9.2s4.1 9.2 9.2 9.2 9.2-4.1 9.2-9.2-4.1-9.2-9.2-9.2zm65.9 42c-4.4 2.6-5.9 8.2-3.4 12.6 2.6 4.4 8.2 5.9 12.6 3.4 4.4-2.6 5.9-8.2 3.4-12.6-2.5-4.5-8.1-6-12.6-3.4zM31.1 50c0-9.1 4.5-17.2 11.5-22.1l-6.8-11.3c-8 5.4-14 13.7-16.5 23.3 2.9 2.4 4.8 6 4.8 10.1s-1.9 7.7-4.8 10.1c2.5 9.7 8.5 17.9 16.6 23.3l6.8-11.3c-7-4.9-11.6-13-11.6-22.1zm27-27C72.2 23 83.8 33.8 85 47.6l13.2-.2c-.6-10.2-5.1-19.3-11.9-26-3.5 1.3-7.6 1.1-11.1-.9s-5.7-5.4-6.3-9.2c-3.4-.9-7-1.5-10.7-1.5-6.4 0-12.4 1.5-17.8 4.2l6.4 11.5c3.4-1.6 7.3-2.5 11.3-2.5zm0 54c-4.1 0-7.9-.9-11.4-2.5L40.3 86c5.4 2.7 11.4 4.2 17.8 4.2 3.7 0 7.3-.5 10.7-1.5.6-3.7 2.8-7.1 6.3-9.2 3.5-2 7.6-2.2 11.1-.9 6.8-6.7 11.3-15.9 11.9-26L85 52.4C83.8 66.2 72.2 77 58.1 77zM77 17.2c4.4 2.6 10.1 1 12.6-3.4 2.6-4.4 1-10.1-3.4-12.6-4.4-2.6-10.1-1-12.6 3.4s-1 10.1 3.4 12.6z"/></svg>