<svg xmlns="http://www.w3.org/2000/svg" viewBox="0 0 100 100"><path d="M95.8 100H4.2C1.9 100 0 98.1 0 95.8V4.2C0 1.9 1.9 0 4.2 0h91.6c2.3 0 4.2 1.9 4.2 4.2v91.6c0 2.3-1.9 4.2-4.2 4.2zM8.4 91.6h83.2V8.4H8.4v83.2z"/><path d="M75.6 70.4H48.5c-2.3 0-4.2-1.9-4.2-4.2 0-2.3 1.9-4.2 4.2-4.2h27.1c2.3 0 4.2 1.9 4.2 4.2 0 2.3-1.9 4.2-4.2 4.2zM24.6 70.4c-1.1 0-2.2-.4-3-1.2-1.7-1.7-1.7-4.3 0-6L34 50.7 21.6 38.3c-1.7-1.7-1.7-4.3 0-6 1.7-1.7 4.3-1.7 6 0L43 47.7c1.7 1.7 1.7 4.3 0 6L27.6 69.1c-.8.9-1.9 1.3-3 1.3z"/></svg>