<svg xmlns="http://www.w3.org/2000/svg" viewBox="0 0 100 100"><path d="M95.7 100H4.3C1.9 100 0 98.1 0 95.7V4.3C0 1.9 1.9 0 4.3 0h91.5c2.4 0 4.3 1.9 4.3 4.3v91.5c-.1 2.3-2 4.2-4.4 4.2zM8.5 91.5h83v-83h-83v83z"/><path d="M82.2 84.4H17.7c-1.2 0-2.1-1-2.1-2.1V17.8c0-1.2 1-2.1 2.1-2.1h64.5c1.2 0 2.1 1 2.1 2.1v64.5c.1 1.1-.9 2.1-2.1 2.1zm-62.3-4.3h60.2V19.9H19.9v60.2z"/><path d="M17.7 41.9c-2.4 0-4.3-1.9-4.3-4.3v-5.2c0-2.4 1.9-4.3 4.3-4.3S22 30 22 32.4v5.2c0 2.4-1.9 4.3-4.3 4.3zM17.7 71.9c-2.4 0-4.3-1.9-4.3-4.3v-5.3c0-2.4 1.9-4.3 4.3-4.3s4.3 2 4.3 4.4v5.3c0 2.3-1.9 4.2-4.3 4.2zM50 62.8c-7.1 0-12.8-5.8-12.8-12.8 0-7.1 5.8-12.8 12.8-12.8 7.1 0 12.8 5.8 12.8 12.8 0 7.1-5.7 12.8-12.8 12.8zm0-21.4c-4.7 0-8.6 3.8-8.6 8.6 0 4.7 3.8 8.6 8.6 8.6 4.7 0 8.6-3.8 8.6-8.6 0-4.7-3.9-8.6-8.6-8.6z"/><path d="M41.9 44.1c-.5 0-1.1-.2-1.5-.6l-3-3c-.8-.8-.8-2.2 0-3 .8-.8 2.2-.8 3 0l3 3c.8.8.8 2.2 0 3-.4.4-.9.6-1.5.6zM61 63.2c-.5 0-1.1-.2-1.5-.6L56 59c-.8-.8-.8-2.2 0-3 .8-.8 2.2-.8 3 0l3.5 3.5c.8.8.8 2.2 0 3-.4.5-.9.7-1.5.7zM58.1 44.1c-.5 0-1.1-.2-1.5-.6-.8-.8-.8-2.2 0-3l3-3c.8-.8 2.2-.8 3 0 .8.8.8 2.2 0 3l-3 3c-.5.4-1 .6-1.5.6zM39 63.2c-.5 0-1.1-.2-1.5-.6-.8-.8-.8-2.2 0-3L41 56c.8-.8 2.2-.8 3 0 .8.8.8 2.2 0 3l-3.5 3.5c-.5.5-1 .7-1.5.7zM50 40.7c-1.2 0-2.1-1-2.1-2.1v-4.2c0-1.2.9-2.1 2.1-2.1 1.2 0 2.1 1 2.1 2.1v4.2c0 1.2-.9 2.1-2.1 2.1zM50 67.7c-1.2 0-2.1-1-2.1-2.1v-5c0-1.2 1-2.1 2.1-2.1 1.2 0 2.1 1 2.1 2.1v5c0 1.2-.9 2.1-2.1 2.1zM65.6 52.1h-4.2c-1.2 0-2.1-1-2.1-2.1 0-1.2.9-2.1 2.1-2.1h4.2c1.2 0 2.1 1 2.1 2.1 0 1.2-.9 2.1-2.1 2.1zM39.4 52.1h-5c-1.2 0-2.1-1-2.1-2.1 0-1.2.9-2.1 2.1-2.1h5c1.2 0 2.1 1 2.1 2.1 0 1.2-1 2.1-2.1 2.1z"/></svg>