<svg xmlns="http://www.w3.org/2000/svg" viewBox="0 0 100 100"><path d="M49.8 38.1c.6 0 1.2.2 1.8.5l43 24.1c1.2.7 1.9 1.9 1.9 3.2 0 1.3-.7 2.6-1.9 3.2l-42.7 24c-1.1.6-2.5.6-3.6 0L5.3 69c-1.2-.7-1.9-1.9-1.9-3.2 0-1.3.7-2.6 1.9-3.2l42.7-24c.6-.3 1.2-.5 1.8-.5zm35.5 27.8L49.8 46.1 14.6 65.8l35.5 19.9 35.2-19.8zM88.3 43.5c-4.7 0-8.5-3.8-8.5-8.5s3.8-8.5 8.5-8.5 8.5 3.8 8.5 8.5-3.8 8.5-8.5 8.5zm0-14.1c-3.1 0-5.6 2.5-5.6 5.6 0 3.1 2.5 5.6 5.6 5.6 3.1 0 5.6-2.5 5.6-5.6 0-3-2.5-5.6-5.6-5.6z"/><path d="M83 31.2c-.4 0-.7-.1-1-.4l-2-2c-.5-.5-.5-1.4 0-2 .5-.5 1.4-.5 2 0l2 2c.5.5.5 1.4 0 2-.3.2-.7.4-1 .4zM95.6 43.8c-.4 0-.7-.1-1-.4L92.3 41c-.5-.6-.5-1.4 0-2 .5-.5 1.4-.5 2 0l2.3 2.3c.5.6.5 1.4 0 2-.3.3-.7.5-1 .5zM93.6 31.2c-.4 0-.7-.1-1-.4-.5-.5-.5-1.4 0-2l2-2c.5-.5 1.4-.5 2 0 .5.5.5 1.4 0 2l-2 2c-.3.2-.6.4-1 .4zM81 43.8c-.4 0-.7-.1-1-.4-.5-.5-.5-1.4 0-2l2.3-2.3c.5-.5 1.4-.5 2 0 .5.5.5 1.4 0 2L82 43.3c-.3.3-.6.5-1 .5zM88.3 29c-.8 0-1.4-.6-1.4-1.4v-2.8c0-.8.6-1.4 1.4-1.4.8 0 1.4.6 1.4 1.4v2.8c0 .7-.6 1.4-1.4 1.4zM88.3 46.8c-.8 0-1.4-.6-1.4-1.4v-3.3c0-.8.6-1.4 1.4-1.4.8 0 1.4.6 1.4 1.4v3.3c0 .7-.6 1.4-1.4 1.4z"/><g><path d="M98.6 36.5h-2.8c-.8 0-1.4-.6-1.4-1.4 0-.8.6-1.4 1.4-1.4h2.8c.8 0 1.4.6 1.4 1.4 0 .7-.6 1.4-1.4 1.4zM81.3 36.5H78c-.8 0-1.4-.6-1.4-1.4 0-.8.6-1.4 1.4-1.4h3.3c.8 0 1.4.6 1.4 1.4 0 .7-.6 1.4-1.4 1.4z"/></g><g><path d="M49.5 26.6c-4.7 0-8.5-3.8-8.5-8.5s3.8-8.5 8.5-8.5 8.5 3.8 8.5 8.5c-.1 4.7-3.9 8.5-8.5 8.5zm0-14.1c-3.1 0-5.6 2.5-5.6 5.6 0 3.1 2.5 5.6 5.6 5.6 3.1 0 5.6-2.5 5.6-5.6 0-3.1-2.5-5.6-5.6-5.6z"/><path d="M44.2 14.2c-.4 0-.7-.1-1-.4l-2-2c-.5-.5-.5-1.4 0-2 .5-.5 1.4-.5 2 0l2 2c.5.5.5 1.4 0 2-.3.3-.7.4-1 .4zM56.8 26.8c-.4 0-.7-.1-1-.4l-2.3-2.3c-.5-.6-.5-1.4 0-2 .5-.5 1.4-.5 2 0l2.3 2.3c.5.6.5 1.4 0 2-.3.3-.7.4-1 .4zM54.8 14.2c-.4 0-.7-.1-1-.4-.5-.5-.5-1.4 0-2l2-2c.5-.5 1.4-.5 2 0 .5.5.5 1.4 0 2l-2 2c-.3.3-.6.4-1 .4zM42.2 26.8c-.4 0-.7-.1-1-.4-.5-.5-.5-1.4 0-2l2.3-2.3c.5-.5 1.4-.5 2 0 .5.5.5 1.4 0 2l-2.3 2.3c-.3.3-.6.4-1 .4z"/><g><path d="M49.5 12c-.8 0-1.4-.6-1.4-1.4V7.8c0-.8.6-1.4 1.4-1.4.8 0 1.4.6 1.4 1.4v2.8c0 .8-.7 1.4-1.4 1.4zM49.5 29.8c-.8 0-1.4-.6-1.4-1.4v-3.3c0-.8.6-1.4 1.4-1.4.8 0 1.4.6 1.4 1.4v3.3c0 .8-.7 1.4-1.4 1.4z"/></g><g><path d="M59.8 19.5H57c-.8 0-1.4-.6-1.4-1.4 0-.8.6-1.4 1.4-1.4h2.8c.8 0 1.4.6 1.4 1.4 0 .8-.7 1.4-1.4 1.4zM42.5 19.5h-3.3c-.8 0-1.4-.6-1.4-1.4 0-.8.6-1.4 1.4-1.4h3.3c.8 0 1.4.6 1.4 1.4 0 .8-.7 1.4-1.4 1.4z"/></g></g><g><path d="M11.7 43.4c-4.7 0-8.5-3.8-8.5-8.5s3.8-8.5 8.5-8.5 8.5 3.8 8.5 8.5-3.8 8.5-8.5 8.5zm0-14.1c-3.1 0-5.6 2.5-5.6 5.6 0 3.1 2.5 5.6 5.6 5.6 3.1 0 5.6-2.5 5.6-5.6 0-3.1-2.5-5.6-5.6-5.6z"/><path d="M6.4 31c-.4 0-.7-.1-1-.4l-2-2c-.5-.5-.5-1.4 0-2 .5-.5 1.4-.5 2 0l2 2c.5.5.5 1.4 0 2-.3.3-.7.4-1 .4zM19 43.6c-.4 0-.7-.1-1-.4l-2.3-2.3c-.5-.6-.5-1.4 0-2 .5-.5 1.4-.5 2 0l2.3 2.3c.5.6.5 1.4 0 2-.3.3-.7.4-1 .4zM17 31c-.4 0-.7-.1-1-.4-.5-.5-.5-1.4 0-2l2-2c.5-.5 1.4-.5 2 0 .5.5.5 1.4 0 2l-2 2c-.3.3-.6.4-1 .4zM4.4 43.6c-.4 0-.7-.1-1-.4-.5-.5-.5-1.4 0-2l2.3-2.3c.5-.5 1.4-.5 2 0 .5.5.5 1.4 0 2l-2.3 2.3c-.3.3-.6.4-1 .4z"/><g><path d="M11.7 28.8c-.8 0-1.4-.6-1.4-1.4v-2.8c0-.8.6-1.4 1.4-1.4.8 0 1.4.6 1.4 1.4v2.8c0 .8-.6 1.4-1.4 1.4zM11.7 46.6c-.8 0-1.4-.6-1.4-1.4v-3.3c0-.8.6-1.4 1.4-1.4.8 0 1.4.6 1.4 1.4v3.3c0 .8-.6 1.4-1.4 1.4z"/></g><g><path d="M22 36.3h-2.8c-.8 0-1.4-.6-1.4-1.4 0-.8.6-1.4 1.4-1.4H22c.8 0 1.4.6 1.4 1.4 0 .8-.6 1.4-1.4 1.4zM4.7 36.3H1.4c-.8 0-1.4-.6-1.4-1.4 0-.8.6-1.4 1.4-1.4h3.3c.8 0 1.4.6 1.4 1.4 0 .8-.6 1.4-1.4 1.4z"/></g></g></svg>