<svg xmlns="http://www.w3.org/2000/svg" viewBox="0 0 100 100"><path d="M29.2 44c-.5 0-1.1-.2-1.5-.5l-6.9-5.9c-.6-.5-.9-1.3-.8-2.1.1-.8.7-1.4 1.4-1.7L41 26c.8-.3 1.7-.2 2.3.4l6.9 5.9c.6.5.9 1.3.8 2.1-.1.8-.7 1.4-1.4 1.7L30 43.9c-.2.1-.5.1-.8.1zm-2.6-7.4l3 2.6 14.9-6-3-2.6-14.9 6zM48.5 76.5c-.5 0-.9-.2-1.3-.4-.6-.4-.9-1.1-.9-1.8V52.1c0-1.2 1-2.3 2.3-2.3 1.2 0 2.3 1 2.3 2.3v19l19-6V55c0-1.2 1-2.3 2.3-2.3 1.2 0 2.3 1 2.3 2.3v11.8c0 1-.6 1.9-1.6 2.2l-23.5 7.4c-.5.1-.7.1-.9.1z"/><path d="M61.3 59.6c-.5 0-1.1-.2-1.5-.5l-6.9-5.9c-.6-.5-.9-1.3-.8-2.1.1-.8.7-1.4 1.4-1.7l19.6-7.9c.8-.3 1.7-.2 2.3.4l6.9 5.9c.6.5.9 1.3.8 2.1-.1.8-.7 1.4-1.4 1.7l-19.6 7.9c-.2.1-.5.1-.8.1zm-2.6-7.4l3 2.6 14.9-6-3-2.6-14.9 6zM72 43.6c-.3 0-.6-.1-.8-.2l-19.7-7.9c-.7-.3-1.2-.9-1.4-1.7-.2-.8.1-1.5.6-2.1l6.8-6.6c.6-.6 1.6-.8 2.4-.5l19.7 7.9c.7.3 1.2.9 1.4 1.7.1.8-.1 1.5-.6 2.1L73.6 43c-.4.4-1 .6-1.6.6zM56.4 32.7l15.1 6 3.2-3.1-15.1-6-3.2 3.1zM48.1 76.5c-.3 0-.6-.1-.9-.2L29 68.9c-.8-.3-1.4-1.2-1.4-2.1V55.9c0-1.2 1-2.3 2.3-2.3 1.2 0 2.3 1 2.3 2.3v9.4L49 72.2c1.2.5 1.7 1.8 1.2 2.9-.4.9-1.2 1.4-2.1 1.4zM41.7 61c-.3 0-.6-.1-.8-.2l-19.7-7.9c-.7-.3-1.2-.9-1.4-1.7-.2-.8.1-1.5.6-2.1l6.7-6.6c.6-.6 1.6-.8 2.4-.5l19.8 8c.7.3 1.2.9 1.4 1.7.1.8-.1 1.5-.6 2.1l-6.8 6.6c-.4.3-1 .6-1.6.6zM26.1 50l15.1 6 3.2-3.1-15.1-6-3.2 3.1z"/><g><path d="M95.8 100H4.2C1.9 100 0 98.1 0 95.8V4.2C0 1.9 1.9 0 4.2 0h91.6c2.3 0 4.2 1.9 4.2 4.2v91.6c0 2.3-1.9 4.2-4.2 4.2zM8.4 91.6h83.2V8.4H8.4v83.2z"/></g></svg>