<svg xmlns="http://www.w3.org/2000/svg" viewBox="0 0 100 100"><path d="M60 71.2c0 2.2-1.8 4.1-4.1 4.1H43.7c-2.2 0-4.1-1.8-4.1-4.1v-.8h-9.2v10.3h38.7V70.3H60v.9z"/><path d="M86.1 0H13.9c-1.1 0-2.1.9-2.1 2.1V98c0 1.1.9 2.1 2.1 2.1H86c1.1 0 2.1-.9 2.1-2.1V2.1c0-1.2-.9-2.1-2-2.1zM35.6 41.5h29c.6 0 1 .5 1 1 0 .6-.5 1-1 1h-29c-.6 0-1-.5-1-1 0-.6.4-1 1-1zm-2 4.1h32.9c.6 0 1 .5 1 1 0 .6-.5 1-1 1H33.6c-.6 0-1-.5-1-1 0-.6.5-1 1-1zm39.7 37.1c0 1.1-.9 2-2 2H28.5c-1.1 0-2-.9-2-2V68.3c0-1.1.9-2 2-2h.8V51.7c0-1.1.9-2 2-2H69c1.1 0 2 .9 2 2v14.6h.2c1.1 0 2 .9 2 2v14.4z"/><path d="M43.7 68.3v2.9h12.2v-2.9c0-1.1.9-2 2-2h8.9V53.7H33.3v12.5h8.4c1.1 0 2 1 2 2.1z"/></svg>