<svg xmlns="http://www.w3.org/2000/svg" viewBox="0 0 100 100"><path d="M95.8 99.2H4.2C1.9 99.2 0 97.3 0 95V5C0 2.7 1.9.8 4.2.8h91.6C98.1.8 100 2.7 100 5v90c0 2.3-1.9 4.2-4.2 4.2zM8.4 90.8h83.1V9.2H8.4v81.6z"/><path d="M19 19v62h62V19H19zm48.8 20c1.5 2.5 2.6 5.4 3 8.4h-3.6c-.3-2.4-1.2-4.7-2.4-6.6l3-1.8zM36.6 50c0 5.6 3.5 10.5 8.5 12.5l-1.3 3.3c-6.3-2.5-10.7-8.6-10.7-15.7h3.5zm-2.3-6.1c2.4-6.3 8.6-10.8 15.8-10.8v3.6c-5.7 0-10.6 3.6-12.5 8.5l-3.3-1.3zm2.8 6.1c0-7.2 5.8-13 13-13 6.3 0 11.5 4.5 12.7 10.4h-3.6c-1.1-4-4.8-6.8-9.1-6.8-5.2 0-9.4 4.3-9.4 9.4s4.2 9.4 9.4 9.4c4.3 0 8-2.9 9.1-6.8h3.6C61.6 58.5 56.4 63 50.1 63c-7.2 0-13-5.8-13-13zm17.6 2.6h4.1c-.8 2.6-2.8 4.8-5.4 5.8L52 54.9c1.1-.4 2.1-1.3 2.7-2.3zM52 45.1l1.4-3.5c2.5 1 4.5 3.1 5.3 5.7h-4.1c-.6-.9-1.5-1.8-2.6-2.2zM44.8 50c0 .8.1 1.5.4 2.1l-3.4 1.5c-.5-1.1-.8-2.4-.8-3.6 0-4.9 4.1-9 9-9v3.8c-2.8 0-5.2 2.3-5.2 5.2zm5.3 5.2V59c-2.4 0-4.8-1-6.4-2.6l2.7-2.6c.9.9 2.2 1.4 3.7 1.4zm0 8.2c6.5 0 12-4.6 13.1-10.7h3.6C65.5 60.8 58.5 67 50 67v-3.6zm13.2-16c-.9-4.5-4.1-8.2-8.3-9.9l1.3-3.3c5.5 2.2 9.7 7.2 10.6 13.2h-3.6zM50.1 29.1c4.7 0 9.1 1.5 12.6 4.2l-2.2 2.9c-2.9-2.2-6.5-3.5-10.4-3.5-7.3 0-13.7 4.6-16.2 11.1l-3.4-1.3c3.1-7.9 10.7-13.4 19.6-13.4zM31 59c-.9-2-1.7-4.7-1.9-9h3.6c.1 3.9.9 5.8 1.7 7.6L31 59zm19.1 11.9c-5.8 0-11-2.3-14.8-6.1l2.5-2.5c3.1 3.1 7.5 5.1 12.3 5.1 8.7 0 15.9-6.4 17.3-14.8H71c-1.4 10.3-10.2 18.3-20.9 18.3z"/></svg>