<svg xmlns="http://www.w3.org/2000/svg" viewBox="0 0 100 100"><path d="M49.8 76.3c12.5 0 23.1-3.3 26.8-8V61c-.1-.2-.3-.4-.5-.5-3.6 4.7-14.3 8.1-26.8 8.1-12 0-22.2-3.1-26.3-7.4l-.1.1v6.9c3.5 4.6 14.2 8.1 26.9 8.1zM29.3 56.7c5.1 2.2 12.4 3.7 20.5 3.7s15.4-1.4 20.5-3.7c2.4-1 4.3-2.3 5.6-3.6l.7-.7V45c-.1-.2-.3-.4-.5-.5-1.3 1.7-3.5 3.2-6.3 4.4-5.1 2.2-12.4 3.6-20.5 3.6s-15.4-1.4-20.5-3.6c-2.5-1.1-4.5-2.4-5.8-3.8l-.1.1v6.9l.3.3c1.2 1.7 3.3 3.1 6.1 4.3zM29.5 40.6c4.9 2.3 12.1 3.8 20.2 3.8s15.4-1.5 20.3-3.9c2.4-1.2 4.3-2.6 5.3-4.1.6-.9 1-1.9 1-3 0-6.1-11.9-11-26.6-11-14.7 0-26.6 4.9-26.6 11 0 .9.2 1.7.7 2.5.9 1.8 2.9 3.4 5.7 4.7z"/><path d="M95.8 0H4.2C1.9 0 0 1.9 0 4.2v91.6c0 2.3 1.9 4.2 4.2 4.2h91.6c2.3 0 4.2-1.9 4.2-4.2V4.2c0-2.3-1.9-4.2-4.2-4.2zm-4.2 91.6H8.4V8.4h83.2v83.2z"/></svg>