<svg xmlns="http://www.w3.org/2000/svg" viewBox="0 0 100 100"><path d="M20.5 95.3c-3.1 0-5.9-1.1-8-3.2-4.9-4.9-4.1-13.5 2-19.6L34 53.2c1.5-1.5 4-1.5 5.6 0l12 12c.7.7 1.2 1.7 1.2 2.8 0 1-.4 2.1-1.2 2.8L32.1 90.2c-3.3 3.3-7.5 5.1-11.6 5.1zm16.2-33.7L20.1 78.2c-3 3-3.5 6.9-2 8.4.7.7 1.7.8 2.4.8 2 0 4.2-1.1 6-2.8L43.1 68l-6.4-6.4zM85.5 28.8c-2.6 0-5-1-6.8-2.8-3.7-3.8-3.7-9.8 0-13.6l6.6-6.6c1.5-1.5 4.1-1.5 5.6 0l8 8c.7.7 1.2 1.7 1.2 2.8 0 1-.4 2.1-1.2 2.8L92.2 26c-1.8 1.8-4.2 2.8-6.7 2.8zm2.6-14.5l-3.8 3.8c-.7.7-.6 1.7 0 2.4.9.9 1.5.9 2.4 0l3.8-3.8-2.4-2.4z"/><path d="M59.7 48.9c-1 0-2-.4-2.8-1.2-1.5-1.5-1.5-4 0-5.6l21.8-21.7c1.5-1.5 4-1.5 5.6 0 1.5 1.5 1.5 4 0 5.6L62.5 47.8c-.7.7-1.8 1.1-2.8 1.1z"/><path d="M78.8 97c-4.1 0-7.9-1.6-10.8-4.5L30.2 54.7C22 56 13.5 53.3 7.7 47.4c-7.2-7.2-9.5-18-6-27.5.5-1.3 1.5-2.2 2.9-2.5 1.3-.3 2.7.1 3.6 1.1l10.7 10.7 5.8-1.5 1.5-5.8-10.7-10.7c-1-1-1.4-2.3-1.1-3.6.3-1.3 1.2-2.4 2.5-2.9C19.8 3.6 22.9 3 26 3c6.9 0 13.5 2.7 18.4 7.6 5.9 5.9 8.6 14.4 7.3 22.6L89.5 71c2.9 2.9 4.5 6.7 4.5 10.8 0 4.1-1.6 7.9-4.5 10.8-2.8 2.8-6.7 4.4-10.7 4.4zM31.4 46.4c1 0 2 .4 2.8 1.2L73.6 87c2.8 2.8 7.6 2.8 10.4 0 1.4-1.4 2.1-3.2 2.1-5.2s-.8-3.8-2.1-5.2L44.6 37.3c-1-1-1.4-2.4-1-3.8 1.6-6.3-.2-12.7-4.7-17.3-3.3-3.3-7.7-5.2-12.4-5.3l6.9 6.9c1 1 1.4 2.5 1 3.8l-2.7 10.2c-.4 1.4-1.4 2.4-2.8 2.8l-10.2 2.7c-1.4.4-2.8 0-3.8-1L8 29.4c0 4.6 1.9 9.1 5.2 12.4 4.5 4.5 11.1 6.3 17.3 4.7.3 0 .6-.1.9-.1zM78.2 77.6c-1.8 0-3.3 1.5-3.3 3.3 0 1.8 1.5 3.3 3.3 3.3 1.8 0 3.3-1.5 3.3-3.3 0-1.8-1.5-3.3-3.3-3.3z"/></svg>