<svg xmlns="http://www.w3.org/2000/svg" viewBox="0 0 100 100"><path d="M7 100c-.8 0-1.5-.2-2.2-.7-1-.7-1.7-1.9-1.7-3.2v-76c0-1.6 1-3 2.5-3.6L48.6.3c1.2-.4 2.5-.3 3.5.4s1.7 1.9 1.7 3.2V80c0 1.6-1 3-2.5 3.6l-43 16.2c-.3.1-.8.2-1.3.2zm3.9-77.3v67.9l35.3-13.3V9.4L10.9 22.7z"/><path d="M15.9 38.6c-.8 0-1.5-.5-1.8-1.2-.4-1 .1-2.1 1.1-2.5l25.7-9.7c1-.4 2.1.1 2.5 1.1.4 1-.1 2.1-1.1 2.5l-25.7 9.7c-.2 0-.5.1-.7.1zM15.9 63.3c-.8 0-1.5-.5-1.8-1.2-.4-1 .1-2.1 1.1-2.5l25.6-9.7c1-.4 2.1.1 2.5 1.1.4 1-.1 2.1-1.1 2.5l-25.6 9.7c-.2 0-.5.1-.7.1zM15.9 75.6c-.8 0-1.5-.5-1.8-1.2-.4-1 .1-2.1 1.1-2.5l25.7-9.7c1-.4 2.1.1 2.5 1.1.4 1-.1 2.1-1.1 2.5l-25.7 9.7c-.2.1-.5.1-.7.1zM15.9 50.9c-.8 0-1.5-.5-1.8-1.2-.4-1 .1-2.1 1.1-2.5l25.6-9.7c1-.4 2.1.1 2.5 1.1.4 1-.1 2.1-1.1 2.5l-25.6 9.7c-.2.1-.5.1-.7.1zM77.2 92.1c-1.1 0-1.9-.9-1.9-1.9V68c0-.6.3-1.2.8-1.6.5-.4 1.2-.4 1.8-.2l15.8 6c1 .4 1.5 1.5 1.1 2.5-.4 1-1.5 1.5-2.5 1.1l-13.2-5v19.5c0 1-.9 1.8-1.9 1.8z"/><path d="M77.2 94c-.5 0-.9-.1-1.4-.2L48.6 83.5c-1.5-.6-2.5-2-2.5-3.6V3.8c0-1.3.6-2.4 1.7-3.2 1-.7 2.4-.9 3.5-.4l43 16.2c1.5.6 2.5 2 2.5 3.6v53.9c0 1-.4 2-1.1 2.7L79.9 92.9c-.7.7-1.7 1.1-2.7 1.1zM53.8 77.3l22.3 8.4L89 72.3V22.6L53.8 9.4v67.9z"/><path d="M85 38.9c-.2 0-.5 0-.7-.1l-25.6-9.7c-1-.4-1.5-1.5-1.1-2.5.4-1 1.5-1.5 2.5-1.1l25.6 9.7c1 .4 1.5 1.5 1.1 2.5-.3.7-1.1 1.2-1.8 1.2zM85 63.6c-.2 0-.5 0-.7-.1l-25.6-9.7c-1-.4-1.5-1.5-1.1-2.5.4-1 1.5-1.5 2.5-1.1l25.6 9.7c1 .4 1.5 1.5 1.1 2.5-.3.7-1.1 1.2-1.8 1.2zM85 51.2c-.2 0-.5 0-.7-.1l-25.6-9.7c-1-.4-1.5-1.5-1.1-2.5.4-1 1.5-1.5 2.5-1.1l25.6 9.7c1 .4 1.5 1.5 1.1 2.5-.3.8-1.1 1.2-1.8 1.2z"/></svg>