<svg xmlns="http://www.w3.org/2000/svg" viewBox="0 0 100 100"><path d="M91.1 95.3H8.9c-4.9 0-8.9-4-8.9-8.9V29c0-4.9 4-8.9 8.9-8.9h82.3c4.9 0 8.9 4 8.9 8.9v57.4c-.1 5-4.1 8.9-9 8.9zM8.9 28.6c-.2 0-.4.2-.4.4v57.4c0 .2.2.4.4.4h82.3c.2 0 .4-.2.4-.4V29c0-.2-.2-.4-.4-.4H8.9z"/><path d="M66.9 28.2c-2.3 0-4.2-1.9-4.2-4.2V13.5c0-.2-.2-.4-.5-.4H37.8c-.2 0-.4.2-.4.4V24c0 2.3-1.9 4.2-4.2 4.2-2.3 0-4.2-1.9-4.2-4.2V13.5c0-4.9 4-8.9 8.9-8.9h24.4c4.9 0 8.9 4 8.9 8.9V24c-.1 2.3-2 4.2-4.3 4.2zM40.9 54H6c-1.2 0-2.1-.9-2.1-2.1 0-1.2.9-2.1 2.1-2.1h34.9c1.2 0 2.1.9 2.1 2.1 0 1.2-1 2.1-2.1 2.1zM92.6 54H57.7c-1.2 0-2.1-.9-2.1-2.1 0-1.2.9-2.1 2.1-2.1h34.9c1.2 0 2.1.9 2.1 2.1 0 1.2-.9 2.1-2.1 2.1z"/><path d="M55.8 65.7H44.2c-1.2 0-2.1-.9-2.1-2.1V46.1c0-1.2.9-2.1 2.1-2.1h11.6c1.2 0 2.1.9 2.1 2.1v17.5c0 1.1-.9 2.1-2.1 2.1zm-9.5-4.2h7.4V48.2h-7.4v13.3z"/></svg>