<svg xmlns="http://www.w3.org/2000/svg" viewBox="0 0 100 100"><path d="M72.2 99H4c-2.2 0-4-1.8-4-4V28c0-2.2 1.8-4 4-4h68.2c2.2 0 4 1.8 4 4v67c.1 2.2-1.7 4-4 4zM8.1 90.9h60.2V32H8.1v58.9z"/><path d="M85.8 53.7H72.2c-1.1 0-2-.9-2-2s.9-2 2-2h11.5V17.2H40v10.7c0 1.1-.9 2-2 2s-2-.9-2-2V15.2c0-1.1.9-2 2-2h47.9c1.1 0 2 .9 2 2v36.5c-.1 1.1-1 2-2.1 2z"/><path d="M96 76.1H72.2V68h19.7V9H31.8v18.9h-8.1V5.1c0-2.2 1.8-4 4-4H96c2.2 0 4 1.8 4 4v67c0 2.2-1.8 4-4 4zM62.1 76.6H14.2c-1.1 0-2-.9-2-2V38.1c0-1.1.9-2 2-2h47.9c1.1 0 2 .9 2 2v36.5c0 1.1-.9 2-2 2zm-45.9-4H60V40.1H16.2v32.5z"/></svg>