<svg xmlns="http://www.w3.org/2000/svg" viewBox="0 0 100 100"><path d="M73.4 97c-1.1 0-2.1-.4-2.9-1.2l-16-16.1c-1.6-1.6-1.6-4.2 0-5.9l16-16.1c1.6-1.6 4.2-1.6 5.9 0 1.6 1.6 1.6 4.2 0 5.9L63.2 76.8l13.1 13.1c1.6 1.6 1.6 4.2 0 5.9-.8.8-1.8 1.2-2.9 1.2z"/><path d="M84.5 81.3H62.7c-2.1 0-3.9-1.7-3.9-3.9 0-2.1 1.7-3.9 3.9-3.9h21.8c4.3 0 7.7-3.5 7.7-7.7V18.5c0-4.3-3.5-7.7-7.7-7.7h-69c-4.3 0-7.7 3.5-7.7 7.7v47.3c0 4.3 3.5 7.7 7.7 7.7h21.8c2.1 0 3.9 1.7 3.9 3.9 0 2.1-1.7 3.9-3.9 3.9H15.5C6.9 81.3 0 74.4 0 65.8V18.5C0 10 6.9 3 15.5 3h69.1c8.5 0 15.4 7 15.4 15.5v47.3c0 8.6-6.9 15.5-15.5 15.5z"/><path d="M35.9 56c-7.6 0-13.8-6.2-13.8-13.8 0-7.6 6.2-13.8 13.8-13.8 7.6 0 13.8 6.2 13.8 13.8-.1 7.6-6.3 13.8-13.8 13.8zm0-22.9c-5.1 0-9.2 4.1-9.2 9.2s4.1 9.2 9.2 9.2 9.2-4.1 9.2-9.2c-.1-5.1-4.2-9.2-9.2-9.2z"/><path d="M27.2 35.9c-.6 0-1.2-.2-1.6-.7L22.4 32c-.9-.9-.9-2.3 0-3.2.9-.9 2.3-.9 3.2 0l3.2 3.2c.9.9.9 2.3 0 3.2-.4.5-1 .7-1.6.7zM47.7 56.4c-.6 0-1.2-.2-1.6-.7L42.3 52c-.9-.9-.9-2.3 0-3.2.9-.9 2.3-.9 3.2 0l3.8 3.8c.9.9.9 2.3 0 3.2-.4.4-1 .6-1.6.6zM44.5 35.9c-.6 0-1.2-.2-1.6-.7-.9-.9-.9-2.3 0-3.2l3.2-3.2c.9-.9 2.3-.9 3.2 0 .9.9.9 2.3 0 3.2l-3.2 3.2c-.4.5-1 .7-1.6.7zM24 56.4c-.6 0-1.2-.2-1.6-.7-.9-.9-.9-2.3 0-3.2l3.8-3.8c.9-.9 2.3-.9 3.2 0 .9.9.9 2.3 0 3.2l-3.8 3.8c-.4.5-1 .7-1.6.7zM35.9 32.3c-1.3 0-2.3-1-2.3-2.3v-4.5c0-1.3 1-2.3 2.3-2.3 1.3 0 2.3 1 2.3 2.3V30c-.1 1.3-1.1 2.3-2.3 2.3zM35.9 61.3c-1.3 0-2.3-1-2.3-2.3v-5.3c0-1.3 1-2.3 2.3-2.3 1.3 0 2.3 1 2.3 2.3V59c-.1 1.3-1.1 2.3-2.3 2.3zM52.6 44.5h-4.5c-1.3 0-2.3-1-2.3-2.3 0-1.3 1-2.3 2.3-2.3h4.5c1.3 0 2.3 1 2.3 2.3 0 1.3-1 2.3-2.3 2.3zM24.4 44.5h-5.3c-1.3 0-2.3-1-2.3-2.3 0-1.3 1-2.3 2.3-2.3h5.3c1.3 0 2.3 1 2.3 2.3 0 1.3-1 2.3-2.3 2.3zM69.9 41.3c-5.2 0-9.4-4.2-9.4-9.4s4.2-9.4 9.4-9.4 9.4 4.2 9.4 9.4c.1 5.1-4.2 9.4-9.4 9.4zm0-15.8c-3.5 0-6.3 2.8-6.3 6.3s2.8 6.3 6.3 6.3 6.3-2.8 6.3-6.3-2.8-6.3-6.3-6.3zM64 27.4c-.4 0-.8-.2-1.1-.5l-2.2-2.2c-.6-.6-.6-1.6 0-2.2.6-.6 1.6-.6 2.2 0l2.2 2.2c.6.6.6 1.6 0 2.2-.3.4-.7.5-1.1.5z"/><path d="M78.1 41.5c-.4 0-.8-.2-1.1-.5l-2.6-2.6c-.6-.6-.6-1.6 0-2.2.6-.6 1.6-.6 2.2 0l2.6 2.6c.6.6.6 1.6 0 2.2-.3.4-.7.5-1.1.5zM75.9 27.5c-.4 0-.8-.2-1.1-.5-.6-.6-.6-1.6 0-2.2l2.2-2.2c.6-.6 1.6-.6 2.2 0 .6.6.6 1.6 0 2.2L77 27c-.3.3-.7.5-1.1.5zM61.8 41.5c-.4 0-.8-.2-1.1-.5-.6-.6-.6-1.6 0-2.2l2.6-2.6c.6-.6 1.6-.6 2.2 0 .6.6.6 1.6 0 2.2L62.9 41c-.3.4-.7.5-1.1.5zM69.9 25c-.9 0-1.6-.7-1.6-1.6v-3.1c0-.9.7-1.6 1.6-1.6.9 0 1.6.7 1.6 1.6v3.1c0 .9-.7 1.6-1.6 1.6zM69.9 44.9c-.9 0-1.6-.7-1.6-1.6v-3.7c0-.9.7-1.6 1.6-1.6.9 0 1.6.7 1.6 1.6v3.7c0 .9-.7 1.6-1.6 1.6zM81.4 33.4h-3.1c-.9 0-1.6-.7-1.6-1.6 0-.9.7-1.6 1.6-1.6h3.1c.9 0 1.6.7 1.6 1.6 0 .9-.7 1.6-1.6 1.6zM62.1 33.4h-3.7c-.9 0-1.6-.7-1.6-1.6 0-.9.7-1.6 1.6-1.6h3.7c.9 0 1.6.7 1.6 1.6 0 .9-.7 1.6-1.6 1.6z"/></svg>