<svg xmlns="http://www.w3.org/2000/svg" viewBox="0 0 100 100"><path d="M50.9 95.6c-25.5 0-46.3-20.8-46.3-46.3S25.3 3.1 50.9 3.1s46.3 20.8 46.3 46.3-20.8 46.2-46.3 46.2zm0-84c-20.8 0-37.8 16.9-37.8 37.8 0 20.8 16.9 37.8 37.8 37.8s37.8-16.9 37.8-37.8c-.1-20.9-17-37.8-37.8-37.8z"/><path d="M6.2 99.6c-1.1 0-2.2-.4-3-1.2-1.7-1.7-1.7-4.4 0-6l35-35c1.2-1.2 3-1.6 4.6-.9 1.6.7 2.6 2.2 2.6 3.9v14c0 2.3-1.9 4.3-4.3 4.3s-4.3-1.9-4.3-4.3v-3.7L9.2 98.3c-.8.9-1.9 1.3-3 1.3z"/><path d="M41.2 64.6h-14c-2.3 0-4.3-1.9-4.3-4.3 0-2.3 1.9-4.3 4.3-4.3h14c2.3 0 4.3 1.9 4.3 4.3s-1.9 4.3-4.3 4.3zM93.3 100c-1.1 0-2.2-.4-3-1.2l-35-35c-1.2-1.2-1.6-3-.9-4.6.7-1.6 2.2-2.6 3.9-2.6h14c2.3 0 4.3 1.9 4.3 4.3 0 2.3-1.9 4.3-4.3 4.3h-3.7l27.7 27.7c1.7 1.7 1.7 4.4 0 6-.8.7-1.9 1.1-3 1.1z"/><path d="M58.3 79C56 79 54 77.1 54 74.7v-14c0-2.3 1.9-4.3 4.3-4.3 2.3 0 4.3 1.9 4.3 4.3v14c0 2.4-1.9 4.3-4.3 4.3z"/><g><path d="M58.8 43.5c-.5 0-1.1-.1-1.6-.3-1.6-.7-2.6-2.2-2.6-3.9v-14c0-2.3 1.9-4.3 4.3-4.3s4.3 1.9 4.3 4.3V29L90.8 1.2c1.7-1.7 4.4-1.7 6 0 1.7 1.7 1.7 4.4 0 6l-35 35c-.8.9-1.9 1.3-3 1.3z"/><path d="M72.8 43.5h-14c-2.3 0-4.3-1.9-4.3-4.3s1.9-4.3 4.3-4.3h14c2.3 0 4.3 1.9 4.3 4.3s-1.9 4.3-4.3 4.3z"/></g><g><path d="M41.5 43.8h-14c-2.3 0-4.3-1.9-4.3-4.3 0-2.3 1.9-4.3 4.3-4.3h3.7L3.5 7.6c-1.7-1.7-1.7-4.4 0-6 1.7-1.7 4.4-1.7 6 0l35 35c1.2 1.2 1.6 3 .9 4.6-.6 1.6-2.2 2.6-3.9 2.6zM41.5 43.8c-2.3 0-4.3-1.9-4.3-4.3v-14c0-2.3 1.9-4.3 4.3-4.3 2.3 0 4.3 1.9 4.3 4.3v14c-.1 2.4-2 4.3-4.3 4.3z"/></g></svg>