<?xml version="1.0" encoding="utf-8"?>
<!-- Generator: Adobe Illustrator 16.0.0, SVG Export Plug-In . SVG Version: 6.00 Build 0)  -->
<!DOCTYPE svg PUBLIC "-//W3C//DTD SVG 1.1//EN" "http://www.w3.org/Graphics/SVG/1.1/DTD/svg11.dtd">
<svg version="1.1" id="Layer_1" xmlns="http://www.w3.org/2000/svg" xmlns:xlink="http://www.w3.org/1999/xlink" x="0px" y="0px"
	 width="71px" height="60px" viewBox="0 0 292.364 247.858" enable-background="new 0 0 292.364 247.858"
	 xml:space="preserve">
<g>
	<defs>
		<rect id="SVGID_1_" x="-454.367" y="-211.05" width="1224" height="792"/>
	</defs>
	<clipPath id="SVGID_2_">
		<use xlink:href="#SVGID_1_"  overflow="visible"/>
	</clipPath>
	<path clip-path="url(#SVGID_2_)" fill="#FFFFFF" d="M0,209.89v-0.211c0-20.988,15.82-38.18,38.496-38.18
		c13.922,0,22.254,4.641,29.109,11.391L57.27,194.808c-5.696-5.168-11.497-8.332-18.879-8.332
		c-12.446,0-21.411,10.336-21.411,22.992v0.211c0,12.656,8.754,23.203,21.411,23.203c8.437,0,13.605-3.375,19.406-8.648
		l10.336,10.441c-7.594,8.121-16.031,13.184-30.27,13.184C16.137,247.858,0,231.089,0,209.89"/>
	<polygon clip-path="url(#SVGID_2_)" fill="#FFFFFF" points="81.106,172.765 97.348,172.765 97.348,201.979 127.301,201.979 
		127.301,172.765 143.544,172.765 143.544,246.593 127.301,246.593 127.301,216.956 97.348,216.956 97.348,246.593 81.106,246.593 	
		"/>
	<polygon clip-path="url(#SVGID_2_)" fill="#FFFFFF" points="163.374,172.765 219.062,172.765 219.062,187.214 179.511,187.214 
		179.511,202.19 214.315,202.19 214.315,216.64 179.511,216.64 179.511,232.144 219.589,232.144 219.589,246.593 163.374,246.593 	
		"/>
	<polygon clip-path="url(#SVGID_2_)" fill="#FFFFFF" points="236.149,172.765 292.364,172.765 292.364,187.53 252.392,187.53 
		252.392,203.245 287.618,203.245 287.618,218.011 252.392,218.011 252.392,246.593 236.149,246.593 	"/>
	<path clip-path="url(#SVGID_2_)" fill="#FFFFFF" d="M149.838,106.232c-18.19,0-32.989-14.799-32.989-32.989
		c0-18.191,14.799-32.99,32.989-32.99c15.014,0,27.708,10.085,31.687,23.834h12.765c-4.247-20.649-22.563-36.225-44.452-36.225
		c-25.023,0-45.38,20.357-45.38,45.381c0,25.023,20.357,45.38,45.38,45.38c21.888,0,40.205-15.576,44.452-36.225h-12.765
		C177.546,96.147,164.853,106.232,149.838,106.232"/>
	<path clip-path="url(#SVGID_2_)" fill="#FFFFFF" d="M127.601,95.48c5.697,5.697,13.562,9.226,22.238,9.226V91.554
		c-5.057,0-9.634-2.05-12.948-5.364L127.601,95.48z"/>
	<path clip-path="url(#SVGID_2_)" fill="#F38B00" d="M118.375,73.243c0,4.503,0.958,8.785,2.67,12.662l12.032-5.291
		c-0.994-2.256-1.549-4.748-1.549-7.371c0-10.113,8.198-18.311,18.311-18.311V41.78C132.489,41.78,118.375,55.894,118.375,73.243"/>
	<path clip-path="url(#SVGID_2_)" fill="#FFFFFF" d="M161.247,43.922l-4.771,12.262c3.896,1.518,7.146,4.324,9.217,7.903h14.246
		C177.125,54.854,170.17,47.407,161.247,43.922"/>
	<path clip-path="url(#SVGID_2_)" fill="#F38B00" d="M156.476,90.301l4.771,12.262c8.923-3.485,15.878-10.931,18.692-20.165h-14.246
		C163.622,85.978,160.371,88.784,156.476,90.301"/>
	<path clip-path="url(#SVGID_2_)" fill="#FFFFFF" d="M91.629,90.843c-0.209-0.689-0.406-1.383-0.592-2.081
		c-0.011-0.042-0.021-0.085-0.032-0.128c-0.17-0.645-0.329-1.294-0.478-1.947c-0.03-0.133-0.058-0.266-0.087-0.399
		c-0.124-0.561-0.241-1.124-0.35-1.69c-0.047-0.251-0.09-0.504-0.134-0.756c-0.081-0.451-0.159-0.903-0.229-1.357
		c-0.06-0.387-0.111-0.776-0.163-1.165c-0.357-2.652-0.55-5.348-0.548-8.078H76.593c-0.004,2.977,0.184,5.918,0.534,8.818h-0.001
		c0.007,0.064,0.018,0.126,0.026,0.19c0.098,0.79,0.205,1.578,0.328,2.361c0.034,0.216,0.073,0.43,0.109,0.646
		c0.107,0.643,0.218,1.286,0.342,1.924c0.065,0.34,0.138,0.677,0.209,1.015c0.106,0.509,0.212,1.018,0.329,1.523
		c0.103,0.445,0.214,0.886,0.325,1.328c0.099,0.395,0.197,0.791,0.302,1.184c0.141,0.523,0.291,1.042,0.442,1.56
		c0.064,0.217,0.12,0.436,0.185,0.652l0.007-0.002c0.858,2.838,1.874,5.607,3.055,8.289l11.386-5.007
		C93.189,95.497,92.343,93.198,91.629,90.843z"/>
	<path clip-path="url(#SVGID_2_)" fill="#F38B00" d="M149.838,134.065c-16.77,0-31.969-6.827-42.981-17.842l-8.801,8.801
		c13.253,13.256,31.556,21.462,51.782,21.462c37.35,0,68.167-27.958,72.673-64.088h-12.541
		C205.543,111.608,180.264,134.065,149.838,134.065"/>
	<path clip-path="url(#SVGID_2_)" fill="#F38B00" d="M149.838,12.421c13.622,0,26.208,4.504,36.358,12.099l7.445-9.977
		C181.424,5.411,166.264,0,149.838,0c-31.08,0-57.634,19.36-68.27,46.678l11.59,4.51C102.007,28.521,124.076,12.421,149.838,12.421"
		/>
	<path clip-path="url(#SVGID_2_)" fill="#FFFFFF" d="M209.972,64.088h12.541c-1.345-10.779-5.032-20.829-10.535-29.628l-10.56,6.59
		C205.729,47.932,208.704,55.733,209.972,64.088"/>
	<path clip-path="url(#SVGID_2_)" fill="#F38B00" d="M195.845,64.088h12.582c-3.283-21.096-17.731-38.54-37.089-46.098
		l-4.496,11.554C181.565,35.292,192.701,48.262,195.845,64.088"/>
	<path clip-path="url(#SVGID_2_)" fill="#FFFFFF" d="M149.838,26.337L149.838,26.337l0.001-12.39h-0.001
		c-25.116,0-46.63,15.697-55.257,37.794l11.546,4.493C112.951,38.754,129.97,26.337,149.838,26.337"/>
	<path clip-path="url(#SVGID_2_)" fill="#F38B00" d="M102.932,73.243L102.932,73.243l-12.39-0.001v0.001
		c0,24.917,15.454,46.283,37.276,55.043l4.601-11.501C115.156,109.855,102.932,92.954,102.932,73.243"/>
	<path clip-path="url(#SVGID_2_)" fill="#FFFFFF" d="M149.838,120.149v12.39c29.583,0,54.173-21.776,58.588-50.141h-12.583
		C191.574,103.895,172.57,120.149,149.838,120.149"/>
</g>
</svg>
