<?xml version="1.0" encoding="utf-8"?>
<!-- Generator: Adobe Illustrator 18.1.1, SVG Export Plug-In . SVG Version: 6.00 Build 0)  -->
<svg version="1.1" xmlns="http://www.w3.org/2000/svg" xmlns:xlink="http://www.w3.org/1999/xlink" x="0px" y="0px"
	 viewBox="0 0 100 100" enable-background="new 0 0 100 100" xml:space="preserve">
<g id="public_x5F_key">
</g>
<g id="private_x5F_key">
</g>
<g id="chef_x5F_user">
</g>
<g id="chef_x5F_role">
</g>
<g id="chef_x5F_organization">
</g>
<g id="chef_x5F_node">
</g>
<g id="chef_x5F_mirror">
</g>
<g id="chef_x5F_group">
</g>
<g id="chef_x5F_environment">
</g>
<g id="chef_x5F_data_x5F_bag">
</g>
<g id="chef_x5F_container">
</g>
<g id="chef_x5F_client">
</g>
<g id="chef_x5F_acl">
</g>
<g id="machine_x5F_image">
</g>
<g id="machine_x5F_file">
</g>
<g id="machine_x5F_execute">
</g>
<g id="machine_x5F_batch">
</g>
<g id="machine">
</g>
<g id="load_x5F_balancer">
	<g>
		<g>
			<path d="M44.6,55.7c-3-2.9-3-7.7-0.1-10.7c2.9-3,7.7-3,10.7-0.1c3,2.9,3,7.7,0.1,10.7C52.4,58.6,47.6,58.7,44.6,55.7L44.6,55.7z
				 M52.4,47.9c-1.3-1.3-3.5-1.3-4.9,0c-1.3,1.3-1.3,3.5,0,4.9c1.3,1.3,3.5,1.3,4.9,0C53.7,51.4,53.7,49.3,52.4,47.9L52.4,47.9z"/>
		</g>
		<g>
			<path d="M59.7,100H40.1c-2.1,0-3.8-1.7-3.8-3.8V76.6c0-2.1,1.7-3.8,3.8-3.8h19.6c2.1,0,3.8,1.7,3.8,3.8v19.6
				C63.4,98.3,61.8,100,59.7,100L59.7,100z M43.9,92.4h12v-12h-12V92.4L43.9,92.4z"/>
		</g>
		<g>
			<path d="M59.8,27.2H40.2c-2.1,0-3.8-1.7-3.8-3.8V3.8c0-2.1,1.7-3.8,3.8-3.8h19.6c2.1,0,3.8,1.7,3.8,3.8v19.6
				C63.6,25.5,61.9,27.2,59.8,27.2L59.8,27.2z M44,19.6h12v-12H44V19.6L44,19.6z"/>
		</g>
		<g>
			<path d="M23.7,100H4.1c-2.1,0-3.8-1.7-3.8-3.8V76.6c0-2.1,1.7-3.8,3.8-3.8h19.6c2.1,0,3.8,1.7,3.8,3.8v19.6
				C27.5,98.3,25.8,100,23.7,100L23.7,100z M7.9,92.4h12v-12h-12V92.4L7.9,92.4z"/>
		</g>
		<g>
			<path d="M95.9,100H76.3c-2.1,0-3.8-1.7-3.8-3.8V76.6c0-2.1,1.7-3.8,3.8-3.8h19.6c2.1,0,3.8,1.7,3.8,3.8v19.6
				C99.7,98.3,98,100,95.9,100L95.9,100z M80.1,92.4h12v-12h-12V92.4L80.1,92.4z"/>
		</g>
		<rect x="55.8" y="48.7" width="32.3" height="3.2"/>
		<rect x="11" y="48.7" width="32.4" height="3.2"/>
		<rect x="85.1" y="50.9" width="3" height="22.8"/>
		<rect x="11" y="50.9" width="3.3" height="22.9"/>
		<rect x="48.4" y="54.6" width="3" height="22.8"/>
		<rect x="48.6" y="23.1" width="3" height="22.8"/>
	</g>
</g>
</svg>
