<?xml version="1.0" encoding="utf-8"?>
<!-- Generator: Adobe Illustrator 18.1.1, SVG Export Plug-In . SVG Version: 6.00 Build 0)  -->
<svg version="1.1" xmlns="http://www.w3.org/2000/svg" xmlns:xlink="http://www.w3.org/1999/xlink" x="0px" y="0px"
	 viewBox="0 0 100 100" enable-background="new 0 0 100 100" xml:space="preserve">
<g id="deliver">
</g>
<g id="rehearse">
</g>
<g id="union">
</g>
<g id="publish">
</g>
<g id="accept">
</g>
<g id="build">
</g>
<g id="approve">
</g>
<g id="verify">
</g>
<g id="workstation">
</g>
<g id="tests">
</g>
<g id="secrets">
	<g>
		<g>
			<g>
				<path d="M95.7,100H4.3C1.9,100,0,98.1,0,95.7V4.3C0,1.9,1.9,0,4.3,0h91.5c2.4,0,4.3,1.9,4.3,4.3v91.5
					C100,98.1,98.1,100,95.7,100L95.7,100z M8.5,91.5h83v-83h-83V91.5L8.5,91.5z"/>
			</g>
			<g>
				<path d="M82.2,84.4H17.7c-1.2,0-2.1-1-2.1-2.1V17.8c0-1.2,1-2.1,2.1-2.1h64.5c1.2,0,2.1,1,2.1,2.1v64.5
					C84.4,83.4,83.4,84.4,82.2,84.4L82.2,84.4z M19.9,80.1h60.2V19.9H19.9V80.1L19.9,80.1z"/>
			</g>
			<g>
				<g>
					<path d="M17.7,41.9c-2.4,0-4.3-1.9-4.3-4.3v-5.2c0-2.4,1.9-4.3,4.3-4.3S22,30,22,32.4v5.2C22,40,20.1,41.9,17.7,41.9L17.7,41.9
						z"/>
				</g>
				<g>
					<path d="M17.7,71.9c-2.4,0-4.3-1.9-4.3-4.3v-5.3c0-2.4,1.9-4.3,4.3-4.3S22,60,22,62.4v5.3C22,70,20.1,71.9,17.7,71.9L17.7,71.9
						z"/>
				</g>
			</g>
		</g>
		<g>
			<g>
				<path d="M50,62.8c-7.1,0-12.8-5.8-12.8-12.8c0-7.1,5.8-12.8,12.8-12.8c7.1,0,12.8,5.8,12.8,12.8C62.8,57.1,57.1,62.8,50,62.8
					L50,62.8z M50,41.4c-4.7,0-8.6,3.8-8.6,8.6c0,4.7,3.8,8.6,8.6,8.6c4.7,0,8.6-3.8,8.6-8.6C58.6,45.3,54.7,41.4,50,41.4L50,41.4z"
					/>
			</g>
			<g>
				<g>
					<path d="M41.9,44.1c-0.5,0-1.1-0.2-1.5-0.6l-3-3c-0.8-0.8-0.8-2.2,0-3c0.8-0.8,2.2-0.8,3,0l3,3c0.8,0.8,0.8,2.2,0,3
						C43,43.9,42.5,44.1,41.9,44.1L41.9,44.1z"/>
				</g>
				<g>
					<path d="M61,63.2c-0.5,0-1.1-0.2-1.5-0.6L56,59c-0.8-0.8-0.8-2.2,0-3c0.8-0.8,2.2-0.8,3,0l3.5,3.5c0.8,0.8,0.8,2.2,0,3
						C62.1,63,61.6,63.2,61,63.2L61,63.2z"/>
				</g>
			</g>
			<g>
				<g>
					<path d="M58.1,44.1c-0.5,0-1.1-0.2-1.5-0.6c-0.8-0.8-0.8-2.2,0-3l3-3c0.8-0.8,2.2-0.8,3,0c0.8,0.8,0.8,2.2,0,3l-3,3
						C59.1,43.9,58.6,44.1,58.1,44.1L58.1,44.1z"/>
				</g>
				<g>
					<path d="M39,63.2c-0.5,0-1.1-0.2-1.5-0.6c-0.8-0.8-0.8-2.2,0-3L41,56c0.8-0.8,2.2-0.8,3,0c0.8,0.8,0.8,2.2,0,3l-3.5,3.5
						C40,63,39.5,63.2,39,63.2L39,63.2z"/>
				</g>
			</g>
			<g>
				<g>
					<path d="M50,40.7c-1.2,0-2.1-1-2.1-2.1v-4.2c0-1.2,0.9-2.1,2.1-2.1c1.2,0,2.1,1,2.1,2.1v4.2C52.1,39.8,51.2,40.7,50,40.7
						L50,40.7z"/>
				</g>
				<g>
					<path d="M50,67.7L50,67.7c-1.2,0-2.1-1-2.1-2.1l0-5c0-1.2,1-2.1,2.1-2.1l0,0c1.2,0,2.1,1,2.1,2.1l0,5
						C52.1,66.8,51.2,67.7,50,67.7L50,67.7z"/>
				</g>
			</g>
			<g>
				<g>
					<path d="M65.6,52.1h-4.2c-1.2,0-2.1-1-2.1-2.1c0-1.2,0.9-2.1,2.1-2.1h4.2c1.2,0,2.1,1,2.1,2.1C67.7,51.2,66.8,52.1,65.6,52.1
						L65.6,52.1z"/>
				</g>
				<g>
					<path d="M39.4,52.1h-5c-1.2,0-2.1-1-2.1-2.1c0-1.2,0.9-2.1,2.1-2.1h5c1.2,0,2.1,1,2.1,2.1C41.5,51.2,40.5,52.1,39.4,52.1
						L39.4,52.1z"/>
				</g>
			</g>
		</g>
	</g>
</g>
<g id="rules">
</g>
<g id="ruby_1_">
</g>
<g id="rubocop">
</g>
<g id="resources">
</g>
<g id="reports">
</g>
<g id="recipes">
</g>
<g id="recipe">
</g>
<g id="recipe_x5F_dsl">
</g>
<g id="policygroup">
</g>
<g id="policyfile">
</g>
<g id="knife">
</g>
<g id="kitchen">
</g>
<g id="foodcritic">
</g>
<g id="development_x5F_kit">
</g>
<g id="cookbooks">
</g>
<g id="controls">
</g>
<g id="config-rb">
</g>
<g id="ci">
</g>
<g id="chef_x5F_repo">
</g>
<g id="chefspec">
</g>
<g id="cd">
</g>
</svg>
