<?xml version="1.0" encoding="utf-8"?>
<!-- Generator: Adobe Illustrator 18.1.1, SVG Export Plug-In . SVG Version: 6.00 Build 0)  -->
<svg version="1.1" xmlns="http://www.w3.org/2000/svg" xmlns:xlink="http://www.w3.org/1999/xlink" x="0px" y="0px"
	 viewBox="0 0 100 100" enable-background="new 0 0 100 100" xml:space="preserve">
<g id="supermarket">
</g>
<g id="server">
</g>
<g id="push-jobs">
	<g>
		<path d="M28.6,50c0,3,0.7,6,1.8,8.7l8.2-3.7c-0.7-1.5-1-3.2-1-5c0-6.8,5.7-12.5,12.5-12.5v-9C38.3,28.5,28.6,38.2,28.6,50z"/>
		<path d="M54.7,61.7L58,70c6.2-2.3,10.9-7.5,12.9-13.8h-9.7C59.7,58.7,57.4,60.7,54.7,61.7z"/>
		<path d="M50.2,91.5c-11.5,0-21.9-4.7-29.4-12.2l-6,6c9,9.2,21.6,14.7,35.5,14.7c25.6,0,46.7-19.2,49.8-43.8h-8.5
			C88.3,76.2,71.1,91.5,50.2,91.5z"/>
		<path d="M50.2,8.5c9.4,0,17.9,3,24.9,8.3l5.2-6.8C71.9,3.7,61.4,0,50.2,0C28.9,0,10.7,13.2,3.3,31.8l8,3.2
			C17.4,19.5,32.6,8.5,50.2,8.5z"/>
		<path d="M81.8,43.8h8.5c-2.2-14.3-12.2-26.3-25.4-31.5l-3,7.8C71.9,24.2,79.6,33,81.8,43.8z"/>
		<path d="M18.1,50L18.1,50H9.5l0,0c0,17,10.5,31.7,25.6,37.7l3.2-7.8C26.4,75,18.1,63.5,18.1,50z"/>
		<path d="M50.2,72.5c-12.5,0-22.6-10.2-22.6-22.5s10.2-22.5,22.6-22.5c10.4,0,19.1,6.8,21.7,16.3h8.7C77.8,29.7,65.2,19,50.2,19
			c-17.2,0-31.1,13.8-31.1,31s13.9,31,31.1,31c15.1,0,27.6-10.7,30.4-24.7h-8.7C69.2,65.7,60.5,72.5,50.2,72.5z"/>
		<path d="M35,65.2c3.8,3.8,9.4,6.3,15.2,6.3v-9c-3.5,0-6.5-1.3-8.9-3.7L35,65.2z"/>
		<path d="M58,30l-3.3,8.3c2.7,1,4.8,3,6.4,5.3h9.7C68.9,37.5,64,32.3,58,30z"/>
		<path d="M91.3,43.8h8.5c-1-7.3-3.5-14.2-7.2-20.2l-7.2,4.5C88.5,32.7,90.5,38,91.3,43.8z"/>
		<path d="M50.2,18L50.2,18V9.5l0,0c-17.2,0-31.9,10.7-37.8,25.8l7.9,3C24.9,26.5,36.6,18,50.2,18z"/>
		<path d="M50.2,82v8.5c20.2,0,37.1-14.8,40.1-34.2h-8.7C78.8,71,65.7,82,50.2,82z"/>
		<path d="M0,50.1c0.3,10.4,2.2,16.7,4.4,21.6l8.3-3.4c-1.8-4.4-3.8-9-4.1-18.2"/>
	</g>
</g>
<g id="ohai">
</g>
<g id="manage">
</g>
<g id="delivery">
</g>
<g id="dk">
</g>
<g id="community">
</g>
<g id="client">
</g>
<g id="analytics">
</g>
</svg>
