<?xml version="1.0" encoding="utf-8"?>
<!-- Generator: Adobe Illustrator 18.1.1, SVG Export Plug-In . SVG Version: 6.00 Build 0)  -->
<svg version="1.1" xmlns="http://www.w3.org/2000/svg" xmlns:xlink="http://www.w3.org/1999/xlink" x="0px" y="0px"
	 viewBox="0 0 100 100" enable-background="new 0 0 100 100" xml:space="preserve">
<g id="supermarket">
</g>
<g id="server">
</g>
<g id="push-jobs">
</g>
<g id="ohai">
</g>
<g id="manage">
	<g>
		<g>
			<g>
				<path d="M95.8,86.2H4.2c-2.3,0-4.2-1.4-4.2-3V16.8c0-1.7,1.9-3,4.2-3h91.6c2.3,0,4.2,1.4,4.2,3v66.4
					C100,84.9,98.1,86.2,95.8,86.2L95.8,86.2z M8.4,80.1h83.2V19.9H8.4V80.1L8.4,80.1z"/>
			</g>
			<g>
				<path d="M94.3,36.1H5.7c-1.2,0-2.1-0.7-2.1-1.5c0-0.8,0.9-1.5,2.1-1.5h88.6c1.2,0,2.1,0.7,2.1,1.5
					C96.4,35.4,95.5,36.1,94.3,36.1L94.3,36.1z"/>
			</g>
			<path d="M19.1,22.7c-2.9,0-5.3,1.7-5.3,3.8c0,2.1,2.4,3.8,5.3,3.8c2.9,0,5.3-1.7,5.3-3.8C24.4,24.4,22,22.7,19.1,22.7L19.1,22.7z
				"/>
			<path d="M33.5,22.7c-2.9,0-5.3,1.7-5.3,3.8c0,2.1,2.4,3.8,5.3,3.8c2.9,0,5.3-1.7,5.3-3.8C38.8,24.4,36.4,22.7,33.5,22.7
				L33.5,22.7z"/>
			<path d="M47.8,22.7c-2.9,0-5.3,1.7-5.3,3.8c0,2.1,2.4,3.8,5.3,3.8c2.9,0,5.3-1.7,5.3-3.8C53.1,24.4,50.8,22.7,47.8,22.7
				L47.8,22.7z"/>
		</g>
		<g>
			<g>
				<path d="M50,48.3H21.3c-1.2,0-2.1-0.7-2.1-1.5c0-0.8,0.9-1.5,2.1-1.5H50c1.2,0,2.1,0.7,2.1,1.5C52.1,47.7,51.2,48.3,50,48.3
					L50,48.3z"/>
			</g>
			<g>
				<path d="M50,58H21.3c-1.2,0-2.1-0.7-2.1-1.5c0-0.8,0.9-1.5,2.1-1.5H50c1.2,0,2.1,0.7,2.1,1.5C52.1,57.3,51.2,58,50,58L50,58z"/>
			</g>
			<g>
				<path d="M50,67.6H21.3c-1.2,0-2.1-0.7-2.1-1.5c0-0.8,0.9-1.5,2.1-1.5H50c1.2,0,2.1,0.7,2.1,1.5C52.1,67,51.2,67.6,50,67.6
					L50,67.6z"/>
			</g>
			<g>
				<path d="M78.7,67.6H60.5c-1.2,0-2.1-0.7-2.1-1.5V46.8c0-0.8,0.9-1.5,2.1-1.5h18.2c1.2,0,2.1,0.7,2.1,1.5v19.3
					C80.8,67,79.9,67.6,78.7,67.6L78.7,67.6z M62.6,64.6h14V48.3h-14V64.6L62.6,64.6z"/>
			</g>
		</g>
	</g>
</g>
<g id="delivery">
</g>
<g id="dk">
</g>
<g id="community">
</g>
<g id="client">
</g>
<g id="analytics">
</g>
</svg>
