<?xml version="1.0" encoding="utf-8"?>
<!-- Generator: Adobe Illustrator 18.1.1, SVG Export Plug-In . SVG Version: 6.00 Build 0)  -->
<svg version="1.1" xmlns="http://www.w3.org/2000/svg" xmlns:xlink="http://www.w3.org/1999/xlink" x="0px" y="0px"
	 viewBox="0 0 100 100" enable-background="new 0 0 100 100" xml:space="preserve">
<g id="deliver">
</g>
<g id="rehearse">
</g>
<g id="union">
</g>
<g id="publish">
</g>
<g id="accept">
</g>
<g id="build">
</g>
<g id="approve">
</g>
<g id="verify">
</g>
<g id="workstation">
</g>
<g id="tests">
</g>
<g id="secrets">
</g>
<g id="rules">
</g>
<g id="ruby_1_">
</g>
<g id="rubocop">
</g>
<g id="resources">
</g>
<g id="reports">
</g>
<g id="recipes">
</g>
<g id="recipe">
</g>
<g id="recipe_x5F_dsl">
</g>
<g id="policygroup">
</g>
<g id="policyfile">
</g>
<g id="knife">
</g>
<g id="kitchen">
</g>
<g id="foodcritic">
</g>
<g id="development_x5F_kit">
</g>
<g id="cookbooks">
</g>
<g id="controls">
</g>
<g id="config-rb">
</g>
<g id="ci">
	<g>
		<path d="M50.9,95.6c-25.5,0-46.3-20.8-46.3-46.3S25.3,3.1,50.9,3.1s46.3,20.8,46.3,46.3S76.4,95.6,50.9,95.6z M50.9,11.6
			c-20.8,0-37.8,16.9-37.8,37.8c0,20.8,16.9,37.8,37.8,37.8s37.8-16.9,37.8-37.8C88.6,28.5,71.7,11.6,50.9,11.6z"/>
		<g>
			<path d="M6.2,99.6c-1.1,0-2.2-0.4-3-1.2c-1.7-1.7-1.7-4.4,0-6l35-35c1.2-1.2,3-1.6,4.6-0.9c1.6,0.7,2.6,2.2,2.6,3.9v14
				c0,2.3-1.9,4.3-4.3,4.3s-4.3-1.9-4.3-4.3v-3.7L9.2,98.3C8.4,99.2,7.3,99.6,6.2,99.6z"/>
			<path d="M41.2,64.6h-14c-2.3,0-4.3-1.9-4.3-4.3c0-2.3,1.9-4.3,4.3-4.3h14c2.3,0,4.3,1.9,4.3,4.3C45.5,62.7,43.6,64.6,41.2,64.6z"
				/>
		</g>
		<g>
			<path d="M93.3,100c-1.1,0-2.2-0.4-3-1.2l-35-35c-1.2-1.2-1.6-3-0.9-4.6c0.7-1.6,2.2-2.6,3.9-2.6h14c2.3,0,4.3,1.9,4.3,4.3
				c0,2.3-1.9,4.3-4.3,4.3h-3.7l27.7,27.7c1.7,1.7,1.7,4.4,0,6C95.5,99.6,94.4,100,93.3,100z"/>
			<path d="M58.3,79c-2.3,0-4.3-1.9-4.3-4.3v-14c0-2.3,1.9-4.3,4.3-4.3c2.3,0,4.3,1.9,4.3,4.3v14C62.6,77.1,60.7,79,58.3,79z"/>
		</g>
		<g>
			<path d="M58.8,43.5c-0.5,0-1.1-0.1-1.6-0.3c-1.6-0.7-2.6-2.2-2.6-3.9v-14c0-2.3,1.9-4.3,4.3-4.3s4.3,1.9,4.3,4.3V29L90.8,1.2
				c1.7-1.7,4.4-1.7,6,0c1.7,1.7,1.7,4.4,0,6l-35,35C61,43.1,59.9,43.5,58.8,43.5z"/>
			<path d="M72.8,43.5h-14c-2.3,0-4.3-1.9-4.3-4.3s1.9-4.3,4.3-4.3h14c2.3,0,4.3,1.9,4.3,4.3S75.2,43.5,72.8,43.5z"/>
		</g>
		<g>
			<path d="M41.5,43.8h-14c-2.3,0-4.3-1.9-4.3-4.3c0-2.3,1.9-4.3,4.3-4.3h3.7L3.5,7.6c-1.7-1.7-1.7-4.4,0-6c1.7-1.7,4.4-1.7,6,0
				l35,35c1.2,1.2,1.6,3,0.9,4.6C44.8,42.8,43.2,43.8,41.5,43.8z"/>
			<path d="M41.5,43.8c-2.3,0-4.3-1.9-4.3-4.3v-14c0-2.3,1.9-4.3,4.3-4.3c2.3,0,4.3,1.9,4.3,4.3v14C45.7,41.9,43.8,43.8,41.5,43.8z"
				/>
		</g>
	</g>
</g>
<g id="chef_x5F_repo">
</g>
<g id="chefspec">
</g>
<g id="cd">
</g>
</svg>
