<?xml version="1.0" encoding="utf-8"?>
<!-- Generator: Adobe Illustrator 18.1.1, SVG Export Plug-In . SVG Version: 6.00 Build 0)  -->
<svg version="1.1" xmlns="http://www.w3.org/2000/svg" xmlns:xlink="http://www.w3.org/1999/xlink" x="0px" y="0px"
	 viewBox="0 0 100 100" enable-background="new 0 0 100 100" xml:space="preserve">
<g id="deliver">
</g>
<g id="rehearse">
</g>
<g id="union">
</g>
<g id="publish">
</g>
<g id="accept">
</g>
<g id="build">
</g>
<g id="approve">
</g>
<g id="verify">
</g>
<g id="workstation">
</g>
<g id="tests">
</g>
<g id="secrets">
</g>
<g id="rules">
</g>
<g id="ruby_1_">
</g>
<g id="rubocop">
</g>
<g id="resources">
	<g>
		<g>
			<g>
				<path d="M50.2,61.9c-0.7,0-1.3-0.2-1.9-0.5L2,35.5c-1.3-0.7-2-2-2-3.5c0-1.4,0.8-2.8,2-3.5L47.9,2.9c1.2-0.7,2.7-0.7,3.9,0
					L98,28.8c1.3,0.7,2,2,2,3.5c0,1.4-0.8,2.8-2,3.5L52.1,61.4C51.5,61.7,50.8,61.9,50.2,61.9L50.2,61.9z M12.1,32.1l38.1,21.3
					l37.8-21.1L49.8,10.9L12.1,32.1L12.1,32.1z"/>
			</g>
			<g>
				<path d="M50.2,79.8c-0.7,0-1.3-0.2-1.9-0.5L2,53.4c-1.9-1.1-2.6-3.5-1.5-5.4c1.1-1.9,3.5-2.6,5.4-1.5l44.3,24.8l43.9-24.6
					c1.9-1.1,4.3-0.4,5.4,1.5c1.1,1.9,0.4,4.3-1.5,5.4L52.1,79.2C51.5,79.6,50.8,79.8,50.2,79.8L50.2,79.8z"/>
			</g>
			<g>
				<path d="M50.2,97.6c-0.7,0-1.3-0.2-1.9-0.5L2,71.2c-1.9-1.1-2.6-3.5-1.5-5.4c1.1-1.9,3.5-2.6,5.4-1.5l44.3,24.8l43.9-24.6
					c1.9-1.1,4.3-0.4,5.4,1.5c1.1,1.9,0.4,4.3-1.5,5.4L52.1,97.1C51.5,97.4,50.8,97.6,50.2,97.6L50.2,97.6z"/>
			</g>
		</g>
		<g>
			<g>
				<path d="M49.8,41.6c-5,0-9.1-4.1-9.1-9.1c0-5,4.1-9.1,9.1-9.1c5,0,9.1,4.1,9.1,9.1C58.8,37.5,54.8,41.6,49.8,41.6L49.8,41.6z
					 M49.8,26.5c-3.3,0-6.1,2.7-6.1,6.1c0,3.3,2.7,6.1,6.1,6.1c3.3,0,6.1-2.7,6.1-6.1C55.8,29.2,53.1,26.5,49.8,26.5L49.8,26.5z"/>
			</g>
			<g>
				<g>
					<path d="M44.1,28.3c-0.4,0-0.8-0.1-1.1-0.4l-2.1-2.1c-0.6-0.6-0.6-1.5,0-2.1c0.6-0.6,1.5-0.6,2.1,0l2.1,2.1
						c0.6,0.6,0.6,1.5,0,2.1C44.8,28.2,44.4,28.3,44.1,28.3L44.1,28.3z"/>
				</g>
				<g>
					<path d="M57.6,41.9c-0.4,0-0.8-0.1-1.1-0.4L54,38.9c-0.6-0.6-0.6-1.5,0-2.1c0.6-0.6,1.5-0.6,2.1,0l2.5,2.5
						c0.6,0.6,0.6,1.5,0,2.1C58.3,41.7,58,41.9,57.6,41.9L57.6,41.9z"/>
				</g>
			</g>
			<g>
				<g>
					<path d="M55.5,28.3c-0.4,0-0.8-0.1-1.1-0.4c-0.6-0.6-0.6-1.5,0-2.1l2.1-2.1c0.6-0.6,1.5-0.6,2.1,0c0.6,0.6,0.6,1.5,0,2.1
						l-2.1,2.1C56.2,28.2,55.9,28.3,55.5,28.3L55.5,28.3z"/>
				</g>
				<g>
					<path d="M41.9,41.9c-0.4,0-0.8-0.1-1.1-0.4c-0.6-0.6-0.6-1.5,0-2.1l2.5-2.5c0.6-0.6,1.5-0.6,2.1,0c0.6,0.6,0.6,1.5,0,2.1
						L43,41.4C42.7,41.7,42.3,41.9,41.9,41.9L41.9,41.9z"/>
				</g>
			</g>
			<g>
				<g>
					<path d="M49.8,26c-0.8,0-1.5-0.7-1.5-1.5v-3c0-0.8,0.7-1.5,1.5-1.5c0.8,0,1.5,0.7,1.5,1.5v3C51.3,25.3,50.6,26,49.8,26L49.8,26
						z"/>
				</g>
				<g>
					<path d="M49.8,45.1L49.8,45.1c-0.8,0-1.5-0.7-1.5-1.5l0-3.5c0-0.8,0.7-1.5,1.5-1.5l0,0c0.8,0,1.5,0.7,1.5,1.5l0,3.5
						C51.3,44.4,50.6,45.1,49.8,45.1L49.8,45.1z"/>
				</g>
			</g>
			<g>
				<g>
					<path d="M60.8,34h-3c-0.8,0-1.5-0.7-1.5-1.5c0-0.8,0.7-1.5,1.5-1.5h3c0.8,0,1.5,0.7,1.5,1.5C62.3,33.4,61.6,34,60.8,34L60.8,34
						z"/>
				</g>
				<g>
					<path d="M42.2,34h-3.5c-0.8,0-1.5-0.7-1.5-1.5c0-0.8,0.7-1.5,1.5-1.5h3.5c0.8,0,1.5,0.7,1.5,1.5C43.7,33.4,43.1,34,42.2,34
						L42.2,34z"/>
				</g>
			</g>
		</g>
	</g>
</g>
<g id="reports">
</g>
<g id="recipes">
</g>
<g id="recipe">
</g>
<g id="recipe_x5F_dsl">
</g>
<g id="policygroup">
</g>
<g id="policyfile">
</g>
<g id="knife">
</g>
<g id="kitchen">
</g>
<g id="foodcritic">
</g>
<g id="development_x5F_kit">
</g>
<g id="cookbooks">
</g>
<g id="controls">
</g>
<g id="config-rb">
</g>
<g id="ci">
</g>
<g id="chef_x5F_repo">
</g>
<g id="chefspec">
</g>
<g id="cd">
</g>
</svg>
