<?xml version="1.0" encoding="utf-8"?>
<!-- Generator: Adobe Illustrator 18.1.1, SVG Export Plug-In . SVG Version: 6.00 Build 0)  -->
<svg version="1.1" xmlns="http://www.w3.org/2000/svg" xmlns:xlink="http://www.w3.org/1999/xlink" x="0px" y="0px"
	 viewBox="0 0 100 100" enable-background="new 0 0 100 100" xml:space="preserve">
<g id="tests">
</g>
<g id="template">
</g>
<g id="resources">
	<g>
		<g>
			<path d="M50.2,61.9c-0.7,0-1.3-0.2-1.9-0.5L2,35.5c-1.3-0.7-2-2-2-3.5c0-1.4,0.8-2.8,2-3.5L47.9,2.9c1.2-0.7,2.7-0.7,3.9,0
				L98,28.8c1.3,0.7,2,2,2,3.5c0,1.4-0.8,2.8-2,3.5L52.1,61.4C51.5,61.7,50.8,61.9,50.2,61.9L50.2,61.9z M12.1,32.1l38.1,21.3
				l37.8-21.1L49.8,10.9L12.1,32.1L12.1,32.1z"/>
		</g>
		<g>
			<path d="M50.2,79.8c-0.7,0-1.3-0.2-1.9-0.5L2,53.4c-1.9-1.1-2.6-3.5-1.5-5.4c1.1-1.9,3.5-2.6,5.4-1.5l44.3,24.8l43.9-24.6
				c1.9-1.1,4.3-0.4,5.4,1.5c1.1,1.9,0.4,4.3-1.5,5.4L52.1,79.2C51.5,79.6,50.8,79.8,50.2,79.8L50.2,79.8z"/>
		</g>
		<g>
			<path d="M50.2,97.6c-0.7,0-1.3-0.2-1.9-0.5L2,71.2c-1.9-1.1-2.6-3.5-1.5-5.4c1.1-1.9,3.5-2.6,5.4-1.5l44.3,24.8l43.9-24.6
				c1.9-1.1,4.3-0.4,5.4,1.5c1.1,1.9,0.4,4.3-1.5,5.4L52.1,97.1C51.5,97.4,50.8,97.6,50.2,97.6L50.2,97.6z"/>
		</g>
	</g>
</g>
<g id="recipes">
</g>
<g id="providers">
</g>
<g id="metadata">
</g>
<g id="libraries">
</g>
<g id="files">
</g>
<g id="definitions">
</g>
<g id="version">
</g>
<g id="cookbook">
</g>
<g id="attributes">
</g>
</svg>
