<?xml version="1.0" encoding="utf-8"?>
<!-- Generator: Adobe Illustrator 18.1.1, SVG Export Plug-In . SVG Version: 6.00 Build 0)  -->
<svg version="1.1" xmlns="http://www.w3.org/2000/svg" xmlns:xlink="http://www.w3.org/1999/xlink" x="0px" y="0px"
	 viewBox="0 0 100 100" enable-background="new 0 0 100 100" xml:space="preserve">
<g id="deliver">
</g>
<g id="rehearse">
</g>
<g id="union">
</g>
<g id="publish">
</g>
<g id="accept">
</g>
<g id="build">
</g>
<g id="approve">
</g>
<g id="verify">
</g>
<g id="workstation">
</g>
<g id="tests">
</g>
<g id="secrets">
</g>
<g id="rules">
</g>
<g id="ruby_1_">
</g>
<g id="rubocop">
</g>
<g id="resources">
</g>
<g id="reports">
</g>
<g id="recipes">
	<g>
		<path d="M69.3,77V1.6c0-0.9-0.7-1.6-1.6-1.6H11c-0.9,0-1.6,0.7-1.6,1.6V77c0,0.9,0.7,1.6,1.6,1.6h56.7
			C68.6,78.6,69.3,77.9,69.3,77z M46.6,8.5h7.9c0.9,0,1.6,0.7,1.6,1.6c0,0.9-0.7,1.6-1.6,1.6h-7.9c-0.9,0-1.6-0.7-1.6-1.6
			C45,9.2,45.7,8.5,46.6,8.5z M53.7,17.1c0,0.9-0.7,1.6-1.6,1.6H23.6c-0.9,0-1.6-0.7-1.6-1.6c0-0.9,0.7-1.6,1.6-1.6h28.5
			C53,15.5,53.7,16.2,53.7,17.1z M32.9,8.5h7.9c0.9,0,1.6,0.7,1.6,1.6c0,0.9-0.7,1.6-1.6,1.6h-7.9c-0.9,0-1.6-0.7-1.6-1.6
			C31.3,9.2,32,8.5,32.9,8.5z M19.2,8.5h7.9c0.9,0,1.6,0.7,1.6,1.6c0,0.9-0.7,1.6-1.6,1.6h-7.9c-0.9,0-1.6-0.7-1.6-1.6
			C17.6,9.2,18.3,8.5,19.2,8.5z M46.5,31.9H23.6c-0.9,0-1.6-0.7-1.6-1.6c0-0.9,0.7-1.6,1.6-1.6h22.9c0.9,0,1.6,0.7,1.6,1.6
			C48.1,31.2,47.4,31.9,46.5,31.9z M48.1,37c0,0.9-0.7,1.6-1.6,1.6H23.6c-0.9,0-1.6-0.7-1.6-1.6c0-0.9,0.7-1.6,1.6-1.6h22.9
			C47.4,35.4,48.1,36.1,48.1,37z M27.1,52.3h-7.9c-0.9,0-1.6-0.7-1.6-1.6c0-0.9,0.7-1.6,1.6-1.6h7.9c0.9,0,1.6,0.7,1.6,1.6
			C28.7,51.6,28,52.3,27.1,52.3z M58.8,45.4H23.6c-0.9,0-1.6-0.7-1.6-1.6c0-0.9,0.7-1.6,1.6-1.6h35.2c0.9,0,1.6,0.7,1.6,1.6
			C60.4,44.7,59.7,45.4,58.8,45.4z M58.8,25.5H23.6c-0.9,0-1.6-0.7-1.6-1.6c0-0.9,0.7-1.6,1.6-1.6h35.2c0.9,0,1.6,0.7,1.6,1.6
			C60.4,24.8,59.7,25.5,58.8,25.5z"/>
		<path d="M78.4,89.3H21.6c-0.9,0-1.6-0.7-1.6-1.6V84h53c0.9,0,1.6-0.7,1.6-1.6V10.7h3.7c0.9,0,1.6,0.7,1.6,1.6v75.4
			C80,88.6,79.3,89.3,78.4,89.3z"/>
		<path d="M90.7,23v75.4c0,0.9-0.7,1.6-1.6,1.6H32.3c-0.9,0-1.6-0.7-1.6-1.6v-3.7h53c0.9,0,1.6-0.7,1.6-1.6V21.4H89
			C89.9,21.4,90.7,22.1,90.7,23z"/>
	</g>
</g>
<g id="recipe">
</g>
<g id="recipe_x5F_dsl">
</g>
<g id="policygroup">
</g>
<g id="policyfile">
</g>
<g id="knife">
</g>
<g id="kitchen">
</g>
<g id="foodcritic">
</g>
<g id="development_x5F_kit">
</g>
<g id="cookbooks">
</g>
<g id="controls">
</g>
<g id="config-rb">
</g>
<g id="ci">
</g>
<g id="chef_x5F_repo">
</g>
<g id="chefspec">
</g>
<g id="cd">
</g>
</svg>
