<?xml version="1.0" encoding="utf-8"?>
<!-- Generator: Adobe Illustrator 18.1.1, SVG Export Plug-In . SVG Version: 6.00 Build 0)  -->
<svg version="1.1" xmlns="http://www.w3.org/2000/svg" xmlns:xlink="http://www.w3.org/1999/xlink" x="0px" y="0px"
	 viewBox="0 0 100 100" enable-background="new 0 0 100 100" xml:space="preserve">
<g id="virtual-platform">
</g>
<g id="virtual-machine">
</g>
<g id="storage-device">
</g>
<g id="server_1_">
</g>
<g id="public-cloud">
</g>
<g id="private-cloud">
</g>
<g id="platform">
</g>
<g id="network-device">
</g>
<g id="middleware">
</g>
<g id="container">
	<g>
		<g>
			<path d="M4.2,41.1c-2.3,0-4.2-1.9-4.2-4.2V4.4c0-2.3,1.9-4.2,4.2-4.2h32.5c2.3,0,4.2,1.9,4.2,4.2c0,2.3-1.9,4.2-4.2,4.2H8.4v28.3
				C8.4,39.2,6.5,41.1,4.2,41.1L4.2,41.1z"/>
		</g>
		<g>
			<path d="M95.8,41.1c-2.3,0-4.2-1.9-4.2-4.2V8.6H63.4c-2.3,0-4.2-1.9-4.2-4.2c0-2.3,1.9-4.2,4.2-4.2h32.5c2.3,0,4.2,1.9,4.2,4.2
				v32.5C100,39.2,98.1,41.1,95.8,41.1L95.8,41.1z"/>
		</g>
		<g>
			<path d="M36.6,99.8H4.2c-2.3,0-4.2-1.9-4.2-4.2V63.1c0-2.3,1.9-4.2,4.2-4.2c2.3,0,4.2,1.9,4.2,4.2v28.3h28.3
				c2.3,0,4.2,1.9,4.2,4.2S39,99.8,36.6,99.8L36.6,99.8z"/>
		</g>
		<g>
			<path d="M95.8,99.8H63.4c-2.3,0-4.2-1.9-4.2-4.2s1.9-4.2,4.2-4.2h28.3V63.1c0-2.3,1.9-4.2,4.2-4.2c2.3,0,4.2,1.9,4.2,4.2v32.5
				C100,97.9,98.1,99.8,95.8,99.8L95.8,99.8z"/>
		</g>
	</g>
</g>
<g id="bare-metal">
</g>
<g id="application">
</g>
<g id="node">
</g>
</svg>
