<?xml version="1.0" encoding="utf-8"?>
<!-- Generator: Adobe Illustrator 18.1.1, SVG Export Plug-In . SVG Version: 6.00 Build 0)  -->
<svg version="1.1" xmlns="http://www.w3.org/2000/svg" xmlns:xlink="http://www.w3.org/1999/xlink" x="0px" y="0px"
	 viewBox="0 0 100 100" enable-background="new 0 0 100 100" xml:space="preserve">
<g id="user">
</g>
<g id="template">
</g>
<g id="service">
	<g>
		<g>
			<g>
				<path d="M50.4,72.5c-12.7,0-23-10.3-23-23c0-12.7,10.3-23,23-23c12.7,0,23,10.3,23,23C73.4,62.2,63.1,72.5,50.4,72.5L50.4,72.5z
					 M50.4,34.1C41.9,34.1,35,41,35,49.5c0,8.5,6.9,15.4,15.4,15.4c8.5,0,15.4-6.9,15.4-15.4C65.7,41,58.9,34.1,50.4,34.1L50.4,34.1
					z"/>
			</g>
			<g>
				<g>
					<path d="M35.9,38.8c-1,0-2-0.4-2.7-1.1l-5.4-5.4c-1.5-1.5-1.5-3.9,0-5.4c1.5-1.5,3.9-1.5,5.4,0l5.4,5.4c1.5,1.5,1.5,3.9,0,5.4
						C37.9,38.4,36.9,38.8,35.9,38.8L35.9,38.8z"/>
				</g>
				<g>
					<path d="M70.2,73.1c-1,0-2-0.4-2.7-1.1l-6.3-6.3c-1.5-1.5-1.5-3.9,0-5.4c1.5-1.5,3.9-1.5,5.4,0l6.3,6.3c1.5,1.5,1.5,3.9,0,5.4
						C72.2,72.7,71.2,73.1,70.2,73.1L70.2,73.1z"/>
				</g>
			</g>
			<g>
				<g>
					<path d="M64.9,38.8c-1,0-2-0.4-2.7-1.1c-1.5-1.5-1.5-3.9,0-5.4l5.4-5.4c1.5-1.5,3.9-1.5,5.4,0c1.5,1.5,1.5,3.9,0,5.4l-5.4,5.4
						C66.8,38.4,65.8,38.8,64.9,38.8L64.9,38.8z"/>
				</g>
				<g>
					<path d="M30.5,73.1c-1,0-2-0.4-2.7-1.1c-1.5-1.5-1.5-3.9,0-5.4l6.3-6.3c1.5-1.5,3.9-1.5,5.4,0c1.5,1.5,1.5,3.9,0,5.4L33.2,72
						C32.5,72.7,31.5,73.1,30.5,73.1L30.5,73.1z"/>
				</g>
			</g>
			<g>
				<g>
					<path d="M50.4,32.8c-2.1,0-3.8-1.7-3.8-3.8v-7.6c0-2.1,1.7-3.8,3.8-3.8c2.1,0,3.8,1.7,3.8,3.8V29
						C54.2,31.1,52.5,32.8,50.4,32.8L50.4,32.8z"/>
				</g>
				<g>
					<path d="M50.4,81.3L50.4,81.3c-2.1,0-3.8-1.7-3.8-3.8l0-8.9c0-2.1,1.7-3.8,3.8-3.8l0,0c2.1,0,3.8,1.7,3.8,3.8l0,8.9
						C54.2,79.6,52.5,81.3,50.4,81.3L50.4,81.3z"/>
				</g>
			</g>
			<g>
				<g>
					<path d="M78.4,53.3h-7.6c-2.1,0-3.8-1.7-3.8-3.8c0-2.1,1.7-3.8,3.8-3.8h7.6c2.1,0,3.8,1.7,3.8,3.8
						C82.3,51.6,80.5,53.3,78.4,53.3L78.4,53.3z"/>
				</g>
				<g>
					<path d="M31.3,53.3h-8.9c-2.1,0-3.8-1.7-3.8-3.8c0-2.1,1.7-3.8,3.8-3.8h8.9c2.1,0,3.8,1.7,3.8,3.8
						C35.1,51.6,33.4,53.3,31.3,53.3L31.3,53.3z"/>
				</g>
			</g>
		</g>
		<g>
			<path d="M95.8,100H4.2C1.9,100,0,98.1,0,95.8V4.2C0,1.9,1.9,0,4.2,0h91.6c2.3,0,4.2,1.9,4.2,4.2v91.6C100,98.1,98.1,100,95.8,100
				L95.8,100z M8.4,91.6h83.2V8.4H8.4V91.6L8.4,91.6z"/>
		</g>
	</g>
</g>
<g id="script">
</g>
<g id="ruby_x5F_block">
</g>
<g id="remote_x5F_file">
</g>
<g id="remote_x5F_directory_1_">
</g>
<g id="package">
</g>
<g id="log">
</g>
<g id="link">
</g>
<g id="group">
</g>
<g id="gem">
</g>
<g id="file">
</g>
<g id="execute">
</g>
<g id="directory">
</g>
<g id="deploy">
</g>
<g id="cron">
</g>
<g id="cookbook_x5F_file">
</g>
<g id="chef_x5F_gem">
</g>
<g id="bash">
</g>
</svg>
