<?xml version="1.0" encoding="utf-8"?>
<!-- Generator: Adobe Illustrator 18.1.1, SVG Export Plug-In . SVG Version: 6.00 Build 0)  -->
<svg version="1.1" xmlns="http://www.w3.org/2000/svg" xmlns:xlink="http://www.w3.org/1999/xlink" x="0px" y="0px"
	 viewBox="0 0 100 100" enable-background="new 0 0 100 100" xml:space="preserve">
<g id="deliver">
</g>
<g id="rehearse">
</g>
<g id="union">
	<g>
		<g>
			<g>
				<path d="M41.2,92.8c-2.3,0-4.2-1.9-4.2-4.2V63H11.4c-2.3,0-4.2-1.9-4.2-4.2c0-2.3,1.9-4.2,4.2-4.2h29.8c2.3,0,4.2,1.9,4.2,4.2
					v29.8C45.3,90.9,43.5,92.8,41.2,92.8L41.2,92.8z"/>
			</g>
			<g>
				<path d="M4.2,100c-1.1,0-2.1-0.4-3-1.2c-1.6-1.6-1.6-4.3,0-5.9l37-37c1.6-1.6,4.3-1.6,5.9,0c1.6,1.6,1.6,4.3,0,5.9l-37,37
					C6.3,99.6,5.3,100,4.2,100L4.2,100z"/>
			</g>
		</g>
		<g>
			<g>
				<path d="M58.8,92.8c-2.3,0-4.2-1.9-4.2-4.2V58.8c0-2.3,1.9-4.2,4.2-4.2h29.8c2.3,0,4.2,1.9,4.2,4.2c0,2.3-1.9,4.2-4.2,4.2H63
					v25.6C63,90.9,61.1,92.8,58.8,92.8L58.8,92.8z"/>
			</g>
			<g>
				<path d="M95.8,100c-1.1,0-2.1-0.4-3-1.2l-37-37c-1.6-1.6-1.6-4.3,0-5.9c1.6-1.6,4.3-1.6,5.9,0l37,37c1.6,1.6,1.6,4.3,0,5.9
					C97.9,99.6,96.9,100,95.8,100L95.8,100z"/>
			</g>
		</g>
		<g>
			<g>
				<path d="M88.6,45.4H58.8c-2.3,0-4.2-1.9-4.2-4.2V11.4c0-2.3,1.9-4.2,4.2-4.2c2.3,0,4.2,1.9,4.2,4.2V37h25.6
					c2.3,0,4.2,1.9,4.2,4.2C92.8,43.5,90.9,45.4,88.6,45.4L88.6,45.4z"/>
			</g>
			<g>
				<path d="M58.8,45.4c-1.1,0-2.1-0.4-3-1.2c-1.6-1.6-1.6-4.3,0-5.9l37-37c1.6-1.6,4.3-1.6,5.9,0c1.6,1.6,1.6,4.3,0,5.9l-37,37
					C61,45,59.9,45.4,58.8,45.4L58.8,45.4z"/>
			</g>
		</g>
		<g>
			<g>
				<path d="M41.2,45.4H11.4c-2.3,0-4.2-1.9-4.2-4.2c0-2.3,1.9-4.2,4.2-4.2H37V11.4c0-2.3,1.9-4.2,4.2-4.2c2.3,0,4.2,1.9,4.2,4.2
					v29.8C45.3,43.5,43.5,45.4,41.2,45.4L41.2,45.4z"/>
			</g>
			<g>
				<path d="M41.2,45.4c-1.1,0-2.1-0.4-3-1.2l-37-37c-1.6-1.6-1.6-4.3,0-5.9c1.6-1.6,4.3-1.6,5.9,0l37,37c1.6,1.6,1.6,4.3,0,5.9
					C43.3,45,42.2,45.4,41.2,45.4L41.2,45.4z"/>
			</g>
		</g>
	</g>
</g>
<g id="publish">
</g>
<g id="accept">
</g>
<g id="build">
</g>
<g id="approve">
</g>
<g id="verify">
</g>
<g id="workstation">
</g>
<g id="tests">
</g>
<g id="secrets">
</g>
<g id="rules">
</g>
<g id="ruby_1_">
</g>
<g id="rubocop">
</g>
<g id="resources">
</g>
<g id="reports">
</g>
<g id="recipes">
</g>
<g id="recipe">
</g>
<g id="recipe_x5F_dsl">
</g>
<g id="policygroup">
</g>
<g id="policyfile">
</g>
<g id="knife">
</g>
<g id="kitchen">
</g>
<g id="foodcritic">
</g>
<g id="development_x5F_kit">
</g>
<g id="cookbooks">
</g>
<g id="controls">
</g>
<g id="config-rb">
</g>
<g id="ci">
</g>
<g id="chef_x5F_repo">
</g>
<g id="chefspec">
</g>
<g id="cd">
</g>
</svg>
