<?xml version="1.0" encoding="utf-8"?>
<!-- Generator: Adobe Illustrator 18.1.1, SVG Export Plug-In . SVG Version: 6.00 Build 0)  -->
<svg version="1.1" xmlns="http://www.w3.org/2000/svg" xmlns:xlink="http://www.w3.org/1999/xlink" x="0px" y="0px"
	 viewBox="0 0 100 100" enable-background="new 0 0 100 100" xml:space="preserve">
<g id="yum">
</g>
<g id="windows_x5F_service">
</g>
<g id="windows">
</g>
<g id="subversion">
</g>
<g id="solaris">
</g>
<g id="smartos">
</g>
<g id="ruby">
</g>
<g id="rpm">
</g>
<g id="route">
</g>
<g id="registry_x5F_key">
</g>
<g id="reboot">
</g>
<g id="python">
</g>
<g id="powershell">
</g>
<g id="portage">
</g>
<g id="perl">
</g>
<g id="paludis">
</g>
<g id="pacman">
</g>
<g id="openbsd">
</g>
<g id="ohai">
</g>
<g id="mount">
</g>
<g id="mdadm">
	<g>
		<g>
			<path d="M21.1,39.1c-9.6,0-17.8-2.5-21-5.9c0,0-0.1,0.1-0.1,0.1v5.5c2.9,3.8,11.4,6.5,21.5,6.5c10,0,18.4-2.7,21.4-6.4v-5.8
				c-0.1-0.1-0.2-0.3-0.4-0.4C39.6,36.4,31.1,39.1,21.1,39.1z"/>
			<path d="M42.5,19.9c-1,1.3-2.8,2.5-5,3.5c-4.1,1.8-9.9,2.9-16.4,2.9c-6.5,0-12.3-1.1-16.4-2.9c-2-0.9-3.6-1.9-4.6-3
				c0,0,0,0.1-0.1,0.1V26c0.1,0.1,0.1,0.2,0.2,0.3c1,1.3,2.7,2.4,4.9,3.3c4.1,1.8,9.9,2.9,16.4,2.9s12.3-1.1,16.4-2.9
				c1.9-0.8,3.4-1.8,4.5-2.9c0.2-0.2,0.4-0.4,0.5-0.6v-5.8C42.8,20.2,42.6,20.1,42.5,19.9z"/>
			<path d="M5.3,16.8c3.9,1.9,9.7,3,16.1,3c6.5,0,12.3-1.2,16.2-3.1c2-1,3.4-2.1,4.3-3.3c0.5-0.7,0.8-1.5,0.8-2.4
				c0-4.8-9.5-8.8-21.2-8.8C9.7,2.3,0.1,6.3,0.1,11.1c0,0.7,0.2,1.4,0.6,2C1.5,14.5,3.1,15.8,5.3,16.8z"/>
		</g>
		<g>
			<path d="M78.2,39.1c-9.6,0-17.8-2.5-21-5.9c0,0-0.1,0.1-0.1,0.1v5.5c2.9,3.8,11.4,6.5,21.5,6.5c10,0,18.4-2.7,21.4-6.4v-5.8
				c-0.1-0.1-0.2-0.3-0.4-0.4C96.7,36.4,88.2,39.1,78.2,39.1z"/>
			<path d="M99.6,19.9c-1,1.3-2.8,2.5-5,3.5c-4.1,1.8-9.9,2.9-16.4,2.9c-6.5,0-12.3-1.1-16.4-2.9c-2-0.9-3.6-1.9-4.6-3
				c0,0,0,0.1-0.1,0.1V26c0.1,0.1,0.1,0.2,0.2,0.3c1,1.3,2.7,2.4,4.9,3.3c4.1,1.8,9.9,2.9,16.4,2.9s12.3-1.1,16.4-2.9
				c1.9-0.8,3.4-1.8,4.5-2.9c0.2-0.2,0.4-0.4,0.5-0.6v-5.8C99.9,20.2,99.8,20.1,99.6,19.9z"/>
			<path d="M62.4,16.8c3.9,1.9,9.7,3,16.1,3c6.5,0,12.3-1.2,16.2-3.1c2-1,3.4-2.1,4.3-3.3c0.5-0.7,0.8-1.5,0.8-2.4
				c0-4.8-9.5-8.8-21.2-8.8c-11.7,0-21.2,3.9-21.2,8.8c0,0.7,0.2,1.4,0.6,2C58.6,14.5,60.2,15.8,62.4,16.8z"/>
		</g>
		<g>
			<path d="M21.1,91.5c-9.6,0-17.8-2.5-21-5.9c0,0-0.1,0.1-0.1,0.1v5.5c2.9,3.8,11.4,6.5,21.5,6.5c10,0,18.4-2.7,21.4-6.4v-5.8
				c-0.1-0.1-0.2-0.3-0.4-0.4C39.6,88.8,31.1,91.5,21.1,91.5z"/>
			<path d="M42.5,72.3c-1,1.3-2.8,2.5-5,3.5c-4.1,1.8-9.9,2.9-16.4,2.9c-6.5,0-12.3-1.1-16.4-2.9c-2-0.9-3.6-1.9-4.6-3
				c0,0,0,0.1-0.1,0.1v5.5c0.1,0.1,0.1,0.2,0.2,0.3c1,1.3,2.7,2.4,4.9,3.3c4.1,1.8,9.9,2.9,16.4,2.9s12.3-1.1,16.4-2.9
				c1.9-0.8,3.4-1.8,4.5-2.9c0.2-0.2,0.4-0.4,0.5-0.6v-5.8C42.8,72.6,42.6,72.4,42.5,72.3z"/>
			<path d="M5.3,69.2c3.9,1.9,9.7,3,16.1,3c6.5,0,12.3-1.2,16.2-3.1c2-1,3.4-2.1,4.3-3.3c0.5-0.7,0.8-1.5,0.8-2.4
				c0-4.8-9.5-8.8-21.2-8.8c-11.7,0-21.2,3.9-21.2,8.8c0,0.7,0.2,1.4,0.6,2C1.5,66.9,3.1,68.1,5.3,69.2z"/>
		</g>
		<g>
			<path d="M78.2,91.5c-9.6,0-17.8-2.5-21-5.9c0,0-0.1,0.1-0.1,0.1v5.5c2.9,3.8,11.4,6.5,21.5,6.5c10,0,18.4-2.7,21.4-6.4v-5.8
				c-0.1-0.1-0.2-0.3-0.4-0.4C96.7,88.8,88.2,91.5,78.2,91.5z"/>
			<path d="M99.6,72.3c-1,1.3-2.8,2.5-5,3.5c-4.1,1.8-9.9,2.9-16.4,2.9c-6.5,0-12.3-1.1-16.4-2.9c-2-0.9-3.6-1.9-4.6-3
				c0,0,0,0.1-0.1,0.1v5.5c0.1,0.1,0.1,0.2,0.2,0.3c1,1.3,2.7,2.4,4.9,3.3c4.1,1.8,9.9,2.9,16.4,2.9S90.9,83.8,95,82
				c1.9-0.8,3.4-1.8,4.5-2.9c0.2-0.2,0.4-0.4,0.5-0.6v-5.8C99.9,72.6,99.8,72.4,99.6,72.3z"/>
			<path d="M62.4,69.2c3.9,1.9,9.7,3,16.1,3c6.5,0,12.3-1.2,16.2-3.1c2-1,3.4-2.1,4.3-3.3c0.5-0.7,0.8-1.5,0.8-2.4
				c0-4.8-9.5-8.8-21.2-8.8c-11.7,0-21.2,3.9-21.2,8.8c0,0.7,0.2,1.4,0.6,2C58.6,66.9,60.2,68.1,62.4,69.2z"/>
		</g>
	</g>
</g>
<g id="macports">
</g>
<g id="ips">
</g>
<g id="ifconfig">
</g>
<g id="http_x5F_request">
</g>
<g id="homebrew">
</g>
<g id="git">
</g>
<g id="freebsd">
</g>
<g id="erlang_x5F_call">
</g>
<g id="env">
</g>
<g id="easy_x5F_install">
</g>
<g id="dsc_x5F_script">
</g>
<g id="dsc_x5F_resource">
</g>
<g id="dpkg">
</g>
<g id="csh">
</g>
<g id="chef_x5F_handler">
</g>
<g id="breakpoint">
</g>
<g id="bff">
</g>
<g id="batch">
</g>
<g id="apt">
</g>
</svg>
