<?xml version="1.0" encoding="utf-8"?>
<!-- Generator: Adobe Illustrator 18.1.1, SVG Export Plug-In . SVG Version: 6.00 Build 0)  -->
<svg version="1.1" xmlns="http://www.w3.org/2000/svg" xmlns:xlink="http://www.w3.org/1999/xlink" x="0px" y="0px"
	 viewBox="0 0 100 100" enable-background="new 0 0 100 100" xml:space="preserve">
<g id="yum">
</g>
<g id="windows_x5F_service">
</g>
<g id="windows">
</g>
<g id="subversion">
</g>
<g id="solaris">
</g>
<g id="smartos">
</g>
<g id="ruby">
</g>
<g id="rpm">
</g>
<g id="route">
</g>
<g id="registry_x5F_key">
</g>
<g id="reboot">
</g>
<g id="python">
</g>
<g id="powershell">
</g>
<g id="portage">
</g>
<g id="perl">
</g>
<g id="paludis">
</g>
<g id="pacman">
</g>
<g id="openbsd">
</g>
<g id="ohai">
</g>
<g id="mount">
</g>
<g id="mdadm">
</g>
<g id="macports">
</g>
<g id="ips">
</g>
<g id="ifconfig">
</g>
<g id="http_x5F_request">
</g>
<g id="homebrew">
</g>
<g id="git">
</g>
<g id="freebsd">
</g>
<g id="erlang_x5F_call">
</g>
<g id="env">
</g>
<g id="easy_x5F_install">
</g>
<g id="dsc_x5F_script">
</g>
<g id="dsc_x5F_resource">
</g>
<g id="dpkg">
</g>
<g id="csh">
</g>
<g id="chef_x5F_handler">
</g>
<g id="breakpoint">
	<path d="M86.1,0H13.9c-1.1,0-2.1,0.9-2.1,2.1v95.9c0,1.1,0.9,2.1,2.1,2.1h72.1c1.1,0,2.1-0.9,2.1-2.1V2.1C88.1,0.9,87.2,0,86.1,0z
		 M76.9,30.4c0,1.1-0.9,2-2,2H30c-1.1,0-2-0.9-2-2c0-1.1,0.9-2,2-2h44.8C75.9,28.4,76.9,29.3,76.9,30.4z M30,45h29.1
		c1.1,0,2,0.9,2,2c0,1.1-0.9,2-2,2H30c-1.1,0-2-0.9-2-2C28,45.9,28.9,45,30,45z M28,38.6c0-1.1,0.9-2,2-2h29.1c1.1,0,2,0.9,2,2
		s-0.9,2-2,2H30C28.9,40.6,28,39.7,28,38.6z M30,53.7h44.8c1.1,0,2,0.9,2,2c0,1.1-0.9,2-2,2H30c-1.1,0-2-0.9-2-2
		C28,54.6,28.9,53.7,30,53.7z M28,21.7c0-1.1,0.9-2,2-2h36.2c1.1,0,2,0.9,2,2c0,1.1-0.9,2-2,2H30C28.9,23.7,28,22.8,28,21.7z
		 M59.2,10.8h10.1c1.1,0,2,0.9,2,2c0,1.1-0.9,2-2,2H59.2c-1.1,0-2-0.9-2-2C57.2,11.7,58.1,10.8,59.2,10.8z M41.8,10.8h10.1
		c1.1,0,2,0.9,2,2c0,1.1-0.9,2-2,2H41.8c-1.1,0-2-0.9-2-2C39.8,11.7,40.7,10.8,41.8,10.8z M24.4,10.8h10.1c1.1,0,2,0.9,2,2
		c0,1.1-0.9,2-2,2H24.4c-1.1,0-2-0.9-2-2C22.4,11.7,23.3,10.8,24.4,10.8z M34.5,66.5H24.4c-1.1,0-2-0.9-2-2c0-1.1,0.9-2,2-2h10.1
		c1.1,0,2,0.9,2,2C36.6,65.6,35.6,66.5,34.5,66.5z M84.3,88.9l-6.6,6.9c-0.3,0.3-0.7,0.5-1.1,0.5c-0.4,0-0.8-0.1-1.1-0.4
		c-0.6-0.6-0.7-1.6-0.1-2.3l3.9-4.1l-17.1,0.4c-0.9,0-1.6-0.7-1.7-1.6c0-0.9,0.7-1.6,1.6-1.7l17.1-0.4l-4.1-3.9
		c-0.6-0.6-0.7-1.6-0.1-2.3c0.6-0.6,1.6-0.7,2.3-0.1l6.9,6.6C84.9,87.2,84.9,88.2,84.3,88.9z"/>
</g>
<g id="bff">
</g>
<g id="batch">
</g>
<g id="apt">
</g>
</svg>
