<?xml version="1.0" encoding="utf-8"?>
<!-- Generator: Adobe Illustrator 18.1.1, SVG Export Plug-In . SVG Version: 6.00 Build 0)  -->
<svg version="1.1" xmlns="http://www.w3.org/2000/svg" xmlns:xlink="http://www.w3.org/1999/xlink" x="0px" y="0px"
	 viewBox="0 0 100 100" enable-background="new 0 0 100 100" xml:space="preserve">
<g id="deliver">
</g>
<g id="rehearse">
</g>
<g id="union">
</g>
<g id="publish">
</g>
<g id="accept">
</g>
<g id="build">
</g>
<g id="approve">
</g>
<g id="verify">
</g>
<g id="workstation">
</g>
<g id="tests">
</g>
<g id="secrets">
</g>
<g id="rules">
</g>
<g id="ruby_1_">
</g>
<g id="rubocop">
</g>
<g id="resources">
</g>
<g id="reports">
</g>
<g id="recipes">
</g>
<g id="recipe">
</g>
<g id="recipe_x5F_dsl">
</g>
<g id="policygroup">
</g>
<g id="policyfile">
</g>
<g id="knife">
</g>
<g id="kitchen">
</g>
<g id="foodcritic">
</g>
<g id="development_x5F_kit">
</g>
<g id="cookbooks">
</g>
<g id="controls">
</g>
<g id="config-rb">
</g>
<g id="ci">
</g>
<g id="chef_x5F_repo">
</g>
<g id="chefspec">
	<g>
		<path d="M50,100C22.4,100,0,77.6,0,50C0,22.4,22.4,0,50,0c27.6,0,50,22.4,50,50C100,77.6,77.6,100,50,100L50,100z M50,8.5
			C27.1,8.5,8.5,27.1,8.5,50c0,22.9,18.6,41.5,41.5,41.5c22.9,0,41.5-18.6,41.5-41.5C91.5,27.1,72.9,8.5,50,8.5L50,8.5z"/>
		<polygon points="34.3,32.6 34.3,32.5 23,43.8 50.3,71 61.5,59.8 77.6,43.8 66.3,32.5 66.3,32.5 34.3,32.5 		"/>
	</g>
</g>
<g id="cd">
</g>
</svg>
