<?xml version="1.0" encoding="utf-8"?>
<!-- Generator: Adobe Illustrator 18.1.1, SVG Export Plug-In . SVG Version: 6.00 Build 0)  -->
<svg version="1.1" xmlns="http://www.w3.org/2000/svg" xmlns:xlink="http://www.w3.org/1999/xlink" x="0px" y="0px"
	 viewBox="0 0 100 100" enable-background="new 0 0 100 100" xml:space="preserve">
<g id="deliver">
</g>
<g id="rehearse">
</g>
<g id="union">
</g>
<g id="publish">
</g>
<g id="accept">
</g>
<g id="build">
	<g>
		<g>
			<g>
				<g>
					<path d="M73.4,97c-1.1,0-2.1-0.4-2.9-1.2l-16-16.1c-1.6-1.6-1.6-4.2,0-5.9l16-16.1c1.6-1.6,4.2-1.6,5.9,0
						c1.6,1.6,1.6,4.2,0,5.9L63.2,76.8l13.1,13.1c1.6,1.6,1.6,4.2,0,5.9C75.5,96.6,74.5,97,73.4,97L73.4,97z"/>
				</g>
			</g>
			<g>
				<path d="M50.3,34.9"/>
			</g>
			<g>
				<path d="M84.5,81.3H62.7c-2.1,0-3.9-1.7-3.9-3.9c0-2.1,1.7-3.9,3.9-3.9h21.8c4.3,0,7.7-3.5,7.7-7.7V18.5c0-4.3-3.5-7.7-7.7-7.7
					H15.5c-4.3,0-7.7,3.5-7.7,7.7v47.3c0,4.3,3.5,7.7,7.7,7.7h21.8c2.1,0,3.9,1.7,3.9,3.9c0,2.1-1.7,3.9-3.9,3.9H15.5
					C6.9,81.3,0,74.4,0,65.8V18.5C0,10,6.9,3,15.5,3h69.1C93.1,3,100,10,100,18.5v47.3C100,74.4,93.1,81.3,84.5,81.3L84.5,81.3z"/>
			</g>
		</g>
		<g>
			<g>
				<path d="M35.9,56c-7.6,0-13.8-6.2-13.8-13.8c0-7.6,6.2-13.8,13.8-13.8c7.6,0,13.8,6.2,13.8,13.8C49.6,49.8,43.4,56,35.9,56
					L35.9,56z M35.9,33.1c-5.1,0-9.2,4.1-9.2,9.2c0,5.1,4.1,9.2,9.2,9.2c5.1,0,9.2-4.1,9.2-9.2C45,37.2,40.9,33.1,35.9,33.1
					L35.9,33.1z"/>
			</g>
			<g>
				<g>
					<path d="M27.2,35.9c-0.6,0-1.2-0.2-1.6-0.7L22.4,32c-0.9-0.9-0.9-2.3,0-3.2c0.9-0.9,2.3-0.9,3.2,0l3.2,3.2
						c0.9,0.9,0.9,2.3,0,3.2C28.4,35.7,27.8,35.9,27.2,35.9L27.2,35.9z"/>
				</g>
				<g>
					<path d="M47.7,56.4c-0.6,0-1.2-0.2-1.6-0.7L42.3,52c-0.9-0.9-0.9-2.3,0-3.2c0.9-0.9,2.3-0.9,3.2,0l3.8,3.8
						c0.9,0.9,0.9,2.3,0,3.2C48.9,56.2,48.3,56.4,47.7,56.4L47.7,56.4z"/>
				</g>
			</g>
			<g>
				<g>
					<path d="M44.5,35.9c-0.6,0-1.2-0.2-1.6-0.7c-0.9-0.9-0.9-2.3,0-3.2l3.2-3.2c0.9-0.9,2.3-0.9,3.2,0c0.9,0.9,0.9,2.3,0,3.2
						l-3.2,3.2C45.7,35.7,45.1,35.9,44.5,35.9L44.5,35.9z"/>
				</g>
				<g>
					<path d="M24,56.4c-0.6,0-1.2-0.2-1.6-0.7c-0.9-0.9-0.9-2.3,0-3.2l3.8-3.8c0.9-0.9,2.3-0.9,3.2,0c0.9,0.9,0.9,2.3,0,3.2
						l-3.8,3.8C25.2,56.2,24.6,56.4,24,56.4L24,56.4z"/>
				</g>
			</g>
			<g>
				<g>
					<path d="M35.9,32.3c-1.3,0-2.3-1-2.3-2.3v-4.5c0-1.3,1-2.3,2.3-2.3c1.3,0,2.3,1,2.3,2.3V30C38.1,31.3,37.1,32.3,35.9,32.3
						L35.9,32.3z"/>
				</g>
				<g>
					<path d="M35.9,61.3L35.9,61.3c-1.3,0-2.3-1-2.3-2.3l0-5.3c0-1.3,1-2.3,2.3-2.3l0,0c1.3,0,2.3,1,2.3,2.3l0,5.3
						C38.1,60.3,37.1,61.3,35.9,61.3L35.9,61.3z"/>
				</g>
			</g>
			<g>
				<g>
					<path d="M52.6,44.5h-4.5c-1.3,0-2.3-1-2.3-2.3c0-1.3,1-2.3,2.3-2.3h4.5c1.3,0,2.3,1,2.3,2.3C54.9,43.5,53.9,44.5,52.6,44.5
						L52.6,44.5z"/>
				</g>
				<g>
					<path d="M24.4,44.5h-5.3c-1.3,0-2.3-1-2.3-2.3c0-1.3,1-2.3,2.3-2.3h5.3c1.3,0,2.3,1,2.3,2.3C26.7,43.5,25.7,44.5,24.4,44.5
						L24.4,44.5z"/>
				</g>
			</g>
		</g>
		<g>
			<g>
				<path d="M69.9,41.3c-5.2,0-9.4-4.2-9.4-9.4c0-5.2,4.2-9.4,9.4-9.4c5.2,0,9.4,4.2,9.4,9.4C79.4,37,75.1,41.3,69.9,41.3L69.9,41.3
					z M69.9,25.5c-3.5,0-6.3,2.8-6.3,6.3c0,3.5,2.8,6.3,6.3,6.3c3.5,0,6.3-2.8,6.3-6.3C76.2,28.3,73.4,25.5,69.9,25.5L69.9,25.5z"/>
			</g>
			<g>
				<g>
					<path d="M64,27.4c-0.4,0-0.8-0.2-1.1-0.5l-2.2-2.2c-0.6-0.6-0.6-1.6,0-2.2c0.6-0.6,1.6-0.6,2.2,0l2.2,2.2
						c0.6,0.6,0.6,1.6,0,2.2C64.8,27.3,64.4,27.4,64,27.4L64,27.4z"/>
				</g>
				<g>
					<path d="M78.1,41.5c-0.4,0-0.8-0.2-1.1-0.5l-2.6-2.6c-0.6-0.6-0.6-1.6,0-2.2c0.6-0.6,1.6-0.6,2.2,0l2.6,2.6
						c0.6,0.6,0.6,1.6,0,2.2C78.9,41.4,78.5,41.5,78.1,41.5L78.1,41.5z"/>
				</g>
			</g>
			<g>
				<g>
					<path d="M75.9,27.5c-0.4,0-0.8-0.2-1.1-0.5c-0.6-0.6-0.6-1.6,0-2.2l2.2-2.2c0.6-0.6,1.6-0.6,2.2,0c0.6,0.6,0.6,1.6,0,2.2L77,27
						C76.7,27.3,76.3,27.5,75.9,27.5L75.9,27.5z"/>
				</g>
				<g>
					<path d="M61.8,41.5c-0.4,0-0.8-0.2-1.1-0.5c-0.6-0.6-0.6-1.6,0-2.2l2.6-2.6c0.6-0.6,1.6-0.6,2.2,0c0.6,0.6,0.6,1.6,0,2.2
						l-2.6,2.6C62.6,41.4,62.2,41.5,61.8,41.5L61.8,41.5z"/>
				</g>
			</g>
			<g>
				<g>
					<path d="M69.9,25c-0.9,0-1.6-0.7-1.6-1.6v-3.1c0-0.9,0.7-1.6,1.6-1.6c0.9,0,1.6,0.7,1.6,1.6v3.1C71.5,24.3,70.8,25,69.9,25
						L69.9,25z"/>
				</g>
				<g>
					<path d="M69.9,44.9L69.9,44.9c-0.9,0-1.6-0.7-1.6-1.6l0-3.7c0-0.9,0.7-1.6,1.6-1.6l0,0c0.9,0,1.6,0.7,1.6,1.6l0,3.7
						C71.5,44.2,70.8,44.9,69.9,44.9L69.9,44.9z"/>
				</g>
			</g>
			<g>
				<g>
					<path d="M81.4,33.4h-3.1c-0.9,0-1.6-0.7-1.6-1.6c0-0.9,0.7-1.6,1.6-1.6h3.1c0.9,0,1.6,0.7,1.6,1.6C83,32.7,82.3,33.4,81.4,33.4
						L81.4,33.4z"/>
				</g>
				<g>
					<path d="M62.1,33.4h-3.7c-0.9,0-1.6-0.7-1.6-1.6c0-0.9,0.7-1.6,1.6-1.6h3.7c0.9,0,1.6,0.7,1.6,1.6C63.7,32.7,63,33.4,62.1,33.4
						L62.1,33.4z"/>
				</g>
			</g>
		</g>
	</g>
</g>
<g id="approve">
</g>
<g id="verify">
</g>
<g id="workstation">
</g>
<g id="tests">
</g>
<g id="secrets">
</g>
<g id="rules">
</g>
<g id="ruby_1_">
</g>
<g id="rubocop">
</g>
<g id="resources">
</g>
<g id="reports">
</g>
<g id="recipes">
</g>
<g id="recipe">
</g>
<g id="recipe_x5F_dsl">
</g>
<g id="policygroup">
</g>
<g id="policyfile">
</g>
<g id="knife">
</g>
<g id="kitchen">
</g>
<g id="foodcritic">
</g>
<g id="development_x5F_kit">
</g>
<g id="cookbooks">
</g>
<g id="controls">
</g>
<g id="config-rb">
</g>
<g id="ci">
</g>
<g id="chef_x5F_repo">
</g>
<g id="chefspec">
</g>
<g id="cd">
</g>
</svg>
