<?xml version="1.0" encoding="utf-8"?>
<!-- Generator: Adobe Illustrator 18.1.1, SVG Export Plug-In . SVG Version: 6.00 Build 0)  -->
<svg version="1.1" xmlns="http://www.w3.org/2000/svg" xmlns:xlink="http://www.w3.org/1999/xlink" x="0px" y="0px"
	 viewBox="0 0 100 100" enable-background="new 0 0 100 100" xml:space="preserve">
<g id="yum">
</g>
<g id="windows_x5F_service">
</g>
<g id="windows">
</g>
<g id="subversion">
</g>
<g id="solaris">
</g>
<g id="smartos">
</g>
<g id="ruby">
</g>
<g id="rpm">
</g>
<g id="route">
</g>
<g id="registry_x5F_key">
</g>
<g id="reboot">
</g>
<g id="python">
</g>
<g id="powershell">
</g>
<g id="portage">
</g>
<g id="perl">
</g>
<g id="paludis">
</g>
<g id="pacman">
</g>
<g id="openbsd">
</g>
<g id="ohai">
</g>
<g id="mount">
	<g>
		<g>
			<g>
				<path d="M95.8,100H4.2C1.9,100,0,98.1,0,95.8V4.2C0,1.9,1.9,0,4.2,0h45.5c2.3,0,4.2,1.9,4.2,4.2c0,2.3-1.9,4.2-4.2,4.2H8.4v83.2
					h83.2V50.3c0-2.3,1.9-4.2,4.2-4.2c2.3,0,4.2,1.9,4.2,4.2v45.5C100,98.1,98.1,100,95.8,100L95.8,100z"/>
			</g>
			<g>
				<g>
					<path d="M81.3,47.8L81.3,47.8l-24.9,0c-2.3,0-4.2-1.9-4.2-4.2l0-24.9c0-2.3,1.9-4.2,4.2-4.2l0,0c2.3,0,4.2,1.9,4.2,4.2l0,20.7
						l20.7,0c2.3,0,4.2,1.9,4.2,4.2C85.5,45.9,83.6,47.8,81.3,47.8L81.3,47.8z"/>
				</g>
				<g>
					<path d="M59.8,44.4c-1.1,0-2.1-0.4-3-1.2c-1.6-1.6-1.6-4.3,0-5.9l36-36c1.6-1.6,4.3-1.6,5.9,0c1.6,1.6,1.6,4.3,0,5.9l-36,36
						C62,44,60.9,44.4,59.8,44.4L59.8,44.4z"/>
				</g>
			</g>
		</g>
		<g>
			<path d="M33.7,78.3c-7.3,0-13.4-1.9-15.9-4.5c0,0,0,0-0.1,0.1V78c2.2,2.9,8.6,4.9,16.3,4.9c7.5,0,13.9-2,16.2-4.8v-4.4
				c-0.1-0.1-0.2-0.2-0.3-0.3C47.8,76.2,41.3,78.3,33.7,78.3z"/>
			<path d="M50,63.8c-0.8,1-2.1,1.9-3.8,2.7c-3.1,1.4-7.5,2.2-12.4,2.2c-4.9,0-9.3-0.9-12.4-2.2c-1.5-0.7-2.7-1.4-3.5-2.3
				c0,0,0,0,0,0.1v4.2c0.1,0.1,0.1,0.1,0.2,0.2c0.8,0.9,2.1,1.8,3.7,2.5c3.1,1.4,7.5,2.2,12.4,2.2s9.3-0.9,12.4-2.2
				c1.4-0.6,2.6-1.4,3.4-2.2c0.1-0.1,0.3-0.3,0.4-0.4v-4.4C50.2,64,50.1,63.9,50,63.8z"/>
			<path d="M21.8,61.4c2.9,1.4,7.3,2.3,12.2,2.3c4.9,0,9.3-0.9,12.3-2.3c1.5-0.7,2.6-1.6,3.2-2.5c0.4-0.6,0.6-1.2,0.6-1.8
				c0-3.7-7.2-6.6-16.1-6.6c-8.9,0-16.1,3-16.1,6.6c0,0.5,0.1,1,0.4,1.5C18.9,59.7,20.1,60.6,21.8,61.4z"/>
		</g>
	</g>
</g>
<g id="mdadm">
</g>
<g id="macports">
</g>
<g id="ips">
</g>
<g id="ifconfig">
</g>
<g id="http_x5F_request">
</g>
<g id="homebrew">
</g>
<g id="git">
</g>
<g id="freebsd">
</g>
<g id="erlang_x5F_call">
</g>
<g id="env">
</g>
<g id="easy_x5F_install">
</g>
<g id="dsc_x5F_script">
</g>
<g id="dsc_x5F_resource">
</g>
<g id="dpkg">
</g>
<g id="csh">
</g>
<g id="chef_x5F_handler">
</g>
<g id="breakpoint">
</g>
<g id="bff">
</g>
<g id="batch">
</g>
<g id="apt">
</g>
</svg>
