<?xml version="1.0" encoding="utf-8"?>
<!-- Generator: Adobe Illustrator 18.1.1, SVG Export Plug-In . SVG Version: 6.00 Build 0)  -->
<svg version="1.1" xmlns="http://www.w3.org/2000/svg" xmlns:xlink="http://www.w3.org/1999/xlink" x="0px" y="0px"
	 viewBox="0 0 100 100" enable-background="new 0 0 100 100" xml:space="preserve">
<g id="virtual-platform">
</g>
<g id="virtual-machine">
</g>
<g id="storage-device">
</g>
<g id="server_1_">
	<g>
		<g>
			<g>
				<path d="M95.8,99.2H4.2C1.9,99.2,0,97.3,0,95V5c0-2.3,1.9-4.2,4.2-4.2h91.6c2.3,0,4.2,1.9,4.2,4.2v90
					C100,97.3,98.1,99.2,95.8,99.2L95.8,99.2z M8.4,90.8h83.1V9.2H8.4V90.8L8.4,90.8z"/>
			</g>
			<g>
				<path d="M82.1,69.8H17.9c-1.2,0-2.1-0.9-2.1-2.1v-49c0-1.2,0.9-2.1,2.1-2.1h64.2c1.2,0,2.1,0.9,2.1,2.1v49
					C84.2,68.8,83.3,69.8,82.1,69.8L82.1,69.8z M20,65.6h60V20.8H20V65.6L20,65.6z"/>
			</g>
		</g>
		<g>
			<g>
				<path d="M28.7,82.4c0-1,0.8-1.8,1.8-1.8h8.8c1,0,1.8,0.8,1.8,1.8c0,1-0.8,1.8-1.8,1.8h-8.8C29.5,84.1,28.7,83.4,28.7,82.4
					L28.7,82.4z"/>
			</g>
			<g>
				<path d="M43.8,82.4c0-1,0.8-1.8,1.8-1.8h8.8c1,0,1.8,0.8,1.8,1.8c0,1-0.8,1.8-1.8,1.8h-8.8C44.6,84.1,43.8,83.4,43.8,82.4
					L43.8,82.4z"/>
			</g>
			<g>
				<path d="M59,82.4c0-1,0.8-1.8,1.8-1.8h8.8c1,0,1.8,0.8,1.8,1.8c0,1-0.8,1.8-1.8,1.8h-8.8C59.8,84.1,59,83.4,59,82.4L59,82.4z"/>
			</g>
		</g>
	</g>
</g>
<g id="public-cloud">
</g>
<g id="private-cloud">
</g>
<g id="platform">
</g>
<g id="network-device">
</g>
<g id="middleware">
</g>
<g id="container">
</g>
<g id="bare-metal">
</g>
<g id="application">
</g>
<g id="node">
</g>
</svg>
