<?xml version="1.0" encoding="utf-8"?>
<!-- Generator: Adobe Illustrator 18.1.1, SVG Export Plug-In . SVG Version: 6.00 Build 0)  -->
<svg version="1.1" xmlns="http://www.w3.org/2000/svg" xmlns:xlink="http://www.w3.org/1999/xlink" x="0px" y="0px"
	 viewBox="0 0 100 100" enable-background="new 0 0 100 100" xml:space="preserve">
<g id="virtual-platform">
</g>
<g id="virtual-machine">
</g>
<g id="storage-device">
	<g>
		<path d="M49.8,76.3c12.5,0,23.1-3.3,26.8-8V61c-0.1-0.2-0.3-0.4-0.5-0.5c-3.6,4.7-14.3,8.1-26.8,8.1c-12,0-22.2-3.1-26.3-7.4
			c0,0-0.1,0.1-0.1,0.1v6.9C26.4,72.8,37.1,76.3,49.8,76.3z"/>
		<path d="M29.3,56.7c5.1,2.2,12.4,3.7,20.5,3.7s15.4-1.4,20.5-3.7c2.4-1,4.3-2.3,5.6-3.6c0.2-0.2,0.5-0.5,0.7-0.7V45
			c-0.1-0.2-0.3-0.4-0.5-0.5c-1.3,1.7-3.5,3.2-6.3,4.4c-5.1,2.2-12.4,3.6-20.5,3.6c-8.1,0-15.4-1.4-20.5-3.6
			c-2.5-1.1-4.5-2.4-5.8-3.8c0,0-0.1,0.1-0.1,0.1v6.9c0.1,0.1,0.2,0.2,0.3,0.3C24.4,54.1,26.5,55.5,29.3,56.7z"/>
		<path d="M29.5,40.6c4.9,2.3,12.1,3.8,20.2,3.8c8.1,0,15.4-1.5,20.3-3.9c2.4-1.2,4.3-2.6,5.3-4.1c0.6-0.9,1-1.9,1-3
			c0-6.1-11.9-11-26.6-11c-14.7,0-26.6,4.9-26.6,11c0,0.9,0.2,1.7,0.7,2.5C24.7,37.7,26.7,39.3,29.5,40.6z"/>
		<path d="M95.8,0H4.2C1.9,0,0,1.9,0,4.2v91.6c0,2.3,1.9,4.2,4.2,4.2h91.6c2.3,0,4.2-1.9,4.2-4.2V4.2C100,1.9,98.1,0,95.8,0z
			 M91.6,91.6H8.4V8.4h83.2V91.6z"/>
	</g>
</g>
<g id="server_1_">
</g>
<g id="public-cloud">
</g>
<g id="private-cloud">
</g>
<g id="platform">
</g>
<g id="network-device">
</g>
<g id="middleware">
</g>
<g id="container">
</g>
<g id="bare-metal">
</g>
<g id="application">
</g>
<g id="node">
</g>
</svg>
