<?xml version="1.0" encoding="utf-8"?>
<!-- Generator: Adobe Illustrator 18.1.1, SVG Export Plug-In . SVG Version: 6.00 Build 0)  -->
<svg version="1.1" xmlns="http://www.w3.org/2000/svg" xmlns:xlink="http://www.w3.org/1999/xlink" x="0px" y="0px"
	 viewBox="0 0 100 100" enable-background="new 0 0 100 100" xml:space="preserve">
<g id="workstation">
</g>
<g id="user">
</g>
<g id="search">
</g>
<g id="run-list">
	<g>
		<g>
			<g>
				<path d="M24.6,20.4c-1.1,0-2.3-0.4-3.1-1.3l-7-7l-7,7c-1.7,1.7-4.5,1.7-6.2,0c-1.7-1.7-1.7-4.5,0-6.2L11.4,2.8
					c1.7-1.7,4.5-1.7,6.2,0l10.1,10.1c1.7,1.7,1.7,4.5,0,6.2C26.9,20,25.7,20.4,24.6,20.4L24.6,20.4z"/>
			</g>
			<g>
				<path d="M14.5,42.3c-2.4,0-4.4-2-4.4-4.4l0-29.2c0-2.4,2-4.4,4.4-4.4l0,0c2.4,0,4.4,2,4.4,4.4l0,29.2
					C18.9,40.3,16.9,42.3,14.5,42.3L14.5,42.3L14.5,42.3z"/>
			</g>
		</g>
		<g>
			<g>
				<path d="M14.5,98.5c-1.1,0-2.3-0.4-3.1-1.3L1.3,87.1c-1.7-1.7-1.7-4.5,0-6.2c1.7-1.7,4.5-1.7,6.2,0l7,7l7-7
					c1.7-1.7,4.5-1.7,6.2,0c1.7,1.7,1.7,4.5,0,6.2L17.6,97.2C16.8,98.1,15.6,98.5,14.5,98.5L14.5,98.5z"/>
			</g>
			<g>
				<path d="M14.5,95.8c-2.4,0-4.4-2-4.4-4.4l0-29.2c0-2.4,2-4.4,4.4-4.4l0,0c2.4,0,4.4,2,4.4,4.4l0,29.2
					C18.9,93.8,16.9,95.8,14.5,95.8L14.5,95.8L14.5,95.8z"/>
			</g>
		</g>
		<g>
			<path d="M95.6,10.3H36.1c-2.4,0-4.4-2-4.4-4.4s2-4.4,4.4-4.4h59.5c2.4,0,4.4,2,4.4,4.4S98,10.3,95.6,10.3L95.6,10.3z"/>
		</g>
		<g>
			<path d="M95.6,98.5H36.1c-2.4,0-4.4-2-4.4-4.4c0-2.4,2-4.4,4.4-4.4h59.5c2.4,0,4.4,2,4.4,4.4C100,96.5,98,98.5,95.6,98.5
				L95.6,98.5z"/>
		</g>
		<g>
			<path d="M95.6,69.1H36.1c-2.4,0-4.4-2-4.4-4.4s2-4.4,4.4-4.4h59.5c2.4,0,4.4,2,4.4,4.4S98,69.1,95.6,69.1L95.6,69.1z"/>
		</g>
		<g>
			<path d="M95.6,39.7H36.1c-2.4,0-4.4-2-4.4-4.4c0-2.4,2-4.4,4.4-4.4h59.5c2.4,0,4.4,2,4.4,4.4C100,37.7,98,39.7,95.6,39.7
				L95.6,39.7z"/>
		</g>
	</g>
</g>
<g id="role">
</g>
<g id="policy">
</g>
<g id="organization">
</g>
<g id="node">
</g>
<g id="group">
</g>
<g id="environment">
</g>
<g id="data-bag">
</g>
<g id="cookbook">
</g>
<g id="client">
</g>
<g id="api">
</g>
</svg>
