<?xml version="1.0" encoding="utf-8"?>
<!-- Generator: Adobe Illustrator 18.1.1, SVG Export Plug-In . SVG Version: 6.00 Build 0)  -->
<svg version="1.1" xmlns="http://www.w3.org/2000/svg" xmlns:xlink="http://www.w3.org/1999/xlink" x="0px" y="0px"
	 viewBox="0 0 100 100" enable-background="new 0 0 100 100" xml:space="preserve">
<g id="windows">
</g>
<g id="ubuntu">
</g>
<g id="rubygems">
</g>
<g id="redhat">
</g>
<g id="max-osx">
</g>
<g id="github">
</g>
<g id="git_1_">
	<g>
		<path d="M98.1,45.5L54.5,1.9c-2.5-2.5-6.6-2.5-9.1,0L36.3,11l11.5,11.5c2.7-0.9,5.7-0.3,7.9,1.8c2.1,2.1,2.7,5.2,1.8,7.9
			l11.1,11.1c2.7-0.9,5.8-0.3,7.9,1.8c3,3,3,7.8,0,10.8c-3,3-7.8,3-10.8,0c-2.3-2.3-2.8-5.6-1.7-8.3L53.6,37.3v27.2
			c0.7,0.4,1.4,0.8,2,1.4c3,3,3,7.8,0,10.8c-3,3-7.8,3-10.8,0c-3-3-3-7.8,0-10.8c0.7-0.7,1.6-1.3,2.5-1.7V36.8
			c-0.9-0.4-1.8-0.9-2.5-1.7c-2.3-2.3-2.8-5.6-1.6-8.4L31.8,15.4L1.9,45.3c-2.5,2.5-2.5,6.6,0,9.1l43.7,43.7c2.5,2.5,6.6,2.5,9.1,0
			l43.5-43.5C100.6,52.1,100.6,48.1,98.1,45.5z"/>
	</g>
</g>
<g id="debian">
</g>
<g id="centos">
</g>
</svg>
