<?xml version="1.0" encoding="utf-8"?>
<!-- Generator: Adobe Illustrator 18.1.1, SVG Export Plug-In . SVG Version: 6.00 Build 0)  -->
<svg version="1.1" xmlns="http://www.w3.org/2000/svg" xmlns:xlink="http://www.w3.org/1999/xlink" x="0px" y="0px"
	 viewBox="0 0 100 100" enable-background="new 0 0 100 100" xml:space="preserve">
<g id="deliver">
</g>
<g id="rehearse">
</g>
<g id="union">
</g>
<g id="publish">
</g>
<g id="accept">
</g>
<g id="build">
</g>
<g id="approve">
</g>
<g id="verify">
</g>
<g id="workstation">
</g>
<g id="tests">
</g>
<g id="secrets">
</g>
<g id="rules">
</g>
<g id="ruby_1_">
</g>
<g id="rubocop">
</g>
<g id="resources">
</g>
<g id="reports">
	<g>
		<g>
			<path d="M95.8,100H4.2C1.9,100,0,98.1,0,95.8V4.2C0,1.9,1.9,0,4.2,0c2.3,0,4.2,1.9,4.2,4.2v87.4h87.4c2.3,0,4.2,1.9,4.2,4.2
				C100,98.1,98.1,100,95.8,100L95.8,100z"/>
		</g>
		<g>
			<path d="M34.8,84.8H19.3c-2.1,0-3.9-1.7-3.9-3.9V59.2c0-2.1,1.7-3.9,3.9-3.9h15.5c2.1,0,3.9,1.7,3.9,3.9v21.7
				C38.7,83,36.9,84.8,34.8,84.8L34.8,84.8z M23.2,77h7.7V63.1h-7.7V77L23.2,77z"/>
		</g>
		<g>
			<path d="M94.6,84.8H79.1c-2.1,0-3.9-1.7-3.9-3.9V4.2c0-2.1,1.7-3.9,3.9-3.9h15.5c2.1,0,3.9,1.7,3.9,3.9v76.7
				C98.5,83,96.7,84.8,94.6,84.8L94.6,84.8z M83,77h7.7v-69H83V77L83,77z"/>
		</g>
		<g>
			<path d="M64.7,84.8H49.2c-2.1,0-3.9-1.7-3.9-3.9V32.3c0-2.1,1.7-3.9,3.9-3.9h15.5c2.1,0,3.9,1.7,3.9,3.9v48.6
				C68.6,83,66.8,84.8,64.7,84.8L64.7,84.8z M53.1,77h7.7V36.2h-7.7V77L53.1,77z"/>
		</g>
	</g>
</g>
<g id="recipes">
</g>
<g id="recipe">
</g>
<g id="recipe_x5F_dsl">
</g>
<g id="policygroup">
</g>
<g id="policyfile">
</g>
<g id="knife">
</g>
<g id="kitchen">
</g>
<g id="foodcritic">
</g>
<g id="development_x5F_kit">
</g>
<g id="cookbooks">
</g>
<g id="controls">
</g>
<g id="config-rb">
</g>
<g id="ci">
</g>
<g id="chef_x5F_repo">
</g>
<g id="chefspec">
</g>
<g id="cd">
</g>
</svg>
