<?xml version="1.0" encoding="utf-8"?>
<!-- Generator: Adobe Illustrator 18.1.1, SVG Export Plug-In . SVG Version: 6.00 Build 0)  -->
<svg version="1.1" xmlns="http://www.w3.org/2000/svg" xmlns:xlink="http://www.w3.org/1999/xlink" x="0px" y="0px"
	 viewBox="0 0 100 100" enable-background="new 0 0 100 100" xml:space="preserve">
<g id="virtual-platform">
</g>
<g id="virtual-machine">
</g>
<g id="storage-device">
</g>
<g id="server_1_">
</g>
<g id="public-cloud">
</g>
<g id="private-cloud">
	<g>
		<g>
			<path d="M78.7,73.6h-4.6v-8h4.6c3.1,0,6-1.3,8.1-3.6c3.4-3.2,5.2-7.1,5.2-11.3c0-8.2-6.7-14.9-14.9-14.9c-1.6,0-3.1,0.2-4.6,0.7
				c-1.2,0.4-2.4,0.2-3.4-0.5c-1-0.7-1.7-1.8-1.8-3c-1-10.3-9.6-18.1-20.1-18.1c-11.1,0-20.1,9-20.1,20.1c0,1.3,0.1,2.6,0.4,3.9
				c0.2,1.2-0.1,2.4-0.8,3.3c-0.8,0.9-1.9,1.5-3.1,1.5H19c-6,0-10.9,4.9-10.9,10.9c0,6,4.9,10.9,10.9,10.9h9.2v8H19
				c-10.5,0-19-8.5-19-18.9c0-10.5,8.5-19,19-19h0c0-0.2,0-0.5,0-0.7C19,19.4,31.6,6.8,47.2,6.8c13.1,0,24.1,8.8,27.3,21
				c0.9-0.1,1.7-0.1,2.6-0.1c12.7,0,23,10.3,23,23c0,6.4-2.8,12.6-7.5,17C89.1,71.3,84,73.6,78.7,73.6L78.7,73.6z"/>
		</g>
		<g>
			<path d="M65.8,93.2H36.4c-3.1,0-5.7-2.5-5.7-5.7V70.2c0-3.1,2.5-5.7,5.7-5.7h29.4c3.1,0,5.7,2.5,5.7,5.7v17.4
				C71.4,90.7,68.9,93.2,65.8,93.2L65.8,93.2z M38.8,85.2h24.6V72.6H38.8V85.2L38.8,85.2z"/>
		</g>
		<g>
			<path d="M61.6,72.2c-2.2,0-4-1.8-4-4v-4.5c0-3.6-2.9-6.5-6.5-6.5c-3.6,0-6.5,2.9-6.5,6.5v4.5c0,2.2-1.8,4-4,4c-2.2,0-4-1.8-4-4
				v-4.5c0-8,6.5-14.5,14.5-14.5c8,0,14.5,6.5,14.5,14.5v4.5C65.6,70.4,63.8,72.2,61.6,72.2L61.6,72.2z"/>
		</g>
		<path d="M51.1,73.3c-1.9,0-3.4,1.5-3.4,3.4c0,1.3,0.7,2.4,1.8,3v3.8h3.3v-3.8c1.1-0.6,1.8-1.7,1.8-3C54.5,74.8,53,73.3,51.1,73.3
			L51.1,73.3z"/>
	</g>
</g>
<g id="platform">
</g>
<g id="network-device">
</g>
<g id="middleware">
</g>
<g id="container">
</g>
<g id="bare-metal">
</g>
<g id="application">
</g>
<g id="node">
</g>
</svg>
