<?xml version="1.0" encoding="utf-8"?>
<!-- Generator: Adobe Illustrator 18.1.1, SVG Export Plug-In . SVG Version: 6.00 Build 0)  -->
<svg version="1.1" xmlns="http://www.w3.org/2000/svg" xmlns:xlink="http://www.w3.org/1999/xlink" x="0px" y="0px"
	 viewBox="0 0 100 100" enable-background="new 0 0 100 100" xml:space="preserve">
<g id="deliver">
</g>
<g id="rehearse">
</g>
<g id="union">
</g>
<g id="publish">
</g>
<g id="accept">
</g>
<g id="build">
</g>
<g id="approve">
</g>
<g id="verify">
</g>
<g id="workstation">
</g>
<g id="tests">
</g>
<g id="secrets">
</g>
<g id="rules">
</g>
<g id="ruby_1_">
</g>
<g id="rubocop">
</g>
<g id="resources">
</g>
<g id="reports">
</g>
<g id="recipes">
</g>
<g id="recipe">
</g>
<g id="recipe_x5F_dsl">
</g>
<g id="policygroup">
</g>
<g id="policyfile">
</g>
<g id="knife">
</g>
<g id="kitchen">
</g>
<g id="foodcritic">
</g>
<g id="development_x5F_kit">
</g>
<g id="cookbooks">
</g>
<g id="controls">
</g>
<g id="config-rb">
</g>
<g id="ci">
</g>
<g id="chef_x5F_repo">
</g>
<g id="chefspec">
</g>
<g id="cd">
	<g>
		<path d="M50.4,95.9c-25.7,0-46.6-20.7-46.6-46s20.9-46,46.6-46s46.6,20.7,46.6,46S76.1,95.9,50.4,95.9z M50.4,12.3
			c-21,0-38,16.9-38,37.6c0,20.7,17.1,37.6,38,37.6c21,0,38-16.9,38-37.6C88.5,29.1,71.4,12.3,50.4,12.3z"/>
		<g>
			<path d="M59.3,43.3c-1.1,0-2.2-0.4-3-1.2c-1.7-1.7-1.7-4.3,0-6L91.6,1.2c1.2-1.2,3.1-1.6,4.7-0.9c1.6,0.7,2.6,2.2,2.6,3.9v13.9
				c0,2.3-1.9,4.2-4.3,4.2s-4.3-1.9-4.3-4.2v-3.7l-28,27.6C61.5,42.9,60.4,43.3,59.3,43.3z"/>
			<path d="M94.6,8.5H80.5c-2.4,0-4.3-1.9-4.3-4.2S78.1,0,80.5,0h14.1c2.4,0,4.3,1.9,4.3,4.2S97,8.5,94.6,8.5z"/>
		</g>
		<g>
			<path d="M41.6,44.2c-1.1,0-2.2-0.4-3-1.2L3.2,8.1C2,6.9,1.7,5.1,2.3,3.5c0.7-1.6,2.2-2.6,4-2.6h14.1c2.4,0,4.3,1.9,4.3,4.2
				s-1.9,4.2-4.3,4.2h-3.8l28,27.6c1.7,1.7,1.7,4.3,0,6C43.7,43.8,42.6,44.2,41.6,44.2z"/>
			<path d="M6.3,23.3C3.9,23.3,2,21.4,2,19V5.1c0-2.3,1.9-4.2,4.3-4.2s4.3,1.9,4.3,4.2V19C10.6,21.4,8.6,23.3,6.3,23.3z"/>
		</g>
		<g>
			<path d="M19.5,99.1H5.4c-2.4,0-4.3-1.9-4.3-4.2s1.9-4.2,4.3-4.2h14.1c2.4,0,4.3,1.9,4.3,4.2S21.9,99.1,19.5,99.1z"/>
			<path d="M5.4,99.1c-0.6,0-1.1-0.1-1.6-0.3c-1.6-0.7-2.6-2.2-2.6-3.9V81c0-2.3,1.9-4.2,4.3-4.2s4.3,1.9,4.3,4.2v3.7l28-27.6
				c1.7-1.7,4.4-1.7,6.1,0c1.7,1.7,1.7,4.3,0,6L8.4,97.9C7.6,98.7,6.5,99.1,5.4,99.1z"/>
		</g>
		<g>
			<path d="M93.7,100H79.6c-2.4,0-4.3-1.9-4.3-4.2s1.9-4.2,4.3-4.2h3.8l-28-27.6c-1.7-1.7-1.7-4.3,0-6c1.7-1.7,4.4-1.7,6.1,0
				l35.3,34.8c1.2,1.2,1.6,3,0.9,4.6C97,99,95.5,100,93.7,100z"/>
			<path d="M93.7,100c-2.4,0-4.3-1.9-4.3-4.2V81.8c0-2.3,1.9-4.2,4.3-4.2s4.3,1.9,4.3,4.2v13.9C98,98.1,96.1,100,93.7,100z"/>
		</g>
	</g>
</g>
</svg>
