<?xml version="1.0" encoding="utf-8"?>
<!-- Generator: Adobe Illustrator 18.1.1, SVG Export Plug-In . SVG Version: 6.00 Build 0)  -->
<svg version="1.1" xmlns="http://www.w3.org/2000/svg" xmlns:xlink="http://www.w3.org/1999/xlink" x="0px" y="0px"
	 viewBox="0 0 100 100" enable-background="new 0 0 100 100" xml:space="preserve">
<g id="user">
</g>
<g id="template">
</g>
<g id="service">
</g>
<g id="script">
</g>
<g id="ruby_x5F_block">
</g>
<g id="remote_x5F_file">
</g>
<g id="remote_x5F_directory_1_">
</g>
<g id="package">
	<g>
		<g>
			<path d="M14.9,39.7c-0.8,0-1.7-0.3-2.3-0.9L1.7,29.5c-0.9-0.8-1.4-2.1-1.2-3.3c0.2-1.2,1-2.3,2.2-2.7l31-12.4
				c1.2-0.5,2.6-0.3,3.6,0.6L48.2,21c0.9,0.8,1.4,2.1,1.2,3.3c-0.2,1.2-1,2.3-2.2,2.7l-31,12.4C15.8,39.6,15.3,39.7,14.9,39.7
				L14.9,39.7z M10.8,27.9l4.8,4.1l23.5-9.4l-4.8-4.1L10.8,27.9L10.8,27.9z"/>
		</g>
		<g>
			<path d="M45.2,90.9c-0.7,0-1.5-0.2-2.1-0.7c-0.9-0.7-1.5-1.7-1.5-2.9V52.4c0-2,1.6-3.6,3.6-3.6s3.6,1.6,3.6,3.6v30l30-9.5V57
				c0-2,1.6-3.6,3.6-3.6c2,0,3.6,1.6,3.6,3.6v18.6c0,1.6-1,2.9-2.5,3.4L46.3,90.7C46,90.9,45.6,90.9,45.2,90.9L45.2,90.9z"/>
		</g>
		<g>
			<path d="M65.5,64.3c-0.8,0-1.7-0.3-2.3-0.9l-10.9-9.4c-0.9-0.8-1.4-2.1-1.2-3.3c0.2-1.2,1-2.3,2.2-2.7l31-12.4
				c1.2-0.5,2.6-0.3,3.6,0.6l10.9,9.4c0.9,0.8,1.4,2.1,1.2,3.3c-0.2,1.2-1,2.3-2.2,2.7L66.8,64C66.4,64.2,65.9,64.3,65.5,64.3
				L65.5,64.3z M61.4,52.5l4.8,4.1l23.5-9.4l-4.8-4.1L61.4,52.5L61.4,52.5z"/>
		</g>
		<g>
			<path d="M82.4,39c-0.4,0-0.9-0.1-1.3-0.3l-31-12.4c-1.1-0.4-1.9-1.4-2.2-2.6c-0.2-1.2,0.1-2.4,1-3.2l10.7-10.4
				c1-1,2.5-1.3,3.8-0.8l31,12.4c1.1,0.4,1.9,1.4,2.2,2.6c0.2,1.2-0.2,2.4-1,3.2L84.9,38C84.2,38.6,83.3,39,82.4,39L82.4,39z
				 M57.8,21.7l23.8,9.5l5.1-4.9l-23.8-9.5L57.8,21.7L57.8,21.7z"/>
		</g>
		<g>
			<path d="M44.6,90.9c-0.5,0-0.9-0.1-1.4-0.3L14.6,78.9c-1.3-0.5-2.2-1.8-2.2-3.3V58.4c0-2,1.6-3.6,3.6-3.6c2,0,3.6,1.6,3.6,3.6
				v14.8L46,84c1.8,0.7,2.7,2.8,1.9,4.7C47.4,90.1,46,90.9,44.6,90.9L44.6,90.9z"/>
		</g>
		<g>
			<path d="M34.6,66.4c-0.4,0-0.9-0.1-1.3-0.3l-31-12.4c-1.1-0.4-1.9-1.4-2.2-2.6c-0.2-1.2,0.1-2.4,1-3.2l10.6-10.3
				c1-1,2.5-1.3,3.8-0.8l31,12.4c1.1,0.4,1.9,1.4,2.2,2.6c0.2,1.2-0.2,2.4-1,3.2L37.1,65.4C36.4,66,35.5,66.4,34.6,66.4L34.6,66.4z
				 M10,49.1l23.8,9.5l5.1-4.9L15,44.2L10,49.1L10,49.1z"/>
		</g>
	</g>
</g>
<g id="log">
</g>
<g id="link">
</g>
<g id="group">
</g>
<g id="gem">
</g>
<g id="file">
</g>
<g id="execute">
</g>
<g id="directory">
</g>
<g id="deploy">
</g>
<g id="cron">
</g>
<g id="cookbook_x5F_file">
</g>
<g id="chef_x5F_gem">
</g>
<g id="bash">
</g>
</svg>
