<?xml version="1.0" encoding="utf-8"?>
<!-- Generator: Adobe Illustrator 18.1.1, SVG Export Plug-In . SVG Version: 6.00 Build 0)  -->
<svg version="1.1" xmlns="http://www.w3.org/2000/svg" xmlns:xlink="http://www.w3.org/1999/xlink" x="0px" y="0px"
	 viewBox="0 0 100 100" enable-background="new 0 0 100 100" xml:space="preserve">
<g id="deliver">
	<g>
		<g>
			<path d="M95.8,99.2H4.2C1.9,99.2,0,97.3,0,95V5c0-2.3,1.9-4.2,4.2-4.2h91.6c2.3,0,4.2,1.9,4.2,4.2v90
				C100,97.3,98.1,99.2,95.8,99.2L95.8,99.2z M8.4,90.8h83.1V9.2H8.4V90.8L8.4,90.8z"/>
		</g>
		<g>
			<g>
				<path d="M19,19v62h62V19H19z M67.8,39c1.5,2.5,2.6,5.4,3,8.4h-3.6c-0.3-2.4-1.2-4.7-2.4-6.6L67.8,39z M36.6,50
					c0,5.6,3.5,10.5,8.5,12.5l-1.3,3.3c-6.3-2.5-10.7-8.6-10.7-15.7H36.6z M34.3,43.9c2.4-6.3,8.6-10.8,15.8-10.8v3.6
					c-5.7,0-10.6,3.6-12.5,8.5L34.3,43.9z M37.1,50c0-7.2,5.8-13,13-13c6.3,0,11.5,4.5,12.7,10.4h-3.6c-1.1-4-4.8-6.8-9.1-6.8
					c-5.2,0-9.4,4.3-9.4,9.4s4.2,9.4,9.4,9.4c4.3,0,8-2.9,9.1-6.8h3.6C61.6,58.5,56.4,63,50.1,63C42.9,63,37.1,57.2,37.1,50z
					 M54.7,52.6h4.1c-0.8,2.6-2.8,4.8-5.4,5.8L52,54.9C53.1,54.5,54.1,53.6,54.7,52.6z M52,45.1l1.4-3.5c2.5,1,4.5,3.1,5.3,5.7h-4.1
					C54,46.4,53.1,45.5,52,45.1z M44.8,50c0,0.8,0.1,1.5,0.4,2.1l-3.4,1.5c-0.5-1.1-0.8-2.4-0.8-3.6c0-4.9,4.1-9,9-9v3.8
					C47.2,44.8,44.8,47.1,44.8,50z M50.1,55.2V59c-2.4,0-4.8-1-6.4-2.6l2.7-2.6C47.3,54.7,48.6,55.2,50.1,55.2z M50.1,63.4
					c6.5,0,12-4.6,13.1-10.7h3.6c-1.3,8.1-8.3,14.3-16.8,14.3V63.4z M63.3,47.4c-0.9-4.5-4.1-8.2-8.3-9.9l1.3-3.3
					c5.5,2.2,9.7,7.2,10.6,13.2H63.3z M50.1,29.1c4.7,0,9.1,1.5,12.6,4.2l-2.2,2.9c-2.9-2.2-6.5-3.5-10.4-3.5
					c-7.3,0-13.7,4.6-16.2,11.1l-3.4-1.3C33.6,34.6,41.2,29.1,50.1,29.1z M31,59c-0.9-2-1.7-4.7-1.9-9l3.6,0
					c0.1,3.9,0.9,5.8,1.7,7.6L31,59z M50.1,70.9c-5.8,0-11-2.3-14.8-6.1l2.5-2.5c3.1,3.1,7.5,5.1,12.3,5.1c8.7,0,15.9-6.4,17.3-14.8
					h3.6C69.6,62.9,60.8,70.9,50.1,70.9z"/>
			</g>
		</g>
	</g>
</g>
<g id="rehearse">
</g>
<g id="union">
</g>
<g id="publish">
</g>
<g id="accept">
</g>
<g id="build">
</g>
<g id="approve">
</g>
<g id="verify">
</g>
<g id="workstation">
</g>
<g id="tests">
</g>
<g id="secrets">
</g>
<g id="rules">
</g>
<g id="ruby_1_">
</g>
<g id="rubocop">
</g>
<g id="resources">
</g>
<g id="reports">
</g>
<g id="recipes">
</g>
<g id="recipe">
</g>
<g id="recipe_x5F_dsl">
</g>
<g id="policygroup">
</g>
<g id="policyfile">
</g>
<g id="knife">
</g>
<g id="kitchen">
</g>
<g id="foodcritic">
</g>
<g id="development_x5F_kit">
</g>
<g id="cookbooks">
</g>
<g id="controls">
</g>
<g id="config-rb">
</g>
<g id="ci">
</g>
<g id="chef_x5F_repo">
</g>
<g id="chefspec">
</g>
<g id="cd">
</g>
</svg>
