<?xml version="1.0" encoding="utf-8"?>
<!-- Generator: Adobe Illustrator 18.1.1, SVG Export Plug-In . SVG Version: 6.00 Build 0)  -->
<svg version="1.1" xmlns="http://www.w3.org/2000/svg" xmlns:xlink="http://www.w3.org/1999/xlink" x="0px" y="0px"
	 viewBox="0 0 100 100" enable-background="new 0 0 100 100" xml:space="preserve">
<g id="supermarket">
</g>
<g id="server">
</g>
<g id="push-jobs">
</g>
<g id="ohai">
</g>
<g id="manage">
</g>
<g id="delivery">
</g>
<g id="dk">
</g>
<g id="community">
	<g>
		<g>
			<path d="M50.3,47.3c-8.3,0-15.1-7.5-15.1-16.8c0-9.2,6.8-16.8,15.1-16.8s15.1,7.5,15.1,16.8C65.4,39.8,58.6,47.3,50.3,47.3
				L50.3,47.3z M50.3,21.7c-3.9,0-7.1,3.9-7.1,8.8c0,4.9,3.2,8.8,7.1,8.8c3.9,0,7.1-3.9,7.1-8.8C57.4,25.7,54.2,21.7,50.3,21.7
				L50.3,21.7z"/>
		</g>
		<g>
			<path d="M71.4,86.2H28.7c-2.1,0-3.8-1.6-4-3.7c-0.3-4.6-0.6-9.2-0.9-13.8c-0.4-5.6,3.8-11.8,9.3-13.8c11-3.9,23-3.9,33.9,0
				c5.5,2,9.7,8.2,9.3,13.8l-0.9,13.8C75.2,84.6,73.5,86.2,71.4,86.2L71.4,86.2z M32.4,78.3h35.2l0.7-10.1c0.1-1.7-1.5-4.9-4.1-5.8
				c-9.1-3.3-19.3-3.3-28.5,0c-2.5,0.9-4.2,4.1-4.1,5.8C31.9,71.5,32.2,74.9,32.4,78.3L32.4,78.3z"/>
		</g>
		<g>
			<path d="M71.4,86.2H28.7c-2.1,0-3.8-1.6-4-3.7c-0.3-4.6-0.6-9.2-0.9-13.8c-0.4-5.6,3.8-11.8,9.3-13.8c11-3.9,23-3.9,33.9,0
				c5.5,2,9.7,8.2,9.3,13.8l-0.9,13.8C75.2,84.6,73.5,86.2,71.4,86.2L71.4,86.2z M32.4,78.3h35.2l0.7-10.1c0.1-1.7-1.5-4.9-4.1-5.8
				c-9.1-3.3-19.3-3.3-28.5,0c-2.5,0.9-4.2,4.1-4.1,5.8C31.9,71.5,32.2,74.9,32.4,78.3L32.4,78.3z"/>
		</g>
		<g>
			<path d="M97.2,79.8h-17c-1.1,0-2-0.9-2-2c0-1.1,0.9-2,2-2h15.1l0.7-10c0.1-2.2-1.8-5.5-4.5-6.5c-3.9-1.4-7.9-2.1-12.1-2.2
				c-1.1,0-2-0.9-2-2c0-1.1,0.9-2,2-2h0c4.6,0.1,9.1,0.9,13.3,2.4c4.1,1.5,7.4,6.3,7.1,10.5l-0.8,11.9C99.1,79,98.2,79.8,97.2,79.8
				L97.2,79.8z"/>
		</g>
		<g>
			<path d="M84.1,48.8c-5.9,0-10.6-5.4-10.6-11.9c0-6.6,4.8-11.9,10.6-11.9c5.9,0,10.6,5.4,10.6,11.9C94.7,43.4,90,48.8,84.1,48.8
				L84.1,48.8z M84.1,28.9c-3.7,0-6.7,3.6-6.7,8c0,4.4,3,8,6.7,8c3.7,0,6.6-3.6,6.6-8C90.7,32.4,87.8,28.9,84.1,28.9L84.1,28.9z"/>
		</g>
		<g>
			<path d="M19.8,79.8h-17c-1,0-1.9-0.8-2-1.9L0,66c-0.3-4.2,3-9,7.1-10.5c4.3-1.5,8.8-2.4,13.4-2.4c1.2,0.2,2,0.9,2,2
				c0,1.1-0.9,2-2,2c-4.1,0.1-8.2,0.8-12.1,2.2c-2.7,1-4.6,4.3-4.5,6.5l0.7,10h15.1c1.1,0,2,0.9,2,2C21.8,78.9,20.9,79.8,19.8,79.8
				L19.8,79.8z"/>
		</g>
		<g>
			<path d="M15.9,48.8c-5.9,0-10.6-5.4-10.6-11.9c0-6.6,4.8-11.9,10.6-11.9c5.9,0,10.6,5.4,10.6,11.9C26.5,43.4,21.8,48.8,15.9,48.8
				L15.9,48.8z M15.9,28.9c-3.7,0-6.6,3.6-6.6,8c0,4.4,3,8,6.6,8c3.7,0,6.7-3.6,6.7-8C22.5,32.4,19.6,28.9,15.9,28.9L15.9,28.9z"/>
		</g>
	</g>
</g>
<g id="client">
</g>
<g id="analytics">
</g>
</svg>
