<?xml version="1.0" encoding="utf-8"?>
<!-- Generator: Adobe Illustrator 18.1.1, SVG Export Plug-In . SVG Version: 6.00 Build 0)  -->
<svg version="1.1" xmlns="http://www.w3.org/2000/svg" xmlns:xlink="http://www.w3.org/1999/xlink" x="0px" y="0px"
	 viewBox="0 0 100 100" enable-background="new 0 0 100 100" xml:space="preserve">
<g id="user">
</g>
<g id="template">
</g>
<g id="service">
</g>
<g id="script">
</g>
<g id="ruby_x5F_block">
</g>
<g id="remote_x5F_file">
</g>
<g id="remote_x5F_directory_1_">
</g>
<g id="package">
</g>
<g id="log">
</g>
<g id="link">
</g>
<g id="group">
</g>
<g id="gem">
</g>
<g id="file">
</g>
<g id="execute">
</g>
<g id="directory">
</g>
<g id="deploy">
</g>
<g id="cron">
	<g>
		<g>
			<path d="M50,100C22.4,100,0,77.6,0,50C0,22.4,22.4,0,50,0c27.6,0,50,22.4,50,50C100,77.6,77.6,100,50,100L50,100z M50,8.6
				C27.2,8.6,8.6,27.2,8.6,50S27.2,91.4,50,91.4S91.4,72.8,91.4,50S72.9,8.6,50,8.6L50,8.6z"/>
		</g>
		<g>
			<path d="M50,54.3c-2.4,0-4.3-1.9-4.3-4.3V19.1c0-2.4,1.9-4.3,4.3-4.3c2.4,0,4.3,1.9,4.3,4.3V50C54.3,52.4,52.4,54.3,50,54.3
				L50,54.3z"/>
		</g>
		<g>
			<path d="M50,11.4c-2.4,0-4.3-1.9-4.3-4.3V4.3C45.7,1.9,47.6,0,50,0c2.4,0,4.3,1.9,4.3,4.3v2.8C54.3,9.4,52.4,11.4,50,11.4
				L50,11.4z"/>
		</g>
		<g>
			<path d="M50,100c-2.4,0-4.3-1.9-4.3-4.3v-2.8c0-2.4,1.9-4.3,4.3-4.3c2.4,0,4.3,1.9,4.3,4.3v2.8C54.3,98.1,52.4,100,50,100L50,100
				z"/>
		</g>
		<g>
			<path d="M95.7,54.3h-2.8c-2.4,0-4.3-1.9-4.3-4.3c0-2.4,1.9-4.3,4.3-4.3h2.8c2.4,0,4.3,1.9,4.3,4.3C100,52.4,98.1,54.3,95.7,54.3
				L95.7,54.3z"/>
		</g>
		<g>
			<path d="M7.1,54.3H4.3C1.9,54.3,0,52.4,0,50c0-2.4,1.9-4.3,4.3-4.3h2.8c2.4,0,4.3,1.9,4.3,4.3C11.4,52.4,9.4,54.3,7.1,54.3
				L7.1,54.3z"/>
		</g>
		<g>
			<g>
				<g>
					<path d="M69.5,18.4c-0.4,0-0.7-0.1-1.1-0.3c-1-0.6-1.4-1.9-0.8-2.9l1.3-2.2c0.6-1,1.9-1.4,2.9-0.8c1,0.6,1.4,1.9,0.8,2.9
						l-1.3,2.2C71,18,70.2,18.4,69.5,18.4L69.5,18.4z"/>
				</g>
				<g>
					<path d="M29.2,88.1c-0.4,0-0.7-0.1-1.1-0.3c-1-0.6-1.4-1.9-0.8-2.9l1.3-2.2c0.6-1,1.9-1.4,2.9-0.8c1,0.6,1.4,1.9,0.8,2.9
						L31.1,87C30.7,87.7,30,88.1,29.2,88.1L29.2,88.1z"/>
				</g>
				<g>
					<path d="M86,72.9c-0.4,0-0.7-0.1-1.1-0.3l-2.2-1.2c-1-0.6-1.4-1.9-0.8-2.9c0.6-1,1.9-1.4,2.9-0.8l2.2,1.2
						c1,0.6,1.4,1.9,0.8,2.9C87.4,72.5,86.7,72.9,86,72.9L86,72.9z"/>
				</g>
				<g>
					<path d="M16.2,32.6c-0.4,0-0.7-0.1-1.1-0.3L13,31.1c-1-0.6-1.4-1.9-0.8-2.9c0.6-1,1.9-1.4,2.9-0.8l2.2,1.3
						c1,0.6,1.4,1.9,0.8,2.9C17.7,32.3,17,32.6,16.2,32.6L16.2,32.6z"/>
				</g>
			</g>
			<g>
				<g>
					<path d="M30.5,18.4c-0.7,0-1.5-0.4-1.9-1.1l-1.3-2.2c-0.6-1-0.2-2.3,0.8-2.9c1-0.6,2.3-0.2,2.9,0.8l1.3,2.2
						c0.6,1,0.2,2.3-0.8,2.9C31.2,18.3,30.9,18.4,30.5,18.4L30.5,18.4z"/>
				</g>
				<g>
					<path d="M70.8,88.1c-0.7,0-1.5-0.4-1.8-1.1l-1.3-2.2c-0.6-1-0.3-2.3,0.8-2.9c1-0.6,2.3-0.3,2.9,0.8l1.3,2.2
						c0.6,1,0.2,2.3-0.8,2.9C71.5,88,71.1,88.1,70.8,88.1L70.8,88.1z"/>
				</g>
				<g>
					<path d="M14.1,72.9c-0.7,0-1.5-0.4-1.9-1.1c-0.6-1-0.2-2.3,0.8-2.9l2.2-1.2c1-0.6,2.3-0.2,2.9,0.8c0.6,1,0.2,2.3-0.8,2.9
						l-2.2,1.2C14.8,72.8,14.4,72.9,14.1,72.9L14.1,72.9z"/>
				</g>
				<g>
					<path d="M83.8,32.6c-0.7,0-1.5-0.4-1.8-1.1c-0.6-1-0.2-2.3,0.8-2.9l2.2-1.3c1-0.6,2.3-0.2,2.9,0.8c0.6,1,0.2,2.3-0.8,2.9
						l-2.2,1.3C84.5,32.5,84.1,32.6,83.8,32.6L83.8,32.6z"/>
				</g>
			</g>
		</g>
		<g>
			<path d="M37.1,67.2c-1.1,0-2.2-0.4-3-1.3c-1.7-1.7-1.7-4.4,0-6.1l12.4-12.4c1.7-1.7,4.4-1.7,6.1,0c1.7,1.7,1.7,4.4,0,6.1L40.1,66
				C39.3,66.8,38.2,67.2,37.1,67.2L37.1,67.2z"/>
		</g>
	</g>
</g>
<g id="cookbook_x5F_file">
</g>
<g id="chef_x5F_gem">
</g>
<g id="bash">
</g>
</svg>
