<?xml version="1.0" encoding="utf-8"?>
<!-- Generator: Adobe Illustrator 18.1.1, SVG Export Plug-In . SVG Version: 6.00 Build 0)  -->
<svg version="1.1" xmlns="http://www.w3.org/2000/svg" xmlns:xlink="http://www.w3.org/1999/xlink" x="0px" y="0px"
	 viewBox="0 0 100 100" enable-background="new 0 0 100 100" xml:space="preserve">
<g id="yum">
</g>
<g id="windows_x5F_service">
</g>
<g id="windows">
</g>
<g id="subversion">
</g>
<g id="solaris">
</g>
<g id="smartos">
</g>
<g id="ruby">
	<g>
		<g>
			<path d="M95.8,100H4.2C1.9,100,0,98.1,0,95.8V4.2C0,1.9,1.9,0,4.2,0h91.6c2.3,0,4.2,1.9,4.2,4.2v91.6C100,98.1,98.1,100,95.8,100
				L95.8,100z M8.4,91.6h83.2V8.4H8.4V91.6L8.4,91.6z"/>
		</g>
		<g>
			<g>
				<g>
					<path d="M71.2,73.4H27.3c-1.1,0-2-0.9-2-2V27.5c0-1.1,0.9-2,2-2h43.9c1.1,0,2,0.9,2,2v43.9C73.2,72.5,72.3,73.4,71.2,73.4
						L71.2,73.4z M29.3,69.4h39.9V29.5H29.3V69.4L29.3,69.4z"/>
				</g>
				<g>
					<path d="M70.5,40.2H28.1c-0.6,0-1-0.5-1-1s0.5-1,1-1h42.5c0.6,0,1,0.5,1,1S71.1,40.2,70.5,40.2L70.5,40.2z"/>
				</g>
				<path d="M34.5,31.4c-1.4,0-2.5,1.1-2.5,2.5c0,1.4,1.1,2.5,2.5,2.5c1.4,0,2.5-1.1,2.5-2.5C37,32.5,35.9,31.4,34.5,31.4L34.5,31.4
					z"/>
				<path d="M41.4,31.4c-1.4,0-2.5,1.1-2.5,2.5c0,1.4,1.1,2.5,2.5,2.5c1.4,0,2.5-1.1,2.5-2.5C43.9,32.5,42.8,31.4,41.4,31.4
					L41.4,31.4z"/>
				<path d="M48.2,31.4c-1.4,0-2.5,1.1-2.5,2.5c0,1.4,1.1,2.5,2.5,2.5c1.4,0,2.5-1.1,2.5-2.5C50.8,32.5,49.6,31.4,48.2,31.4
					L48.2,31.4z"/>
			</g>
			<g>
				<g>
					<g>
						<path d="M61.4,63.1H48.5c-1.1,0-2-0.9-2-2c0-1.1,0.9-2,2-2h12.9c1.1,0,2,0.9,2,2C63.4,62.2,62.5,63.1,61.4,63.1L61.4,63.1z"/>
					</g>
				</g>
				<g>
					<g>
						<path d="M37.2,63.1c-0.5,0-1-0.2-1.4-0.6c-0.8-0.8-0.8-2.1,0-2.9l5.9-5.9l-5.9-5.9c-0.8-0.8-0.8-2.1,0-2.9
							c0.8-0.8,2.1-0.8,2.9,0l7.3,7.3c0.8,0.8,0.8,2.1,0,2.9l-7.3,7.3C38.2,62.9,37.7,63.1,37.2,63.1L37.2,63.1z"/>
					</g>
				</g>
			</g>
		</g>
	</g>
</g>
<g id="rpm">
</g>
<g id="route">
</g>
<g id="registry_x5F_key">
</g>
<g id="reboot">
</g>
<g id="python">
</g>
<g id="powershell">
</g>
<g id="portage">
</g>
<g id="perl">
</g>
<g id="paludis">
</g>
<g id="pacman">
</g>
<g id="openbsd">
</g>
<g id="ohai">
</g>
<g id="mount">
</g>
<g id="mdadm">
</g>
<g id="macports">
</g>
<g id="ips">
</g>
<g id="ifconfig">
</g>
<g id="http_x5F_request">
</g>
<g id="homebrew">
</g>
<g id="git">
</g>
<g id="freebsd">
</g>
<g id="erlang_x5F_call">
</g>
<g id="env">
</g>
<g id="easy_x5F_install">
</g>
<g id="dsc_x5F_script">
</g>
<g id="dsc_x5F_resource">
</g>
<g id="dpkg">
</g>
<g id="csh">
</g>
<g id="chef_x5F_handler">
</g>
<g id="breakpoint">
</g>
<g id="bff">
</g>
<g id="batch">
</g>
<g id="apt">
</g>
</svg>
