<?xml version="1.0" encoding="utf-8"?>
<!-- Generator: Adobe Illustrator 18.1.1, SVG Export Plug-In . SVG Version: 6.00 Build 0)  -->
<svg version="1.1" xmlns="http://www.w3.org/2000/svg" xmlns:xlink="http://www.w3.org/1999/xlink" x="0px" y="0px"
	 viewBox="0 0 100 100" enable-background="new 0 0 100 100" xml:space="preserve">
<g id="public_x5F_key">
</g>
<g id="private_x5F_key">
</g>
<g id="chef_x5F_user">
</g>
<g id="chef_x5F_role">
</g>
<g id="chef_x5F_organization">
</g>
<g id="chef_x5F_node">
</g>
<g id="chef_x5F_mirror">
</g>
<g id="chef_x5F_group">
</g>
<g id="chef_x5F_environment">
</g>
<g id="chef_x5F_data_x5F_bag">
</g>
<g id="chef_x5F_container">
</g>
<g id="chef_x5F_client">
</g>
<g id="chef_x5F_acl">
</g>
<g id="machine_x5F_image">
</g>
<g id="machine_x5F_file">
</g>
<g id="machine_x5F_execute">
	<g>
		<g>
			<path d="M80.7,34.8H20.5c-0.8,0-1.4-0.6-1.4-1.4c0-0.8,0.6-1.4,1.4-1.4h60.2c0.8,0,1.4,0.6,1.4,1.4
				C82.1,34.1,81.5,34.8,80.7,34.8L80.7,34.8z"/>
		</g>
		<path d="M25.5,23.3c-1.4,0-2.6,1.1-2.6,2.6c0,1.4,1.1,2.6,2.6,2.6c1.4,0,2.6-1.1,2.6-2.6C28.1,24.5,26.9,23.3,25.5,23.3L25.5,23.3
			z"/>
		<path d="M32.4,23.3c-1.4,0-2.6,1.1-2.6,2.6c0,1.4,1.1,2.6,2.6,2.6c1.4,0,2.6-1.1,2.6-2.6C35,24.5,33.8,23.3,32.4,23.3L32.4,23.3z"
			/>
		<path d="M39.3,23.3c-1.4,0-2.6,1.1-2.6,2.6c0,1.4,1.1,2.6,2.6,2.6c1.4,0,2.6-1.1,2.6-2.6C41.9,24.5,40.8,23.3,39.3,23.3L39.3,23.3
			z"/>
		<g>
			<g>
				<g>
					<path d="M50.4,59.5H37.5c-1.1,0-2-0.9-2-2c0-1.1,0.9-2,2-2h12.9c1.1,0,2,0.9,2,2C52.5,58.6,51.6,59.5,50.4,59.5L50.4,59.5z"/>
				</g>
			</g>
			<g>
				<g>
					<path d="M26.1,59.5c-0.5,0-1-0.2-1.4-0.6c-0.8-0.8-0.8-2.1,0-2.9l5.9-5.9l-5.9-5.9c-0.8-0.8-0.8-2.1,0-2.9
						c0.8-0.8,2.1-0.8,2.9,0l7.4,7.4c0.8,0.8,0.8,2.1,0,2.9l-7.4,7.4C27.1,59.3,26.6,59.5,26.1,59.5L26.1,59.5z"/>
				</g>
			</g>
		</g>
		<g>
			<g>
				<path d="M95.8,99.2H4.2C1.9,99.2,0,97.3,0,95V5c0-2.3,1.9-4.2,4.2-4.2h91.6c2.3,0,4.2,1.9,4.2,4.2v90
					C100,97.3,98.1,99.2,95.8,99.2L95.8,99.2z M8.4,90.8h83.1V9.2H8.4V90.8L8.4,90.8z"/>
			</g>
			<g>
				<path d="M82.1,69.8H17.9c-1.2,0-2.1-0.9-2.1-2.1v-49c0-1.2,0.9-2.1,2.1-2.1h64.2c1.2,0,2.1,0.9,2.1,2.1v49
					C84.2,68.8,83.3,69.8,82.1,69.8L82.1,69.8z M20,65.6h60V20.8H20V65.6L20,65.6z"/>
			</g>
		</g>
	</g>
</g>
<g id="machine_x5F_batch">
</g>
<g id="machine">
</g>
<g id="load_x5F_balancer">
</g>
</svg>
