<?xml version="1.0" encoding="utf-8"?>
<!-- Generator: Adobe Illustrator 18.1.1, SVG Export Plug-In . SVG Version: 6.00 Build 0)  -->
<svg version="1.1" xmlns="http://www.w3.org/2000/svg" xmlns:xlink="http://www.w3.org/1999/xlink" x="0px" y="0px"
	 viewBox="0 0 100 100" enable-background="new 0 0 100 100" xml:space="preserve">
<g id="deliver">
</g>
<g id="rehearse">
</g>
<g id="union">
</g>
<g id="publish">
</g>
<g id="accept">
</g>
<g id="build">
</g>
<g id="approve">
</g>
<g id="verify">
</g>
<g id="workstation">
</g>
<g id="tests">
</g>
<g id="secrets">
</g>
<g id="rules">
</g>
<g id="ruby_1_">
	<g>
		<g>
			<path d="M1.3,98.4c-0.8-1.1-1.5-2.4-1.3-3.9L12.9,4.2c0.3-2.4,2.5-4.2,5-3.9l35.5,3.5c1.1,0.1,2,0.6,2.8,1.3l39,39
				c0.8,0.8,1.2,1.7,1.3,2.8l3.5,35.5c0.2,2.4-1.5,4.7-3.9,5L5.2,99.7C3.8,99.9,2.3,99.4,1.3,98.4L1.3,98.4z M21.3,9.8l-11.4,80
				l80.5-10.9l-2.9-29.5L50.8,12.7L21.3,9.8L21.3,9.8z"/>
		</g>
		<g>
			<path d="M93.8,84.5l-78-78c-0.7-0.7-0.9-1.7-0.4-2.6c0.4-0.9,1.3-1.4,2.3-1.3l35.5,3.5c0.5,0.1,1,0.3,1.4,0.7l39,39
				c0.4,0.4,0.6,0.9,0.7,1.4l3.5,35.5c0.1,1-0.4,1.9-1.3,2.3C95.5,85.4,94.5,85.2,93.8,84.5L93.8,84.5z M23.5,7.7l69,69l-2.8-28.4
				L51.9,10.5L23.5,7.7L23.5,7.7z"/>
		</g>
		<g>
			<path d="M2.8,97.5c-0.7-0.7-0.9-1.8-0.4-2.7l48.2-86c0.6-1.1,2-1.5,3.1-0.9c1.1,0.6,1.5,2,0.9,3.1L10.4,89.9l78.9-44.2
				c1.1-0.6,2.5-0.2,3.1,0.9c0.6,1.1,0.2,2.5-0.9,3.1l-86,48.2C4.6,98.4,3.5,98.2,2.8,97.5L2.8,97.5z"/>
		</g>
		<g>
			<path d="M54.9,45.4c-0.4-0.4-0.6-0.8-0.7-1.4l-3.9-33.9c-0.1-1.3,0.8-2.4,2-2.5c1.3-0.2,2.4,0.8,2.5,2l3.7,32.1l32.1,3.7
				c1.3,0.1,2.2,1.3,2,2.5c-0.1,1.3-1.3,2.2-2.5,2L56.3,46C55.7,46,55.3,45.7,54.9,45.4L54.9,45.4z"/>
		</g>
		<g>
			<path d="M91.7,81.9c-0.2-0.2-0.3-0.3-0.4-0.5L67.2,33L18.9,8.9c-1-0.5-1.4-1.8-0.9-2.8c0.5-1,1.7-1.4,2.8-0.9l49,24.4
				c0.4,0.2,0.7,0.5,0.9,0.9l24.4,49c0.5,1,0.1,2.3-0.9,2.8C93.3,82.7,92.3,82.5,91.7,81.9L91.7,81.9z"/>
		</g>
	</g>
</g>
<g id="rubocop">
</g>
<g id="resources">
</g>
<g id="reports">
</g>
<g id="recipes">
</g>
<g id="recipe">
</g>
<g id="recipe_x5F_dsl">
</g>
<g id="policygroup">
</g>
<g id="policyfile">
</g>
<g id="knife">
</g>
<g id="kitchen">
</g>
<g id="foodcritic">
</g>
<g id="development_x5F_kit">
</g>
<g id="cookbooks">
</g>
<g id="controls">
</g>
<g id="config-rb">
</g>
<g id="ci">
</g>
<g id="chef_x5F_repo">
</g>
<g id="chefspec">
</g>
<g id="cd">
</g>
</svg>
