<?xml version="1.0" encoding="utf-8"?>
<!-- Generator: Adobe Illustrator 18.1.1, SVG Export Plug-In . SVG Version: 6.00 Build 0)  -->
<svg version="1.1" xmlns="http://www.w3.org/2000/svg" xmlns:xlink="http://www.w3.org/1999/xlink" x="0px" y="0px"
	 viewBox="0 0 100 100" enable-background="new 0 0 100 100" xml:space="preserve">
<g id="deliver">
</g>
<g id="rehearse">
</g>
<g id="union">
</g>
<g id="publish">
</g>
<g id="accept">
</g>
<g id="build">
</g>
<g id="approve">
</g>
<g id="verify">
</g>
<g id="workstation">
</g>
<g id="tests">
</g>
<g id="secrets">
</g>
<g id="rules">
</g>
<g id="ruby_1_">
</g>
<g id="rubocop">
</g>
<g id="resources">
</g>
<g id="reports">
</g>
<g id="recipes">
</g>
<g id="recipe">
	<path d="M88.1,97.9V2.1c0-1.1-0.9-2.1-2.1-2.1H13.9c-1.1,0-2.1,0.9-2.1,2.1v95.9c0,1.1,0.9,2.1,2.1,2.1h72.1
		C87.2,100,88.1,99.1,88.1,97.9z M59.2,10.8h10.1c1.1,0,2,0.9,2,2c0,1.1-0.9,2-2,2H59.2c-1.1,0-2-0.9-2-2
		C57.2,11.7,58.1,10.8,59.2,10.8z M68.3,21.7c0,1.1-0.9,2-2,2H30c-1.1,0-2-0.9-2-2c0-1.1,0.9-2,2-2h36.2
		C67.4,19.7,68.3,20.6,68.3,21.7z M41.8,10.8h10.1c1.1,0,2,0.9,2,2c0,1.1-0.9,2-2,2H41.8c-1.1,0-2-0.9-2-2
		C39.8,11.7,40.7,10.8,41.8,10.8z M24.4,10.8h10.1c1.1,0,2,0.9,2,2c0,1.1-0.9,2-2,2H24.4c-1.1,0-2-0.9-2-2
		C22.4,11.7,23.3,10.8,24.4,10.8z M59.1,40.6H30c-1.1,0-2-0.9-2-2c0-1.1,0.9-2,2-2h29.1c1.1,0,2,0.9,2,2
		C61.2,39.7,60.2,40.6,59.1,40.6z M61.2,47c0,1.1-0.9,2-2,2H30c-1.1,0-2-0.9-2-2c0-1.1,0.9-2,2-2h29.1C60.2,45,61.2,45.9,61.2,47z
		 M34.5,66.5H24.4c-1.1,0-2-0.9-2-2c0-1.1,0.9-2,2-2h10.1c1.1,0,2,0.9,2,2C36.6,65.6,35.6,66.5,34.5,66.5z M74.8,57.8H30
		c-1.1,0-2-0.9-2-2c0-1.1,0.9-2,2-2h44.8c1.1,0,2,0.9,2,2C76.9,56.9,75.9,57.8,74.8,57.8z M74.8,32.5H30c-1.1,0-2-0.9-2-2
		c0-1.1,0.9-2,2-2h44.8c1.1,0,2,0.9,2,2C76.9,31.5,75.9,32.5,74.8,32.5z"/>
</g>
<g id="recipe_x5F_dsl">
</g>
<g id="policygroup">
</g>
<g id="policyfile">
</g>
<g id="knife">
</g>
<g id="kitchen">
</g>
<g id="foodcritic">
</g>
<g id="development_x5F_kit">
</g>
<g id="cookbooks">
</g>
<g id="controls">
</g>
<g id="config-rb">
</g>
<g id="ci">
</g>
<g id="chef_x5F_repo">
</g>
<g id="chefspec">
</g>
<g id="cd">
</g>
</svg>
