<?xml version="1.0" encoding="utf-8"?>
<!-- Generator: Adobe Illustrator 18.1.1, SVG Export Plug-In . SVG Version: 6.00 Build 0)  -->
<svg version="1.1" xmlns="http://www.w3.org/2000/svg" xmlns:xlink="http://www.w3.org/1999/xlink" x="0px" y="0px"
	 viewBox="0 0 100 100" enable-background="new 0 0 100 100" xml:space="preserve">
<g id="user">
</g>
<g id="template">
</g>
<g id="service">
</g>
<g id="script">
</g>
<g id="ruby_x5F_block">
</g>
<g id="remote_x5F_file">
</g>
<g id="remote_x5F_directory_1_">
	<g>
		<g>
			<g>
				<path d="M30.6,86.3H2.4c-0.4,0-0.9-0.2-1.1-0.6C1,85.4,1,84.9,1.1,84.5l5.8-18.1c0.2-0.6,0.7-1,1.3-1h28.2
					c0.4,0,0.9,0.2,1.1,0.6c0.3,0.4,0.3,0.8,0.2,1.2l-5.8,18.1C31.7,85.9,31.2,86.3,30.6,86.3L30.6,86.3z M4.3,83.6h25.3l4.9-15.4
					H9.2L4.3,83.6L4.3,83.6z"/>
			</g>
			<g>
				<path d="M1.4,86.3c-0.8,0-1.4-0.6-1.4-1.4V60.1c0-1.5,1.2-2.7,2.7-2.7h9.6c1.5,0,2.7,1.2,2.7,2.7v1h1.6c0.8,0,1.4,0.6,1.4,1.4
					c0,0.8-0.6,1.4-1.4,1.4h-2.9c-0.8,0-1.4-0.6-1.4-1.4v-2.4H2.7v24.8C2.7,85.7,2.1,86.3,1.4,86.3L1.4,86.3z"/>
			</g>
			<g>
				<path d="M35.2,64c-0.4,0-0.7-0.1-1-0.4c-0.5-0.5-0.5-1.4,0-1.9l3.2-3.2l-3.2-3.2c-0.5-0.5-0.5-1.4,0-1.9c0.5-0.5,1.4-0.5,1.9,0
					l4.2,4.2c0.3,0.3,0.4,0.6,0.4,1s-0.1,0.7-0.4,1l-4.2,4.2C35.9,63.9,35.5,64,35.2,64L35.2,64z"/>
			</g>
			<g>
				<path d="M20.1,76.7c-0.8,0-1.4-0.6-1.4-1.4c0-10.1,8.1-18.3,18.1-18.3c0.6,0,1.2,0,1.9,0.1c0.8,0.1,1.3,0.8,1.2,1.5
					c-0.1,0.8-0.8,1.3-1.5,1.2c-0.5-0.1-1-0.1-1.6-0.1c-8.5,0-15.4,7-15.4,15.6C21.5,76.1,20.9,76.7,20.1,76.7L20.1,76.7z"/>
			</g>
		</g>
		<g>
			<g>
				<g>
					<path d="M45.2,74.7c-0.5,0-0.9-0.1-1.3-0.4c-0.6-0.4-1-1.2-1-1.9V25.9c0-1,0.6-1.8,1.5-2.2l26.2-9.9c0.7-0.3,1.5-0.2,2.2,0.3
						c0.6,0.4,1,1.2,1,1.9v46.4c0,1-0.6,1.8-1.5,2.2l-26.2,9.9C45.8,74.6,45.5,74.7,45.2,74.7L45.2,74.7z M47.6,27.5V69l21.5-8.1
						V19.4L47.6,27.5L47.6,27.5z"/>
				</g>
				<g>
					<path d="M50.7,37.2c-0.5,0-0.9-0.3-1.1-0.8c-0.2-0.6,0.1-1.3,0.7-1.5L65.9,29c0.6-0.2,1.3,0.1,1.5,0.7c0.2,0.6-0.1,1.3-0.7,1.5
						l-15.6,5.9C50.9,37.2,50.8,37.2,50.7,37.2L50.7,37.2z"/>
				</g>
				<g>
					<path d="M50.7,52.3c-0.5,0-0.9-0.3-1.1-0.8c-0.2-0.6,0.1-1.3,0.7-1.5l15.6-5.9c0.6-0.2,1.3,0.1,1.5,0.7
						c0.2,0.6-0.1,1.3-0.7,1.5l-15.6,5.9C50.9,52.3,50.8,52.3,50.7,52.3L50.7,52.3z"/>
				</g>
				<g>
					<path d="M50.7,59.8c-0.5,0-0.9-0.3-1.1-0.8c-0.2-0.6,0.1-1.3,0.7-1.5l15.6-5.9c0.6-0.2,1.3,0.1,1.5,0.7
						c0.2,0.6-0.1,1.3-0.7,1.5l-15.6,5.9C50.9,59.8,50.8,59.8,50.7,59.8L50.7,59.8z"/>
				</g>
				<g>
					<path d="M50.7,44.8c-0.5,0-0.9-0.3-1.1-0.8c-0.2-0.6,0.1-1.3,0.7-1.5l15.6-5.9c0.6-0.2,1.3,0.1,1.5,0.7
						c0.2,0.6-0.1,1.3-0.7,1.5l-15.6,5.9C50.9,44.7,50.8,44.8,50.7,44.8L50.7,44.8z"/>
				</g>
			</g>
			<g>
				<g>
					<path d="M88,69.9c-0.6,0-1.2-0.5-1.2-1.2V55.1c0-0.4,0.2-0.7,0.5-1c0.3-0.2,0.7-0.3,1.1-0.1l9.6,3.6c0.6,0.2,0.9,0.9,0.7,1.5
						c-0.2,0.6-0.9,0.9-1.5,0.7l-8-3v11.9C89.2,69.4,88.7,69.9,88,69.9L88,69.9z"/>
				</g>
				<g>
					<path d="M88,71.1c-0.3,0-0.6-0.1-0.8-0.2l-16.6-6.3c-0.9-0.3-1.5-1.2-1.5-2.2V16c0-0.8,0.4-1.5,1-1.9c0.6-0.4,1.4-0.5,2.2-0.3
						l26.2,9.9c0.9,0.3,1.5,1.2,1.5,2.2l0,32.9c0,0.6-0.2,1.2-0.7,1.6l-9.6,9.9C89.3,70.8,88.7,71.1,88,71.1L88,71.1z M73.8,60.8
						L87.4,66l7.9-8.1l0-30.3l-21.5-8.1V60.8L73.8,60.8z"/>
				</g>
				<g>
					<path d="M92.8,37.4c-0.1,0-0.3,0-0.4-0.1l-15.6-5.9c-0.6-0.2-0.9-0.9-0.7-1.5c0.2-0.6,0.9-0.9,1.5-0.7l15.6,5.9
						c0.6,0.2,0.9,0.9,0.7,1.5C93.7,37.1,93.2,37.4,92.8,37.4L92.8,37.4z"/>
				</g>
				<g>
					<path d="M92.8,52.5c-0.1,0-0.3,0-0.4-0.1l-15.6-5.9c-0.6-0.2-0.9-0.9-0.7-1.5c0.2-0.6,0.9-0.9,1.5-0.7l15.6,5.9
						c0.6,0.2,0.9,0.9,0.7,1.5C93.7,52.2,93.2,52.5,92.8,52.5L92.8,52.5z"/>
				</g>
				<g>
					<path d="M92.8,45c-0.1,0-0.3,0-0.4-0.1L76.7,39c-0.6-0.2-0.9-0.9-0.7-1.5c0.2-0.6,0.9-0.9,1.5-0.7l15.6,5.9
						c0.6,0.2,0.9,0.9,0.7,1.5C93.7,44.7,93.2,45,92.8,45L92.8,45z"/>
				</g>
			</g>
		</g>
	</g>
</g>
<g id="package">
</g>
<g id="log">
</g>
<g id="link">
</g>
<g id="group">
</g>
<g id="gem">
</g>
<g id="file">
</g>
<g id="execute">
</g>
<g id="directory">
</g>
<g id="deploy">
</g>
<g id="cron">
</g>
<g id="cookbook_x5F_file">
</g>
<g id="chef_x5F_gem">
</g>
<g id="bash">
</g>
</svg>
