<?xml version="1.0" encoding="utf-8"?>
<!-- Generator: Adobe Illustrator 18.1.1, SVG Export Plug-In . SVG Version: 6.00 Build 0)  -->
<svg version="1.1" xmlns="http://www.w3.org/2000/svg" xmlns:xlink="http://www.w3.org/1999/xlink" x="0px" y="0px"
	 viewBox="0 0 100 100" enable-background="new 0 0 100 100" xml:space="preserve">
<g id="tests">
</g>
<g id="template">
</g>
<g id="resources">
</g>
<g id="recipes">
</g>
<g id="providers">
</g>
<g id="metadata">
</g>
<g id="libraries">
</g>
<g id="files">
</g>
<g id="definitions">
	<g>
		<g>
			<g>
				<path d="M49.9,56.5c-0.4,0-0.8-0.1-1.1-0.3L22.6,41.5c-0.7-0.4-1.2-1.1-1.2-2s0.4-1.6,1.2-2l26-14.6c0.7-0.4,1.5-0.4,2.2,0
					L77,37.7c0.7,0.4,1.2,1.1,1.2,2s-0.4,1.6-1.2,2L51,56.2C50.7,56.4,50.3,56.5,49.9,56.5L49.9,56.5z M28.3,39.6l21.6,12.1l21.4-12
					L49.7,27.6L28.3,39.6L28.3,39.6z"/>
			</g>
			<g>
				<path d="M49.9,66.6c-0.4,0-0.8-0.1-1.1-0.3L22.6,51.7c-1.1-0.6-1.5-2-0.9-3.1c0.6-1.1,2-1.5,3.1-0.9l25.1,14.1l24.9-14
					c1.1-0.6,2.5-0.2,3.1,0.9c0.6,1.1,0.2,2.5-0.9,3.1L51,66.3C50.7,66.5,50.3,66.6,49.9,66.6L49.9,66.6z"/>
			</g>
			<g>
				<path d="M49.9,76.8c-0.4,0-0.8-0.1-1.1-0.3L22.6,61.8c-1.1-0.6-1.5-2-0.9-3.1c0.6-1.1,2-1.5,3.1-0.9l25.1,14.1l24.9-14
					c1.1-0.6,2.5-0.2,3.1,0.9c0.6,1.1,0.2,2.5-0.9,3.1L51,76.5C50.7,76.7,50.3,76.8,49.9,76.8L49.9,76.8z"/>
			</g>
		</g>
		<g>
			<path d="M95.8,100H4.2C1.9,100,0,98.1,0,95.8V4.2C0,1.9,1.9,0,4.2,0h91.6c2.3,0,4.2,1.9,4.2,4.2v91.6C100,98.1,98.1,100,95.8,100
				L95.8,100z M8.4,91.6h83.2V8.4H8.4V91.6L8.4,91.6z"/>
		</g>
	</g>
</g>
<g id="version">
</g>
<g id="cookbook">
</g>
<g id="attributes">
</g>
</svg>
