<?xml version="1.0" encoding="utf-8"?>
<!-- Generator: Adobe Illustrator 18.1.1, SVG Export Plug-In . SVG Version: 6.00 Build 0)  -->
<svg version="1.1" xmlns="http://www.w3.org/2000/svg" xmlns:xlink="http://www.w3.org/1999/xlink" x="0px" y="0px"
	 viewBox="0 0 100 100" enable-background="new 0 0 100 100" xml:space="preserve">
<g id="yum">
</g>
<g id="windows_x5F_service">
</g>
<g id="windows">
</g>
<g id="subversion">
</g>
<g id="solaris">
</g>
<g id="smartos">
</g>
<g id="ruby">
</g>
<g id="rpm">
</g>
<g id="route">
</g>
<g id="registry_x5F_key">
</g>
<g id="reboot">
</g>
<g id="python">
</g>
<g id="powershell">
</g>
<g id="portage">
</g>
<g id="perl">
</g>
<g id="paludis">
</g>
<g id="pacman">
</g>
<g id="openbsd">
</g>
<g id="ohai">
</g>
<g id="mount">
</g>
<g id="mdadm">
</g>
<g id="macports">
	<g>
		<g>
			<g>
				<path d="M29.2,44c-0.5,0-1.1-0.2-1.5-0.5l-6.9-5.9c-0.6-0.5-0.9-1.3-0.8-2.1c0.1-0.8,0.7-1.4,1.4-1.7l19.6-7.8
					c0.8-0.3,1.7-0.2,2.3,0.4l6.9,5.9c0.6,0.5,0.9,1.3,0.8,2.1c-0.1,0.8-0.7,1.4-1.4,1.7l-19.6,7.8C29.8,44,29.5,44,29.2,44L29.2,44
					z M26.6,36.6l3,2.6l14.9-6l-3-2.6L26.6,36.6L26.6,36.6z"/>
			</g>
			<g>
				<path d="M48.5,76.5c-0.5,0-0.9-0.2-1.3-0.4c-0.6-0.4-0.9-1.1-0.9-1.8V52.1c0-1.2,1-2.3,2.3-2.3c1.2,0,2.3,1,2.3,2.3v19l19-6V55
					c0-1.2,1-2.3,2.3-2.3c1.2,0,2.3,1,2.3,2.3v11.8c0,1-0.6,1.9-1.6,2.2l-23.5,7.4C48.9,76.5,48.7,76.5,48.5,76.5L48.5,76.5z"/>
			</g>
			<g>
				<path d="M61.3,59.6c-0.5,0-1.1-0.2-1.5-0.5l-6.9-5.9c-0.6-0.5-0.9-1.3-0.8-2.1c0.1-0.8,0.7-1.4,1.4-1.7l19.6-7.9
					c0.8-0.3,1.7-0.2,2.3,0.4l6.9,5.9c0.6,0.5,0.9,1.3,0.8,2.1c-0.1,0.8-0.7,1.4-1.4,1.7l-19.6,7.9C61.9,59.6,61.6,59.6,61.3,59.6
					L61.3,59.6z M58.7,52.2l3,2.6l14.9-6l-3-2.6L58.7,52.2L58.7,52.2z"/>
			</g>
			<g>
				<path d="M72,43.6c-0.3,0-0.6-0.1-0.8-0.2l-19.7-7.9c-0.7-0.3-1.2-0.9-1.4-1.7c-0.2-0.8,0.1-1.5,0.6-2.1l6.8-6.6
					c0.6-0.6,1.6-0.8,2.4-0.5l19.7,7.9c0.7,0.3,1.2,0.9,1.4,1.7c0.1,0.8-0.1,1.5-0.6,2.1L73.6,43C73.2,43.4,72.6,43.6,72,43.6
					L72,43.6z M56.4,32.7l15.1,6l3.2-3.1l-15.1-6L56.4,32.7L56.4,32.7z"/>
			</g>
			<g>
				<path d="M48.1,76.5c-0.3,0-0.6-0.1-0.9-0.2l-18.2-7.4c-0.8-0.3-1.4-1.2-1.4-2.1V55.9c0-1.2,1-2.3,2.3-2.3c1.2,0,2.3,1,2.3,2.3
					v9.4l16.8,6.9c1.2,0.5,1.7,1.8,1.2,2.9C49.8,76,49,76.5,48.1,76.5L48.1,76.5z"/>
			</g>
			<g>
				<path d="M41.7,61c-0.3,0-0.6-0.1-0.8-0.2l-19.7-7.9c-0.7-0.3-1.2-0.9-1.4-1.7c-0.2-0.8,0.1-1.5,0.6-2.1l6.7-6.6
					c0.6-0.6,1.6-0.8,2.4-0.5L49.3,50c0.7,0.3,1.2,0.9,1.4,1.7c0.1,0.8-0.1,1.5-0.6,2.1l-6.8,6.6C42.9,60.7,42.3,61,41.7,61L41.7,61
					z M26.1,50l15.1,6l3.2-3.1l-15.1-6L26.1,50L26.1,50z"/>
			</g>
		</g>
		<g>
			<path d="M95.8,100H4.2C1.9,100,0,98.1,0,95.8V4.2C0,1.9,1.9,0,4.2,0h91.6c2.3,0,4.2,1.9,4.2,4.2v91.6C100,98.1,98.1,100,95.8,100
				L95.8,100z M8.4,91.6h83.2V8.4H8.4V91.6L8.4,91.6z"/>
		</g>
	</g>
</g>
<g id="ips">
</g>
<g id="ifconfig">
</g>
<g id="http_x5F_request">
</g>
<g id="homebrew">
</g>
<g id="git">
</g>
<g id="freebsd">
</g>
<g id="erlang_x5F_call">
</g>
<g id="env">
</g>
<g id="easy_x5F_install">
</g>
<g id="dsc_x5F_script">
</g>
<g id="dsc_x5F_resource">
</g>
<g id="dpkg">
</g>
<g id="csh">
</g>
<g id="chef_x5F_handler">
</g>
<g id="breakpoint">
</g>
<g id="bff">
</g>
<g id="batch">
</g>
<g id="apt">
</g>
</svg>
