<?xml version="1.0" encoding="utf-8"?>
<!-- Generator: Adobe Illustrator 18.1.1, SVG Export Plug-In . SVG Version: 6.00 Build 0)  -->
<svg version="1.1" xmlns="http://www.w3.org/2000/svg" xmlns:xlink="http://www.w3.org/1999/xlink" x="0px" y="0px"
	 viewBox="0 0 100 100" enable-background="new 0 0 100 100" xml:space="preserve">
<g id="user">
</g>
<g id="template">
</g>
<g id="service">
</g>
<g id="script">
</g>
<g id="ruby_x5F_block">
</g>
<g id="remote_x5F_file">
	<g>
		<g>
			<g>
				<path d="M50.5,87.4H4c-0.7,0-1.4-0.3-1.8-0.9c-0.4-0.6-0.5-1.3-0.3-2l9.5-29.8c0.3-0.9,1.2-1.6,2.2-1.6h46.5
					c0.7,0,1.4,0.3,1.8,0.9c0.4,0.6,0.5,1.3,0.3,2l-9.5,29.8C52.3,86.7,51.4,87.4,50.5,87.4L50.5,87.4z M7.1,82.9h41.7l8.1-25.3
					H15.1L7.1,82.9L7.1,82.9z"/>
			</g>
			<g>
				<path d="M2.3,87.4c-1.3,0-2.3-1-2.3-2.3V44.2c0-2.5,2-4.5,4.5-4.5h15.9c2.5,0,4.5,2,4.5,4.5v1.6h2.6c1.3,0,2.3,1,2.3,2.3
					c0,1.3-1,2.3-2.3,2.3h-4.8c-1.3,0-2.3-1-2.3-2.3v-3.9H4.5v40.9C4.5,86.4,3.5,87.4,2.3,87.4L2.3,87.4z"/>
			</g>
			<g>
				<path d="M33.6,77.2c-0.6,0-1.2-0.2-1.6-0.7l-6.9-6.9c-0.9-0.9-0.9-2.3,0-3.2s2.3-0.9,3.2,0l5.3,5.3l5.3-5.3
					c0.9-0.9,2.3-0.9,3.2,0c0.9,0.9,0.9,2.3,0,3.2l-6.9,6.9C34.8,77,34.2,77.2,33.6,77.2L33.6,77.2z"/>
			</g>
			<g>
				<path d="M33.6,75.9c-1.1,0-2.1-0.9-2.3-2c-0.1-1-0.2-2-0.2-3C31.2,54.4,44.7,41,61.4,41c1.3,0,2.3,1,2.3,2.3
					c0,1.3-1,2.3-2.3,2.3c-14.2,0-25.7,11.4-25.7,25.3c0,0.9,0,1.7,0.1,2.6c0.1,1.2-0.8,2.4-2,2.5C33.7,75.9,33.7,75.9,33.6,75.9
					L33.6,75.9z"/>
			</g>
		</g>
		<g>
			<g>
				<g>
					<path d="M67.8,46.5c-0.3,0-0.6-0.1-0.8-0.2c-0.4-0.2-0.6-0.6-0.6-1.1V19.4c0-0.5,0.4-1,0.9-1.2l15.4-5.5
						c0.4-0.1,0.9-0.1,1.3,0.1c0.4,0.2,0.6,0.6,0.6,1.1v25.8c0,0.5-0.4,1-0.9,1.2l-15.4,5.5C68.1,46.5,68,46.5,67.8,46.5L67.8,46.5z
						 M69.2,20.3v23l12.7-4.5v-23L69.2,20.3L69.2,20.3z"/>
				</g>
				<g>
					<path d="M71,25.7c-0.3,0-0.5-0.2-0.6-0.4c-0.1-0.3,0-0.7,0.4-0.8l9.2-3.3c0.4-0.1,0.8,0,0.9,0.4c0.1,0.3,0,0.7-0.4,0.8
						l-9.2,3.3C71.1,25.7,71.1,25.7,71,25.7L71,25.7z"/>
				</g>
				<g>
					<path d="M71,34.1c-0.3,0-0.5-0.2-0.6-0.4c-0.1-0.3,0-0.7,0.4-0.8l9.2-3.3c0.4-0.1,0.8,0,0.9,0.4c0.1,0.3,0,0.7-0.4,0.8L71.2,34
						C71.1,34,71.1,34.1,71,34.1L71,34.1z"/>
				</g>
				<g>
					<path d="M71,38.2c-0.3,0-0.5-0.2-0.6-0.4c-0.1-0.3,0-0.7,0.4-0.8l9.2-3.3c0.4-0.1,0.8,0,0.9,0.4c0.1,0.3,0,0.7-0.4,0.8
						l-9.2,3.3C71.1,38.2,71.1,38.2,71,38.2L71,38.2z"/>
				</g>
				<g>
					<path d="M71,29.9c-0.3,0-0.5-0.2-0.6-0.4c-0.1-0.3,0-0.7,0.4-0.8l9.2-3.3c0.4-0.1,0.8,0,0.9,0.4c0.1,0.3,0,0.7-0.4,0.8
						l-9.2,3.3C71.1,29.9,71.1,29.9,71,29.9L71,29.9z"/>
				</g>
			</g>
			<g>
				<g>
					<path d="M93,43.8c-0.4,0-0.7-0.3-0.7-0.7v-7.5c0-0.2,0.1-0.4,0.3-0.5C92.8,35,93,35,93.2,35l5.7,2c0.4,0.1,0.5,0.5,0.4,0.8
						c-0.1,0.3-0.5,0.5-0.9,0.4l-4.7-1.7v6.6C93.6,43.5,93.3,43.8,93,43.8L93,43.8z"/>
				</g>
				<g>
					<path d="M93,44.5c-0.2,0-0.3,0-0.5-0.1l-9.8-3.5c-0.5-0.2-0.9-0.7-0.9-1.2V13.9c0-0.4,0.2-0.8,0.6-1.1c0.4-0.2,0.8-0.3,1.3-0.1
						l15.4,5.5c0.5,0.2,0.9,0.7,0.9,1.2l0,18.2c0,0.3-0.1,0.7-0.4,0.9l-5.7,5.5C93.7,44.3,93.3,44.5,93,44.5L93,44.5z M84.6,38.8
						l8,2.9l4.6-4.5l0-16.8l-12.7-4.5V38.8L84.6,38.8z"/>
				</g>
				<g>
					<path d="M95.8,25.8c-0.1,0-0.2,0-0.2,0l-9.2-3.3c-0.4-0.1-0.5-0.5-0.4-0.8c0.1-0.3,0.5-0.5,0.9-0.4l9.2,3.3
						c0.4,0.1,0.5,0.5,0.4,0.8C96.3,25.6,96,25.8,95.8,25.8L95.8,25.8z"/>
				</g>
				<g>
					<path d="M95.8,34.2c-0.1,0-0.2,0-0.2,0l-9.2-3.3c-0.4-0.1-0.5-0.5-0.4-0.8c0.1-0.3,0.5-0.5,0.9-0.4l9.2,3.3
						c0.4,0.1,0.5,0.5,0.4,0.8C96.3,34,96,34.2,95.8,34.2L95.8,34.2z"/>
				</g>
				<g>
					<path d="M95.8,30c-0.1,0-0.2,0-0.2,0l-9.2-3.3c-0.4-0.1-0.5-0.5-0.4-0.8c0.1-0.3,0.5-0.5,0.9-0.4l9.2,3.3
						c0.4,0.1,0.5,0.5,0.4,0.8C96.3,29.8,96,30,95.8,30L95.8,30z"/>
				</g>
			</g>
		</g>
	</g>
</g>
<g id="remote_x5F_directory_1_">
</g>
<g id="package">
</g>
<g id="log">
</g>
<g id="link">
</g>
<g id="group">
</g>
<g id="gem">
</g>
<g id="file">
</g>
<g id="execute">
</g>
<g id="directory">
</g>
<g id="deploy">
</g>
<g id="cron">
</g>
<g id="cookbook_x5F_file">
</g>
<g id="chef_x5F_gem">
</g>
<g id="bash">
</g>
</svg>
