<?xml version="1.0" encoding="utf-8"?>
<!-- Generator: Adobe Illustrator 18.1.1, SVG Export Plug-In . SVG Version: 6.00 Build 0)  -->
<svg version="1.1" xmlns="http://www.w3.org/2000/svg" xmlns:xlink="http://www.w3.org/1999/xlink" x="0px" y="0px"
	 viewBox="0 0 100 100" enable-background="new 0 0 100 100" xml:space="preserve">
<g id="windows">
</g>
<g id="ubuntu">
	<path d="M11.1,40.8c-5.1,0-9.2,4.1-9.2,9.2c0,5.1,4.1,9.2,9.2,9.2c5.1,0,9.2-4.1,9.2-9.2C20.3,44.9,16.2,40.8,11.1,40.8z M77,82.8
		c-4.4,2.6-5.9,8.2-3.4,12.6c2.6,4.4,8.2,5.9,12.6,3.4c4.4-2.6,5.9-8.2,3.4-12.6C87.1,81.7,81.5,80.2,77,82.8z M31.1,50
		c0-9.1,4.5-17.2,11.5-22.1l-6.8-11.3C27.8,22,21.8,30.3,19.3,39.9c2.9,2.4,4.8,6,4.8,10.1c0,4.1-1.9,7.7-4.8,10.1
		c2.5,9.7,8.5,17.9,16.6,23.3l6.8-11.3C35.7,67.2,31.1,59.1,31.1,50z M58.1,23C72.2,23,83.8,33.8,85,47.6l13.2-0.2
		c-0.6-10.2-5.1-19.3-11.9-26c-3.5,1.3-7.6,1.1-11.1-0.9c-3.5-2-5.7-5.4-6.3-9.2c-3.4-0.9-7-1.5-10.7-1.5c-6.4,0-12.4,1.5-17.8,4.2
		l6.4,11.5C50.2,23.9,54.1,23,58.1,23z M58.1,77c-4.1,0-7.9-0.9-11.4-2.5L40.3,86c5.4,2.7,11.4,4.2,17.8,4.2c3.7,0,7.3-0.5,10.7-1.5
		c0.6-3.7,2.8-7.1,6.3-9.2c3.5-2,7.6-2.2,11.1-0.9c6.8-6.7,11.3-15.9,11.9-26L85,52.4C83.8,66.2,72.2,77,58.1,77z M77,17.2
		c4.4,2.6,10.1,1,12.6-3.4c2.6-4.4,1-10.1-3.4-12.6c-4.4-2.6-10.1-1-12.6,3.4C71.1,9,72.6,14.7,77,17.2z"/>
</g>
<g id="rubygems">
</g>
<g id="redhat">
</g>
<g id="max-osx">
</g>
<g id="github">
</g>
<g id="git_1_">
</g>
<g id="debian">
</g>
<g id="centos">
</g>
</svg>
