<?xml version="1.0" encoding="utf-8"?>
<!-- Generator: Adobe Illustrator 18.1.1, SVG Export Plug-In . SVG Version: 6.00 Build 0)  -->
<svg version="1.1" xmlns="http://www.w3.org/2000/svg" xmlns:xlink="http://www.w3.org/1999/xlink" x="0px" y="0px"
	 viewBox="0 0 100 100" enable-background="new 0 0 100 100" xml:space="preserve">
<g id="supermarket">
</g>
<g id="server">
</g>
<g id="push-jobs">
</g>
<g id="ohai">
</g>
<g id="manage">
</g>
<g id="delivery">
</g>
<g id="dk">
	<g>
		<g>
			<g>
				<path d="M20.5,95.3c-3.1,0-5.9-1.1-8-3.2c-4.9-4.9-4.1-13.5,2-19.6L34,53.2c1.5-1.5,4-1.5,5.6,0l12,12c0.7,0.7,1.2,1.7,1.2,2.8
					c0,1-0.4,2.1-1.2,2.8L32.1,90.2C28.8,93.5,24.6,95.3,20.5,95.3L20.5,95.3z M36.7,61.6L20.1,78.2c-3,3-3.5,6.9-2,8.4
					c0.7,0.7,1.7,0.8,2.4,0.8c2,0,4.2-1.1,6-2.8L43.1,68L36.7,61.6L36.7,61.6z"/>
			</g>
			<g>
				<path d="M85.5,28.8c-2.6,0-5-1-6.8-2.8c-3.7-3.8-3.7-9.8,0-13.6l6.6-6.6c1.5-1.5,4.1-1.5,5.6,0l8,8c0.7,0.7,1.2,1.7,1.2,2.8
					c0,1-0.4,2.1-1.2,2.8L92.2,26C90.4,27.8,88,28.8,85.5,28.8L85.5,28.8z M88.1,14.3l-3.8,3.8c-0.7,0.7-0.6,1.7,0,2.4
					c0.9,0.9,1.5,0.9,2.4,0l3.8-3.8L88.1,14.3L88.1,14.3z"/>
			</g>
			<g>
				<path d="M59.7,48.9c-1,0-2-0.4-2.8-1.2c-1.5-1.5-1.5-4,0-5.6l21.8-21.7c1.5-1.5,4-1.5,5.6,0c1.5,1.5,1.5,4,0,5.6L62.5,47.8
					C61.8,48.5,60.7,48.9,59.7,48.9L59.7,48.9z"/>
			</g>
		</g>
		<g>
			<path d="M78.8,97L78.8,97c-4.1,0-7.9-1.6-10.8-4.5L30.2,54.7c-8.2,1.3-16.7-1.4-22.5-7.3c-7.2-7.2-9.5-18-6-27.5
				c0.5-1.3,1.5-2.2,2.9-2.5c1.3-0.3,2.7,0.1,3.6,1.1l10.7,10.7l5.8-1.5l1.5-5.8L15.5,11.2c-1-1-1.4-2.3-1.1-3.6
				c0.3-1.3,1.2-2.4,2.5-2.9C19.8,3.6,22.9,3,26,3c6.9,0,13.5,2.7,18.4,7.6c5.9,5.9,8.6,14.4,7.3,22.6L89.5,71
				c2.9,2.9,4.5,6.7,4.5,10.8c0,4.1-1.6,7.9-4.5,10.8C86.7,95.4,82.8,97,78.8,97L78.8,97z M31.4,46.4c1,0,2,0.4,2.8,1.2L73.6,87
				c2.8,2.8,7.6,2.8,10.4,0c1.4-1.4,2.1-3.2,2.1-5.2c0-2-0.8-3.8-2.1-5.2L44.6,37.3c-1-1-1.4-2.4-1-3.8c1.6-6.3-0.2-12.7-4.7-17.3
				c-3.3-3.3-7.7-5.2-12.4-5.3l6.9,6.9c1,1,1.4,2.5,1,3.8l-2.7,10.2c-0.4,1.4-1.4,2.4-2.8,2.8l-10.2,2.7c-1.4,0.4-2.8,0-3.8-1
				l-6.9-6.9C8,34,9.9,38.5,13.2,41.8c4.5,4.5,11.1,6.3,17.3,4.7C30.8,46.5,31.1,46.4,31.4,46.4L31.4,46.4z"/>
		</g>
		<path d="M78.2,77.6c-1.8,0-3.3,1.5-3.3,3.3c0,1.8,1.5,3.3,3.3,3.3c1.8,0,3.3-1.5,3.3-3.3C81.5,79.1,80,77.6,78.2,77.6L78.2,77.6z"
			/>
	</g>
</g>
<g id="community">
</g>
<g id="client">
</g>
<g id="analytics">
</g>
</svg>
