<?xml version="1.0" encoding="utf-8"?>
<!-- Generator: Adobe Illustrator 18.1.1, SVG Export Plug-In . SVG Version: 6.00 Build 0)  -->
<svg version="1.1" xmlns="http://www.w3.org/2000/svg" xmlns:xlink="http://www.w3.org/1999/xlink" x="0px" y="0px"
	 viewBox="0 0 100 100" enable-background="new 0 0 100 100" xml:space="preserve">
<g id="deliver">
</g>
<g id="rehearse">
</g>
<g id="union">
</g>
<g id="publish">
</g>
<g id="accept">
</g>
<g id="build">
</g>
<g id="approve">
</g>
<g id="verify">
</g>
<g id="workstation">
</g>
<g id="tests">
</g>
<g id="secrets">
</g>
<g id="rules">
</g>
<g id="ruby_1_">
</g>
<g id="rubocop">
</g>
<g id="resources">
</g>
<g id="reports">
</g>
<g id="recipes">
</g>
<g id="recipe">
</g>
<g id="recipe_x5F_dsl">
</g>
<g id="policygroup">
</g>
<g id="policyfile">
</g>
<g id="knife">
</g>
<g id="kitchen">
</g>
<g id="foodcritic">
	<g>
		<path d="M43.3,21.9c-7.3,1.3-14,2.4-19.2,7.3c-2,1.9-3.9,4.1-5.8,6.1c-0.9,1-2.5,1.2-3.4,0.2c-0.3-0.3-0.3-1.1-0.1-1.4
			c0.6-0.8,1.2-1.5,2-2.1c1.6-1.1,3.2-2.1,4.9-3c1-0.5,1.1-1.1,0.6-2c-2-3.9-4-7.8-6-11.7c-0.7-1.5-1.4-3-2.2-4.4
			c-0.4-0.8-0.4-1.4,0.1-2.1c2.2-3.3,5.4-5.2,9-6.7c3.9-1.7,8-2.7,12.4-2.1c0.4,0.1,0.7,0.1,1.1,0.2c2.1,0.3,3,1.4,3.4,3.6
			c1,5.4,2.3,10.7,3.5,16c0.2,0.9,0.5,1.2,1.6,1c2.1-0.3,4.2-0.5,6.4-0.6c1-0.1,2.1,0,2.6,1.1c0.3,0.6-1,2.4-2,2.8
			c-0.4,0.1-0.9,0-1.4-0.2C48.2,23.3,45.5,22.5,43.3,21.9z M37.1,17.1c-0.2,0-0.4,0-0.7,0.1c-4,0.7-7.8,2.1-11.3,4.2
			c-2,1.2-2.1,1.3-0.9,3.4c0.1,0.1,0.1,0.2,0.2,0.4c0.4,0.7,0.9,0.8,1.5,0.4c3.9-2.1,8.1-3.8,12.5-4.7c0.3-0.1,0.8-0.3,0.9-0.6
			C39.7,19.4,38.2,17.2,37.1,17.1z"/>
		<path d="M84.6,28.7H33.2c-0.8,0-1.5,0.7-1.5,1.5v68.3c0,0.8,0.7,1.5,1.5,1.5h51.4c0.8,0,1.5-0.7,1.5-1.5V30.2
			C86.1,29.4,85.4,28.7,84.6,28.7z M78,51.1c0,0.8-0.6,1.5-1.5,1.5H44.7c-0.8,0-1.5-0.6-1.5-1.5c0-0.8,0.6-1.4,1.5-1.4h31.9
			C77.4,49.7,78,50.3,78,51.1z M44.7,61.5h20.7c0.8,0,1.5,0.6,1.5,1.5c0,0.8-0.6,1.4-1.5,1.4H44.7c-0.8,0-1.5-0.6-1.5-1.4
			C43.2,62.1,43.9,61.5,44.7,61.5z M43.2,56.9c0-0.8,0.6-1.5,1.5-1.5h20.7c0.8,0,1.5,0.6,1.5,1.5c0,0.8-0.6,1.4-1.5,1.4H44.7
			C43.9,58.4,43.2,57.7,43.2,56.9z M44.7,67.7h31.9c0.8,0,1.5,0.6,1.5,1.4c0,0.8-0.6,1.5-1.5,1.5H44.7c-0.8,0-1.5-0.6-1.5-1.5
			C43.2,68.4,43.9,67.7,44.7,67.7z M43.2,44.9c0-0.8,0.6-1.4,1.5-1.4h25.8c0.8,0,1.5,0.6,1.5,1.4c0,0.8-0.6,1.5-1.5,1.5H44.7
			C43.9,46.3,43.2,45.7,43.2,44.9z M65.5,37.1h7.2c0.8,0,1.4,0.6,1.4,1.5c0,0.8-0.6,1.4-1.4,1.4h-7.2c-0.8,0-1.4-0.6-1.4-1.4
			C64,37.8,64.7,37.1,65.5,37.1z M53.1,37.1h7.2c0.8,0,1.5,0.6,1.5,1.5c0,0.8-0.6,1.4-1.5,1.4h-7.2c-0.8,0-1.5-0.6-1.5-1.4
			C51.6,37.8,52.3,37.1,53.1,37.1z M40.7,37.1h7.2c0.8,0,1.5,0.6,1.5,1.5c0,0.8-0.6,1.4-1.5,1.4h-7.2c-0.8,0-1.5-0.6-1.5-1.4
			C39.2,37.8,39.9,37.1,40.7,37.1z M47.9,76.8h-7.2c-0.8,0-1.5-0.6-1.5-1.5c0-0.8,0.6-1.4,1.5-1.4h7.2c0.8,0,1.5,0.6,1.5,1.4
			C49.3,76.2,48.7,76.8,47.9,76.8z M79.6,97.8C79.6,97.8,79.6,97.8,79.6,97.8L79.6,97.8c0,0.5-0.4,0.8-0.8,0.8c0,0,0,0-0.1,0H66.9
			c-0.1,0-0.2,0-0.3-0.1l0,0l-3.2-3.2c-0.1-0.1-0.1-0.2-0.1-0.3v-9.2c0-0.4,0.4-0.8,0.8-0.8h4.5v-4.9h0c0-1,0.8-1.9,1.9-1.9
			c0.7,0,1.3,0.4,1.6,1h0l3.2,5.6c0.1,0.1,0.1,0.1,0.2,0.2h3.3c0,0,0,0,0,0c0.5,0,0.8,0.4,0.8,0.8V97.8z M83.7,97.2h-1.6v0
			c-0.4,0-0.8-0.3-0.8-0.7h0v-9h0c0-0.4,0.4-0.8,0.8-0.8v0h1.6c0,0,0,0,0,0c0.5,0,0.8,0.4,0.8,0.8v8.8c0,0,0,0.1,0,0.1
			C84.5,96.8,84.2,97.2,83.7,97.2z"/>
	</g>
</g>
<g id="development_x5F_kit">
</g>
<g id="cookbooks">
</g>
<g id="controls">
</g>
<g id="config-rb">
</g>
<g id="ci">
</g>
<g id="chef_x5F_repo">
</g>
<g id="chefspec">
</g>
<g id="cd">
</g>
</svg>
