<?xml version="1.0" encoding="utf-8"?>
<!-- Generator: Adobe Illustrator 18.1.1, SVG Export Plug-In . SVG Version: 6.00 Build 0)  -->
<svg version="1.1" xmlns="http://www.w3.org/2000/svg" xmlns:xlink="http://www.w3.org/1999/xlink" x="0px" y="0px"
	 viewBox="0 0 100 100" enable-background="new 0 0 100 100" xml:space="preserve">
<g id="public_x5F_key">
	<g>
		<g>
			<path d="M95.8,91.5H4.2c-2.3,0-4.2-1.9-4.2-4.2V12.7c0-2.3,1.9-4.2,4.2-4.2h91.6c2.3,0,4.2,1.9,4.2,4.2v74.7
				C100,89.7,98.1,91.5,95.8,91.5L95.8,91.5z M8.4,83.1h83.2V16.9H8.4V83.1L8.4,83.1z"/>
		</g>
		<g>
			<path d="M82.3,29.1H17.7c-1.2,0-2.1-0.9-2.1-2.1c0-1.2,0.9-2.1,2.1-2.1h64.6c1.2,0,2.1,0.9,2.1,2.1
				C84.4,28.2,83.4,29.1,82.3,29.1L82.3,29.1z"/>
		</g>
		<g>
			<path d="M68.1,45.5H31.9c-1.2,0-2.1-0.9-2.1-2.1s0.9-2.1,2.1-2.1h36.2c1.2,0,2.1,0.9,2.1,2.1S69.3,45.5,68.1,45.5L68.1,45.5z"/>
		</g>
		<g>
			<path d="M76.5,37.3h-53c-1.2,0-2.1-0.9-2.1-2.1s0.9-2.1,2.1-2.1h53c1.2,0,2.1,0.9,2.1,2.1S77.6,37.3,76.5,37.3L76.5,37.3z"/>
		</g>
		<g>
			<g>
				<path d="M50,64.1H19.3c-1.2,0-2.1-0.9-2.1-2.1s0.9-2.1,2.1-2.1H50c1.2,0,2.1,0.9,2.1,2.1S51.1,64.1,50,64.1L50,64.1z"/>
			</g>
			<g>
				<path d="M38.4,72.1h-19c-1.2,0-2.1-0.9-2.1-2.1s0.9-2.1,2.1-2.1h19c1.2,0,2.1,0.9,2.1,2.1S39.5,72.1,38.4,72.1L38.4,72.1z"/>
			</g>
			<g>
				<path d="M71.5,73c-6.2,0-11.3-5.1-11.3-11.3c0-6.2,5.1-11.3,11.3-11.3c6.2,0,11.3,5.1,11.3,11.3C82.8,67.9,77.7,73,71.5,73
					L71.5,73z M71.5,54.6c-3.9,0-7.1,3.2-7.1,7.1s3.2,7.1,7.1,7.1c3.9,0,7.1-3.2,7.1-7.1S75.4,54.6,71.5,54.6L71.5,54.6z"/>
			</g>
			<g>
				<path d="M74.5,73.2c-0.2,0-0.4,0-0.6-0.1l-2.5-0.7L69,73.1c-0.8,0.2-1.7-0.1-2.2-0.7l-1.6-2l-2.4-0.9c-0.8-0.3-1.4-1-1.4-1.9
					L61.3,65l-1.4-2.1c-0.5-0.7-0.5-1.6,0-2.4l1.4-2.1l0.1-2.6c0-0.9,0.6-1.6,1.4-1.9l2.4-0.9l1.6-2c0.5-0.7,1.4-1,2.2-0.7l2.5,0.7
					l2.5-0.7c0.8-0.2,1.7,0,2.2,0.7l1.6,2l2.4,0.9c0.8,0.3,1.4,1,1.4,1.9l0.1,2.6l1.4,2.1c0.5,0.7,0.5,1.6,0,2.4L81.6,65l-0.1,2.6
					c0,0.9-0.6,1.6-1.4,1.9l-2.4,0.9l-1.6,2C75.8,72.9,75.2,73.2,74.5,73.2L74.5,73.2z M65.6,66l1.6,0.6c0.4,0.1,0.7,0.4,0.9,0.7
					l1.1,1.4l1.7-0.5c0.4-0.1,0.8-0.1,1.2,0l1.7,0.5l1.1-1.4c0.2-0.3,0.6-0.6,0.9-0.7l1.6-0.6l0.1-1.7c0-0.4,0.1-0.8,0.4-1.1l1-1.4
					l-1-1.4c-0.2-0.3-0.3-0.7-0.4-1.1l-0.1-1.7l-1.6-0.6c-0.4-0.1-0.7-0.4-0.9-0.7l-1.1-1.4l-1.7,0.5c-0.4,0.1-0.8,0.1-1.2,0
					l-1.7-0.5l-1.1,1.4c-0.2,0.3-0.6,0.6-1,0.7l-1.6,0.6l-0.1,1.7c0,0.4-0.1,0.8-0.4,1.1l-1,1.4l1,1.4c0.2,0.3,0.4,0.7,0.4,1.1
					L65.6,66L65.6,66z"/>
			</g>
			<g>
				<g>
					<path d="M78.5,78.6c-0.6,0-1.3-0.3-1.7-0.8l-3.5-4.7c-0.7-0.9-0.5-2.2,0.4-2.9c0.9-0.7,2.2-0.5,2.9,0.4l3.5,4.7
						c0.7,0.9,0.5,2.2-0.4,2.9C79.4,78.5,78.9,78.6,78.5,78.6L78.5,78.6z"/>
				</g>
				<g>
					<path d="M64.5,78.6c-0.4,0-0.9-0.1-1.3-0.4c-0.9-0.7-1.1-2-0.4-2.9l3.5-4.7c0.7-0.9,2-1.1,2.9-0.4c0.9,0.7,1.1,2,0.4,2.9
						l-3.5,4.7C65.8,78.3,65.1,78.6,64.5,78.6L64.5,78.6z"/>
				</g>
			</g>
		</g>
	</g>
</g>
<g id="private_x5F_key">
</g>
<g id="chef_x5F_user">
</g>
<g id="chef_x5F_role">
</g>
<g id="chef_x5F_organization">
</g>
<g id="chef_x5F_node">
</g>
<g id="chef_x5F_mirror">
</g>
<g id="chef_x5F_group">
</g>
<g id="chef_x5F_environment">
</g>
<g id="chef_x5F_data_x5F_bag">
</g>
<g id="chef_x5F_container">
</g>
<g id="chef_x5F_client">
</g>
<g id="chef_x5F_acl">
</g>
<g id="machine_x5F_image">
</g>
<g id="machine_x5F_file">
</g>
<g id="machine_x5F_execute">
</g>
<g id="machine_x5F_batch">
</g>
<g id="machine">
</g>
<g id="load_x5F_balancer">
</g>
</svg>
