<?xml version="1.0" encoding="utf-8"?>
<!-- Generator: Adobe Illustrator 18.1.1, SVG Export Plug-In . SVG Version: 6.00 Build 0)  -->
<svg version="1.1" xmlns="http://www.w3.org/2000/svg" xmlns:xlink="http://www.w3.org/1999/xlink" x="0px" y="0px"
	 viewBox="0 0 100 100" enable-background="new 0 0 100 100" xml:space="preserve">
<g id="virtual-platform">
</g>
<g id="virtual-machine">
</g>
<g id="storage-device">
</g>
<g id="server_1_">
</g>
<g id="public-cloud">
	<g>
		<g>
			<path d="M78.7,83.4H19c-10.5,0-19-8.5-19-19c0-10.5,8.5-19,19-19h0c0-0.2,0-0.5,0-0.7c0-15.5,12.6-28.2,28.2-28.2
				c13.1,0,24.1,8.8,27.3,21c0.9-0.1,1.7-0.1,2.6-0.1c12.7,0,23,10.3,23,23c0,6.4-2.8,12.7-7.5,17C89.1,81.1,84,83.4,78.7,83.4
				L78.7,83.4z M19,53.5c-6,0-10.9,4.9-10.9,10.9c0,6,4.9,10.9,10.9,10.9h59.7c3.1,0,6-1.3,8.1-3.6c3.4-3.2,5.2-7.1,5.2-11.3
				c0-8.2-6.7-14.9-14.9-14.9c-1.5,0-3.1,0.2-4.6,0.7c-1.2,0.4-2.4,0.2-3.4-0.5c-1-0.7-1.7-1.8-1.8-3c-1-10.3-9.6-18.1-20.1-18.1
				c-11.1,0-20.1,9-20.1,20.1c0,1.3,0.1,2.6,0.4,3.9c0.2,1.2-0.1,2.4-0.8,3.3c-0.8,0.9-1.9,1.5-3.1,1.5H19L19,53.5z"/>
		</g>
	</g>
</g>
<g id="private-cloud">
</g>
<g id="platform">
</g>
<g id="network-device">
</g>
<g id="middleware">
</g>
<g id="container">
</g>
<g id="bare-metal">
</g>
<g id="application">
</g>
<g id="node">
</g>
</svg>
