<?xml version="1.0" encoding="utf-8"?>
<!-- Generator: Adobe Illustrator 18.1.1, SVG Export Plug-In . SVG Version: 6.00 Build 0)  -->
<svg version="1.1" xmlns="http://www.w3.org/2000/svg" xmlns:xlink="http://www.w3.org/1999/xlink" x="0px" y="0px"
	 viewBox="0 0 100 100" enable-background="new 0 0 100 100" xml:space="preserve">
<g id="user">
</g>
<g id="template">
</g>
<g id="service">
</g>
<g id="script">
</g>
<g id="ruby_x5F_block">
</g>
<g id="remote_x5F_file">
</g>
<g id="remote_x5F_directory_1_">
</g>
<g id="package">
</g>
<g id="log">
</g>
<g id="link">
</g>
<g id="group">
</g>
<g id="gem">
</g>
<g id="file">
	<g>
		<g>
			<g>
				<path d="M7,100c-0.8,0-1.5-0.2-2.2-0.7c-1-0.7-1.7-1.9-1.7-3.2V20.1c0-1.6,1-3,2.5-3.6l43-16.2c1.2-0.4,2.5-0.3,3.5,0.4
					c1,0.7,1.7,1.9,1.7,3.2v76.1c0,1.6-1,3-2.5,3.6l-43,16.2C8,99.9,7.5,100,7,100L7,100z M10.9,22.7v67.9l35.3-13.3V9.4L10.9,22.7
					L10.9,22.7z"/>
			</g>
			<g>
				<path d="M15.9,38.6c-0.8,0-1.5-0.5-1.8-1.2c-0.4-1,0.1-2.1,1.1-2.5l25.7-9.7c1-0.4,2.1,0.1,2.5,1.1c0.4,1-0.1,2.1-1.1,2.5
					l-25.7,9.7C16.4,38.5,16.1,38.6,15.9,38.6L15.9,38.6z"/>
			</g>
			<g>
				<path d="M15.9,63.3c-0.8,0-1.5-0.5-1.8-1.2c-0.4-1,0.1-2.1,1.1-2.5l25.6-9.7c1-0.4,2.1,0.1,2.5,1.1c0.4,1-0.1,2.1-1.1,2.5
					l-25.6,9.7C16.4,63.2,16.1,63.3,15.9,63.3L15.9,63.3z"/>
			</g>
			<g>
				<path d="M15.9,75.6c-0.8,0-1.5-0.5-1.8-1.2c-0.4-1,0.1-2.1,1.1-2.5l25.7-9.7c1-0.4,2.1,0.1,2.5,1.1c0.4,1-0.1,2.1-1.1,2.5
					l-25.7,9.7C16.4,75.6,16.1,75.6,15.9,75.6L15.9,75.6z"/>
			</g>
			<g>
				<path d="M15.9,50.9c-0.8,0-1.5-0.5-1.8-1.2c-0.4-1,0.1-2.1,1.1-2.5l25.6-9.7c1-0.4,2.1,0.1,2.5,1.1c0.4,1-0.1,2.1-1.1,2.5
					l-25.6,9.7C16.4,50.9,16.1,50.9,15.9,50.9L15.9,50.9z"/>
			</g>
		</g>
		<g>
			<g>
				<path d="M77.2,92.1c-1.1,0-1.9-0.9-1.9-1.9V68c0-0.6,0.3-1.2,0.8-1.6c0.5-0.4,1.2-0.4,1.8-0.2l15.8,6c1,0.4,1.5,1.5,1.1,2.5
					c-0.4,1-1.5,1.5-2.5,1.1l-13.2-5v19.5C79.1,91.3,78.2,92.1,77.2,92.1L77.2,92.1z"/>
			</g>
			<g>
				<path d="M77.2,94c-0.5,0-0.9-0.1-1.4-0.2L48.6,83.5c-1.5-0.6-2.5-2-2.5-3.6V3.8c0-1.3,0.6-2.4,1.7-3.2c1-0.7,2.4-0.9,3.5-0.4
					l43,16.2c1.5,0.6,2.5,2,2.5,3.6l0,53.9c0,1-0.4,2-1.1,2.7L79.9,92.9C79.2,93.6,78.2,94,77.2,94L77.2,94z M53.8,77.3l22.3,8.4
					l12.9-13.4l0-49.7L53.8,9.4V77.3L53.8,77.3z"/>
			</g>
			<g>
				<path d="M85,38.9c-0.2,0-0.5,0-0.7-0.1l-25.6-9.7c-1-0.4-1.5-1.5-1.1-2.5c0.4-1,1.5-1.5,2.5-1.1l25.6,9.7c1,0.4,1.5,1.5,1.1,2.5
					C86.5,38.4,85.7,38.9,85,38.9L85,38.9z"/>
			</g>
			<g>
				<path d="M85,63.6c-0.2,0-0.5,0-0.7-0.1l-25.6-9.7c-1-0.4-1.5-1.5-1.1-2.5c0.4-1,1.5-1.5,2.5-1.1l25.6,9.7c1,0.4,1.5,1.5,1.1,2.5
					C86.5,63.1,85.7,63.6,85,63.6L85,63.6z"/>
			</g>
			<g>
				<path d="M85,51.2c-0.2,0-0.5,0-0.7-0.1l-25.6-9.7c-1-0.4-1.5-1.5-1.1-2.5c0.4-1,1.5-1.5,2.5-1.1l25.6,9.7c1,0.4,1.5,1.5,1.1,2.5
					C86.5,50.8,85.7,51.2,85,51.2L85,51.2z"/>
			</g>
		</g>
	</g>
</g>
<g id="execute">
</g>
<g id="directory">
</g>
<g id="deploy">
</g>
<g id="cron">
</g>
<g id="cookbook_x5F_file">
</g>
<g id="chef_x5F_gem">
</g>
<g id="bash">
</g>
</svg>
