<?xml version="1.0" encoding="utf-8"?>
<!-- Generator: Adobe Illustrator 18.1.1, SVG Export Plug-In . SVG Version: 6.00 Build 0)  -->
<svg version="1.1" xmlns="http://www.w3.org/2000/svg" xmlns:xlink="http://www.w3.org/1999/xlink" x="0px" y="0px"
	 viewBox="0 0 100 100" enable-background="new 0 0 100 100" xml:space="preserve">
<g id="workstation">
</g>
<g id="user">
</g>
<g id="search">
</g>
<g id="run-list">
</g>
<g id="role">
</g>
<g id="policy">
	<g>
		<g>
			<path d="M95.7,96.2H4.3c-2.4,0-4.3-1.9-4.3-4.3V61c0-2.4,1.9-4.3,4.3-4.3h28.3c2.4,0,4.3,1.9,4.3,4.3v6.1H63V61
				c0-2.4,1.9-4.3,4.3-4.3h28.3c2.4,0,4.3,1.9,4.3,4.3v30.8C100,94.2,98.1,96.2,95.7,96.2L95.7,96.2z M8.7,87.5h82.6V65.4H71.7v1.8
				c0,4.8-3.9,8.7-8.7,8.7H37c-4.8,0-8.7-3.9-8.7-8.7v-1.8H8.7V87.5L8.7,87.5z"/>
		</g>
		<g>
			<path d="M90.8,64.7c-2.4,0-4.3-1.9-4.3-4.3V29.9H14.7v30.4c0,2.4-1.9,4.3-4.3,4.3c-2.4,0-4.3-1.9-4.3-4.3V25.6
				c0-2.4,1.9-4.3,4.3-4.3h80.4c2.4,0,4.3,1.9,4.3,4.3v34.8C95.1,62.8,93.2,64.7,90.8,64.7L90.8,64.7z"/>
		</g>
		<g>
			<path d="M85.7,16.9H15.4c-1.2,0-2.2-1-2.2-2.2c0-1.2,1-2.2,2.2-2.2h70.3c1.2,0,2.2,1,2.2,2.2C87.9,15.9,86.9,16.9,85.7,16.9
				L85.7,16.9z"/>
		</g>
		<g>
			<path d="M81.5,8.2h-62c-1.2,0-2.2-1-2.2-2.2c0-1.2,1-2.2,2.2-2.2h62c1.2,0,2.2,1,2.2,2.2C83.7,7.2,82.8,8.2,81.5,8.2L81.5,8.2z"
				/>
		</g>
	</g>
</g>
<g id="organization">
</g>
<g id="node">
</g>
<g id="group">
</g>
<g id="environment">
</g>
<g id="data-bag">
</g>
<g id="cookbook">
</g>
<g id="client">
</g>
<g id="api">
</g>
</svg>
