<?xml version="1.0" encoding="utf-8"?>
<!-- Generator: Adobe Illustrator 18.1.1, SVG Export Plug-In . SVG Version: 6.00 Build 0)  -->
<svg version="1.1" xmlns="http://www.w3.org/2000/svg" xmlns:xlink="http://www.w3.org/1999/xlink" x="0px" y="0px"
	 viewBox="0 0 100 100" enable-background="new 0 0 100 100" xml:space="preserve">
<g id="public_x5F_key">
</g>
<g id="private_x5F_key">
</g>
<g id="chef_x5F_user">
</g>
<g id="chef_x5F_role">
</g>
<g id="chef_x5F_organization">
</g>
<g id="chef_x5F_node">
</g>
<g id="chef_x5F_mirror">
</g>
<g id="chef_x5F_group">
</g>
<g id="chef_x5F_environment">
</g>
<g id="chef_x5F_data_x5F_bag">
</g>
<g id="chef_x5F_container">
</g>
<g id="chef_x5F_client">
	<g>
		<path d="M100,99.8H0V0.2h100V99.8z M3.7,96.1h92.7V3.9H3.7V96.1z"/>
		<g>
			<path d="M34.3,49.8c0,2.3,0.5,4.5,1.4,6.6l6.2-2.8c-0.5-1.1-0.8-2.4-0.8-3.8c0-5.2,4.3-9.5,9.5-9.5v-6.8
				C41.6,33.6,34.3,40.9,34.3,49.8z"/>
			<path d="M54,58.7l2.5,6.3c4.7-1.8,8.2-5.7,9.8-10.5H59C57.8,56.4,56,57.9,54,58.7z"/>
			<path d="M50.6,81.3c-8.7,0-16.6-3.5-22.3-9.2l-4.6,4.5c6.8,6.9,16.3,11.1,26.9,11.1c19.4,0,35.4-14.5,37.8-33.2h-6.5
				C79.5,69.7,66.4,81.3,50.6,81.3z"/>
			<path d="M50.6,18.4c7.1,0,13.6,2.3,18.9,6.3l3.9-5.2C67.1,14.7,59.1,12,50.6,12c-16.1,0-29.9,10-35.5,24.1l6.1,2.4
				C25.8,26.7,37.3,18.4,50.6,18.4z"/>
			<path d="M74.5,45.2H81c-1.6-10.9-9.2-20-19.3-23.9l-2.3,5.9C67.1,30.3,72.9,37,74.5,45.2z"/>
			<path d="M26.3,49.8L26.3,49.8h-6.5l0,0c0,12.9,8,24,19.4,28.5l2.4-5.9C32.6,68.8,26.3,60.1,26.3,49.8z"/>
			<path d="M50.6,66.9c-9.5,0-17.1-7.7-17.1-17s7.7-17,17.1-17c7.9,0,14.4,5.2,16.5,12.4h6.6C71.5,34.4,62,26.4,50.6,26.4
				C37.5,26.4,27,36.8,27,49.8s10.5,23.5,23.6,23.5c11.4,0,20.9-8.1,23.1-18.7h-6.6C65,61.7,58.5,66.9,50.6,66.9z"/>
			<path d="M39.1,61.3c2.9,2.9,7.1,4.8,11.5,4.8v-6.8c-2.7,0-4.9-1-6.7-2.8L39.1,61.3z"/>
			<path d="M56.6,34.7L54,41c2,0.8,3.7,2.3,4.8,4h7.3C64.8,40.4,61.1,36.5,56.6,34.7z"/>
			<path d="M81.8,45.2h6.5c-0.8-5.6-2.7-10.7-5.4-15.3l-5.4,3.4C79.6,36.7,81.1,40.8,81.8,45.2z"/>
			<path d="M50.6,25.6L50.6,25.6v-6.4l0,0c-13.1,0-24.2,8.1-28.6,19.6l6,2.3C31.5,32,40.3,25.6,50.6,25.6z"/>
			<path d="M50.6,74.1v6.4c15.3,0,28.1-11.2,30.4-25.9h-6.6C72.3,65.8,62.4,74.1,50.6,74.1z"/>
			<path d="M12.6,49.9c0.2,7.9,1.7,12.7,3.4,16.4l6.3-2.6c-1.4-3.3-2.9-6.8-3.1-13.8"/>
		</g>
	</g>
</g>
<g id="chef_x5F_acl">
</g>
<g id="machine_x5F_image">
</g>
<g id="machine_x5F_file">
</g>
<g id="machine_x5F_execute">
</g>
<g id="machine_x5F_batch">
</g>
<g id="machine">
</g>
<g id="load_x5F_balancer">
</g>
</svg>
