<?xml version="1.0" encoding="utf-8"?>
<!-- Generator: Adobe Illustrator 18.1.1, SVG Export Plug-In . SVG Version: 6.00 Build 0)  -->
<svg version="1.1" xmlns="http://www.w3.org/2000/svg" xmlns:xlink="http://www.w3.org/1999/xlink" x="0px" y="0px"
	 viewBox="0 0 100 100" enable-background="new 0 0 100 100" xml:space="preserve">
<g id="yum">
</g>
<g id="windows_x5F_service">
</g>
<g id="windows">
</g>
<g id="subversion">
</g>
<g id="solaris">
</g>
<g id="smartos">
</g>
<g id="ruby">
</g>
<g id="rpm">
</g>
<g id="route">
</g>
<g id="registry_x5F_key">
</g>
<g id="reboot">
</g>
<g id="python">
</g>
<g id="powershell">
</g>
<g id="portage">
</g>
<g id="perl">
</g>
<g id="paludis">
</g>
<g id="pacman">
</g>
<g id="openbsd">
</g>
<g id="ohai">
</g>
<g id="mount">
</g>
<g id="mdadm">
</g>
<g id="macports">
</g>
<g id="ips">
</g>
<g id="ifconfig">
	<g>
		<g>
			<path d="M59.1,43.3c-0.5,0-1.1-0.2-1.5-0.6c-0.8-0.8-0.8-2.1,0-2.9l6.6-6.6c0.8-0.8,2.1-0.8,2.9,0c0.8,0.8,0.8,2.1,0,2.9
				l-6.6,6.6C60.2,43.1,59.6,43.3,59.1,43.3L59.1,43.3z"/>
		</g>
		<g>
			<path d="M34.7,67.8c-0.5,0-1.1-0.2-1.5-0.6c-0.8-0.8-0.8-2.1,0-2.9l6.6-6.6c0.8-0.8,2.1-0.8,2.9,0c0.8,0.8,0.8,2.1,0,2.9
				l-6.6,6.6C35.7,67.6,35.2,67.8,34.7,67.8L34.7,67.8z"/>
		</g>
		<g>
			<path d="M65.7,67.8c-0.5,0-1.1-0.2-1.5-0.6l-6.6-6.6c-0.8-0.8-0.8-2.1,0-2.9c0.8-0.8,2.1-0.8,2.9,0l6.6,6.6
				c0.8,0.8,0.8,2.1,0,2.9C66.8,67.6,66.2,67.8,65.7,67.8L65.7,67.8z"/>
		</g>
		<g>
			<path d="M41.3,43.3c-0.5,0-1.1-0.2-1.5-0.6l-6.6-6.6c-0.8-0.8-0.8-2.1,0-2.9c0.8-0.8,2.1-0.8,2.9,0l6.6,6.6
				c0.8,0.8,0.8,2.1,0,2.9C42.3,43.1,41.8,43.3,41.3,43.3L41.3,43.3z"/>
		</g>
		<g>
			<path d="M50.2,57.8c-4.2,0-7.6-3.4-7.6-7.6c0-4.2,3.4-7.6,7.6-7.6c4.2,0,7.6,3.4,7.6,7.6C57.8,54.4,54.4,57.8,50.2,57.8
				L50.2,57.8z M50.2,46.7c-1.9,0-3.5,1.5-3.5,3.5c0,1.9,1.5,3.5,3.5,3.5c1.9,0,3.5-1.5,3.5-3.5C53.6,48.3,52.1,46.7,50.2,46.7
				L50.2,46.7z"/>
		</g>
		<g>
			<path d="M26.2,30H4.6c-2.3,0-4.2-1.9-4.2-4.2V4.2C0.4,1.9,2.3,0,4.6,0h21.6c2.3,0,4.2,1.9,4.2,4.2v21.6
				C30.4,28.1,28.5,30,26.2,30L26.2,30z M8.7,21.6H22V8.3H8.7V21.6L8.7,21.6z"/>
		</g>
		<g>
			<path d="M95.4,30H73.8c-2.3,0-4.2-1.9-4.2-4.2V4.2c0-2.3,1.9-4.2,4.2-4.2h21.6c2.3,0,4.2,1.9,4.2,4.2v21.6
				C99.6,28.1,97.7,30,95.4,30L95.4,30z M78,21.6h13.3V8.3H78V21.6L78,21.6z"/>
		</g>
		<g>
			<path d="M26.2,100H4.6c-2.3,0-4.2-1.9-4.2-4.2V74.2c0-2.3,1.9-4.2,4.2-4.2h21.6c2.3,0,4.2,1.9,4.2,4.2v21.6
				C30.4,98.1,28.5,100,26.2,100L26.2,100z M8.7,91.7H22V78.4H8.7V91.7L8.7,91.7z"/>
		</g>
		<g>
			<path d="M95.4,100H73.8c-2.3,0-4.2-1.9-4.2-4.2V74.2c0-2.3,1.9-4.2,4.2-4.2h21.6c2.3,0,4.2,1.9,4.2,4.2v21.6
				C99.6,98.1,97.7,100,95.4,100L95.4,100z M78,91.7h13.3V78.4H78V91.7L78,91.7z"/>
		</g>
	</g>
</g>
<g id="http_x5F_request">
</g>
<g id="homebrew">
</g>
<g id="git">
</g>
<g id="freebsd">
</g>
<g id="erlang_x5F_call">
</g>
<g id="env">
</g>
<g id="easy_x5F_install">
</g>
<g id="dsc_x5F_script">
</g>
<g id="dsc_x5F_resource">
</g>
<g id="dpkg">
</g>
<g id="csh">
</g>
<g id="chef_x5F_handler">
</g>
<g id="breakpoint">
</g>
<g id="bff">
</g>
<g id="batch">
</g>
<g id="apt">
</g>
</svg>
