<?xml version="1.0" encoding="utf-8"?>
<!-- Generator: Adobe Illustrator 18.1.1, SVG Export Plug-In . SVG Version: 6.00 Build 0)  -->
<svg version="1.1" xmlns="http://www.w3.org/2000/svg" xmlns:xlink="http://www.w3.org/1999/xlink" x="0px" y="0px"
	 viewBox="0 0 100 100" enable-background="new 0 0 100 100" xml:space="preserve">
<g id="public_x5F_key">
</g>
<g id="private_x5F_key">
	<g>
		<path d="M82.6,55.7c-0.2-1.1-0.5-2.1-1-3.1c-0.6-1.1-1.3-2.2-2.2-3.1c-0.8-0.8-1.7-1.4-2.6-1.9c-1.1-0.6-2.3-1-3.6-1.2
			c-0.5-0.1-1.1-0.1-1.6-0.1s-1.1,0-1.6,0.1c-1.3,0.2-2.5,0.6-3.6,1.2c-1,0.5-1.9,1.2-2.6,1.9c-0.9,0.9-1.7,1.9-2.2,3.1
			c-0.5,1-0.8,2-1,3.1c-0.1,0.6-0.2,1.2-0.2,1.9c0,0.7,0.1,1.3,0.2,1.9c0.2,1.1,0.5,2.1,1,3.1c0.6,1.1,1.3,2.2,2.2,3.1
			c0.6,0.6,1.4,1.2,2.1,1.6c0.2,0.1,0.3,0.2,0.5,0.3c1.1,0.6,2.3,1,3.6,1.2h0c0.5,0.1,1.1,0.1,1.6,0.1c0.6,0,1.1,0,1.6-0.1h0
			c1.3-0.2,2.5-0.6,3.6-1.2c0.2-0.1,0.4-0.2,0.5-0.3c0.8-0.5,1.5-1,2.1-1.6c0.9-0.9,1.7-1.9,2.2-3.1c0.5-1,0.8-2,1-3.1
			c0.1-0.6,0.2-1.3,0.2-1.9C82.8,57,82.7,56.4,82.6,55.7z M68.9,51.1c0.2-0.1,0.5-0.2,0.7-0.2c0.6-0.2,1.2-0.2,1.8-0.2
			c0.6,0,1.2,0.1,1.8,0.2c0.3,0.1,0.5,0.1,0.7,0.2c1.2,0.4,2.2,1.2,3,2.1c0.2,0.2,0.3,0.4,0.4,0.6c0.7,1,1.1,2.2,1.1,3.5
			c0,0.1,0,0.3,0,0.4c0,0.1,0,0.3,0,0.4c-0.1,1.3-0.5,2.4-1.1,3.5c-0.1,0.2-0.3,0.4-0.4,0.6c-0.8,1-1.8,1.7-2.9,2.1
			c-0.2,0.1-0.5,0.2-0.7,0.2c-0.6,0.2-1.2,0.2-1.8,0.2c-0.6,0-1.2-0.1-1.8-0.2c-0.3-0.1-0.5-0.1-0.7-0.2c-1.2-0.4-2.2-1.2-2.9-2.1
			c-0.2-0.2-0.3-0.4-0.4-0.6c-0.7-1-1.1-2.2-1.1-3.4c0-0.1,0-0.3,0-0.4c0-0.1,0-0.3,0-0.4c0.1-1.3,0.5-2.4,1.1-3.4
			c0.1-0.2,0.3-0.4,0.4-0.6C66.8,52.3,67.8,51.5,68.9,51.1z"/>
		<path d="M100,8.6v74.7c0,2.3-1.9,4.2-4.2,4.2H59.2v-8.4h32.4V12.8H8.4v66.3h3.1v8.4H4.2c-2.3,0-4.2-1.9-4.2-4.2V8.6
			c0-2.3,1.9-4.2,4.2-4.2h91.6C98.1,4.4,100,6.3,100,8.6z"/>
		<g>
			<path d="M84.4,22.9c0,1.2-0.9,2.1-2.1,2.1H17.7c-1.2,0-2.1-0.9-2.1-2.1c0-1.2,0.9-2.1,2.1-2.1h64.6
				C83.4,20.9,84.4,21.8,84.4,22.9z"/>
		</g>
		<g>
			<path d="M68.1,41.5H31.9c-1.2,0-2.1-0.9-2.1-2.1c0-1.2,0.9-2.1,2.1-2.1h36.2c1.2,0,2.1,0.9,2.1,2.1
				C70.2,40.5,69.3,41.5,68.1,41.5L68.1,41.5z"/>
		</g>
		<g>
			<path d="M78.6,31.2c0,1.2-0.9,2.1-2.1,2.1h-53c-1.2,0-2.1-0.9-2.1-2.1c0-1.2,0.9-2.1,2.1-2.1h53C77.6,29.1,78.6,30,78.6,31.2z"/>
		</g>
		<g>
			<path d="M83.1,56.5l-0.5-0.7l-0.9-1.4l-0.1-1.7l0-0.9c0-0.9-0.6-1.6-1.4-1.9l-0.8-0.3L77.8,49l-1-1.3L76.2,47
				c-0.5-0.7-1.4-1-2.2-0.7l-0.8,0.2L71.5,47l-1.6-0.5L69,46.3c-0.8-0.2-1.7,0.1-2.2,0.7l-0.5,0.7l-1,1.3l-1.6,0.6l-0.8,0.3
				c-0.8,0.3-1.4,1.1-1.4,1.9l0,0.9l-0.1,1.7l-1,1.4l-0.5,0.7c-0.5,0.7-0.5,1.6,0,2.4l0.5,0.7l1,1.4l0.1,1.7l0,0.9
				c0,0.9,0.6,1.6,1.4,1.9l0.8,0.3l1.6,0.6l0.7,0.9l0.4,0.5l0.5,0.7c0.5,0.7,1.4,1,2.2,0.7l0.8-0.2l0,0h0l1.6-0.5l1.6,0.5h0
				c0,0,0,0,0,0l0.8,0.2c0.2,0.1,0.4,0.1,0.6,0.1c0.6,0,1.3-0.3,1.7-0.8l0.5-0.7l0.4-0.5l0.7-0.9l1.6-0.6l0.8-0.3
				c0.8-0.3,1.4-1,1.4-1.9l0-0.9l0.1-1.7l0.9-1.4l0.5-0.7C83.6,58.1,83.6,57.2,83.1,56.5z M78.5,58l-0.7,1.1
				c-0.2,0.3-0.3,0.7-0.4,1.1l0,1.3l0,0.5L77,62.1l-1.2,0.4c-0.4,0.1-0.7,0.4-0.9,0.7l-0.8,1l-0.3,0.4l-0.4-0.1l-1.2-0.4
				c-0.4-0.1-0.8-0.1-1.2,0l-1.2,0.4l-0.4,0.1l-0.3-0.4l-0.8-1c-0.2-0.3-0.6-0.6-0.9-0.7L66,62.1L65.6,62l0-0.5l0-1.3
				c0-0.4-0.1-0.8-0.4-1.1l-0.7-1l-0.3-0.4l0.3-0.4l0.7-1.1c0.2-0.3,0.4-0.7,0.4-1.1l0-1.3l0-0.5l0.4-0.2l1.2-0.4
				c0.4-0.1,0.7-0.4,0.9-0.7l0.8-1l0.3-0.4l0.4,0.1l1.2,0.4c0.4,0.1,0.8,0.1,1.2,0l1.2-0.4l0.4-0.1l0.3,0.4l0.8,1
				c0.2,0.3,0.6,0.5,0.9,0.7l1.2,0.4l0.4,0.2l0,0.5l0,1.3c0,0.4,0.1,0.8,0.4,1.1l0.7,1.1l0.3,0.4L78.5,58z"/>
		</g>
		<g>
			<g>
				<path d="M78.5,74.6c-0.6,0-1.3-0.3-1.7-0.8l-3.5-4.7c-0.7-0.9-0.5-2.2,0.4-2.9c0.9-0.7,2.2-0.5,2.9,0.4l3.5,4.7
					c0.7,0.9,0.5,2.2-0.4,2.9C79.4,74.4,78.9,74.6,78.5,74.6L78.5,74.6z"/>
			</g>
			<g>
				<path d="M64.5,74.6c-0.4,0-0.9-0.1-1.3-0.4c-0.9-0.7-1.1-2-0.4-2.9l3.5-4.7c0.7-0.9,2-1.1,2.9-0.4c0.9,0.7,1.1,2,0.4,2.9
					l-3.5,4.7C65.8,74.3,65.1,74.6,64.5,74.6L64.5,74.6z"/>
			</g>
		</g>
		<g>
			<g>
				<path d="M50.4,95.6H19.5c-1.9,0-3.4-1.5-3.4-3.4V73.9c0-1.9,1.5-3.4,3.4-3.4h30.8c1.9,0,3.4,1.5,3.4,3.4v18.3
					C53.8,94,52.2,95.6,50.4,95.6L50.4,95.6z M19.5,73.9v18.3h30.8V73.9H19.5L19.5,73.9z"/>
			</g>
			<g>
				<path d="M45.9,73.5c-0.9,0-1.7-0.8-1.7-1.7v-4.7c0-5.1-4.2-9.3-9.3-9.3c-5.1,0-9.3,4.2-9.3,9.3v4.7c0,0.9-0.8,1.7-1.7,1.7
					c-0.9,0-1.7-0.8-1.7-1.7v-4.7c0-7,5.7-12.7,12.7-12.7c7,0,12.7,5.7,12.7,12.7v4.7C47.6,72.7,46.9,73.5,45.9,73.5L45.9,73.5z"/>
			</g>
			<path d="M35,77.2c-2,0-3.6,1.6-3.6,3.6c0,1.3,0.8,2.5,1.9,3.1v4h3.4v-4c1.1-0.6,1.9-1.8,1.9-3.1C38.5,78.8,36.9,77.2,35,77.2
				L35,77.2z"/>
		</g>
	</g>
</g>
<g id="chef_x5F_user">
</g>
<g id="chef_x5F_role">
</g>
<g id="chef_x5F_organization">
</g>
<g id="chef_x5F_node">
</g>
<g id="chef_x5F_mirror">
</g>
<g id="chef_x5F_group">
</g>
<g id="chef_x5F_environment">
</g>
<g id="chef_x5F_data_x5F_bag">
</g>
<g id="chef_x5F_container">
</g>
<g id="chef_x5F_client">
</g>
<g id="chef_x5F_acl">
</g>
<g id="machine_x5F_image">
</g>
<g id="machine_x5F_file">
</g>
<g id="machine_x5F_execute">
</g>
<g id="machine_x5F_batch">
</g>
<g id="machine">
</g>
<g id="load_x5F_balancer">
</g>
</svg>
