<?xml version="1.0" encoding="utf-8"?>
<!-- Generator: Adobe Illustrator 18.1.1, SVG Export Plug-In . SVG Version: 6.00 Build 0)  -->
<svg version="1.1" xmlns="http://www.w3.org/2000/svg" xmlns:xlink="http://www.w3.org/1999/xlink" x="0px" y="0px"
	 viewBox="0 0 100 100" enable-background="new 0 0 100 100" xml:space="preserve">
<g id="yum">
</g>
<g id="windows_x5F_service">
</g>
<g id="windows">
</g>
<g id="subversion">
</g>
<g id="solaris">
</g>
<g id="smartos">
</g>
<g id="ruby">
</g>
<g id="rpm">
</g>
<g id="route">
</g>
<g id="registry_x5F_key">
</g>
<g id="reboot">
</g>
<g id="python">
</g>
<g id="powershell">
</g>
<g id="portage">
</g>
<g id="perl">
</g>
<g id="paludis">
</g>
<g id="pacman">
</g>
<g id="openbsd">
</g>
<g id="ohai">
</g>
<g id="mount">
</g>
<g id="mdadm">
</g>
<g id="macports">
</g>
<g id="ips">
</g>
<g id="ifconfig">
</g>
<g id="http_x5F_request">
</g>
<g id="homebrew">
</g>
<g id="git">
</g>
<g id="freebsd">
</g>
<g id="erlang_x5F_call">
	<g>
		<g>
			<g>
				<path d="M74,82.6c-0.9,0-1.8-0.3-2.5-0.8c-1.9-1.4-2.3-4.1-0.9-6L89.3,50L70.5,24.2c-1.4-1.9-1-4.6,0.9-6c1.9-1.4,4.6-1,6,0.9
					l20.6,28.3c1.1,1.5,1.1,3.5,0,5.1L77.5,80.8C76.6,82,75.3,82.6,74,82.6L74,82.6z"/>
			</g>
			<g>
				<path d="M94.6,54.3H41.3c-2.4,0-4.3-1.9-4.3-4.3c0-2.4,1.9-4.3,4.3-4.3h53.3c2.4,0,4.3,1.9,4.3,4.3C98.9,52.4,97,54.3,94.6,54.3
					L94.6,54.3z"/>
			</g>
		</g>
		<g>
			<path d="M5.4,100c-2.4,0-4.3-1.9-4.3-4.3V4.3C1.1,1.9,3,0,5.4,0s4.3,1.9,4.3,4.3v91.4C9.7,98.1,7.8,100,5.4,100L5.4,100z"/>
		</g>
		<g>
			<g>
				<path d="M62.9,100H5.4c-2.4,0-4.3-1.9-4.3-4.3c0-2.4,1.9-4.3,4.3-4.3h57.5c2.4,0,4.3,1.9,4.3,4.3C67.1,98.1,65.2,100,62.9,100
					L62.9,100z"/>
			</g>
			<g>
				<path d="M62.9,8.6H5.4C3,8.6,1.1,6.7,1.1,4.3C1.1,1.9,3,0,5.4,0h57.5c2.4,0,4.3,1.9,4.3,4.3C67.1,6.7,65.2,8.6,62.9,8.6
					L62.9,8.6z"/>
			</g>
		</g>
	</g>
</g>
<g id="env">
</g>
<g id="easy_x5F_install">
</g>
<g id="dsc_x5F_script">
</g>
<g id="dsc_x5F_resource">
</g>
<g id="dpkg">
</g>
<g id="csh">
</g>
<g id="chef_x5F_handler">
</g>
<g id="breakpoint">
</g>
<g id="bff">
</g>
<g id="batch">
</g>
<g id="apt">
</g>
</svg>
