<?xml version="1.0" encoding="utf-8"?>
<!-- Generator: Adobe Illustrator 18.1.1, SVG Export Plug-In . SVG Version: 6.00 Build 0)  -->
<svg version="1.1" xmlns="http://www.w3.org/2000/svg" xmlns:xlink="http://www.w3.org/1999/xlink" x="0px" y="0px"
	 viewBox="0 0 100 100" enable-background="new 0 0 100 100" xml:space="preserve">
<g id="windows">
</g>
<g id="ubuntu">
</g>
<g id="rubygems">
</g>
<g id="redhat">
</g>
<g id="max-osx">
</g>
<g id="github">
</g>
<g id="git_1_">
</g>
<g id="debian">
</g>
<g id="centos">
	<g>
		<path d="M27.2,54c3.2,0,6.4,0,9.6,0c0.8,0,1.6,0.2,2.4,0.3c-0.5,0.6-0.9,1.2-1.4,1.7c-2.1,2.2-4.2,4.3-6.4,6.4
			c-2.9,2.9-5.7,5.8-8.6,8.6c-1.2,1.1-1.2,1.1-2.4,0c-1.7-1.7-3.3-3.4-5-5c-1-1-1.5-1.9-1.3-3.5c0.3-2.1-0.1-4.3-0.1-6.5
			c0-1.8,0.3-2.1,2.2-2.1C19.8,53.9,23.5,54,27.2,54z"/>
		<path d="M75.4,46.1c-3.2-0.2-6.4-0.4-9.6-0.5c-0.9,0-1.8,0.3-2.8,0.3c-0.6,0-1.2-0.2-1.9-0.3c0.3-0.5,0.5-1.2,0.9-1.6
			c1.4-1.4,2.8-2.8,4.2-4.2c3.7-3.7,7.4-7.4,11-11.1c0.8-0.8,1.3-0.8,2,0c1.8,1.9,3.7,3.8,5.6,5.6c0.7,0.7,1.1,1.5,1,2.5
			c0,2.4,0,4.7,0,7.1c0,1.7-0.4,2-2,2c-2.8,0.1-5.7,0-8.5,0C75.4,46,75.4,46.1,75.4,46.1z"/>
		<path d="M54.2,26.9c0-3.5,0-7,0-10.5c0-1.7,0.1-1.8,1.8-1.8c2.4,0,4.9-0.1,7.3,0c0.8,0,1.7,0.3,2.3,0.8c1.9,1.7,3.7,3.4,5.5,5.2
			c0.8,0.8,0.8,1.5,0,2.4c-5.1,5.1-10.1,10.2-15.2,15.2c-0.3,0.3-0.8,0.4-1.2,0.6c-0.1-0.4-0.4-0.8-0.4-1.3
			C54.1,34.1,54.2,30.5,54.2,26.9z"/>
		<path d="M45.7,73.2c0,3.6,0,7.2,0,10.8c0,1.7-0.1,1.8-1.7,1.8c-2.4,0-4.9,0-7.3,0c-1,0-1.8-0.2-2.5-1c-1.8-1.8-3.6-3.6-5.4-5.4
			c-0.8-0.8-0.6-1.4,0.1-2.1c5.3-5.3,10.5-10.5,15.8-15.8c0.2-0.2,0.6-0.3,0.9-0.4c0.1,0.4,0.2,0.7,0.2,1.1
			C45.7,65.8,45.7,69.5,45.7,73.2C45.7,73.2,45.7,73.2,45.7,73.2z"/>
		<path d="M73.3,54.5c3.5,0,7,0,10.5,0c2.1,0,2.1,0,2.1,2c0,1.8-0.1,3.6,0,5.4c0.1,1.5-0.4,2.6-1.3,3.6c-1.8,1.9-3.7,3.7-5.5,5.6
			c-0.7,0.7-1.3,0.5-1.9,0c-1.2-1.2-2.4-2.4-3.6-3.6c-3.8-3.8-7.6-7.6-11.4-11.5c-0.3-0.3-0.6-0.7-0.8-1.1c0.5-0.1,1-0.3,1.5-0.3
			C66.3,54.5,69.8,54.5,73.3,54.5z"/>
		<path d="M45,39c-3.5-3.6-7.1-7.3-10.6-10.9c-1.7-1.8-3.4-3.5-5.2-5.2c-0.8-0.8-1.1-1.6-0.3-2.4c1.9-1.8,3.8-3.6,5.8-5.4
			c0.4-0.3,1-0.5,1.5-0.5c2.6-0.1,5.3,0,7.9,0c1,0,1.6,0.3,1.6,1.4c0,7.5,0,15.1,0,22.6C45.5,38.9,45.2,39,45,39z"/>
		<path d="M54.2,73c0-3.4,0-6.8,0-10.2c0-0.4,0.2-0.9,0.3-1.3c0.4,0.2,0.9,0.2,1.2,0.5c5.1,5.1,10.1,10.1,15.2,15.2
			c0.7,0.7,0.7,1.3,0.1,1.9c-1.8,1.9-3.7,3.7-5.6,5.5c-0.4,0.3-1,0.5-1.5,0.5c-2.7,0.1-5.5,0.1-8.2,0c-1.5,0-1.5-0.1-1.6-1.7
			C54.2,80,54.2,76.5,54.2,73z"/>
		<path d="M26.6,45.4c-3.5,0-7,0-10.5,0c-1.6,0-1.6-0.1-1.7-1.6c0-2.4,0-4.7,0-7.1c0-0.9,0.3-1.6,1-2.2c1.8-1.8,3.6-3.6,5.4-5.4
			c0.8-0.8,1.3-0.8,2.1,0c5,5.1,10.1,10.2,15.2,15.3c0.2,0.2,0.3,0.6,0.4,0.9c-0.3,0.1-0.5,0.2-0.8,0.2C34,45.4,30.3,45.4,26.6,45.4
			z"/>
		<path d="M51.3,73c0,4.4,0,8.9,0,13.3c0,2.3,0,2.3,2.4,2.3c2,0,4,0,5.9,0c0.4,0,0.7,0.2,1.1,0.3c-0.2,0.4-0.4,0.8-0.7,1.1
			c-3,3.1-6,6.1-9.1,9.1c-1.2,1.1-1.3,1.1-2.5,0c-2.2-2.1-4.3-4.3-6.4-6.4c-1.1-1.1-2.1-2.1-3.2-3.2c-0.1-0.1-0.3-0.4-0.2-0.5
			c0.2-0.2,0.4-0.4,0.6-0.4c2.5,0,4.9,0,7.4,0c1.8,0,1.9-0.1,1.9-1.9c0-8.9,0-17.8,0-26.7c0-0.8,0-1.7,0.3-2.5
			c0.1-0.4,0.8-0.9,1.2-1c0.3-0.1,0.9,0.5,1,0.9c0.2,0.7,0.3,1.5,0.3,2.2C51.4,64.1,51.3,68.5,51.3,73z"/>
		<path d="M22.3,85.8c-2.1,0-4.1,0-6.2,0c-1.7,0-2.1-0.3-2.1-1.9c0-4.4,0-8.9,0-13.3c0-0.3,0.2-0.7,0.3-1c0.3,0.1,0.7,0.2,1,0.4
			c1.3,1.2,2.6,2.5,3.8,3.8c2.7,2.7,2.7,2.7,5.5-0.1c5.9-5.9,11.7-11.8,17.6-17.7c0.5-0.5,1-1.1,1.7-1.5c0.4-0.2,1.2-0.3,1.5-0.1
			c0.3,0.3,0.4,1.1,0.2,1.5c-0.3,0.7-0.9,1.2-1.4,1.7C38.1,63.7,31.9,69.9,25.8,76c-0.4,0.4-0.8,0.9-1.2,1.2c-1,0.7-0.7,1.3,0.1,2
			c1.7,1.6,3.4,3.3,5,5c0.3,0.3,0.4,0.8,0.5,1.2c-0.3,0.1-0.7,0.3-1,0.3C26.9,85.8,24.6,85.7,22.3,85.8
			C22.3,85.8,22.3,85.8,22.3,85.8z"/>
		<path d="M38.6,11c0.2-0.2,0.3-0.5,0.5-0.7c3.1-3.1,6.2-6.3,9.3-9.4c1.3-1.2,1.3-1.3,2.5-0.1c3.2,3.1,6.3,6.3,9.4,9.4
			c0.2,0.2,0.3,0.5,0.4,0.7c-0.3,0.1-0.6,0.3-0.9,0.3c-2.3,0-4.5,0-6.8,0c-1.5,0-1.5,0.1-1.6,1.7c0,1.3,0,2.6,0,4
			c0,7.5,0,14.9,0,22.4c0,0.8,0,1.5,0,2.3c-0.1,0.9-0.6,1.8-1.5,1.7c-0.5,0-1-1-1.3-1.6c-0.2-0.6-0.1-1.3-0.1-2c0-8.4,0-16.8,0-25.2
			c0-3.5,0.3-3.2-3.2-3.2c-2.1,0-4.1,0-6.2,0C39,11.2,38.8,11.1,38.6,11z"/>
		<path d="M85.5,30.5c-1.2-1.2-2.4-2.4-3.6-3.6c-0.8-0.8-1.6-1.6-2.4-2.4c-0.8-0.9-1.6-0.9-2.4,0c-1.5,1.6-3.1,3.1-4.6,4.6
			c-4.9,5-9.9,9.9-14.8,14.9c-0.5,0.5-1.1,1.1-1.7,1.5c-0.3,0.2-1.1,0.2-1.2,0c-0.3-0.4-0.6-1.1-0.4-1.5c0.4-0.7,1-1.3,1.6-1.9
			C62,36.1,68.1,30,74.1,23.9c0.5-0.5,0.9-1,1.4-1.4c0.7-0.6,0.7-1.2,0-1.9c-1.6-1.6-3.2-3.2-4.8-4.8c-0.7-0.8-0.6-1.3,0.4-1.5
			c0.4-0.1,0.8-0.1,1.1-0.1c3.8,0,7.5,0,11.3,0c1.9,0,2.3,0.3,2.3,2c0,4.5,0,9.1,0,13.6C85.9,30,85.7,30.2,85.5,30.5z"/>
		<path d="M69.2,85.2c2-2,3.7-3.7,5.3-5.4c2.1-2.1,1.8-1.6,0.1-3.4C68.4,70.2,62.2,64,56,57.8c-0.5-0.5-1.1-1-1.5-1.7
			c-0.6-0.8-0.2-1.5,0.7-1.6c0.8-0.1,1.3,0.1,1.9,0.8c6.5,6.6,13,13.2,19.5,19.8c1.3,1.3,1.3,1.3,2.7-0.1c1.8-1.7,3.5-3.5,5.2-5.2
			c0.2-0.2,0.7-0.3,1-0.3c0.1,0,0.3,0.5,0.3,0.7c0,4.5,0,9.1,0,13.6c0,0.8-0.3,1.3-1.1,1.3C79.8,85.2,74.8,85.2,69.2,85.2z"/>
		<path d="M88.8,61.5c-0.1-1-0.2-1.6-0.2-2.1c0-1.6,0-3.2,0-4.8c-0.1-3.9,0.5-3.4-3.2-3.4c-8.6,0-17.2,0-25.7,0
			c-0.8,0-1.5,0-2.2-0.1c-0.4-0.1-0.9-0.7-0.9-0.9c0.1-0.5,0.5-1.1,0.9-1.2c0.7-0.2,1.5-0.1,2.2-0.1c8.4,0,16.8,0,25.2,0
			c0.8,0,1.5,0,2.3,0c1.1,0.1,1.5-0.3,1.5-1.4c-0.1-2.5,0-4.9,0-7.4c0-0.4,0.1-0.7,0.2-1.1c0.3,0.1,0.7,0.2,0.9,0.4
			c3.2,3.2,6.4,6.4,9.6,9.6c0.5,0.5,0.9,1,0.2,1.7C96.2,54.1,92.6,57.7,88.8,61.5z"/>
		<path d="M14.7,30.7c-0.1-0.8-0.2-1.3-0.2-1.7c0-4.3,0-8.5,0-12.8c0-0.8,0.1-1.5,1.2-1.5c4.8,0,9.6,0,15,0
			c-1.8,1.9-3.3,3.3-4.7,4.8c-0.5,0.5-0.9,0.9-1.4,1.4c-0.5,0.6-0.5,1.2,0,1.8c0.5,0.6,1,1.1,1.6,1.6c5.9,6,11.9,11.9,17.8,17.9
			c0.5,0.5,1.1,1.1,1.5,1.7c0.2,0.3,0.2,0.8,0.1,1.1c-0.1,0.2-0.7,0.5-0.9,0.4c-0.7-0.3-1.5-0.7-2.1-1.2c-4-4-8-8-12-12
			c-2.5-2.5-4.9-5-7.4-7.4c-1.1-1.1-1.2-1.1-2.3,0C18.8,26.6,16.9,28.5,14.7,30.7z"/>
		<path d="M10.5,61.2c-3.4-3.4-6.7-6.9-10.1-10.3c-0.5-0.5-0.5-0.9,0-1.4c3.4-3.3,6.7-6.7,10.1-10c0.1-0.1,0.3-0.1,0.7-0.2
			c0,2.5,0,4.9,0,7.4c0,2,0,2,2.1,2c9.1,0,18.1,0,27.2,0c0.7,0,1.3-0.1,2,0c0.5,0.1,0.9,0.6,1.3,0.9c-0.4,0.4-0.6,1.1-1.1,1.2
			c-0.8,0.3-1.7,0.3-2.5,0.3c-8.7,0-17.4,0-26.1,0c-3.2,0-2.9-0.3-2.9,2.8c0,2.4,0,4.7,0,7.1C11,61.1,10.7,61.2,10.5,61.2z"/>
	</g>
</g>
</svg>
