<?xml version="1.0" encoding="utf-8"?>
<!-- Generator: Adobe Illustrator 18.1.1, SVG Export Plug-In . SVG Version: 6.00 Build 0)  -->
<svg version="1.1" xmlns="http://www.w3.org/2000/svg" xmlns:xlink="http://www.w3.org/1999/xlink" x="0px" y="0px"
	 viewBox="0 0 100 100" enable-background="new 0 0 100 100" xml:space="preserve">
<g id="yum">
</g>
<g id="windows_x5F_service">
</g>
<g id="windows">
</g>
<g id="subversion">
</g>
<g id="solaris">
</g>
<g id="smartos">
</g>
<g id="ruby">
</g>
<g id="rpm">
</g>
<g id="route">
</g>
<g id="registry_x5F_key">
</g>
<g id="reboot">
	<g>
		<g>
			<path d="M43.9,93.9C19.7,93.9,0,74.2,0,50C0,25.8,19.7,6.1,43.9,6.1S87.7,25.8,87.7,50c0,2.3-1.8,4.1-4.1,4.1
				c-2.3,0-4.1-1.8-4.1-4.1c0-19.6-16-35.6-35.6-35.6c-19.7,0-35.6,16-35.6,35.6c0,19.6,16,35.6,35.6,35.6c9.2,0,17.8-3.5,24.5-9.8
				c1.4-1.3,2.7-2.8,3.9-4.3c1.4-1.8,4-2.2,5.8-0.8c1.8,1.4,2.2,4,0.8,5.8c-1.4,1.9-3.1,3.7-4.8,5.3C65.8,89.6,55.1,93.9,43.9,93.9
				L43.9,93.9z"/>
		</g>
		<g>
			<path d="M83.4,59.7c-1,0-2-0.3-2.7-1.1L68.2,47.5c-1.7-1.5-1.8-4.1-0.3-5.8c1.5-1.7,4.1-1.8,5.8-0.3l9.7,8.7l9.7-8.7
				c1.7-1.5,4.3-1.4,5.8,0.3c1.5,1.7,1.4,4.3-0.3,5.8L86.1,58.7C85.4,59.4,84.4,59.7,83.4,59.7L83.4,59.7z"/>
		</g>
	</g>
</g>
<g id="python">
</g>
<g id="powershell">
</g>
<g id="portage">
</g>
<g id="perl">
</g>
<g id="paludis">
</g>
<g id="pacman">
</g>
<g id="openbsd">
</g>
<g id="ohai">
</g>
<g id="mount">
</g>
<g id="mdadm">
</g>
<g id="macports">
</g>
<g id="ips">
</g>
<g id="ifconfig">
</g>
<g id="http_x5F_request">
</g>
<g id="homebrew">
</g>
<g id="git">
</g>
<g id="freebsd">
</g>
<g id="erlang_x5F_call">
</g>
<g id="env">
</g>
<g id="easy_x5F_install">
</g>
<g id="dsc_x5F_script">
</g>
<g id="dsc_x5F_resource">
</g>
<g id="dpkg">
</g>
<g id="csh">
</g>
<g id="chef_x5F_handler">
</g>
<g id="breakpoint">
</g>
<g id="bff">
</g>
<g id="batch">
</g>
<g id="apt">
</g>
</svg>
