<?xml version="1.0" encoding="utf-8"?>
<!-- Generator: Adobe Illustrator 18.1.1, SVG Export Plug-In . SVG Version: 6.00 Build 0)  -->
<svg version="1.1" xmlns="http://www.w3.org/2000/svg" xmlns:xlink="http://www.w3.org/1999/xlink" x="0px" y="0px"
	 viewBox="0 0 100 100" enable-background="new 0 0 100 100" xml:space="preserve">
<g id="tests">
</g>
<g id="template">
</g>
<g id="resources">
</g>
<g id="recipes">
</g>
<g id="providers">
</g>
<g id="metadata">
</g>
<g id="libraries">
	<g>
		<g>
			<path d="M64,98c-1.1,0-2-0.9-2-2V72.5c0-1.1,0.9-2,2-2h23.5c1.1,0,2,0.9,2,2c0,1.1-0.9,2-2,2H66v21.6C66,97.2,65.1,98,64,98
				L64,98z"/>
		</g>
		<g>
			<path d="M64,100H23.5c-2.2,0-3.9-1.8-3.9-3.9V15.6c0-2.2,1.8-3.9,3.9-3.9h64.1c2.2,0,3.9,1.8,3.9,3.9v57c0,1-0.4,2-1.1,2.8
				L66.8,98.9C66,99.6,65.1,100,64,100L64,100z M27.4,92.2h35l21.2-21.2V19.5H27.4V92.2L27.4,92.2z"/>
		</g>
		<g>
			<path d="M59.8,32.4h-23c-1.1,0-2-0.9-2-2c0-1.1,0.9-2,2-2h23c1.1,0,2,0.9,2,2C61.7,31.5,60.8,32.4,59.8,32.4L59.8,32.4z"/>
		</g>
		<g>
			<path d="M75,41.9H36.7c-1.1,0-2-0.9-2-2c0-1.1,0.9-2,2-2H75c1.1,0,2,0.9,2,2C76.9,41,76,41.9,75,41.9L75,41.9z"/>
		</g>
		<g>
			<path d="M75,51.4H36.7c-1.1,0-2-0.9-2-2c0-1.1,0.9-2,2-2H75c1.1,0,2,0.9,2,2C76.9,50.5,76,51.4,75,51.4L75,51.4z"/>
		</g>
		<g>
			<path d="M52.7,60.8h-16c-1.1,0-2-0.9-2-2c0-1.1,0.9-2,2-2h16c1.1,0,2,0.9,2,2C54.7,60,53.8,60.8,52.7,60.8L52.7,60.8z"/>
		</g>
		<g>
			<path d="M48,18.7H25c-1.1,0-2-0.9-2-2s0.9-2,2-2h23c1.1,0,2,0.9,2,2S49.1,18.7,48,18.7L48,18.7z"/>
		</g>
		<g>
			<path d="M12.5,90.7c-2.2,0-3.9-1.8-3.9-3.9V7.8c0-4.3,3.5-7.8,7.8-7.8h60.1c2.2,0,3.9,1.8,3.9,3.9c0,2.2-1.8,3.9-3.9,3.9H16.4
				v78.9C16.4,89,14.6,90.7,12.5,90.7L12.5,90.7z"/>
		</g>
	</g>
</g>
<g id="files">
</g>
<g id="definitions">
</g>
<g id="version">
</g>
<g id="cookbook">
</g>
<g id="attributes">
</g>
</svg>
