<?xml version="1.0" encoding="utf-8"?>
<!-- Generator: Adobe Illustrator 18.1.1, SVG Export Plug-In . SVG Version: 6.00 Build 0)  -->
<svg version="1.1" xmlns="http://www.w3.org/2000/svg" xmlns:xlink="http://www.w3.org/1999/xlink" x="0px" y="0px"
	 viewBox="0 0 100 100" enable-background="new 0 0 100 100" xml:space="preserve">
<g id="yum">
</g>
<g id="windows_x5F_service">
</g>
<g id="windows">
</g>
<g id="subversion">
</g>
<g id="solaris">
</g>
<g id="smartos">
</g>
<g id="ruby">
</g>
<g id="rpm">
</g>
<g id="route">
</g>
<g id="registry_x5F_key">
</g>
<g id="reboot">
</g>
<g id="python">
</g>
<g id="powershell">
</g>
<g id="portage">
</g>
<g id="perl">
</g>
<g id="paludis">
</g>
<g id="pacman">
</g>
<g id="openbsd">
</g>
<g id="ohai">
</g>
<g id="mount">
</g>
<g id="mdadm">
</g>
<g id="macports">
</g>
<g id="ips">
</g>
<g id="ifconfig">
</g>
<g id="http_x5F_request">
	<g>
		<g>
			<path d="M50,100C22.4,100,0,77.6,0,50C0,22.4,22.4,0,50,0c27.6,0,50,22.4,50,50C100,77.6,77.6,100,50,100L50,100z M50,8.4
				C27.1,8.4,8.4,27.1,8.4,50c0,22.9,18.7,41.6,41.6,41.6S91.6,72.9,91.6,50C91.6,27.1,72.9,8.4,50,8.4L50,8.4z"/>
		</g>
		<g>
			<path d="M50,97.9c-15.8,0-28.6-21.5-28.6-47.9C21.4,23.6,34.2,2.1,50,2.1c15.8,0,28.6,21.5,28.6,47.9
				C78.6,76.4,65.8,97.9,50,97.9L50,97.9z M50,6.3C36.6,6.3,25.6,25.9,25.6,50c0,24.1,10.9,43.7,24.4,43.7
				c13.4,0,24.4-19.6,24.4-43.7C74.4,25.9,63.4,6.3,50,6.3L50,6.3z"/>
		</g>
		<g>
			<path d="M50,97.9c-1.2,0-2.1-0.9-2.1-2.1V4.2c0-1.2,0.9-2.1,2.1-2.1c26.4,0,47.9,21.5,47.9,47.9C97.9,76.4,76.4,97.9,50,97.9
				L50,97.9z M52.1,6.4v87.3C75.2,92.5,93.7,73.4,93.7,50C93.7,26.6,75.2,7.5,52.1,6.4L52.1,6.4z"/>
		</g>
		<g>
			<path d="M92.8,68.2H7.2c-0.9,0-1.7-0.5-2-1.4C3.1,61.4,2.1,55.7,2.1,50c0-5.7,1-11.4,3.1-16.9c0.3-0.8,1.1-1.4,2-1.4h85.6
				c0.9,0,1.7,0.5,2,1.4c2.1,5.5,3.1,11.2,3.1,16.9c0,5.7-1,11.4-3.1,16.9C94.5,67.7,93.7,68.2,92.8,68.2L92.8,68.2z M8.7,64h82.7
				c1.6-4.6,2.4-9.3,2.4-14c0-4.7-0.8-9.5-2.4-14H8.7c-1.6,4.6-2.4,9.3-2.4,14C6.3,54.7,7.1,59.5,8.7,64L8.7,64z"/>
		</g>
	</g>
</g>
<g id="homebrew">
</g>
<g id="git">
</g>
<g id="freebsd">
</g>
<g id="erlang_x5F_call">
</g>
<g id="env">
</g>
<g id="easy_x5F_install">
</g>
<g id="dsc_x5F_script">
</g>
<g id="dsc_x5F_resource">
</g>
<g id="dpkg">
</g>
<g id="csh">
</g>
<g id="chef_x5F_handler">
</g>
<g id="breakpoint">
</g>
<g id="bff">
</g>
<g id="batch">
</g>
<g id="apt">
</g>
</svg>
