<?xml version="1.0" encoding="utf-8"?>
<!-- Generator: Adobe Illustrator 18.1.1, SVG Export Plug-In . SVG Version: 6.00 Build 0)  -->
<svg version="1.1" xmlns="http://www.w3.org/2000/svg" xmlns:xlink="http://www.w3.org/1999/xlink" x="0px" y="0px"
	 viewBox="0 0 100 100" enable-background="new 0 0 100 100" xml:space="preserve">
<g id="tests">
</g>
<g id="template">
</g>
<g id="resources">
</g>
<g id="recipes">
</g>
<g id="providers">
</g>
<g id="metadata">
</g>
<g id="libraries">
</g>
<g id="files">
</g>
<g id="definitions">
</g>
<g id="version">
	<g>
		<g>
			<g>
				<g>
					<path d="M71.5,42.1H40.1c-1.1,0-2-0.9-2-2V22.3c0-1.1,0.9-2,2-2h31.4c1.1,0,2,0.9,2,2V40C73.5,41.2,72.6,42.1,71.5,42.1
						L71.5,42.1z M42.2,38h27.3V24.4H42.2V38L42.2,38z"/>
				</g>
				<g>
					<g>
						<path d="M88.7,98.2H18.5c-2.3,0-4.1-1.8-4.1-4.1V5.9c0-2.3,1.8-4.1,4.1-4.1h70.2c2.3,0,4.1,1.8,4.1,4.1v88.3
							C92.8,96.4,91,98.2,88.7,98.2L88.7,98.2z M22.6,90h62V10h-62V90L22.6,90z"/>
					</g>
					<g>
						<path d="M25.6,26.4H11.3c-2.3,0-4.1-1.8-4.1-4.1s1.8-4.1,4.1-4.1h14.3c2.3,0,4.1,1.8,4.1,4.1S27.9,26.4,25.6,26.4L25.6,26.4z"
							/>
					</g>
					<g>
						<path d="M25.6,44.7H11.3c-2.3,0-4.1-1.8-4.1-4.1c0-2.3,1.8-4.1,4.1-4.1h14.3c2.3,0,4.1,1.8,4.1,4.1
							C29.7,42.9,27.9,44.7,25.6,44.7L25.6,44.7z"/>
					</g>
					<g>
						<path d="M25.6,63H11.3c-2.3,0-4.1-1.8-4.1-4.1c0-2.3,1.8-4.1,4.1-4.1h14.3c2.3,0,4.1,1.8,4.1,4.1C29.7,61.2,27.9,63,25.6,63
							L25.6,63z"/>
					</g>
					<g>
						<path d="M25.6,81.3H11.3c-2.3,0-4.1-1.8-4.1-4.1c0-2.3,1.8-4.1,4.1-4.1h14.3c2.3,0,4.1,1.8,4.1,4.1
							C29.7,79.4,27.9,81.3,25.6,81.3L25.6,81.3z"/>
					</g>
				</g>
			</g>
		</g>
		<path d="M59.3,78.8c-1.9,0-3.4,1.5-3.4,3.4c0,1.9,1.5,3.4,3.4,3.4c1.9,0,3.4-1.5,3.4-3.4C62.7,80.3,61.2,78.8,59.3,78.8L59.3,78.8
			z"/>
		<path d="M68.2,78.8c-1.9,0-3.4,1.5-3.4,3.4c0,1.9,1.5,3.4,3.4,3.4c1.9,0,3.4-1.5,3.4-3.4C71.6,80.3,70.1,78.8,68.2,78.8L68.2,78.8
			z"/>
		<path d="M77.1,78.8c-1.9,0-3.4,1.5-3.4,3.4c0,1.9,1.5,3.4,3.4,3.4c1.9,0,3.4-1.5,3.4-3.4C80.5,80.3,78.9,78.8,77.1,78.8L77.1,78.8
			z"/>
	</g>
</g>
<g id="cookbook">
</g>
<g id="attributes">
</g>
</svg>
