<?xml version="1.0" encoding="utf-8"?>
<!-- Generator: Adobe Illustrator 18.1.1, SVG Export Plug-In . SVG Version: 6.00 Build 0)  -->
<svg version="1.1" xmlns="http://www.w3.org/2000/svg" xmlns:xlink="http://www.w3.org/1999/xlink" x="0px" y="0px"
	 viewBox="0 0 100 100" enable-background="new 0 0 100 100" xml:space="preserve">
<g id="public_x5F_key">
</g>
<g id="private_x5F_key">
</g>
<g id="chef_x5F_user">
</g>
<g id="chef_x5F_role">
</g>
<g id="chef_x5F_organization">
</g>
<g id="chef_x5F_node">
</g>
<g id="chef_x5F_mirror">
</g>
<g id="chef_x5F_group">
</g>
<g id="chef_x5F_environment">
</g>
<g id="chef_x5F_data_x5F_bag">
</g>
<g id="chef_x5F_container">
</g>
<g id="chef_x5F_client">
</g>
<g id="chef_x5F_acl">
</g>
<g id="machine_x5F_image">
</g>
<g id="machine_x5F_file">
	<g>
		<g>
			<path d="M95.8,99.2H4.2C1.9,99.2,0,97.3,0,95V5c0-2.3,1.9-4.2,4.2-4.2h91.6c2.3,0,4.2,1.9,4.2,4.2v90
				C100,97.3,98.1,99.2,95.8,99.2L95.8,99.2z M8.4,90.8h83.1V9.2H8.4V90.8L8.4,90.8z"/>
		</g>
		<g>
			<g>
				<g>
					<path d="M33.4,62.6c-0.3,0-0.6-0.1-0.8-0.3c-0.4-0.3-0.6-0.7-0.6-1.2V31.6c0-0.6,0.4-1.2,1-1.4l16.7-6.3c0.5-0.2,1-0.1,1.4,0.2
						c0.4,0.3,0.6,0.7,0.6,1.2v29.5c0,0.6-0.4,1.2-1,1.4L34,62.5C33.8,62.6,33.6,62.6,33.4,62.6L33.4,62.6z M34.9,32.6V59l13.7-5.2
						V27.5L34.9,32.6L34.9,32.6z"/>
				</g>
				<g>
					<path d="M36.9,38.8c-0.3,0-0.6-0.2-0.7-0.5c-0.1-0.4,0-0.8,0.4-1l9.9-3.8c0.4-0.1,0.8,0,1,0.4c0.1,0.4,0,0.8-0.4,1l-9.9,3.8
						C37,38.8,37,38.8,36.9,38.8L36.9,38.8z"/>
				</g>
				<g>
					<path d="M36.9,48.4c-0.3,0-0.6-0.2-0.7-0.5c-0.1-0.4,0-0.8,0.4-1l9.9-3.8c0.4-0.1,0.8,0,1,0.4c0.1,0.4,0,0.8-0.4,1l-9.9,3.8
						C37,48.3,37,48.4,36.9,48.4L36.9,48.4z"/>
				</g>
				<g>
					<path d="M36.9,53.2c-0.3,0-0.6-0.2-0.7-0.5c-0.1-0.4,0-0.8,0.4-1l9.9-3.8c0.4-0.1,0.8,0,1,0.4c0.1,0.4,0,0.8-0.4,1l-9.9,3.8
						C37,53.1,37,53.2,36.9,53.2L36.9,53.2z"/>
				</g>
				<g>
					<path d="M36.9,43.6c-0.3,0-0.6-0.2-0.7-0.5c-0.1-0.4,0-0.8,0.4-1l9.9-3.8c0.4-0.1,0.8,0,1,0.4c0.1,0.4,0,0.8-0.4,1l-9.9,3.8
						C37,43.6,37,43.6,36.9,43.6L36.9,43.6z"/>
				</g>
			</g>
			<g>
				<g>
					<path d="M60.6,59.5c-0.4,0-0.7-0.3-0.7-0.7v-8.6c0-0.2,0.1-0.5,0.3-0.6c0.2-0.1,0.5-0.2,0.7-0.1l6.1,2.3c0.4,0.1,0.6,0.6,0.4,1
						c-0.1,0.4-0.6,0.6-1,0.4l-5.1-1.9v7.5C61.4,59.2,61,59.5,60.6,59.5L60.6,59.5z"/>
				</g>
				<g>
					<path d="M60.6,60.3c-0.2,0-0.4,0-0.5-0.1l-10.5-4c-0.6-0.2-1-0.8-1-1.4V25.3c0-0.5,0.2-0.9,0.6-1.2c0.4-0.3,0.9-0.3,1.4-0.2
						l16.6,6.3c0.6,0.2,1,0.8,1,1.4l0,20.9c0,0.4-0.2,0.8-0.4,1l-6.1,6.3C61.4,60.1,61,60.3,60.6,60.3L60.6,60.3z M51.6,53.8
						l8.7,3.3l5-5.2l0-19.2l-13.7-5.2V53.8L51.6,53.8z"/>
				</g>
				<g>
					<path d="M63.6,38.9c-0.1,0-0.2,0-0.3,0l-9.9-3.8c-0.4-0.1-0.6-0.6-0.4-1c0.1-0.4,0.6-0.6,1-0.4l9.9,3.8c0.4,0.1,0.6,0.6,0.4,1
						C64.2,38.7,63.9,38.9,63.6,38.9L63.6,38.9z"/>
				</g>
				<g>
					<path d="M63.6,48.5c-0.1,0-0.2,0-0.3,0l-9.9-3.8c-0.4-0.1-0.6-0.6-0.4-1c0.1-0.4,0.6-0.6,1-0.4l9.9,3.8c0.4,0.1,0.6,0.6,0.4,1
						C64.2,48.3,63.9,48.5,63.6,48.5L63.6,48.5z"/>
				</g>
				<g>
					<path d="M63.6,43.7c-0.1,0-0.2,0-0.3,0l-9.9-3.8c-0.4-0.1-0.6-0.6-0.4-1c0.1-0.4,0.6-0.6,1-0.4l9.9,3.8c0.4,0.1,0.6,0.6,0.4,1
						C64.2,43.5,63.9,43.7,63.6,43.7L63.6,43.7z"/>
				</g>
			</g>
		</g>
		<g>
			<path d="M82.1,69.8H17.9c-1.2,0-2.1-0.9-2.1-2.1v-49c0-1.2,0.9-2.1,2.1-2.1h64.2c1.2,0,2.1,0.9,2.1,2.1v49
				C84.2,68.8,83.3,69.8,82.1,69.8L82.1,69.8z M20,65.6h60V20.8H20V65.6L20,65.6z"/>
		</g>
	</g>
</g>
<g id="machine_x5F_execute">
</g>
<g id="machine_x5F_batch">
</g>
<g id="machine">
</g>
<g id="load_x5F_balancer">
</g>
</svg>
