<?xml version="1.0" encoding="utf-8"?>
<!-- Generator: Adobe Illustrator 18.1.1, SVG Export Plug-In . SVG Version: 6.00 Build 0)  -->
<svg version="1.1" xmlns="http://www.w3.org/2000/svg" xmlns:xlink="http://www.w3.org/1999/xlink" x="0px" y="0px"
	 viewBox="0 0 100 100" enable-background="new 0 0 100 100" xml:space="preserve">
<g id="deliver">
</g>
<g id="rehearse">
</g>
<g id="union">
</g>
<g id="publish">
</g>
<g id="accept">
</g>
<g id="build">
</g>
<g id="approve">
</g>
<g id="verify">
</g>
<g id="workstation">
</g>
<g id="tests">
</g>
<g id="secrets">
</g>
<g id="rules">
</g>
<g id="ruby_1_">
</g>
<g id="rubocop">
	<g>
		<path d="M92.2,47c0-1.7-0.6-3.2-2-4.3c-0.4-0.3-0.5-0.6-0.5-1c0-1,0-1.9,0-2.9c-0.1-2.7-1.9-4.9-4.5-5.8c-0.8-0.2-1.6-0.3-2.4-0.3
			H17.4c-0.4,0-0.8,0-1.2,0c-1.6,0.1-3.1,0.7-4.2,1.9c-1.2,1.2-1.7,2.6-1.8,4.3c0,1,0,1.9,0,2.9c0,0.3-0.1,0.6-0.4,0.8
			c-0.1,0.1-0.2,0.1-0.3,0.2c-1.2,1-1.8,2.3-1.8,3.8c0,2.9,0,5.8,0,8.8c0,0.4,0,0.7,0.1,1.1c0.3,1.2,1,2.2,2,3
			c0.3,0.2,0.4,0.4,0.4,0.7c0,1,0,2,0,3c0.1,2.9,2.1,5.3,5,6c0.6,0.1,1.3,0.2,2,0.2c21.9,0,43.7,0,65.6,0c0.3,0,0.5,0,0.8,0
			c2.7-0.2,4.7-1.5,5.8-4.1c0.3-0.8,0.4-1.6,0.4-2.4c0-0.8,0-1.7,0-2.5c0-0.4,0.1-0.7,0.5-1c1.4-1.1,2-2.5,2-4.3
			C92.2,52.4,92.3,49.7,92.2,47z M77.3,55.9c-0.3,0-0.5,0-0.8,0h-53c-0.4,0-0.9,0-1.3-0.1c-2.2-0.2-4-2.3-4-4.5
			c-0.1-2.4,1.7-4.4,3.8-4.7c0.5-0.1,1-0.1,1.5-0.1h12.1c13.7,0,27.4,0,41.1,0c0.6,0,1.1,0,1.7,0.1c2,0.3,3.6,2.3,3.7,4.3
			C82.1,53.3,80.2,55.8,77.3,55.9z"/>
		<path d="M49.9,30.9c-11.3,0-22.6,0-33.9,0c-1.4,0-1.2,0.1-1-1.2c1.6-9.3,6.2-16.8,13.7-22.6c3-2.3,6.2-3.9,9.7-5.2
			c2.7-1,5.6-1.5,8.4-1.8c3.2-0.3,6.4-0.1,9.5,0.4c5.6,1.1,10.7,3.3,15.2,6.8c4.6,3.6,8.1,8,10.5,13.3c1.2,2.7,2.1,5.6,2.6,8.5
			c0.1,0.4,0.2,0.9,0.2,1.3c0,0.2-0.1,0.3-0.3,0.3c-0.3,0-0.5,0-0.8,0C72.6,30.9,61.3,30.9,49.9,30.9z"/>
		<path d="M50,100c-5.9,0-11.7,0-17.6,0c-0.5,0-1.1,0-1.6,0c-5.7-0.4-9.9-3.2-12.7-8.2c-1.1-2-1.6-4.1-1.6-6.3c0-2.4,0-4.9,0-7.3
			c0-1.9,0-3.8,0-5.7c0-0.2,0-0.5,0-0.7c0-0.1,0.1-0.2,0.2-0.2c0.1,0,0.3,0,0.4,0c2.3,0,4.6,0,6.9,0c0.1,0,0.2,0,0.4,0
			c0.2,0,0.3,0.1,0.3,0.3c0,0.2,0,0.5,0,0.7c0,4.1,0,8.3,0,12.4c0,1.6,0.5,3.1,1.6,4.4c1.3,1.5,2.9,2.3,4.9,2.4c1.3,0.1,2.6,0,3.8,0
			c0.9,0,1.7-0.4,2.3-1.2c1.3-1.7,2.6-3.3,3.9-4.9c0.1-0.2,0.3-0.4,0.4-0.6c0.5-0.6,1.2-0.9,1.9-0.9c0.4,0,0.8,0,1.3,0
			c3.6,0,7.2,0,10.8,0c0.2,0,0.5,0,0.7,0c0.8,0,1.5,0.3,2,1c0.6,0.7,1.1,1.3,1.6,2c0.8,1,1.6,2.1,2.4,3.1c0.1,0.2,0.3,0.4,0.5,0.6
			c0.5,0.5,1.1,0.9,1.8,0.9c0.3,0,0.5,0,0.8,0c1,0,2,0,3,0c2.1-0.1,3.9-0.9,5.2-2.5c1-1.2,1.5-2.7,1.5-4.3c0-0.8,0-1.5,0-2.3
			c0-3.5,0-6.9,0-10.4c0-0.8,0-0.8,0.8-0.8c2.2,0,4.4,0,6.6,0c0.2,0,0.4,0,0.5,0c0.2,0,0.3,0.1,0.3,0.3c0,0.1,0,0.2,0,0.4
			c0,4.4,0,8.8,0,13.2c-0.1,4.2-1.7,7.7-4.7,10.6c-2.7,2.5-5.9,3.9-9.6,4.1c-0.5,0-1.1,0-1.6,0C61.8,100,55.9,100,50,100z"/>
		<path d="M50,74.5c3.8,0,7.6,0,11.3,0c0.2,0,0.4,0,0.5,0c0.4,0,0.6,0.1,0.8,0.4c0.8,1,1.6,1.9,2.4,2.8c0.1,0.1,0.2,0.3,0.4,0.4
			c0.2,0.3,0.2,0.4-0.1,0.6c-0.9,0.8-1.8,1.5-2.6,2.3c-0.2,0.2-0.3,0.2-0.5-0.1c-0.5-0.6-1-1.1-1.5-1.7c-0.3-0.4-0.6-0.5-1.1-0.5
			c-0.6,0-1.2,0-1.8,0c-5.7,0-11.4,0-17.1,0c-0.1,0-0.2,0-0.4,0c-1.1,0-0.8-0.1-1.6,0.7c-0.4,0.4-0.8,0.9-1.2,1.3
			c-0.3,0.4-0.3,0.4-0.8,0c-0.8-0.7-1.6-1.3-2.4-2c-0.4-0.4-0.4-0.4-0.1-0.8c0.2-0.3,0.5-0.6,0.8-0.9c0.6-0.7,1.3-1.4,1.9-2.2
			c0.3-0.4,0.6-0.6,1.1-0.5c0.1,0,0.3,0,0.4,0C42.5,74.5,46.2,74.5,50,74.5z"/>
	</g>
</g>
<g id="resources">
</g>
<g id="reports">
</g>
<g id="recipes">
</g>
<g id="recipe">
</g>
<g id="recipe_x5F_dsl">
</g>
<g id="policygroup">
</g>
<g id="policyfile">
</g>
<g id="knife">
</g>
<g id="kitchen">
</g>
<g id="foodcritic">
</g>
<g id="development_x5F_kit">
</g>
<g id="cookbooks">
</g>
<g id="controls">
</g>
<g id="config-rb">
</g>
<g id="ci">
</g>
<g id="chef_x5F_repo">
</g>
<g id="chefspec">
</g>
<g id="cd">
</g>
</svg>
