<?xml version="1.0" encoding="utf-8"?>
<!-- Generator: Adobe Illustrator 18.1.1, SVG Export Plug-In . SVG Version: 6.00 Build 0)  -->
<svg version="1.1" xmlns="http://www.w3.org/2000/svg" xmlns:xlink="http://www.w3.org/1999/xlink" x="0px" y="0px"
	 viewBox="0 0 100 100" enable-background="new 0 0 100 100" xml:space="preserve">
<g id="deliver">
</g>
<g id="rehearse">
</g>
<g id="union">
</g>
<g id="publish">
</g>
<g id="accept">
</g>
<g id="build">
</g>
<g id="approve">
</g>
<g id="verify">
	<g>
		<g>
			<g>
				<path d="M78.2,100H21.8c-4.2,0-7.7-3.8-7.7-8.4V28.9c0-4.6,3.5-8.4,7.7-8.4h56.3c4.2,0,7.7,3.8,7.7,8.4v62.7
					C85.9,96.2,82.4,100,78.2,100L78.2,100z M78.2,91.6v4.2V91.6L78.2,91.6L78.2,91.6z M21.8,28.9v62.7h56.3l0-62.7H21.8L21.8,28.9z
					"/>
			</g>
			<g>
				<path d="M63.9,38.7c-2.1,0-3.8-1.9-3.8-4.2V8.4H39.9v26.1c0,2.3-1.7,4.2-3.8,4.2c-2.1,0-3.8-1.9-3.8-4.2V8.4
					c0-4.6,3.5-8.4,7.7-8.4h20.2c4.2,0,7.7,3.8,7.7,8.4v26.1C67.8,36.8,66.1,38.7,63.9,38.7L63.9,38.7z"/>
			</g>
		</g>
		<g>
			<g>
				<path d="M64.6,51.9h-30c-1.3,0-2.3-1-2.3-2.3c0-1.3,1-2.3,2.3-2.3h30c1.3,0,2.3,1,2.3,2.3C66.9,50.8,65.8,51.9,64.6,51.9
					L64.6,51.9z"/>
			</g>
			<g>
				<path d="M64.6,66h-30c-1.3,0-2.3-1-2.3-2.3c0-1.3,1-2.3,2.3-2.3h30c1.3,0,2.3,1,2.3,2.3C66.9,65,65.8,66,64.6,66L64.6,66z"/>
			</g>
			<g>
				<path d="M64.6,80.1h-30c-1.3,0-2.3-1-2.3-2.3c0-1.3,1-2.3,2.3-2.3h30c1.3,0,2.3,1,2.3,2.3C66.9,79.1,65.8,80.1,64.6,80.1
					L64.6,80.1z"/>
			</g>
		</g>
	</g>
</g>
<g id="workstation">
</g>
<g id="tests">
</g>
<g id="secrets">
</g>
<g id="rules">
</g>
<g id="ruby_1_">
</g>
<g id="rubocop">
</g>
<g id="resources">
</g>
<g id="reports">
</g>
<g id="recipes">
</g>
<g id="recipe">
</g>
<g id="recipe_x5F_dsl">
</g>
<g id="policygroup">
</g>
<g id="policyfile">
</g>
<g id="knife">
</g>
<g id="kitchen">
</g>
<g id="foodcritic">
</g>
<g id="development_x5F_kit">
</g>
<g id="cookbooks">
</g>
<g id="controls">
</g>
<g id="config-rb">
</g>
<g id="ci">
</g>
<g id="chef_x5F_repo">
</g>
<g id="chefspec">
</g>
<g id="cd">
</g>
</svg>
