<?xml version="1.0" encoding="utf-8"?>
<!-- Generator: Adobe Illustrator 18.1.1, SVG Export Plug-In . SVG Version: 6.00 Build 0)  -->
<svg version="1.1" xmlns="http://www.w3.org/2000/svg" xmlns:xlink="http://www.w3.org/1999/xlink" x="0px" y="0px"
	 viewBox="0 0 100 100" enable-background="new 0 0 100 100" xml:space="preserve">
<g id="yum">
</g>
<g id="windows_x5F_service">
</g>
<g id="windows">
</g>
<g id="subversion">
</g>
<g id="solaris">
</g>
<g id="smartos">
</g>
<g id="ruby">
</g>
<g id="rpm">
</g>
<g id="route">
</g>
<g id="registry_x5F_key">
</g>
<g id="reboot">
</g>
<g id="python">
</g>
<g id="powershell">
</g>
<g id="portage">
</g>
<g id="perl">
</g>
<g id="paludis">
</g>
<g id="pacman">
</g>
<g id="openbsd">
</g>
<g id="ohai">
</g>
<g id="mount">
</g>
<g id="mdadm">
</g>
<g id="macports">
</g>
<g id="ips">
</g>
<g id="ifconfig">
</g>
<g id="http_x5F_request">
</g>
<g id="homebrew">
</g>
<g id="git">
</g>
<g id="freebsd">
</g>
<g id="erlang_x5F_call">
</g>
<g id="env">
</g>
<g id="easy_x5F_install">
</g>
<g id="dsc_x5F_script">
</g>
<g id="dsc_x5F_resource">
</g>
<g id="dpkg">
</g>
<g id="csh">
</g>
<g id="chef_x5F_handler">
	<g>
		<g>
			<g>
				<path d="M72.3,41.8H39.7c-1.2,0-2.1-0.9-2.1-2.1V21.3c0-1.2,0.9-2.1,2.1-2.1h32.5c1.2,0,2.1,0.9,2.1,2.1v18.4
					C74.4,40.9,73.4,41.8,72.3,41.8L72.3,41.8z M41.9,37.6h28.3V23.4H41.9V37.6L41.9,37.6z"/>
			</g>
			<g>
				<g>
					<path d="M90.1,100H17.3c-2.3,0-4.2-1.9-4.2-4.2V4.2C13.1,1.9,15,0,17.3,0h72.8c2.3,0,4.2,1.9,4.2,4.2v91.5
						C94.4,98.1,92.5,100,90.1,100L90.1,100z M21.6,91.5h64.3v-83H21.6V91.5L21.6,91.5z"/>
				</g>
				<g>
					<path d="M24.7,25.6H9.9c-2.3,0-4.2-1.9-4.2-4.2s1.9-4.2,4.2-4.2h14.9c2.3,0,4.2,1.9,4.2,4.2S27.1,25.6,24.7,25.6L24.7,25.6z"/>
				</g>
				<g>
					<path d="M24.7,44.5H9.9c-2.3,0-4.2-1.9-4.2-4.2c0-2.3,1.9-4.2,4.2-4.2h14.9c2.3,0,4.2,1.9,4.2,4.2C29,42.6,27.1,44.5,24.7,44.5
						L24.7,44.5z"/>
				</g>
				<g>
					<path d="M24.7,63.5H9.9c-2.3,0-4.2-1.9-4.2-4.2c0-2.3,1.9-4.2,4.2-4.2h14.9c2.3,0,4.2,1.9,4.2,4.2C29,61.6,27.1,63.5,24.7,63.5
						L24.7,63.5z"/>
				</g>
				<g>
					<path d="M24.7,82.4H9.9c-2.3,0-4.2-1.9-4.2-4.2c0-2.3,1.9-4.2,4.2-4.2h14.9c2.3,0,4.2,1.9,4.2,4.2C29,80.5,27.1,82.4,24.7,82.4
						L24.7,82.4z"/>
				</g>
			</g>
		</g>
		<g>
			<g>
				<path d="M72.7,69.7c-0.3,0-0.6-0.1-0.9-0.4c-0.5-0.5-0.5-1.3,0-1.8l4-4l-4-4c-0.5-0.5-0.5-1.3,0-1.8c0.5-0.5,1.3-0.5,1.8,0
					l4.9,4.9c0.5,0.5,0.5,1.3,0,1.8l-4.9,4.9C73.4,69.6,73,69.7,72.7,69.7L72.7,69.7z"/>
			</g>
			<g>
				<path d="M76,86.2H54.9c-2.6,0-4.7-2.1-4.7-4.7V66.9c0-2.6,2.1-4.7,4.7-4.7h7.8c0.7,0,1.2,0.5,1.2,1.2c0,0.7-0.5,1.2-1.2,1.2
					h-7.8c-1.3,0-2.4,1.1-2.4,2.4v14.5c0,1.3,1.1,2.4,2.4,2.4H76c1.3,0,2.4-1.1,2.4-2.4V66.9c0-0.7,0.5-1.2,1.2-1.2
					c0.7,0,1.2,0.5,1.2,1.2v14.5C80.8,84,78.6,86.2,76,86.2L76,86.2z"/>
			</g>
			<g>
				<path d="M56,81.3c-0.1,0-0.2,0-0.2,0c-0.7-0.1-1.1-0.8-1-1.5c2-10.2,10.8-17.5,21.1-17.5c0.7,0,1.3,0.6,1.3,1.3
					c0,0.7-0.6,1.3-1.3,1.3c-9.1,0-16.9,6.5-18.6,15.5C57.1,80.9,56.6,81.3,56,81.3L56,81.3z"/>
			</g>
		</g>
	</g>
</g>
<g id="breakpoint">
</g>
<g id="bff">
</g>
<g id="batch">
</g>
<g id="apt">
</g>
</svg>
