<?xml version="1.0" encoding="utf-8"?>
<!-- Generator: Adobe Illustrator 18.1.1, SVG Export Plug-In . SVG Version: 6.00 Build 0)  -->
<svg version="1.1" xmlns="http://www.w3.org/2000/svg" xmlns:xlink="http://www.w3.org/1999/xlink" x="0px" y="0px"
	 viewBox="0 0 100 100" enable-background="new 0 0 100 100" xml:space="preserve">
<g id="user">
</g>
<g id="template">
</g>
<g id="service">
</g>
<g id="script">
</g>
<g id="ruby_x5F_block">
</g>
<g id="remote_x5F_file">
</g>
<g id="remote_x5F_directory_1_">
</g>
<g id="package">
</g>
<g id="log">
	<g>
		<g>
			<path d="M94.9,8.7H5.1c-2.4,0-4.3-1.9-4.3-4.3S2.7,0,5.1,0h89.9c2.4,0,4.3,1.9,4.3,4.3S97.3,8.7,94.9,8.7L94.9,8.7z"/>
		</g>
		<g>
			<path d="M94.9,31.5H5.1c-2.4,0-4.3-1.9-4.3-4.3s1.9-4.3,4.3-4.3h89.9c2.4,0,4.3,1.9,4.3,4.3S97.3,31.5,94.9,31.5L94.9,31.5z"/>
		</g>
		<g>
			<path d="M94.9,54.3H5.1c-2.4,0-4.3-1.9-4.3-4.3s1.9-4.3,4.3-4.3h89.9c2.4,0,4.3,1.9,4.3,4.3S97.3,54.3,94.9,54.3L94.9,54.3z"/>
		</g>
		<g>
			<path d="M94.9,77.2H5.1c-2.4,0-4.3-1.9-4.3-4.3s1.9-4.3,4.3-4.3h89.9c2.4,0,4.3,1.9,4.3,4.3S97.3,77.2,94.9,77.2L94.9,77.2z"/>
		</g>
		<g>
			<path d="M94.9,100H5.1c-2.4,0-4.3-1.9-4.3-4.3c0-2.4,1.9-4.3,4.3-4.3h89.9c2.4,0,4.3,1.9,4.3,4.3C99.3,98.1,97.3,100,94.9,100
				L94.9,100z"/>
		</g>
	</g>
</g>
<g id="link">
</g>
<g id="group">
</g>
<g id="gem">
</g>
<g id="file">
</g>
<g id="execute">
</g>
<g id="directory">
</g>
<g id="deploy">
</g>
<g id="cron">
</g>
<g id="cookbook_x5F_file">
</g>
<g id="chef_x5F_gem">
</g>
<g id="bash">
</g>
</svg>
