<?xml version="1.0" encoding="utf-8"?>
<!-- Generator: Adobe Illustrator 18.1.1, SVG Export Plug-In . SVG Version: 6.00 Build 0)  -->
<svg version="1.1" xmlns="http://www.w3.org/2000/svg" xmlns:xlink="http://www.w3.org/1999/xlink" x="0px" y="0px"
	 viewBox="0 0 100 100" enable-background="new 0 0 100 100" xml:space="preserve">
<g id="virtual-platform">
	<g>
		<g>
			<g>
				<g>
					<path d="M64.7,77.1H35.6c-1.3,0-2.3-1-2.3-2.3V45.6c0-1.3,1-2.3,2.3-2.3h29.1c1.3,0,2.3,1,2.3,2.3v29.1
						C67,76,66,77.1,64.7,77.1L64.7,77.1z M37.9,72.4h24.5V48H37.9V72.4L37.9,72.4z"/>
				</g>
				<g>
					<g>
						<path d="M24,80.3c-0.6,0-1.2-0.5-1.2-1.2v-38c0-0.6,0.5-1.2,1.2-1.2c0.6,0,1.2,0.5,1.2,1.2v38C25.1,79.8,24.6,80.3,24,80.3
							L24,80.3z"/>
					</g>
					<g>
						<path d="M29.2,77.8c-0.6,0-1.2-0.5-1.2-1.2V43.8c0-0.6,0.5-1.2,1.2-1.2c0.6,0,1.2,0.5,1.2,1.2v32.9
							C30.3,77.3,29.8,77.8,29.2,77.8L29.2,77.8z"/>
					</g>
					<g>
						<path d="M76.4,80.3c-0.6,0-1.2-0.5-1.2-1.2v-38c0-0.6,0.5-1.2,1.2-1.2c0.6,0,1.2,0.5,1.2,1.2v38C77.5,79.8,77,80.3,76.4,80.3
							L76.4,80.3z"/>
					</g>
					<g>
						<path d="M71.2,77.8c-0.6,0-1.2-0.5-1.2-1.2V43.8c0-0.6,0.5-1.2,1.2-1.2c0.6,0,1.2,0.5,1.2,1.2v32.9
							C72.3,77.3,71.8,77.8,71.2,77.8L71.2,77.8z"/>
					</g>
				</g>
			</g>
			<g>
				<path d="M92.5,100h-85c-2.3,0-4.2-1.9-4.2-4.2V24.9c0-2.3,1.9-4.2,4.2-4.2h85c2.3,0,4.2,1.9,4.2,4.2v70.8
					C96.7,98.1,94.8,100,92.5,100L92.5,100z M11.7,91.5h76.5V29.2H11.7V91.5L11.7,91.5z"/>
			</g>
		</g>
		<g>
			<path d="M87.1,14.2H12.9c-1.2,0-2.1-0.9-2.1-2.1c0-1.2,0.9-2.1,2.1-2.1h74.2c1.2,0,2.1,0.9,2.1,2.1
				C89.2,13.2,88.3,14.2,87.1,14.2L87.1,14.2z"/>
		</g>
		<g>
			<path d="M78.6,4.2H21.4c-1.2,0-2.1-0.9-2.1-2.1c0-1.2,0.9-2.1,2.1-2.1h57.3c1.2,0,2.1,0.9,2.1,2.1C80.8,3.3,79.8,4.2,78.6,4.2
				L78.6,4.2z"/>
		</g>
	</g>
</g>
<g id="virtual-machine">
</g>
<g id="storage-device">
</g>
<g id="server_1_">
</g>
<g id="public-cloud">
</g>
<g id="private-cloud">
</g>
<g id="platform">
</g>
<g id="network-device">
</g>
<g id="middleware">
</g>
<g id="container">
</g>
<g id="bare-metal">
</g>
<g id="application">
</g>
<g id="node">
</g>
</svg>
