<?xml version="1.0" encoding="utf-8"?>
<!-- Generator: Adobe Illustrator 18.1.1, SVG Export Plug-In . SVG Version: 6.00 Build 0)  -->
<svg version="1.1" xmlns="http://www.w3.org/2000/svg" xmlns:xlink="http://www.w3.org/1999/xlink" x="0px" y="0px"
	 viewBox="0 0 100 100" enable-background="new 0 0 100 100" xml:space="preserve">
<g id="user">
</g>
<g id="template">
</g>
<g id="service">
</g>
<g id="script">
</g>
<g id="ruby_x5F_block">
</g>
<g id="remote_x5F_file">
</g>
<g id="remote_x5F_directory_1_">
</g>
<g id="package">
</g>
<g id="log">
</g>
<g id="link">
	<g>
		<g>
			<path d="M31.1,73.1c-1.1,0-2.1-0.4-3-1.2c-1.6-1.6-1.6-4.3,0-5.9l36.6-36.6c1.6-1.6,4.3-1.6,5.9,0c1.6,1.6,1.6,4.3,0,5.9
				L34.1,71.8C33.3,72.7,32.2,73.1,31.1,73.1L31.1,73.1z"/>
		</g>
		<g>
			<path d="M67.2,56.5c-0.7,0-1.4,0-2-0.1c-2.3-0.2-4-2.2-3.8-4.5c0.2-2.3,2.3-4,4.5-3.8c4.2,0.4,8.2-1.1,11.1-4l10.4-10.4
				c5.5-5.5,5.5-14.4,0-19.9l-1.2-1.2C80.8,7,71.9,7,66.4,12.5L56,22.9c-2.9,2.9-4.4,7-4,11.1c0.2,2.3-1.5,4.3-3.8,4.5
				c-2.3,0.2-4.3-1.5-4.5-3.8C43,28.2,45.4,21.7,50.1,17L60.5,6.6c8.7-8.8,23-8.8,31.8,0l1.2,1.2c8.8,8.8,8.8,23,0,31.8L83,50
				C78.8,54.1,73.2,56.5,67.2,56.5L67.2,56.5z"/>
		</g>
		<g>
			<path d="M23.6,100c-5.8,0-11.5-2.2-15.9-6.6l-1.2-1.2C2.3,88,0,82.4,0,76.4c0-6,2.3-11.6,6.6-15.9L17,50.1
				c4.7-4.7,11.1-7,17.8-6.4c2.3,0.2,4,2.2,3.8,4.5c-0.2,2.3-2.2,4-4.5,3.8c-4.1-0.4-8.2,1.1-11.1,4L12.5,66.4
				c-2.7,2.7-4.1,6.2-4.1,10c0,3.8,1.5,7.3,4.1,10l1.2,1.2c5.5,5.5,14.4,5.5,19.9,0L44,77.1c2.9-2.9,4.4-7,4-11.1
				c-0.2-2.3,1.5-4.3,3.8-4.5c2.3-0.2,4.3,1.5,4.5,3.8C57,71.8,54.6,78.3,50,83L39.5,93.4C35.2,97.8,29.4,100,23.6,100L23.6,100z"/>
		</g>
	</g>
</g>
<g id="group">
</g>
<g id="gem">
</g>
<g id="file">
</g>
<g id="execute">
</g>
<g id="directory">
</g>
<g id="deploy">
</g>
<g id="cron">
</g>
<g id="cookbook_x5F_file">
</g>
<g id="chef_x5F_gem">
</g>
<g id="bash">
</g>
</svg>
