<?xml version="1.0" encoding="utf-8"?>
<!-- Generator: Adobe Illustrator 18.1.1, SVG Export Plug-In . SVG Version: 6.00 Build 0)  -->
<svg version="1.1" xmlns="http://www.w3.org/2000/svg" xmlns:xlink="http://www.w3.org/1999/xlink" x="0px" y="0px"
	 viewBox="0 0 100 100" enable-background="new 0 0 100 100" xml:space="preserve">
<g id="supermarket">
</g>
<g id="server">
</g>
<g id="push-jobs">
</g>
<g id="ohai">
	<g>
		<g>
			<path d="M4.3,100C1.9,100,0,98.1,0,95.8V58.2C0,55.9,1.9,54,4.3,54s4.3,1.9,4.3,4.2v37.7C8.5,98.1,6.6,100,4.3,100L4.3,100z"/>
		</g>
		<g>
			<path d="M22.6,100c-2.4,0-4.3-1.9-4.3-4.2V21.7c0-2.3,1.9-4.2,4.3-4.2c2.4,0,4.3,1.9,4.3,4.2v74.1C26.8,98.1,24.9,100,22.6,100
				L22.6,100z"/>
		</g>
		<g>
			<path d="M40.8,100c-2.4,0-4.3-1.9-4.3-4.2V4.2c0-2.3,1.9-4.2,4.3-4.2c2.4,0,4.3,1.9,4.3,4.2v91.7C45.1,98.1,43.2,100,40.8,100
				L40.8,100z"/>
		</g>
		<g>
			<path d="M59.2,100c-2.4,0-4.3-1.9-4.3-4.2V36.3c0-2.3,1.9-4.2,4.3-4.2c2.4,0,4.3,1.9,4.3,4.2v59.6C63.4,98.1,61.5,100,59.2,100
				L59.2,100z"/>
		</g>
		<g>
			<path d="M95.7,100c-2.4,0-4.3-1.9-4.3-4.2V75.2c0-2.3,1.9-4.2,4.3-4.2c2.4,0,4.3,1.9,4.3,4.2v20.7C100,98.1,98.1,100,95.7,100
				L95.7,100z"/>
		</g>
		<g>
			<path d="M77.4,100c-2.4,0-4.3-1.9-4.3-4.2V4.2c0-2.3,1.9-4.2,4.3-4.2c2.4,0,4.3,1.9,4.3,4.2v91.7C81.7,98.1,79.8,100,77.4,100
				L77.4,100z"/>
		</g>
	</g>
</g>
<g id="manage">
</g>
<g id="delivery">
</g>
<g id="dk">
</g>
<g id="community">
</g>
<g id="client">
</g>
<g id="analytics">
</g>
</svg>
