<?xml version="1.0" encoding="utf-8"?>
<!-- Generator: Adobe Illustrator 18.1.1, SVG Export Plug-In . SVG Version: 6.00 Build 0)  -->
<svg version="1.1" xmlns="http://www.w3.org/2000/svg" xmlns:xlink="http://www.w3.org/1999/xlink" x="0px" y="0px"
	 viewBox="0 0 100 100" enable-background="new 0 0 100 100" xml:space="preserve">
<g id="tests">
</g>
<g id="template">
</g>
<g id="resources">
</g>
<g id="recipes">
</g>
<g id="providers">
</g>
<g id="metadata">
</g>
<g id="libraries">
</g>
<g id="files">
</g>
<g id="definitions">
</g>
<g id="version">
</g>
<g id="cookbook">
</g>
<g id="attributes">
	<g>
		<g>
			<g>
				<g>
					<path d="M59.1,72.6c-3.9,0-7.1-3.2-7.1-7.1c0-3.9,3.2-7.1,7.1-7.1c3.9,0,7.1,3.2,7.1,7.1C66.2,69.4,63.1,72.6,59.1,72.6
						L59.1,72.6z M59.1,60.8c-2.6,0-4.7,2.1-4.7,4.7c0,2.6,2.1,4.7,4.7,4.7c2.6,0,4.7-2.1,4.7-4.7C63.9,62.9,61.8,60.8,59.1,60.8
						L59.1,60.8z"/>
				</g>
				<g>
					<g>
						<path d="M54.7,62.2c-0.3,0-0.6-0.1-0.8-0.3l-1.6-1.6c-0.5-0.5-0.5-1.2,0-1.7c0.5-0.5,1.2-0.5,1.7,0l1.6,1.6
							c0.5,0.5,0.5,1.2,0,1.7C55.3,62.1,55,62.2,54.7,62.2L54.7,62.2z"/>
					</g>
					<g>
						<path d="M65.2,72.8c-0.3,0-0.6-0.1-0.8-0.3l-1.9-1.9c-0.5-0.5-0.5-1.2,0-1.7c0.5-0.5,1.2-0.5,1.7,0l1.9,1.9
							c0.5,0.5,0.5,1.2,0,1.7C65.8,72.7,65.5,72.8,65.2,72.8L65.2,72.8z"/>
					</g>
				</g>
				<g>
					<g>
						<path d="M63.6,62.2c-0.3,0-0.6-0.1-0.8-0.3c-0.5-0.5-0.5-1.2,0-1.7l1.6-1.6c0.5-0.5,1.2-0.5,1.7,0c0.5,0.5,0.5,1.2,0,1.7
							l-1.6,1.6C64.2,62.1,63.9,62.2,63.6,62.2L63.6,62.2z"/>
					</g>
					<g>
						<path d="M53.1,72.8c-0.3,0-0.6-0.1-0.8-0.3c-0.5-0.5-0.5-1.2,0-1.7l1.9-1.9c0.5-0.5,1.2-0.5,1.7,0c0.5,0.5,0.5,1.2,0,1.7
							l-1.9,1.9C53.7,72.7,53.4,72.8,53.1,72.8L53.1,72.8z"/>
					</g>
				</g>
				<g>
					<g>
						<path d="M59.2,60.4c-0.7,0-1.2-0.5-1.2-1.2v-2.3c0-0.6,0.5-1.2,1.2-1.2c0.6,0,1.2,0.5,1.2,1.2v2.3
							C60.3,59.9,59.8,60.4,59.2,60.4L59.2,60.4z"/>
					</g>
					<g>
						<path d="M59.1,75.3L59.1,75.3c-0.7,0-1.2-0.5-1.2-1.2l0-2.7c0-0.6,0.5-1.2,1.2-1.2l0,0c0.7,0,1.2,0.5,1.2,1.2l0,2.7
							C60.3,74.8,59.8,75.3,59.1,75.3L59.1,75.3z"/>
					</g>
				</g>
				<g>
					<g>
						<path d="M67.8,66.7h-2.3c-0.7,0-1.2-0.5-1.2-1.2c0-0.6,0.5-1.2,1.2-1.2h2.3c0.6,0,1.2,0.5,1.2,1.2
							C68.9,66.2,68.4,66.7,67.8,66.7L67.8,66.7z"/>
					</g>
					<g>
						<path d="M53.3,66.7h-2.7c-0.7,0-1.2-0.5-1.2-1.2c0-0.6,0.5-1.2,1.2-1.2h2.7c0.7,0,1.2,0.5,1.2,1.2
							C54.5,66.2,53.9,66.7,53.3,66.7L53.3,66.7z"/>
					</g>
				</g>
			</g>
			<g>
				<g>
					<path d="M75.6,80.5c-3,0-5.4-2.4-5.4-5.4c0-3,2.4-5.4,5.4-5.4c3,0,5.4,2.4,5.4,5.4C81,78.1,78.6,80.5,75.6,80.5L75.6,80.5z
						 M75.6,71.6c-2,0-3.6,1.6-3.6,3.6c0,2,1.6,3.6,3.6,3.6c2,0,3.6-1.6,3.6-3.6C79.2,73.2,77.6,71.6,75.6,71.6L75.6,71.6z"/>
				</g>
				<g>
					<g>
						<path d="M72.2,72.7c-0.2,0-0.5-0.1-0.6-0.3l-1.2-1.2c-0.3-0.3-0.3-0.9,0-1.3c0.3-0.3,0.9-0.3,1.3,0l1.2,1.2
							c0.3,0.3,0.3,0.9,0,1.3C72.7,72.6,72.5,72.7,72.2,72.7L72.2,72.7z"/>
					</g>
					<g>
						<path d="M80.2,80.7c-0.2,0-0.5-0.1-0.6-0.3l-1.5-1.5c-0.3-0.4-0.3-0.9,0-1.3c0.3-0.3,0.9-0.3,1.3,0l1.5,1.5
							c0.3,0.4,0.3,0.9,0,1.3C80.7,80.6,80.5,80.7,80.2,80.7L80.2,80.7z"/>
					</g>
				</g>
				<g>
					<g>
						<path d="M79,72.7c-0.2,0-0.5-0.1-0.6-0.3c-0.3-0.3-0.3-0.9,0-1.3l1.2-1.2c0.3-0.3,0.9-0.3,1.3,0c0.3,0.3,0.3,0.9,0,1.3
							l-1.2,1.2C79.4,72.6,79.2,72.7,79,72.7L79,72.7z"/>
					</g>
					<g>
						<path d="M71,80.7c-0.2,0-0.5-0.1-0.6-0.3c-0.3-0.3-0.3-0.9,0-1.3l1.5-1.5c0.3-0.3,0.9-0.3,1.3,0c0.3,0.3,0.3,0.9,0,1.3
							l-1.5,1.5C71.4,80.6,71.2,80.7,71,80.7L71,80.7z"/>
					</g>
				</g>
				<g>
					<g>
						<path d="M75.6,71.3c-0.5,0-0.9-0.4-0.9-0.9v-1.8c0-0.5,0.4-0.9,0.9-0.9c0.5,0,0.9,0.4,0.9,0.9v1.8
							C76.5,70.9,76.1,71.3,75.6,71.3L75.6,71.3z"/>
					</g>
					<g>
						<path d="M75.6,82.6L75.6,82.6c-0.5,0-0.9-0.4-0.9-0.9l0-2.1c0-0.5,0.4-0.9,0.9-0.9l0,0c0.5,0,0.9,0.4,0.9,0.9l0,2.1
							C76.5,82.2,76.1,82.6,75.6,82.6L75.6,82.6z"/>
					</g>
				</g>
				<g>
					<g>
						<path d="M82.2,76.1h-1.8c-0.5,0-0.9-0.4-0.9-0.9c0-0.5,0.4-0.9,0.9-0.9h1.8c0.5,0,0.9,0.4,0.9,0.9
							C83.1,75.7,82.6,76.1,82.2,76.1L82.2,76.1z"/>
					</g>
					<g>
						<path d="M71.1,76.1h-2.1c-0.5,0-0.9-0.4-0.9-0.9c0-0.5,0.4-0.9,0.9-0.9h2.1c0.5,0,0.9,0.4,0.9,0.9
							C72,75.7,71.6,76.1,71.1,76.1L71.1,76.1z"/>
					</g>
				</g>
			</g>
			<g>
				<g>
					<path d="M62.6,85.6c-2.2,0-3.9-1.8-3.9-3.9c0-2.2,1.8-3.9,3.9-3.9c2.2,0,3.9,1.8,3.9,3.9C66.5,83.8,64.7,85.6,62.6,85.6
						L62.6,85.6z M62.6,79.1c-1.4,0-2.6,1.2-2.6,2.6c0,1.4,1.2,2.6,2.6,2.6c1.4,0,2.6-1.2,2.6-2.6C65.2,80.2,64,79.1,62.6,79.1
						L62.6,79.1z"/>
				</g>
				<g>
					<g>
						<path d="M60.1,79.9c-0.2,0-0.3-0.1-0.5-0.2l-0.9-0.9c-0.3-0.3-0.3-0.7,0-0.9c0.3-0.3,0.7-0.3,0.9,0l0.9,0.9
							c0.3,0.3,0.3,0.7,0,0.9C60.5,79.8,60.3,79.9,60.1,79.9L60.1,79.9z"/>
					</g>
					<g>
						<path d="M66,85.7c-0.2,0-0.3-0.1-0.5-0.2l-1.1-1.1c-0.3-0.3-0.3-0.7,0-0.9c0.3-0.3,0.7-0.3,0.9,0l1.1,1.1
							c0.3,0.3,0.3,0.7,0,0.9C66.3,85.6,66.1,85.7,66,85.7L66,85.7z"/>
					</g>
				</g>
				<g>
					<g>
						<path d="M65.1,79.9c-0.2,0-0.3-0.1-0.5-0.2c-0.3-0.3-0.3-0.7,0-0.9l0.9-0.9c0.3-0.3,0.7-0.3,0.9,0c0.3,0.3,0.3,0.7,0,0.9
							l-0.9,0.9C65.4,79.8,65.2,79.9,65.1,79.9L65.1,79.9z"/>
					</g>
					<g>
						<path d="M59.2,85.7c-0.2,0-0.3-0.1-0.5-0.2c-0.3-0.3-0.3-0.7,0-0.9l1.1-1.1c0.3-0.3,0.7-0.3,0.9,0c0.3,0.3,0.3,0.7,0,0.9
							l-1.1,1.1C59.6,85.6,59.4,85.7,59.2,85.7L59.2,85.7z"/>
					</g>
				</g>
				<g>
					<g>
						<path d="M62.6,78.9c-0.4,0-0.7-0.3-0.7-0.7v-1.3c0-0.4,0.3-0.7,0.7-0.7c0.4,0,0.7,0.3,0.7,0.7v1.3
							C63.2,78.6,63,78.9,62.6,78.9L62.6,78.9z"/>
					</g>
					<g>
						<path d="M62.6,87.1L62.6,87.1c-0.4,0-0.7-0.3-0.7-0.7l0-1.5c0-0.4,0.3-0.6,0.7-0.6l0,0c0.4,0,0.7,0.3,0.7,0.7l0,1.5
							C63.2,86.8,62.9,87.1,62.6,87.1L62.6,87.1z"/>
					</g>
				</g>
				<g>
					<g>
						<path d="M67.4,82.3h-1.3c-0.4,0-0.7-0.3-0.7-0.7c0-0.4,0.3-0.7,0.7-0.7h1.3c0.4,0,0.7,0.3,0.7,0.7C68,82,67.7,82.3,67.4,82.3
							L67.4,82.3z"/>
					</g>
					<g>
						<path d="M59.3,82.3h-1.5c-0.4,0-0.7-0.3-0.7-0.7c0-0.4,0.3-0.7,0.7-0.7h1.5c0.4,0,0.7,0.3,0.7,0.7C60,82,59.7,82.3,59.3,82.3
							L59.3,82.3z"/>
					</g>
				</g>
			</g>
		</g>
		<g>
			<g>
				<path d="M72.3,41.8H39.7c-1.2,0-2.1-0.9-2.1-2.1V21.3c0-1.2,0.9-2.1,2.1-2.1h32.5c1.2,0,2.1,0.9,2.1,2.1v18.4
					C74.4,40.9,73.4,41.8,72.3,41.8L72.3,41.8z M41.9,37.6h28.3V23.4H41.9V37.6L41.9,37.6z"/>
			</g>
			<g>
				<g>
					<path d="M90.1,100H17.3c-2.3,0-4.2-1.9-4.2-4.2V4.2C13.1,1.9,15,0,17.3,0h72.8c2.3,0,4.2,1.9,4.2,4.2v91.5
						C94.4,98.1,92.5,100,90.1,100L90.1,100z M21.6,91.5h64.3v-83H21.6V91.5L21.6,91.5z"/>
				</g>
				<g>
					<path d="M24.7,25.6H9.9c-2.3,0-4.2-1.9-4.2-4.2s1.9-4.2,4.2-4.2h14.9c2.3,0,4.2,1.9,4.2,4.2S27.1,25.6,24.7,25.6L24.7,25.6z"/>
				</g>
				<g>
					<path d="M24.7,44.5H9.9c-2.3,0-4.2-1.9-4.2-4.2c0-2.3,1.9-4.2,4.2-4.2h14.9c2.3,0,4.2,1.9,4.2,4.2C29,42.6,27.1,44.5,24.7,44.5
						L24.7,44.5z"/>
				</g>
				<g>
					<path d="M24.7,63.5H9.9c-2.3,0-4.2-1.9-4.2-4.2c0-2.3,1.9-4.2,4.2-4.2h14.9c2.3,0,4.2,1.9,4.2,4.2C29,61.6,27.1,63.5,24.7,63.5
						L24.7,63.5z"/>
				</g>
				<g>
					<path d="M24.7,82.4H9.9c-2.3,0-4.2-1.9-4.2-4.2c0-2.3,1.9-4.2,4.2-4.2h14.9c2.3,0,4.2,1.9,4.2,4.2C29,80.5,27.1,82.4,24.7,82.4
						L24.7,82.4z"/>
				</g>
			</g>
		</g>
	</g>
</g>
</svg>
