<?xml version="1.0" encoding="utf-8"?>
<!-- Generator: Adobe Illustrator 18.1.1, SVG Export Plug-In . SVG Version: 6.00 Build 0)  -->
<svg version="1.1" xmlns="http://www.w3.org/2000/svg" xmlns:xlink="http://www.w3.org/1999/xlink" x="0px" y="0px"
	 viewBox="0 0 100 100" enable-background="new 0 0 100 100" xml:space="preserve">
<g id="user">
</g>
<g id="template">
</g>
<g id="service">
</g>
<g id="script">
</g>
<g id="ruby_x5F_block">
</g>
<g id="remote_x5F_file">
</g>
<g id="remote_x5F_directory_1_">
</g>
<g id="package">
</g>
<g id="log">
</g>
<g id="link">
</g>
<g id="group">
</g>
<g id="gem">
</g>
<g id="file">
</g>
<g id="execute">
</g>
<g id="directory">
</g>
<g id="deploy">
</g>
<g id="cron">
</g>
<g id="cookbook_x5F_file">
	<g>
		<g>
			<g>
				<path d="M72.3,41.8H39.7c-1.2,0-2.1-0.9-2.1-2.1V21.3c0-1.2,0.9-2.1,2.1-2.1h32.5c1.2,0,2.1,0.9,2.1,2.1v18.4
					C74.4,40.9,73.4,41.8,72.3,41.8L72.3,41.8z M41.9,37.6h28.3V23.4H41.9V37.6L41.9,37.6z"/>
			</g>
			<g>
				<g>
					<path d="M90.1,100H17.3c-2.3,0-4.2-1.9-4.2-4.2V4.2C13.1,1.9,15,0,17.3,0h72.8c2.3,0,4.2,1.9,4.2,4.2v91.5
						C94.4,98.1,92.5,100,90.1,100L90.1,100z M21.6,91.5h64.3v-83H21.6V91.5L21.6,91.5z"/>
				</g>
				<g>
					<path d="M24.7,25.6H9.9c-2.3,0-4.2-1.9-4.2-4.2s1.9-4.2,4.2-4.2h14.9c2.3,0,4.2,1.9,4.2,4.2S27.1,25.6,24.7,25.6L24.7,25.6z"/>
				</g>
				<g>
					<path d="M24.7,44.5H9.9c-2.3,0-4.2-1.9-4.2-4.2c0-2.3,1.9-4.2,4.2-4.2h14.9c2.3,0,4.2,1.9,4.2,4.2C29,42.6,27.1,44.5,24.7,44.5
						L24.7,44.5z"/>
				</g>
				<g>
					<path d="M24.7,63.5H9.9c-2.3,0-4.2-1.9-4.2-4.2c0-2.3,1.9-4.2,4.2-4.2h14.9c2.3,0,4.2,1.9,4.2,4.2C29,61.6,27.1,63.5,24.7,63.5
						L24.7,63.5z"/>
				</g>
				<g>
					<path d="M24.7,82.4H9.9c-2.3,0-4.2-1.9-4.2-4.2c0-2.3,1.9-4.2,4.2-4.2h14.9c2.3,0,4.2,1.9,4.2,4.2C29,80.5,27.1,82.4,24.7,82.4
						L24.7,82.4z"/>
				</g>
			</g>
		</g>
		<g>
			<g>
				<g>
					<path d="M54.1,86.8c-0.2,0-0.4-0.1-0.6-0.2C53.2,86.4,53,86,53,85.6v-22c0-0.5,0.3-0.9,0.7-1l12.4-4.7c0.3-0.1,0.7-0.1,1,0.1
						c0.3,0.2,0.5,0.5,0.5,0.9v22c0,0.5-0.3,0.9-0.7,1l-12.4,4.7C54.4,86.7,54.3,86.8,54.1,86.8L54.1,86.8z M55.3,64.4V84l10.2-3.9
						V60.5L55.3,64.4L55.3,64.4z"/>
				</g>
				<g>
					<path d="M56.7,69c-0.2,0-0.4-0.1-0.5-0.4c-0.1-0.3,0-0.6,0.3-0.7l7.4-2.8c0.3-0.1,0.6,0,0.7,0.3c0.1,0.3,0,0.6-0.3,0.7
						l-7.4,2.8C56.8,69,56.8,69,56.7,69L56.7,69z"/>
				</g>
				<g>
					<path d="M56.7,76.1c-0.2,0-0.4-0.1-0.5-0.4c-0.1-0.3,0-0.6,0.3-0.7l7.4-2.8c0.3-0.1,0.6,0,0.7,0.3c0.1,0.3,0,0.6-0.3,0.7
						l-7.4,2.8C56.8,76.1,56.8,76.1,56.7,76.1L56.7,76.1z"/>
				</g>
				<g>
					<path d="M56.7,79.7c-0.2,0-0.4-0.1-0.5-0.4c-0.1-0.3,0-0.6,0.3-0.7l7.4-2.8c0.3-0.1,0.6,0,0.7,0.3c0.1,0.3,0,0.6-0.3,0.7
						l-7.4,2.8C56.8,79.7,56.8,79.7,56.7,79.7L56.7,79.7z"/>
				</g>
				<g>
					<path d="M56.7,72.5c-0.2,0-0.4-0.1-0.5-0.4c-0.1-0.3,0-0.6,0.3-0.7l7.4-2.8c0.3-0.1,0.6,0,0.7,0.3c0.1,0.3,0,0.6-0.3,0.7
						l-7.4,2.8C56.8,72.5,56.8,72.5,56.7,72.5L56.7,72.5z"/>
				</g>
			</g>
			<g>
				<g>
					<path d="M74.5,84.5c-0.3,0-0.6-0.2-0.6-0.6v-6.4c0-0.2,0.1-0.4,0.2-0.5c0.2-0.1,0.3-0.1,0.5-0.1l4.6,1.7
						c0.3,0.1,0.4,0.4,0.3,0.7c-0.1,0.3-0.4,0.4-0.7,0.3L75,78.3v5.6C75,84.2,74.8,84.5,74.5,84.5L74.5,84.5z"/>
				</g>
				<g>
					<path d="M74.5,85c-0.1,0-0.3,0-0.4-0.1l-7.9-3c-0.4-0.2-0.7-0.6-0.7-1v-22c0-0.4,0.2-0.7,0.5-0.9c0.3-0.2,0.7-0.3,1-0.1
						l12.4,4.7c0.4,0.2,0.7,0.6,0.7,1l0,15.6c0,0.3-0.1,0.6-0.3,0.8l-4.6,4.7C75,84.9,74.8,85,74.5,85L74.5,85z M67.7,80.2l6.5,2.4
						l3.7-3.9l0-14.4l-10.2-3.9V80.2L67.7,80.2z"/>
				</g>
				<g>
					<path d="M76.7,69.1c-0.1,0-0.1,0-0.2,0l-7.4-2.8c-0.3-0.1-0.4-0.4-0.3-0.7c0.1-0.3,0.4-0.4,0.7-0.3l7.4,2.8
						c0.3,0.1,0.4,0.4,0.3,0.7C77.1,68.9,76.9,69.1,76.7,69.1L76.7,69.1z"/>
				</g>
				<g>
					<path d="M76.7,76.2c-0.1,0-0.1,0-0.2,0l-7.4-2.8c-0.3-0.1-0.4-0.4-0.3-0.7c0.1-0.3,0.4-0.4,0.7-0.3l7.4,2.8
						c0.3,0.1,0.4,0.4,0.3,0.7C77.1,76.1,76.9,76.2,76.7,76.2L76.7,76.2z"/>
				</g>
				<g>
					<path d="M76.7,72.6c-0.1,0-0.1,0-0.2,0l-7.4-2.8c-0.3-0.1-0.4-0.4-0.3-0.7c0.1-0.3,0.4-0.4,0.7-0.3l7.4,2.8
						c0.3,0.1,0.4,0.4,0.3,0.7C77.1,72.5,76.9,72.6,76.7,72.6L76.7,72.6z"/>
				</g>
			</g>
		</g>
	</g>
</g>
<g id="chef_x5F_gem">
</g>
<g id="bash">
</g>
</svg>
