<?xml version="1.0" encoding="utf-8"?>
<!-- Generator: Adobe Illustrator 18.1.1, SVG Export Plug-In . SVG Version: 6.00 Build 0)  -->
<svg version="1.1" xmlns="http://www.w3.org/2000/svg" xmlns:xlink="http://www.w3.org/1999/xlink" x="0px" y="0px"
	 viewBox="0 0 100 100" enable-background="new 0 0 100 100" xml:space="preserve">
<g id="yum">
</g>
<g id="windows_x5F_service">
</g>
<g id="windows">
</g>
<g id="subversion">
</g>
<g id="solaris">
</g>
<g id="smartos">
</g>
<g id="ruby">
</g>
<g id="rpm">
</g>
<g id="route">
</g>
<g id="registry_x5F_key">
	<g>
		<g>
			<path d="M29.9,79.9C13.4,79.9,0,66.5,0,50c0-16.5,13.4-29.9,29.9-29.9c10.6,0,20.5,5.7,25.8,14.8h29.1c8.3,0,15.1,6.8,15.1,15.1
				c0,7.5-5.6,13.9-13.1,14.9l-1.9,0.3l-1.4-1.4l-2.6-3l-5.3,6l-5.3-6L66.8,65l-1.9,0.2h-9.2C50.4,74.2,40.5,79.9,29.9,79.9
				L29.9,79.9z M29.9,28c-12.2,0-22,9.9-22,22s9.9,22,22,22c8.4,0,16.2-4.9,19.9-12.6l1.1-2.2h12.2l7.3-8.4l5.3,6l5.3-6l6.8,7.7
				c2.6-1.1,4.4-3.7,4.4-6.6c0-4-3.2-7.2-7.2-7.2h-34l-1.1-2.2C46.2,32.9,38.4,28,29.9,28L29.9,28z"/>
		</g>
		<path d="M22.5,44.4c-3.1,0-5.6,2.5-5.6,5.6s2.5,5.6,5.6,5.6s5.6-2.5,5.6-5.6S25.6,44.4,22.5,44.4L22.5,44.4z"/>
	</g>
</g>
<g id="reboot">
</g>
<g id="python">
</g>
<g id="powershell">
</g>
<g id="portage">
</g>
<g id="perl">
</g>
<g id="paludis">
</g>
<g id="pacman">
</g>
<g id="openbsd">
</g>
<g id="ohai">
</g>
<g id="mount">
</g>
<g id="mdadm">
</g>
<g id="macports">
</g>
<g id="ips">
</g>
<g id="ifconfig">
</g>
<g id="http_x5F_request">
</g>
<g id="homebrew">
</g>
<g id="git">
</g>
<g id="freebsd">
</g>
<g id="erlang_x5F_call">
</g>
<g id="env">
</g>
<g id="easy_x5F_install">
</g>
<g id="dsc_x5F_script">
</g>
<g id="dsc_x5F_resource">
</g>
<g id="dpkg">
</g>
<g id="csh">
</g>
<g id="chef_x5F_handler">
</g>
<g id="breakpoint">
</g>
<g id="bff">
</g>
<g id="batch">
</g>
<g id="apt">
</g>
</svg>
