<?xml version="1.0" encoding="utf-8"?>
<!-- Generator: Adobe Illustrator 18.1.1, SVG Export Plug-In . SVG Version: 6.00 Build 0)  -->
<svg version="1.1" xmlns="http://www.w3.org/2000/svg" xmlns:xlink="http://www.w3.org/1999/xlink" x="0px" y="0px"
	 viewBox="0 0 100 100" enable-background="new 0 0 100 100" xml:space="preserve">
<g id="tests">
</g>
<g id="template">
</g>
<g id="resources">
</g>
<g id="recipes">
</g>
<g id="providers">
	<g>
		<g>
			<path d="M49.8,38.1c0.6,0,1.2,0.2,1.8,0.5l43,24.1c1.2,0.7,1.9,1.9,1.9,3.2c0,1.3-0.7,2.6-1.9,3.2L51.9,93.1
				c-1.1,0.6-2.5,0.6-3.6,0L5.3,69c-1.2-0.7-1.9-1.9-1.9-3.2c0-1.3,0.7-2.6,1.9-3.2L48,38.6C48.6,38.3,49.2,38.1,49.8,38.1
				L49.8,38.1z M85.3,65.9L49.8,46.1L14.6,65.8l35.5,19.9L85.3,65.9L85.3,65.9z"/>
		</g>
		<g>
			<g>
				<path d="M88.3,43.5c-4.7,0-8.5-3.8-8.5-8.5c0-4.7,3.8-8.5,8.5-8.5c4.7,0,8.5,3.8,8.5,8.5C96.8,39.7,93,43.5,88.3,43.5L88.3,43.5
					z M88.3,29.4c-3.1,0-5.6,2.5-5.6,5.6c0,3.1,2.5,5.6,5.6,5.6c3.1,0,5.6-2.5,5.6-5.6C93.9,32,91.4,29.4,88.3,29.4L88.3,29.4z"/>
			</g>
			<g>
				<g>
					<path d="M83,31.2c-0.4,0-0.7-0.1-1-0.4l-2-2c-0.5-0.5-0.5-1.4,0-2c0.5-0.5,1.4-0.5,2,0l2,2c0.5,0.5,0.5,1.4,0,2
						C83.7,31,83.3,31.2,83,31.2L83,31.2z"/>
				</g>
				<g>
					<path d="M95.6,43.8c-0.4,0-0.7-0.1-1-0.4L92.3,41c-0.5-0.6-0.5-1.4,0-2c0.5-0.5,1.4-0.5,2,0l2.3,2.3c0.5,0.6,0.5,1.4,0,2
						C96.3,43.6,95.9,43.8,95.6,43.8L95.6,43.8z"/>
				</g>
			</g>
			<g>
				<g>
					<path d="M93.6,31.2c-0.4,0-0.7-0.1-1-0.4c-0.5-0.5-0.5-1.4,0-2l2-2c0.5-0.5,1.4-0.5,2,0c0.5,0.5,0.5,1.4,0,2l-2,2
						C94.3,31,94,31.2,93.6,31.2L93.6,31.2z"/>
				</g>
				<g>
					<path d="M81,43.8c-0.4,0-0.7-0.1-1-0.4c-0.5-0.5-0.5-1.4,0-2l2.3-2.3c0.5-0.5,1.4-0.5,2,0c0.5,0.5,0.5,1.4,0,2L82,43.3
						C81.7,43.6,81.4,43.8,81,43.8L81,43.8z"/>
				</g>
			</g>
			<g>
				<g>
					<path d="M88.3,29c-0.8,0-1.4-0.6-1.4-1.4v-2.8c0-0.8,0.6-1.4,1.4-1.4c0.8,0,1.4,0.6,1.4,1.4v2.8C89.7,28.3,89.1,29,88.3,29
						L88.3,29z"/>
				</g>
				<g>
					<path d="M88.3,46.8L88.3,46.8c-0.8,0-1.4-0.6-1.4-1.4l0-3.3c0-0.8,0.6-1.4,1.4-1.4l0,0c0.8,0,1.4,0.6,1.4,1.4l0,3.3
						C89.7,46.1,89.1,46.8,88.3,46.8L88.3,46.8z"/>
				</g>
			</g>
			<g>
				<g>
					<path d="M98.6,36.5h-2.8c-0.8,0-1.4-0.6-1.4-1.4c0-0.8,0.6-1.4,1.4-1.4h2.8c0.8,0,1.4,0.6,1.4,1.4
						C100,35.8,99.4,36.5,98.6,36.5L98.6,36.5z"/>
				</g>
				<g>
					<path d="M81.3,36.5H78c-0.8,0-1.4-0.6-1.4-1.4c0-0.8,0.6-1.4,1.4-1.4h3.3c0.8,0,1.4,0.6,1.4,1.4C82.7,35.8,82.1,36.5,81.3,36.5
						L81.3,36.5z"/>
				</g>
			</g>
		</g>
		<g>
			<g>
				<path d="M49.5,26.6c-4.7,0-8.5-3.8-8.5-8.5c0-4.7,3.8-8.5,8.5-8.5c4.7,0,8.5,3.8,8.5,8.5C57.9,22.8,54.1,26.6,49.5,26.6
					L49.5,26.6z M49.5,12.5c-3.1,0-5.6,2.5-5.6,5.6c0,3.1,2.5,5.6,5.6,5.6c3.1,0,5.6-2.5,5.6-5.6C55.1,15,52.6,12.5,49.5,12.5
					L49.5,12.5z"/>
			</g>
			<g>
				<g>
					<path d="M44.2,14.2c-0.4,0-0.7-0.1-1-0.4l-2-2c-0.5-0.5-0.5-1.4,0-2c0.5-0.5,1.4-0.5,2,0l2,2c0.5,0.5,0.5,1.4,0,2
						C44.9,14.1,44.5,14.2,44.2,14.2L44.2,14.2z"/>
				</g>
				<g>
					<path d="M56.8,26.8c-0.4,0-0.7-0.1-1-0.4l-2.3-2.3c-0.5-0.6-0.5-1.4,0-2c0.5-0.5,1.4-0.5,2,0l2.3,2.3c0.5,0.6,0.5,1.4,0,2
						C57.5,26.7,57.1,26.8,56.8,26.8L56.8,26.8z"/>
				</g>
			</g>
			<g>
				<g>
					<path d="M54.8,14.2c-0.4,0-0.7-0.1-1-0.4c-0.5-0.5-0.5-1.4,0-2l2-2c0.5-0.5,1.4-0.5,2,0c0.5,0.5,0.5,1.4,0,2l-2,2
						C55.5,14.1,55.2,14.2,54.8,14.2L54.8,14.2z"/>
				</g>
				<g>
					<path d="M42.2,26.8c-0.4,0-0.7-0.1-1-0.4c-0.5-0.5-0.5-1.4,0-2l2.3-2.3c0.5-0.5,1.4-0.5,2,0c0.5,0.5,0.5,1.4,0,2l-2.3,2.3
						C42.9,26.7,42.6,26.8,42.2,26.8L42.2,26.8z"/>
				</g>
			</g>
			<g>
				<g>
					<path d="M49.5,12c-0.8,0-1.4-0.6-1.4-1.4V7.8c0-0.8,0.6-1.4,1.4-1.4c0.8,0,1.4,0.6,1.4,1.4v2.8C50.9,11.4,50.2,12,49.5,12
						L49.5,12z"/>
				</g>
				<g>
					<path d="M49.5,29.8L49.5,29.8c-0.8,0-1.4-0.6-1.4-1.4l0-3.3c0-0.8,0.6-1.4,1.4-1.4l0,0c0.8,0,1.4,0.6,1.4,1.4l0,3.3
						C50.9,29.2,50.2,29.8,49.5,29.8L49.5,29.8z"/>
				</g>
			</g>
			<g>
				<g>
					<path d="M59.8,19.5H57c-0.8,0-1.4-0.6-1.4-1.4c0-0.8,0.6-1.4,1.4-1.4h2.8c0.8,0,1.4,0.6,1.4,1.4C61.2,18.9,60.5,19.5,59.8,19.5
						L59.8,19.5z"/>
				</g>
				<g>
					<path d="M42.5,19.5h-3.3c-0.8,0-1.4-0.6-1.4-1.4c0-0.8,0.6-1.4,1.4-1.4h3.3c0.8,0,1.4,0.6,1.4,1.4
						C43.9,18.9,43.2,19.5,42.5,19.5L42.5,19.5z"/>
				</g>
			</g>
		</g>
		<g>
			<g>
				<path d="M11.7,43.4c-4.7,0-8.5-3.8-8.5-8.5c0-4.7,3.8-8.5,8.5-8.5c4.7,0,8.5,3.8,8.5,8.5C20.2,39.6,16.4,43.4,11.7,43.4
					L11.7,43.4z M11.7,29.3c-3.1,0-5.6,2.5-5.6,5.6c0,3.1,2.5,5.6,5.6,5.6c3.1,0,5.6-2.5,5.6-5.6C17.3,31.8,14.8,29.3,11.7,29.3
					L11.7,29.3z"/>
			</g>
			<g>
				<g>
					<path d="M6.4,31c-0.4,0-0.7-0.1-1-0.4l-2-2c-0.5-0.5-0.5-1.4,0-2c0.5-0.5,1.4-0.5,2,0l2,2c0.5,0.5,0.5,1.4,0,2
						C7.1,30.9,6.7,31,6.4,31L6.4,31z"/>
				</g>
				<g>
					<path d="M19,43.6c-0.4,0-0.7-0.1-1-0.4l-2.3-2.3c-0.5-0.6-0.5-1.4,0-2c0.5-0.5,1.4-0.5,2,0l2.3,2.3c0.5,0.6,0.5,1.4,0,2
						C19.7,43.5,19.3,43.6,19,43.6L19,43.6z"/>
				</g>
			</g>
			<g>
				<g>
					<path d="M17,31c-0.4,0-0.7-0.1-1-0.4c-0.5-0.5-0.5-1.4,0-2l2-2c0.5-0.5,1.4-0.5,2,0c0.5,0.5,0.5,1.4,0,2l-2,2
						C17.7,30.9,17.4,31,17,31L17,31z"/>
				</g>
				<g>
					<path d="M4.4,43.6c-0.4,0-0.7-0.1-1-0.4c-0.5-0.5-0.5-1.4,0-2l2.3-2.3c0.5-0.5,1.4-0.5,2,0c0.5,0.5,0.5,1.4,0,2l-2.3,2.3
						C5.1,43.5,4.8,43.6,4.4,43.6L4.4,43.6z"/>
				</g>
			</g>
			<g>
				<g>
					<path d="M11.7,28.8c-0.8,0-1.4-0.6-1.4-1.4v-2.8c0-0.8,0.6-1.4,1.4-1.4c0.8,0,1.4,0.6,1.4,1.4v2.8
						C13.1,28.2,12.5,28.8,11.7,28.8L11.7,28.8z"/>
				</g>
				<g>
					<path d="M11.7,46.6L11.7,46.6c-0.8,0-1.4-0.6-1.4-1.4l0-3.3c0-0.8,0.6-1.4,1.4-1.4l0,0c0.8,0,1.4,0.6,1.4,1.4l0,3.3
						C13.1,46,12.5,46.6,11.7,46.6L11.7,46.6z"/>
				</g>
			</g>
			<g>
				<g>
					<path d="M22,36.3h-2.8c-0.8,0-1.4-0.6-1.4-1.4c0-0.8,0.6-1.4,1.4-1.4H22c0.8,0,1.4,0.6,1.4,1.4C23.4,35.7,22.8,36.3,22,36.3
						L22,36.3z"/>
				</g>
				<g>
					<path d="M4.7,36.3H1.4c-0.8,0-1.4-0.6-1.4-1.4c0-0.8,0.6-1.4,1.4-1.4h3.3c0.8,0,1.4,0.6,1.4,1.4C6.1,35.7,5.5,36.3,4.7,36.3
						L4.7,36.3z"/>
				</g>
			</g>
		</g>
	</g>
</g>
<g id="metadata">
</g>
<g id="libraries">
</g>
<g id="files">
</g>
<g id="definitions">
</g>
<g id="version">
</g>
<g id="cookbook">
</g>
<g id="attributes">
</g>
</svg>
