<?xml version="1.0" encoding="utf-8"?>
<!-- Generator: Adobe Illustrator 18.1.1, SVG Export Plug-In . SVG Version: 6.00 Build 0)  -->
<svg version="1.1" xmlns="http://www.w3.org/2000/svg" xmlns:xlink="http://www.w3.org/1999/xlink" x="0px" y="0px"
	 viewBox="0 0 100 100" enable-background="new 0 0 100 100" xml:space="preserve">
<g id="windows">
</g>
<g id="ubuntu">
</g>
<g id="rubygems">
</g>
<g id="redhat">
</g>
<g id="max-osx">
</g>
<g id="github">
</g>
<g id="git_1_">
</g>
<g id="debian">
	<g>
		<path d="M57.8,52.8c-1.7,0,0.3,0.9,2.5,1.2c0.6-0.5,1.1-0.9,1.6-1.4C60.6,53,59.2,53,57.8,52.8"/>
		<path d="M66.7,50.6c1-1.4,1.7-2.9,2-4.4c-0.2,1.1-0.8,2-1.4,3c-3.1,2-0.3-1.2,0-2.3C64,51.1,66.9,49.4,66.7,50.6"/>
		<path d="M70,42.1c0.2-3-0.6-2-0.9-0.9C69.5,41.3,69.7,43.3,70,42.1"/>
		<path d="M51.6,1.3c0.9,0.2,1.9,0.3,1.8,0.5C54.3,1.6,54.5,1.4,51.6,1.3"/>
		<path d="M53.3,1.8l-0.6,0.1L53.3,1.8L53.3,1.8"/>
		<path d="M80.9,43.2c0.1,2.7-0.8,4-1.6,6.3l-1.4,0.7c-1.2,2.3,0.1,1.4-0.7,3.3c-1.8,1.6-5.6,5.1-6.7,5.4c-0.9,0,0.6-1,0.8-1.4
			c-2.4,1.7-2,2.5-5.7,3.5l-0.1-0.2c-9.2,4.3-22.1-4.3-21.9-16c-0.1,0.7-0.3,0.6-0.5,0.9c-0.5-6,2.8-12.1,8.3-14.6
			c5.4-2.7,11.7-1.6,15.6,2c-2.1-2.8-6.3-5.7-11.4-5.4c-4.9,0.1-9.5,3.2-11,6.6c-2.5,1.6-2.8,6.1-3.9,6.9c-1.5,10.8,2.8,15.5,9.9,21
			c1.1,0.8,0.3,0.9,0.5,1.5c-2.4-1.1-4.6-2.8-6.4-4.9c1,1.4,2,2.7,3.3,3.8c-2.2-0.8-5.3-5.4-6.1-5.6c3.9,6.9,15.7,12.2,21.9,9.6
			c-2.9,0.1-6.5,0.1-9.7-1.1c-1.4-0.7-3.2-2.1-2.9-2.4c8.5,3.2,17.2,2.4,24.5-3.5c1.9-1.5,3.9-3.9,4.5-4c-0.9,1.3,0.2,0.6-0.5,1.8
			c1.9-3-0.8-1.2,1.9-5.2l1,1.4C82.2,51,85.7,48,85.3,44c0.8-1.2,0.9,1.3,0,4.1c1.2-3.1,0.3-3.6,0.6-6.1c0.3,0.9,0.8,1.8,1,2.7
			c-0.8-3,0.8-5,1.2-6.7c-0.4-0.2-1.2,1.3-1.4-2.2c0-1.5,0.4-0.8,0.6-1.2c-0.3-0.2-1.1-1.3-1.6-3.6c0.3-0.5,0.9,1.4,1.4,1.4
			c-0.3-1.8-0.8-3.1-0.8-4.5c-1.4-2.9-0.5,0.4-1.6-1.2c-1.5-4.6,1.2-1.1,1.4-3.1c2.2,3.2,3.5,8.2,4.1,10.3c-0.4-2.5-1.2-4.9-2-7.3
			c0.7,0.3-1.1-5.2,0.9-1.6c-2.1-7.7-9-14.9-15.3-18.3c0.8,0.7,1.7,1.6,1.4,1.7c-3.1-1.9-2.6-2-3-2.8c-2.6-1-2.7,0.1-4.4,0
			C62.9,3,61.9,3.3,57.5,1.7l0.2,0.9c-3.2-1.1-3.7,0.4-7.2,0c-0.2-0.2,1.1-0.6,2.2-0.8c-3.1,0.4-2.9-0.6-6,0.1
			c0.7-0.5,1.5-0.9,2.3-1.3c-2.5,0.2-6,1.5-4.9,0.3C40,2.8,32.7,5.4,28.6,9.2l-0.1-0.9c-1.9,2.3-8.2,6.7-8.7,9.6l-0.5,0.1
			c-1,1.7-1.6,3.5-2.4,5.2c-1.3,2.2-1.9,0.8-1.7,1.2c-2.5,5.1-3.8,9.4-4.8,12.9c0.8,1.1,0,6.9,0.3,11.5c-1.3,22.8,16,44.9,34.8,50
			c2.8,1,6.9,1,10.4,1.1c-4.1-1.2-4.7-0.6-8.7-2c-2.9-1.4-3.5-2.9-5.6-4.7l0.8,1.4c-4-1.4-2.3-1.8-5.6-2.8l0.9-1.1
			c-1.3-0.1-3.5-2.2-4-3.4l-1.4,0.1c-1.7-2.1-2.6-3.6-2.6-4.8l-0.5,0.8c-0.5-0.9-6.3-7.9-3.3-6.3c-0.6-0.5-1.3-0.8-2.1-2.3l0.6-0.7
			c-1.4-1.9-2.7-4.2-2.6-5c0.8,1,1.3,1.2,1.8,1.4c-3.6-9.1-3.9-0.5-6.6-9.2l0.6,0c-0.4-0.7-0.7-1.4-1.1-2.1l0.3-2.5
			c-2.6-3-0.7-12.9-0.4-18.3c0.3-2.2,2.2-4.5,3.7-8.2l-0.9-0.2c1.7-3,9.8-12,13.5-11.5c1.8-2.3-0.4,0-0.7-0.6c4-4.1,5.2-2.9,7.9-3.6
			c2.9-1.7-2.5,0.7-1.1-0.7c5-1.3,3.5-2.9,10.1-3.5c0.7,0.4-1.6,0.6-2.2,1.1c4.2-2,13.2-1.6,19,1.1c6.8,3.2,14.4,12.5,14.7,21.4
			l0.3,0.1c-0.2,3.5,0.5,7.6-0.7,11.3L80.9,43.2"/>
		<path d="M39.8,55.1l-0.2,1.2c1.1,1.5,2,3.1,3.3,4.2C41.9,58.6,41.1,57.7,39.8,55.1"/>
		<path d="M42.3,55c-0.6-0.6-0.9-1.4-1.3-2.2c0.4,1.3,1.1,2.5,1.8,3.7L42.3,55"/>
		<path d="M87.9,45.1l-0.2,0.6c-0.4,3.2-1.4,6.3-2.9,9.2C86.4,51.9,87.4,48.5,87.9,45.1"/>
		<path d="M51.9,0.5C53,0.1,54.6,0.3,55.8,0c-1.5,0.1-3.1,0.2-4.6,0.4L51.9,0.5"/>
		<path d="M12.6,21.4c0.3,2.4-1.8,3.3,0.5,1.7C14.2,20.4,12.5,22.4,12.6,21.4"/>
		<path d="M9.9,32.5c0.5-1.6,0.6-2.6,0.8-3.5C9.3,30.8,10.1,31.2,9.9,32.5"/>
	</g>
</g>
<g id="centos">
</g>
</svg>
