<?xml version="1.0" encoding="utf-8"?>
<!-- Generator: Adobe Illustrator 18.1.1, SVG Export Plug-In . SVG Version: 6.00 Build 0)  -->
<svg version="1.1" xmlns="http://www.w3.org/2000/svg" xmlns:xlink="http://www.w3.org/1999/xlink" x="0px" y="0px"
	 viewBox="0 0 100 100" enable-background="new 0 0 100 100" xml:space="preserve">
<g id="workstation">
</g>
<g id="user">
</g>
<g id="search">
</g>
<g id="run-list">
</g>
<g id="role">
</g>
<g id="policy">
</g>
<g id="organization">
</g>
<g id="node">
</g>
<g id="group">
</g>
<g id="environment">
</g>
<g id="data-bag">
</g>
<g id="cookbook">
</g>
<g id="client">
</g>
<g id="api">
	<g>
		<path d="M41.2,9.1c2.7,0,6,4.3,8.8,4.3s6.1-4.3,8.8-4.3c0.2,0,0.3,0,0.5,0.1c2.9,0.7,3.9,6.6,6.5,7.9c0.5,0.2,1.1,0.3,1.8,0.3
			c1.9,0,4.3-0.7,6.2-0.7c0.9,0,1.7,0.2,2.2,0.6c2.3,1.8,0.6,7.7,2.5,9.9c1.8,2.3,7.9,2,9.2,4.6c1.3,2.6-2.7,7.1-2.1,10
			c0.6,2.8,6.2,5.1,6.2,8.1s-5.6,5.3-6.2,8.1c-0.7,2.9,3.3,7.4,2.1,10c-1.3,2.7-7.3,2.3-9.2,4.6c-1.8,2.3-0.2,8.1-2.5,10
			c-0.6,0.5-1.4,0.6-2.2,0.6c-1.9,0-4.3-0.7-6.2-0.7c-0.7,0-1.3,0.1-1.8,0.3c-2.6,1.3-3.6,7.2-6.5,7.9c-0.2,0-0.3,0.1-0.5,0.1
			c-2.7,0-6-4.3-8.8-4.3s-6.1,4.3-8.8,4.3c-0.2,0-0.4,0-0.5-0.1c-2.9-0.7-3.9-6.6-6.6-7.9c-0.5-0.2-1.1-0.3-1.8-0.3
			c-1.9,0-4.3,0.7-6.2,0.7c-0.9,0-1.7-0.2-2.2-0.6c-2.3-1.8-0.6-7.7-2.5-10c-1.8-2.3-7.9-2-9.1-4.6c-1.3-2.6,2.7-7.1,2.1-10
			C13.7,55.3,8.1,53,8.1,50s5.6-5.3,6.2-8.1c0.7-2.9-3.3-7.4-2.1-10c1.3-2.7,7.3-2.3,9.2-4.6c1.8-2.3,0.2-8.1,2.5-10
			c0.6-0.5,1.4-0.6,2.2-0.6c1.9,0,4.3,0.8,6.2,0.8c0.7,0,1.3-0.1,1.8-0.3c2.6-1.3,3.6-7.2,6.6-7.9C40.8,9.1,41,9.1,41.2,9.1 M41.2,1
			c-0.8,0-1.6,0.1-2.3,0.3c-4.9,1.1-7.2,5.1-8.7,7.7c-1.2-0.2-2.6-0.4-4.1-0.4c-2.8,0-5.3,0.8-7.3,2.4c-3.9,3.1-4.3,7.7-4.5,10.7
			c-2.9,0.8-7.3,2.2-9.4,6.7c-2.2,4.5-0.5,8.8,0.6,11.5C3.3,41.8,0,45,0,50c0,5,3.3,8.2,5.6,10.2C4.4,62.9,2.8,67.2,5,71.7
			c2.2,4.5,6.6,5.9,9.4,6.7c0.2,3,0.6,7.6,4.5,10.7c2,1.6,4.4,2.4,7.3,2.4c1.5,0,2.9-0.2,4.1-0.4c1.4,2.6,3.8,6.6,8.7,7.7
			c0.7,0.2,1.5,0.3,2.3,0.3c3.8,0,6.7-2,8.8-3.5c2.1,1.5,5,3.5,8.8,3.5c0.8,0,1.6-0.1,2.3-0.3c4.9-1.1,7.2-5.1,8.7-7.7
			c1.2,0.2,2.6,0.4,4.1,0.4c2.8,0,5.3-0.8,7.3-2.4c3.9-3.1,4.3-7.7,4.4-10.7c2.9-0.8,7.3-2.2,9.4-6.7c2.2-4.5,0.5-8.8-0.6-11.5
			c2.2-2,5.6-5.2,5.6-10.2c0-5-3.3-8.2-5.6-10.2c1.1-2.7,2.8-7,0.6-11.5c-2.2-4.5-6.6-5.9-9.4-6.7c-0.2-3-0.6-7.6-4.4-10.7
			c-2-1.6-4.4-2.4-7.3-2.4c-1.5,0-2.9,0.2-4.1,0.4c-1.4-2.6-3.8-6.6-8.7-7.7C60.4,1.1,59.6,1,58.8,1c-3.8,0-6.7,2-8.8,3.5
			C47.9,2.9,45,1,41.2,1L41.2,1z"/>
		<g>
			<g>
				<g>
					<path d="M69.6,71.2h-39c-1,0-1.8-0.8-1.8-1.8V31c0-1,0.8-1.8,1.8-1.8h39c1,0,1.8,0.8,1.8,1.8v38.4
						C71.4,70.4,70.6,71.2,69.6,71.2L69.6,71.2z M32.4,67.6h35.4V32.8H32.4V67.6L32.4,67.6z"/>
				</g>
				<g>
					<path d="M63.8,58.6H36.4c-0.5,0-0.9-0.4-0.9-0.9V36.8c0-0.5,0.4-0.9,0.9-0.9h27.4c0.5,0,0.9,0.4,0.9,0.9v20.9
						C64.7,58.2,64.3,58.6,63.8,58.6L63.8,58.6z M37.3,56.8h25.6V37.7H37.3V56.8L37.3,56.8z"/>
				</g>
			</g>
			<g>
				<g>
					<path d="M41,64c0-0.4,0.3-0.8,0.8-0.8h3.7c0.4,0,0.8,0.3,0.8,0.8c0,0.4-0.3,0.8-0.8,0.8h-3.7C41.4,64.8,41,64.4,41,64L41,64z"
						/>
				</g>
				<g>
					<path d="M47.5,64c0-0.4,0.3-0.8,0.8-0.8H52c0.4,0,0.8,0.3,0.8,0.8c0,0.4-0.3,0.8-0.8,0.8h-3.7C47.8,64.8,47.5,64.4,47.5,64
						L47.5,64z"/>
				</g>
				<g>
					<path d="M54,64c0-0.4,0.3-0.8,0.8-0.8h3.7c0.4,0,0.8,0.3,0.8,0.8c0,0.4-0.3,0.8-0.8,0.8h-3.7C54.3,64.8,54,64.4,54,64L54,64z"
						/>
				</g>
			</g>
		</g>
	</g>
</g>
</svg>
