<?xml version="1.0" encoding="utf-8"?>
<!-- Generator: Adobe Illustrator 18.1.1, SVG Export Plug-In . SVG Version: 6.00 Build 0)  -->
<svg version="1.1" xmlns="http://www.w3.org/2000/svg" xmlns:xlink="http://www.w3.org/1999/xlink" x="0px" y="0px"
	 viewBox="0 0 100 100" enable-background="new 0 0 100 100" xml:space="preserve">
<g id="windows">
</g>
<g id="ubuntu">
</g>
<g id="rubygems">
</g>
<g id="redhat">
	<g>
		<path d="M94.1,33.5c-2.1-1.6-7.4-3.9-9-3.9c-0.4,0-1.2,0.8-1.8,1.9c-0.9,1.6-3.3,3.9-4.2,3.9c-0.2,0,0.3-1.1,1-2.5
			c0.8-1.5,1.3-3.2,1.3-4.1c0-4.3-4.6-16.8-8.3-22.6c-1.7-2.7-2.6-3.6-4.5-4.6c-3.3-1.8-7.3-2-12.5-0.7c-3.1,0.8-4.6,0.9-7.5,0.7
			C36.6,0.7,37.1,0.7,35.1,1.7C32.5,3,31.7,4.5,30.2,11c-1.7,7-1.7,9.2-0.2,11c1.6,1.9,6.6,4.2,11.7,5.4c6,1.4,10.2,2.6,11.3,3.4
			c0.6,0.4,1.2,1.3,1.5,2.1c1.3,3.4,2,4.8,2.7,5.5c0.5,0.4,0.8,1,0.8,1.3c0,3.2-22.9-3.9-28.8-9c-2.6-2.2-3.3-3.8-3-6.5l0.3-2.2
			l-5.8,0.2c-4.9,0.2-6.2,0.3-8,1.2c-6.1,2.9-5.8,7.9,0.8,14.2c9.7,9.2,29.7,18.3,45.5,20.6c5.5,0.8,13.3,0.8,18.4,0
			c9.9-1.5,16.7-5.5,19.5-11.5C99.5,41.6,98.5,36.8,94.1,33.5z M47.4,15.1c-4.2,0.5-6.3,1-7,2c-0.9,1.1-1.9,0.7-4.1-1.6
			c-1.6-1.6-2.2-2.6-2.2-3.5c0-2.2,1.6-3.4,2.9-2.1c2,1.9,2.6,2.1,7,1.8c4.6-0.3,7.2,0.2,7.7,1.5C52,14.3,51.3,14.7,47.4,15.1z
			 M61,8.5c-2-0.2-2.1-0.7-0.3-1.2c1.7-0.5,2.7-1.8,1.7-2.4c-1-0.6-4.4-1-5.9-0.7c-0.9,0.2-1.3,0.1-1.1-0.2c0.5-0.8,5.2-1.5,7.8-1.3
			c2.8,0.3,5,1.2,5.5,2.4C69.6,7.1,65.5,8.8,61,8.5z"/>
		<path d="M96.3,73.9c-3.8-0.5-8.8-0.1-11.9,1c-1.4,0.5-1.8,0.8-2,1.9c-0.2,1.1-0.6,1.5-2.9,2.3c-1.9,0.7-3.5,1.8-5.5,3.9
			c-1.6,1.6-3.3,3-3.8,3.3c-1.1,0.6-3.3,1.1-3.3,0.8c0-0.2,3.5-5.4,7.5-11.1c1.4-2.1,1.9-3.2,2.1-4.9c0.1-1.2,0.6-3.6,1.1-5.4
			c0.5-1.8,0.8-3.3,0.7-3.4c-0.1-0.1-1.1,0.1-2.1,0.4c-2.3,0.8-3.8,0.8-6.4,0.1c-1.6-0.4-2.3-0.4-3.9,0.2c-1.9,0.7-2.1,0.7-3.8,0
			c-1.7-0.7-2.1-0.7-6.3,0c-7.8,1.4-10.3,0.6-15.5-4.7c-3.2-3.3-4.4-4-5-3c-0.2,0.2-0.7,0.4-1.3,0.4c-0.8,0-1.4-0.6-2.5-2.2
			c-0.8-1.2-2-2.6-2.7-3.1c-3.7-2.7-8-0.7-8,3.6c0,1.8,3.6,7.2,5.4,8.2c2.4,1.2,1,3.1-2,2.7c-1.6-0.2-2.3-0.7-4.3-2.9
			c-2.2-2.4-2.7-2.7-4.2-2.7c-1,0-2.6,0.4-3.6,0.8C9.6,61.3,6.2,62,2.7,62H0c7.4,22.1,28.3,38,52.8,38c19.9,0,37.3-10.4,47.2-26.1
			C99.2,74.4,98.3,74.2,96.3,73.9z M62,74.4c-0.6,0-1.7-0.4-2.5-0.9c-0.8-0.5-2-0.9-2.6-0.9c-1.3,0-1.9-1.1-1.1-2
			c0.7-0.8,3-0.8,4.4,0c1.5,0.9,2.8,0.8,3.8-0.2c1.1-1.2,1.5-1.1,1.5,0.3C65.6,72.1,63.4,74.4,62,74.4z"/>
	</g>
</g>
<g id="max-osx">
</g>
<g id="github">
</g>
<g id="git_1_">
</g>
<g id="debian">
</g>
<g id="centos">
</g>
</svg>
