<?xml version="1.0" encoding="utf-8"?>
<!-- Generator: Adobe Illustrator 18.1.1, SVG Export Plug-In . SVG Version: 6.00 Build 0)  -->
<svg version="1.1" xmlns="http://www.w3.org/2000/svg" xmlns:xlink="http://www.w3.org/1999/xlink" x="0px" y="0px"
	 viewBox="0 0 100 100" enable-background="new 0 0 100 100" xml:space="preserve">
<g id="deliver">
</g>
<g id="rehearse">
	<g>
		<g>
			<g>
				<path d="M33.4,68.4c-0.7,0-1.3-0.2-1.8-0.7l-6.9-6.6c-1.1-1-1.1-2.7-0.1-3.8c1-1.1,2.7-1.1,3.8-0.1l6.9,6.6
					c1.1,1,1.1,2.7,0.1,3.8C34.8,68.1,34.1,68.4,33.4,68.4L33.4,68.4z"/>
			</g>
			<g>
				<path d="M44.8,67.4c-0.7,0-1.4-0.3-1.9-0.8c-1-1-1-2.7,0-3.8L67.7,38c0.4-0.4,1-0.7,1.6-0.8l10.5-1.1c1.5-0.2,2.8,0.9,2.9,2.4
					c0.2,1.5-0.9,2.8-2.4,2.9l-9.5,1L46.6,66.7C46.1,67.2,45.4,67.4,44.8,67.4L44.8,67.4z"/>
			</g>
			<g>
				<path d="M39,60.9c-0.7,0-1.4-0.3-1.9-0.8L21.4,44.4c-0.5-0.5-0.8-1.2-0.8-1.9s0.3-1.4,0.8-1.9L37.1,25c1-1,2.7-1,3.8,0
					l15.7,15.7c1,1,1,2.7,0,3.8L40.9,60.1C40.4,60.6,39.7,60.9,39,60.9L39,60.9z M27,42.5L39,54.5l11.9-11.9L39,30.6L27,42.5
					L27,42.5z"/>
			</g>
			<g>
				<polygon points="42.7,42.5 39,38.8 45,32.8 48.7,36.6 42.7,42.5 				"/>
			</g>
			<g>
				<path d="M39.2,78.6c-2.3,0-4.4-0.9-6-2.5c-1.6-1.6-2.5-3.7-2.5-6s0.9-4.4,2.5-6c3.2-3.2,8.8-3.2,12,0c1.6,1.6,2.5,3.7,2.5,6
					s-0.9,4.4-2.5,6C43.6,77.7,41.5,78.6,39.2,78.6L39.2,78.6z M39.2,67c-0.8,0-1.6,0.3-2.2,0.9c-0.6,0.6-0.9,1.4-0.9,2.2
					c0,0.8,0.3,1.6,0.9,2.2c1.2,1.2,3.2,1.2,4.4,0c1.2-1.2,1.2-3.2,0-4.4C40.9,67.4,40.1,67,39.2,67L39.2,67z"/>
			</g>
		</g>
		<g>
			<path d="M95.8,100H4.2C1.9,100,0,98.1,0,95.8V4.2C0,1.9,1.9,0,4.2,0h91.6c2.3,0,4.2,1.9,4.2,4.2v91.6C100,98.1,98.1,100,95.8,100
				L95.8,100z M8.4,91.6h83.2V8.4H8.4V91.6L8.4,91.6z"/>
		</g>
	</g>
</g>
<g id="union">
</g>
<g id="publish">
</g>
<g id="accept">
</g>
<g id="build">
</g>
<g id="approve">
</g>
<g id="verify">
</g>
<g id="workstation">
</g>
<g id="tests">
</g>
<g id="secrets">
</g>
<g id="rules">
</g>
<g id="ruby_1_">
</g>
<g id="rubocop">
</g>
<g id="resources">
</g>
<g id="reports">
</g>
<g id="recipes">
</g>
<g id="recipe">
</g>
<g id="recipe_x5F_dsl">
</g>
<g id="policygroup">
</g>
<g id="policyfile">
</g>
<g id="knife">
</g>
<g id="kitchen">
</g>
<g id="foodcritic">
</g>
<g id="development_x5F_kit">
</g>
<g id="cookbooks">
</g>
<g id="controls">
</g>
<g id="config-rb">
</g>
<g id="ci">
</g>
<g id="chef_x5F_repo">
</g>
<g id="chefspec">
</g>
<g id="cd">
</g>
</svg>
