<?xml version="1.0" encoding="utf-8"?>
<!-- Generator: Adobe Illustrator 18.1.1, SVG Export Plug-In . SVG Version: 6.00 Build 0)  -->
<svg version="1.1" xmlns="http://www.w3.org/2000/svg" xmlns:xlink="http://www.w3.org/1999/xlink" x="0px" y="0px"
	 viewBox="0 0 100 100" enable-background="new 0 0 100 100" xml:space="preserve">
<g id="tests">
</g>
<g id="template">
	<g>
		<g>
			<g>
				<g>
					<path d="M52.9,86.1c-0.2,0-0.4-0.1-0.6-0.2c-0.3-0.2-0.5-0.6-0.5-0.9V62.6c0-0.5,0.3-0.9,0.7-1.1l12.6-4.8
						c0.4-0.1,0.7-0.1,1,0.1c0.3,0.2,0.5,0.6,0.5,0.9v22.4c0,0.5-0.3,0.9-0.7,1.1l-12.6,4.8C53.2,86.1,53,86.1,52.9,86.1L52.9,86.1z
						 M54,63.4v20l10.4-3.9v-20L54,63.4L54,63.4z"/>
				</g>
			</g>
			<g>
				<g>
					<path d="M78.3,86.1c-0.1,0-0.3,0-0.4-0.1l-12.6-4.8c-0.4-0.2-0.7-0.6-0.7-1.1V57.9c0-0.4,0.2-0.7,0.5-0.9
						c0.3-0.2,0.7-0.3,1-0.1l12.6,4.8c0.4,0.2,0.7,0.6,0.7,1.1V85c0,0.4-0.2,0.7-0.5,0.9C78.8,86.1,78.6,86.1,78.3,86.1L78.3,86.1z
						 M66.8,79.5l10.4,3.9v-20l-10.4-3.9V79.5L66.8,79.5z"/>
				</g>
			</g>
		</g>
		<g>
			<g>
				<path d="M72.3,41.8H39.7c-1.2,0-2.1-0.9-2.1-2.1V21.3c0-1.2,0.9-2.1,2.1-2.1h32.5c1.2,0,2.1,0.9,2.1,2.1v18.4
					C74.4,40.9,73.4,41.8,72.3,41.8L72.3,41.8z M41.9,37.6h28.3V23.4H41.9V37.6L41.9,37.6z"/>
			</g>
			<g>
				<g>
					<path d="M90.1,100H17.3c-2.3,0-4.2-1.9-4.2-4.2V4.2C13.1,1.9,15,0,17.3,0h72.8c2.3,0,4.2,1.9,4.2,4.2v91.5
						C94.4,98.1,92.5,100,90.1,100L90.1,100z M21.6,91.5h64.3v-83H21.6V91.5L21.6,91.5z"/>
				</g>
				<g>
					<path d="M24.7,25.6H9.9c-2.3,0-4.2-1.9-4.2-4.2s1.9-4.2,4.2-4.2h14.9c2.3,0,4.2,1.9,4.2,4.2S27.1,25.6,24.7,25.6L24.7,25.6z"/>
				</g>
				<g>
					<path d="M24.7,44.5H9.9c-2.3,0-4.2-1.9-4.2-4.2c0-2.3,1.9-4.2,4.2-4.2h14.9c2.3,0,4.2,1.9,4.2,4.2C29,42.6,27.1,44.5,24.7,44.5
						L24.7,44.5z"/>
				</g>
				<g>
					<path d="M24.7,63.5H9.9c-2.3,0-4.2-1.9-4.2-4.2c0-2.3,1.9-4.2,4.2-4.2h14.9c2.3,0,4.2,1.9,4.2,4.2C29,61.6,27.1,63.5,24.7,63.5
						L24.7,63.5z"/>
				</g>
				<g>
					<path d="M24.7,82.4H9.9c-2.3,0-4.2-1.9-4.2-4.2c0-2.3,1.9-4.2,4.2-4.2h14.9c2.3,0,4.2,1.9,4.2,4.2C29,80.5,27.1,82.4,24.7,82.4
						L24.7,82.4z"/>
				</g>
			</g>
		</g>
	</g>
</g>
<g id="resources">
</g>
<g id="recipes">
</g>
<g id="providers">
</g>
<g id="metadata">
</g>
<g id="libraries">
</g>
<g id="files">
</g>
<g id="definitions">
</g>
<g id="version">
</g>
<g id="cookbook">
</g>
<g id="attributes">
</g>
</svg>
