<?xml version="1.0" encoding="utf-8"?>
<!-- Generator: Adobe Illustrator 18.1.1, SVG Export Plug-In . SVG Version: 6.00 Build 0)  -->
<svg version="1.1" xmlns="http://www.w3.org/2000/svg" xmlns:xlink="http://www.w3.org/1999/xlink" x="0px" y="0px"
	 viewBox="0 0 100 100" enable-background="new 0 0 100 100" xml:space="preserve">
<g id="workstation">
</g>
<g id="user">
</g>
<g id="search">
</g>
<g id="run-list">
</g>
<g id="role">
</g>
<g id="policy">
</g>
<g id="organization">
</g>
<g id="node">
</g>
<g id="group">
</g>
<g id="environment">
</g>
<g id="data-bag">
</g>
<g id="cookbook">
	<g>
		<g>
			<path d="M72.3,41.8H39.7c-1.2,0-2.1-0.9-2.1-2.1V21.3c0-1.2,0.9-2.1,2.1-2.1h32.5c1.2,0,2.1,0.9,2.1,2.1v18.4
				C74.4,40.9,73.4,41.8,72.3,41.8L72.3,41.8z M41.9,37.6h28.3V23.4H41.9V37.6L41.9,37.6z"/>
		</g>
		<g>
			<g>
				<path d="M90.1,100H17.3c-2.3,0-4.2-1.9-4.2-4.2V4.2C13.1,1.9,15,0,17.3,0h72.8c2.3,0,4.2,1.9,4.2,4.2v91.5
					C94.4,98.1,92.5,100,90.1,100L90.1,100z M21.6,91.5h64.3v-83H21.6V91.5L21.6,91.5z"/>
			</g>
			<g>
				<path d="M24.7,25.6H9.9c-2.3,0-4.2-1.9-4.2-4.2s1.9-4.2,4.2-4.2h14.9c2.3,0,4.2,1.9,4.2,4.2S27.1,25.6,24.7,25.6L24.7,25.6z"/>
			</g>
			<g>
				<path d="M24.7,44.5H9.9c-2.3,0-4.2-1.9-4.2-4.2c0-2.3,1.9-4.2,4.2-4.2h14.9c2.3,0,4.2,1.9,4.2,4.2C29,42.6,27.1,44.5,24.7,44.5
					L24.7,44.5z"/>
			</g>
			<g>
				<path d="M24.7,63.5H9.9c-2.3,0-4.2-1.9-4.2-4.2c0-2.3,1.9-4.2,4.2-4.2h14.9c2.3,0,4.2,1.9,4.2,4.2C29,61.6,27.1,63.5,24.7,63.5
					L24.7,63.5z"/>
			</g>
			<g>
				<path d="M24.7,82.4H9.9c-2.3,0-4.2-1.9-4.2-4.2c0-2.3,1.9-4.2,4.2-4.2h14.9c2.3,0,4.2,1.9,4.2,4.2C29,80.5,27.1,82.4,24.7,82.4
					L24.7,82.4z"/>
			</g>
		</g>
	</g>
</g>
<g id="client">
</g>
<g id="api">
</g>
</svg>
