<?xml version="1.0" encoding="utf-8"?>
<!-- Generator: Adobe Illustrator 18.1.1, SVG Export Plug-In . SVG Version: 6.00 Build 0)  -->
<svg version="1.1" xmlns="http://www.w3.org/2000/svg" xmlns:xlink="http://www.w3.org/1999/xlink" x="0px" y="0px"
	 viewBox="0 0 100 100" enable-background="new 0 0 100 100" xml:space="preserve">
<g id="deliver">
</g>
<g id="rehearse">
</g>
<g id="union">
</g>
<g id="publish">
</g>
<g id="accept">
</g>
<g id="build">
</g>
<g id="approve">
</g>
<g id="verify">
</g>
<g id="workstation">
</g>
<g id="tests">
</g>
<g id="secrets">
</g>
<g id="rules">
</g>
<g id="ruby_1_">
</g>
<g id="rubocop">
</g>
<g id="resources">
</g>
<g id="reports">
</g>
<g id="recipes">
</g>
<g id="recipe">
</g>
<g id="recipe_x5F_dsl">
</g>
<g id="policygroup">
</g>
<g id="policyfile">
	<g>
		<g>
			<g>
				<path d="M60,71.2c0,2.2-1.8,4.1-4.1,4.1H43.7c-2.2,0-4.1-1.8-4.1-4.1v-0.8h-9.2v10.3h38.7V70.3H60V71.2z"/>
				<path d="M86.1,0H13.9c-1.1,0-2.1,0.9-2.1,2.1v95.9c0,1.1,0.9,2.1,2.1,2.1h72.1c1.1,0,2.1-0.9,2.1-2.1V2.1
					C88.1,0.9,87.2,0,86.1,0z M35.6,41.5h29c0.6,0,1,0.5,1,1c0,0.6-0.5,1-1,1h-29c-0.6,0-1-0.5-1-1C34.6,41.9,35,41.5,35.6,41.5z
					 M33.6,45.6h32.9c0.6,0,1,0.5,1,1c0,0.6-0.5,1-1,1H33.6c-0.6,0-1-0.5-1-1C32.6,46,33.1,45.6,33.6,45.6z M73.3,82.7
					c0,1.1-0.9,2-2,2H28.5c-1.1,0-2-0.9-2-2V68.3c0-1.1,0.9-2,2-2h0.8V51.7c0-1.1,0.9-2,2-2h37.7c1.1,0,2,0.9,2,2v14.6h0.2
					c1.1,0,2,0.9,2,2V82.7z"/>
				<path d="M43.7,68.3v2.9h12.2v-2.9c0-1.1,0.9-2,2-2h8.9V53.7H33.3v12.5h8.4C42.8,66.2,43.7,67.2,43.7,68.3z"/>
			</g>
		</g>
	</g>
</g>
<g id="knife">
</g>
<g id="kitchen">
</g>
<g id="foodcritic">
</g>
<g id="development_x5F_kit">
</g>
<g id="cookbooks">
</g>
<g id="controls">
</g>
<g id="config-rb">
</g>
<g id="ci">
</g>
<g id="chef_x5F_repo">
</g>
<g id="chefspec">
</g>
<g id="cd">
</g>
</svg>
