<?xml version="1.0" encoding="utf-8"?>
<!-- Generator: Adobe Illustrator 18.1.1, SVG Export Plug-In . SVG Version: 6.00 Build 0)  -->
<svg version="1.1" xmlns="http://www.w3.org/2000/svg" xmlns:xlink="http://www.w3.org/1999/xlink" x="0px" y="0px"
	 viewBox="0 0 100 100" enable-background="new 0 0 100 100" xml:space="preserve">
<g id="deliver">
</g>
<g id="rehearse">
</g>
<g id="union">
</g>
<g id="publish">
</g>
<g id="accept">
</g>
<g id="build">
</g>
<g id="approve">
</g>
<g id="verify">
</g>
<g id="workstation">
</g>
<g id="tests">
</g>
<g id="secrets">
</g>
<g id="rules">
	<g>
		<g>
			<g>
				<path d="M40.2,82.5c-1,0-2-0.4-2.7-1.1c-0.8-0.8-1.2-1.9-1.1-3l0.8-14.1c0.1-0.9,0.5-1.8,1.1-2.5l41.9-41.9c1.4-1.4,4-1.4,5.5,0
					l13.2,13.2c1.5,1.5,1.5,3.9,0,5.5L57,80.6c-0.7,0.7-1.6,1.1-2.5,1.1l-14.1,0.8C40.3,82.5,40.2,82.5,40.2,82.5L40.2,82.5z
					 M44.8,66.3l-0.5,8.3l8.3-0.5l38.2-38.2l-7.8-7.8L44.8,66.3L44.8,66.3z"/>
			</g>
			<g>
				<path d="M88.7,44c-0.5,0-1-0.2-1.4-0.6L75.4,31.5c-0.8-0.8-0.8-2,0-2.7c0.8-0.8,2-0.8,2.7,0L90,40.7c0.8,0.8,0.8,2,0,2.7
					C89.7,43.8,89.2,44,88.7,44L88.7,44z"/>
			</g>
			<path d="M42.4,68.8c-0.3,0-0.5,0-0.8,0c-0.3,0-0.5,0.1-0.7,0.2l-0.6,9.7l9.3-0.6c0.1-0.4,0.2-0.7,0.2-1.1
				C50.2,72.3,47,68.8,42.4,68.8L42.4,68.8z"/>
		</g>
		<g>
			<g>
				<path d="M62.6,97.3H8.8c-4.8,0-8.8-3.9-8.8-8.8V16.4c0-2.1,1.7-3.9,3.9-3.9c2.1,0,3.9,1.7,3.9,3.9v72.2c0,0.6,0.5,1.1,1.1,1.1
					h53.8c0.6,0,1.1-0.5,1.1-1.1V65.8c0-2.1,1.7-3.9,3.9-3.9c2.1,0,3.9,1.7,3.9,3.9v22.8C71.4,93.4,67.4,97.3,62.6,97.3L62.6,97.3z"
					/>
			</g>
			<g>
				<path d="M67.5,41.7c-2.1,0-3.9-1.7-3.9-3.9V27.6c0-0.6-0.5-1.1-1.1-1.1c-2.1,0-3.9-1.7-3.9-3.9s1.7-3.9,3.9-3.9
					c4.9,0,8.8,3.9,8.8,8.8v10.2C71.4,40,69.6,41.7,67.5,41.7L67.5,41.7z"/>
			</g>
			<g>
				<path d="M61.8,26.5H11.9C5.3,26.5,0,21.2,0,14.6C0,8,5.3,2.7,11.9,2.7h55.6c2.1,0,3.9,1.7,3.9,3.9s-1.7,3.9-3.9,3.9H11.9
					c-2.3,0-4.2,1.9-4.2,4.2c0,2.3,1.9,4.2,4.2,4.2h49.9c2.1,0,3.9,1.7,3.9,3.9S64,26.5,61.8,26.5L61.8,26.5z"/>
			</g>
		</g>
		<g>
			<path d="M41.5,40.7H17.8c-1.1,0-1.9-0.9-1.9-1.9c0-1.1,0.9-1.9,1.9-1.9h23.6c1.1,0,1.9,0.9,1.9,1.9
				C43.4,39.9,42.5,40.7,41.5,40.7L41.5,40.7z"/>
		</g>
		<g>
			<path d="M41.5,51.3H17.8c-1.1,0-1.9-0.9-1.9-1.9c0-1.1,0.9-1.9,1.9-1.9h23.6c1.1,0,1.9,0.9,1.9,1.9
				C43.4,50.5,42.5,51.3,41.5,51.3L41.5,51.3z"/>
		</g>
	</g>
</g>
<g id="ruby_1_">
</g>
<g id="rubocop">
</g>
<g id="resources">
</g>
<g id="reports">
</g>
<g id="recipes">
</g>
<g id="recipe">
</g>
<g id="recipe_x5F_dsl">
</g>
<g id="policygroup">
</g>
<g id="policyfile">
</g>
<g id="knife">
</g>
<g id="kitchen">
</g>
<g id="foodcritic">
</g>
<g id="development_x5F_kit">
</g>
<g id="cookbooks">
</g>
<g id="controls">
</g>
<g id="config-rb">
</g>
<g id="ci">
</g>
<g id="chef_x5F_repo">
</g>
<g id="chefspec">
</g>
<g id="cd">
</g>
</svg>
