<?xml version="1.0" encoding="utf-8"?>
<!-- Generator: Adobe Illustrator 18.1.1, SVG Export Plug-In . SVG Version: 6.00 Build 0)  -->
<svg version="1.1" xmlns="http://www.w3.org/2000/svg" xmlns:xlink="http://www.w3.org/1999/xlink" x="0px" y="0px"
	 viewBox="0 0 100 100" enable-background="new 0 0 100 100" xml:space="preserve">
<g id="public_x5F_key">
</g>
<g id="private_x5F_key">
</g>
<g id="chef_x5F_user">
</g>
<g id="chef_x5F_role">
</g>
<g id="chef_x5F_organization">
</g>
<g id="chef_x5F_node">
</g>
<g id="chef_x5F_mirror">
</g>
<g id="chef_x5F_group">
</g>
<g id="chef_x5F_environment">
</g>
<g id="chef_x5F_data_x5F_bag">
</g>
<g id="chef_x5F_container">
</g>
<g id="chef_x5F_client">
</g>
<g id="chef_x5F_acl">
	<g>
		<g>
			<path d="M95.8,100H4.2C1.9,100,0,98.1,0,95.8V4.2C0,1.9,1.9,0,4.2,0h91.6c2.3,0,4.2,1.9,4.2,4.2v91.6C100,98.1,98.1,100,95.8,100
				L95.8,100z M8.4,91.6h83.2V8.4H8.4V91.6L8.4,91.6z"/>
		</g>
		<g>
			<path d="M79.2,40.9H63c-2.3,0-4.2-1.9-4.2-4.2c0-2.3,1.9-4.2,4.2-4.2h16.2c2.3,0,4.2,1.9,4.2,4.2C83.4,39,81.6,40.9,79.2,40.9
				L79.2,40.9z"/>
		</g>
		<g>
			<path d="M35.2,40.9H21.7c-2.3,0-4.2-1.9-4.2-4.2c0-2.3,1.9-4.2,4.2-4.2h13.5c2.3,0,4.2,1.9,4.2,4.2C39.4,39,37.5,40.9,35.2,40.9
				L35.2,40.9z"/>
		</g>
		<g>
			<path d="M35.2,71.7H21.7c-2.3,0-4.2-1.9-4.2-4.2c0-2.3,1.9-4.2,4.2-4.2h13.5c2.3,0,4.2,1.9,4.2,4.2
				C39.4,69.8,37.5,71.7,35.2,71.7L35.2,71.7z"/>
		</g>
		<g>
			<path d="M50.3,47.9h-14c-2.3,0-4.2-1.9-4.2-4.2v-14c0-2.3,1.9-4.2,4.2-4.2h14c2.3,0,4.2,1.9,4.2,4.2v14
				C54.5,46,52.7,47.9,50.3,47.9L50.3,47.9z M40.6,39.5h5.6v-5.6h-5.6V39.5L40.6,39.5z"/>
		</g>
		<g>
			<path d="M79.2,71.7H63c-2.3,0-4.2-1.9-4.2-4.2c0-2.3,1.9-4.2,4.2-4.2h16.2c2.3,0,4.2,1.9,4.2,4.2C83.4,69.8,81.6,71.7,79.2,71.7
				L79.2,71.7z"/>
		</g>
		<g>
			<path d="M50.3,78.7h-14c-2.3,0-4.2-1.9-4.2-4.2v-14c0-2.3,1.9-4.2,4.2-4.2h14c2.3,0,4.2,1.9,4.2,4.2v14
				C54.5,76.8,52.7,78.7,50.3,78.7L50.3,78.7z M40.6,70.3h5.6v-5.6h-5.6V70.3L40.6,70.3z"/>
		</g>
		<g>
			<path d="M19.6,71.7c-2.3,0-4.2-1.9-4.2-4.2V19c0-2.3,1.9-4.2,4.2-4.2c2.3,0,4.2,1.9,4.2,4.2v48.5C23.8,69.8,21.9,71.7,19.6,71.7
				L19.6,71.7z"/>
		</g>
	</g>
</g>
<g id="machine_x5F_image">
</g>
<g id="machine_x5F_file">
</g>
<g id="machine_x5F_execute">
</g>
<g id="machine_x5F_batch">
</g>
<g id="machine">
</g>
<g id="load_x5F_balancer">
</g>
</svg>
