<?xml version="1.0" encoding="utf-8"?>
<!-- Generator: Adobe Illustrator 18.1.1, SVG Export Plug-In . SVG Version: 6.00 Build 0)  -->
<svg version="1.1" xmlns="http://www.w3.org/2000/svg" xmlns:xlink="http://www.w3.org/1999/xlink" x="0px" y="0px"
	 viewBox="0 0 100 100" enable-background="new 0 0 100 100" xml:space="preserve">
<g id="deliver">
</g>
<g id="rehearse">
</g>
<g id="union">
</g>
<g id="publish">
</g>
<g id="accept">
</g>
<g id="build">
</g>
<g id="approve">
</g>
<g id="verify">
</g>
<g id="workstation">
</g>
<g id="tests">
</g>
<g id="secrets">
</g>
<g id="rules">
</g>
<g id="ruby_1_">
</g>
<g id="rubocop">
</g>
<g id="resources">
</g>
<g id="reports">
</g>
<g id="recipes">
</g>
<g id="recipe">
</g>
<g id="recipe_x5F_dsl">
</g>
<g id="policygroup">
</g>
<g id="policyfile">
</g>
<g id="knife">
</g>
<g id="kitchen">
	<g>
		<path d="M88.4,1.3H11.6C5.2,1.3,0,6.5,0,13V87c0,6.4,5.2,11.6,11.6,11.6h76.7c6.4,0,11.6-5.2,11.6-11.6V13
			C100,6.5,94.8,1.3,88.4,1.3z M44,63.3c0,8.9-7.1,16.1-15.8,16.1c-8.2,0-14.9-6.5-15.6-14.8h-0.2l0.1-30.6h0.1
			c0.2-8.8,7.2-15.8,15.7-15.8c8.6,0,15.5,7.1,15.6,15.9h0l-0.1,27.5c0,0,0,0,0,0C44,62.1,44,62.7,44,63.3z M85.1,66.1v23.3h-22
			v-0.1c-1.3,0-2.5-0.2-3.7-0.5c-1.3-0.4-2.6-0.9-3.7-1.6c-4.2-2.6-7.1-7.3-7.1-12.6c0-0.3,0-0.6,0-0.9h0V50.4h22v0
			c8,0.2,14.5,6.7,14.5,14.8C85.1,65.5,85.1,65.8,85.1,66.1L85.1,66.1z M87.3,32.3L87.3,32.3c-0.3,8.2-6.9,14.8-14.9,14.8
			c-0.3,0-0.6,0-0.9,0v0l-23.3-0.1l0.1-22.2v-0.4h0c0.2-8.2,6.8-14.8,14.8-14.8c0.3,0,0.6,0,0.9,0v0l23.3,0.1L87.3,32.3z"/>
		<g>
			<path d="M37,33.5c0,0.2,0,0.4,0,0.5c-0.3,4.2-4.1,7.6-8.8,7.6c-4.7,0-8.5-3.4-8.7-7.6c0-0.2,0-0.4,0-0.5c0-4.5,4-8.1,8.8-8.1
				C33.1,25.3,37,29,37,33.5z"/>
		</g>
	</g>
</g>
<g id="foodcritic">
</g>
<g id="development_x5F_kit">
</g>
<g id="cookbooks">
</g>
<g id="controls">
</g>
<g id="config-rb">
</g>
<g id="ci">
</g>
<g id="chef_x5F_repo">
</g>
<g id="chefspec">
</g>
<g id="cd">
</g>
</svg>
