<?xml version="1.0" encoding="utf-8"?>
<!-- Generator: Adobe Illustrator 18.1.1, SVG Export Plug-In . SVG Version: 6.00 Build 0)  -->
<svg version="1.1" xmlns="http://www.w3.org/2000/svg" xmlns:xlink="http://www.w3.org/1999/xlink" x="0px" y="0px"
	 viewBox="0 0 100 100" enable-background="new 0 0 100 100" xml:space="preserve">
<g id="deliver">
</g>
<g id="rehearse">
</g>
<g id="union">
</g>
<g id="publish">
</g>
<g id="accept">
</g>
<g id="build">
</g>
<g id="approve">
</g>
<g id="verify">
</g>
<g id="workstation">
	<g>
		<g>
			<path d="M86.3,71.9H12.6c-1.9,0-3.4-1.5-3.4-3.4V21.6c0-1.9,1.5-3.4,3.4-3.4h73.7c1.9,0,3.4,1.5,3.4,3.4v46.9
				C89.7,70.4,88.2,71.9,86.3,71.9L86.3,71.9z M15.9,65.2h67V25h-67V65.2L15.9,65.2z"/>
		</g>
		<g>
			<path d="M79.6,63.5H19.3c-0.9,0-1.7-0.7-1.7-1.7V28.4c0-0.9,0.7-1.7,1.7-1.7h60.3c0.9,0,1.7,0.7,1.7,1.7v33.5
				C81.3,62.8,80.5,63.5,79.6,63.5L79.6,63.5z M20.9,60.2h57V30h-57V60.2L20.9,60.2z"/>
		</g>
		<g>
			<path d="M96.6,81.7H3.4c-1.9,0-3.4-1.5-3.4-3.4C0,76.5,1.5,75,3.4,75h93.3c1.9,0,3.4,1.5,3.4,3.4C100,80.2,98.5,81.7,96.6,81.7
				L96.6,81.7z"/>
		</g>
	</g>
</g>
<g id="tests">
</g>
<g id="secrets">
</g>
<g id="rules">
</g>
<g id="ruby_1_">
</g>
<g id="rubocop">
</g>
<g id="resources">
</g>
<g id="reports">
</g>
<g id="recipes">
</g>
<g id="recipe">
</g>
<g id="recipe_x5F_dsl">
</g>
<g id="policygroup">
</g>
<g id="policyfile">
</g>
<g id="knife">
</g>
<g id="kitchen">
</g>
<g id="foodcritic">
</g>
<g id="development_x5F_kit">
</g>
<g id="cookbooks">
</g>
<g id="controls">
</g>
<g id="config-rb">
</g>
<g id="ci">
</g>
<g id="chef_x5F_repo">
</g>
<g id="chefspec">
</g>
<g id="cd">
</g>
</svg>
