<?xml version="1.0" encoding="utf-8"?>
<!-- Generator: Adobe Illustrator 18.1.1, SVG Export Plug-In . SVG Version: 6.00 Build 0)  -->
<svg version="1.1" xmlns="http://www.w3.org/2000/svg" xmlns:xlink="http://www.w3.org/1999/xlink" x="0px" y="0px"
	 viewBox="0 0 100 100" enable-background="new 0 0 100 100" xml:space="preserve">
<g id="deliver">
</g>
<g id="rehearse">
</g>
<g id="union">
</g>
<g id="publish">
</g>
<g id="accept">
</g>
<g id="build">
</g>
<g id="approve">
</g>
<g id="verify">
</g>
<g id="workstation">
</g>
<g id="tests">
</g>
<g id="secrets">
</g>
<g id="rules">
</g>
<g id="ruby_1_">
</g>
<g id="rubocop">
</g>
<g id="resources">
</g>
<g id="reports">
</g>
<g id="recipes">
</g>
<g id="recipe">
</g>
<g id="recipe_x5F_dsl">
	<g>
		<path d="M41.2,9.1c2.7,0,6,4.3,8.8,4.3s6.1-4.3,8.8-4.3c0.2,0,0.3,0,0.5,0.1c2.9,0.7,3.9,6.6,6.5,7.9c0.5,0.2,1.1,0.3,1.8,0.3
			c1.9,0,4.3-0.7,6.2-0.7c0.9,0,1.7,0.2,2.2,0.6c2.3,1.8,0.6,7.7,2.5,9.9c1.8,2.3,7.9,2,9.2,4.6c1.3,2.6-2.7,7.1-2.1,10
			c0.6,2.8,6.2,5.1,6.2,8.1s-5.6,5.3-6.2,8.1c-0.7,2.9,3.3,7.4,2.1,10c-1.3,2.7-7.3,2.3-9.2,4.6c-1.8,2.3-0.2,8.1-2.5,10
			c-0.6,0.5-1.4,0.6-2.2,0.6c-1.9,0-4.3-0.7-6.2-0.7c-0.7,0-1.3,0.1-1.8,0.3c-2.6,1.3-3.6,7.2-6.5,7.9c-0.2,0-0.3,0.1-0.5,0.1
			c-2.7,0-6-4.3-8.8-4.3s-6.1,4.3-8.8,4.3c-0.2,0-0.4,0-0.5-0.1c-2.9-0.7-3.9-6.6-6.6-7.9c-0.5-0.2-1.1-0.3-1.8-0.3
			c-1.9,0-4.3,0.7-6.2,0.7c-0.9,0-1.7-0.2-2.2-0.6c-2.3-1.8-0.6-7.7-2.5-10c-1.8-2.3-7.9-2-9.1-4.6c-1.3-2.6,2.7-7.1,2.1-10
			C13.7,55.3,8.1,53,8.1,50s5.6-5.3,6.2-8.1c0.7-2.9-3.3-7.4-2.1-10c1.3-2.7,7.3-2.3,9.2-4.6c1.8-2.3,0.2-8.1,2.5-10
			c0.6-0.5,1.4-0.6,2.2-0.6c1.9,0,4.3,0.8,6.2,0.8c0.7,0,1.3-0.1,1.8-0.3c2.6-1.3,3.6-7.2,6.6-7.9C40.8,9.1,41,9.1,41.2,9.1 M41.2,1
			c-0.8,0-1.6,0.1-2.3,0.3c-4.9,1.1-7.2,5.1-8.7,7.7c-1.2-0.2-2.6-0.4-4.1-0.4c-2.8,0-5.3,0.8-7.3,2.4c-3.9,3.1-4.3,7.7-4.5,10.7
			c-2.9,0.8-7.3,2.2-9.4,6.7c-2.2,4.5-0.5,8.8,0.6,11.5C3.3,41.8,0,45,0,50c0,5,3.3,8.2,5.6,10.2C4.4,62.9,2.8,67.2,5,71.7
			c2.2,4.5,6.6,5.9,9.4,6.7c0.2,3,0.6,7.6,4.5,10.7c2,1.6,4.4,2.4,7.3,2.4c1.5,0,2.9-0.2,4.1-0.4c1.4,2.6,3.8,6.6,8.7,7.7
			c0.7,0.2,1.5,0.3,2.3,0.3c3.8,0,6.7-2,8.8-3.5c2.1,1.5,5,3.5,8.8,3.5c0.8,0,1.6-0.1,2.3-0.3c4.9-1.1,7.2-5.1,8.7-7.7
			c1.2,0.2,2.6,0.4,4.1,0.4c2.8,0,5.3-0.8,7.3-2.4c3.9-3.1,4.3-7.7,4.4-10.7c2.9-0.8,7.3-2.2,9.4-6.7c2.2-4.5,0.5-8.8-0.6-11.5
			c2.2-2,5.6-5.2,5.6-10.2c0-5-3.3-8.2-5.6-10.2c1.1-2.7,2.8-7,0.6-11.5c-2.2-4.5-6.6-5.9-9.4-6.7c-0.2-3-0.6-7.6-4.4-10.7
			c-2-1.6-4.4-2.4-7.3-2.4c-1.5,0-2.9,0.2-4.1,0.4c-1.4-2.6-3.8-6.6-8.7-7.7C60.4,1.1,59.6,1,58.8,1c-3.8,0-6.7,2-8.8,3.5
			C47.9,2.9,45,1,41.2,1L41.2,1z"/>
		<g>
			<g>
				<path d="M34.5,38c0-0.9,0.7-1.6,1.6-1.6h28.5c0.9,0,1.6,0.7,1.6,1.6c0,0.9-0.7,1.6-1.6,1.6H36.1C35.2,39.6,34.5,38.9,34.5,38
					L34.5,38z"/>
			</g>
			<g>
				<path d="M34.5,44.9c0-0.9,0.7-1.6,1.6-1.6h35.3c0.9,0,1.6,0.7,1.6,1.6c0,0.9-0.7,1.6-1.6,1.6H36.1
					C35.2,46.5,34.5,45.8,34.5,44.9L34.5,44.9z"/>
			</g>
			<g>
				<path d="M34.5,57.9c0-0.9,0.7-1.6,1.6-1.6H59c0.9,0,1.6,0.7,1.6,1.6s-0.7,1.6-1.6,1.6H36.1C35.2,59.6,34.5,58.8,34.5,57.9
					L34.5,57.9z"/>
			</g>
			<g>
				<path d="M30,71.7c0-0.9,0.7-1.6,1.6-1.6h8c0.9,0,1.6,0.7,1.6,1.6c0,0.9-0.7,1.6-1.6,1.6h-8C30.8,73.3,30,72.6,30,71.7L30,71.7z"
					/>
			</g>
			<g>
				<path d="M34.5,64.8c0-0.9,0.7-1.6,1.6-1.6h35.3c0.9,0,1.6,0.7,1.6,1.6c0,0.9-0.7,1.6-1.6,1.6H36.1
					C35.2,66.4,34.5,65.7,34.5,64.8L34.5,64.8z"/>
			</g>
			<g>
				<path d="M30,31c0-0.9,0.7-1.6,1.6-1.6h8c0.9,0,1.6,0.7,1.6,1.6c0,0.9-0.7,1.6-1.6,1.6h-8C30.8,32.6,30,31.9,30,31L30,31z"/>
			</g>
			<g>
				<path d="M43.8,31c0-0.9,0.7-1.6,1.6-1.6h8c0.9,0,1.6,0.7,1.6,1.6c0,0.9-0.7,1.6-1.6,1.6h-8C44.5,32.6,43.8,31.9,43.8,31L43.8,31
					z"/>
			</g>
			<g>
				<path d="M57.5,31c0-0.9,0.7-1.6,1.6-1.6h8c0.9,0,1.6,0.7,1.6,1.6c0,0.9-0.7,1.6-1.6,1.6h-8C58.2,32.6,57.5,31.9,57.5,31L57.5,31
					z"/>
			</g>
			<g>
				<path d="M34.5,51.3c0-0.9,0.7-1.6,1.6-1.6H59c0.9,0,1.6,0.7,1.6,1.6s-0.7,1.6-1.6,1.6H36.1C35.2,52.9,34.5,52.2,34.5,51.3
					L34.5,51.3z"/>
			</g>
		</g>
	</g>
</g>
<g id="policygroup">
</g>
<g id="policyfile">
</g>
<g id="knife">
</g>
<g id="kitchen">
</g>
<g id="foodcritic">
</g>
<g id="development_x5F_kit">
</g>
<g id="cookbooks">
</g>
<g id="controls">
</g>
<g id="config-rb">
</g>
<g id="ci">
</g>
<g id="chef_x5F_repo">
</g>
<g id="chefspec">
</g>
<g id="cd">
</g>
</svg>
