<?xml version="1.0" encoding="utf-8"?>
<!-- Generator: Adobe Illustrator 18.1.1, SVG Export Plug-In . SVG Version: 6.00 Build 0)  -->
<svg version="1.1" xmlns="http://www.w3.org/2000/svg" xmlns:xlink="http://www.w3.org/1999/xlink" x="0px" y="0px"
	 viewBox="0 0 100 100" enable-background="new 0 0 100 100" xml:space="preserve">
<g id="virtual-platform">
</g>
<g id="virtual-machine">
</g>
<g id="storage-device">
</g>
<g id="server_1_">
</g>
<g id="public-cloud">
</g>
<g id="private-cloud">
</g>
<g id="platform">
</g>
<g id="network-device">
	<g>
		<g>
			<path d="M95.8,98.1H4.2C1.9,98.1,0,96.3,0,94V61.5c0-2.3,1.9-4.2,4.2-4.2h91.7c2.3,0,4.2,1.9,4.2,4.2V94
				C100,96.3,98.1,98.1,95.8,98.1L95.8,98.1z M8.3,89.8h83.4V65.7H8.3V89.8L8.3,89.8z"/>
		</g>
		<g>
			<g>
				<path d="M85.5,51c-1.1,0-2.3-0.5-3.1-1.4c-1.5-1.7-1.4-4.3,0.3-5.9c5.2-4.7,8.1-10.8,8.1-17.3c0-6.5-2.9-12.7-8.1-17.3
					C81,7.6,80.8,5,82.4,3.3c1.5-1.7,4.2-1.9,5.9-0.3c7,6.3,10.9,14.6,10.9,23.5c0,8.9-3.9,17.3-10.9,23.5
					C87.5,50.7,86.5,51,85.5,51L85.5,51z"/>
			</g>
			<g>
				<path d="M76,42.9c-1.1,0-2.3-0.5-3.1-1.4c-1.5-1.7-1.4-4.3,0.3-5.9c2.8-2.5,4.3-5.8,4.3-9.2s-1.5-6.7-4.3-9.2
					c-1.7-1.5-1.9-4.2-0.3-5.9c1.5-1.7,4.2-1.9,5.9-0.3c4.6,4.1,7.1,9.6,7.1,15.4c0,5.9-2.5,11.3-7.1,15.4C78,42.6,77,42.9,76,42.9
					L76,42.9z"/>
			</g>
			<g>
				<path d="M45,51c-1,0-2-0.3-2.8-1.1c-7-6.3-10.9-14.6-10.9-23.5c0-8.9,3.9-17.3,10.9-23.5c1.7-1.5,4.3-1.4,5.9,0.3
					c1.5,1.7,1.4,4.3-0.3,5.9c-5.2,4.6-8.1,10.8-8.1,17.3c0,6.5,2.9,12.7,8.1,17.3c1.7,1.5,1.9,4.2,0.3,5.9C47.2,50.6,46.1,51,45,51
					L45,51z"/>
			</g>
			<g>
				<path d="M54.4,42.9c-1,0-2-0.3-2.8-1.1c-4.6-4.1-7.1-9.6-7.1-15.4c0-5.9,2.5-11.3,7.1-15.4c1.7-1.5,4.3-1.4,5.9,0.3
					c1.5,1.7,1.4,4.3-0.3,5.9c-2.8,2.5-4.3,5.8-4.3,9.2s1.5,6.7,4.3,9.2c1.7,1.5,1.9,4.2,0.3,5.9C56.7,42.5,55.5,42.9,54.4,42.9
					L54.4,42.9z"/>
			</g>
		</g>
		<path d="M19.5,72.8c-2.7,0-4.9,2.2-4.9,4.9c0,2.7,2.2,4.9,4.9,4.9c2.7,0,4.9-2.2,4.9-4.9C24.5,75,22.3,72.8,19.5,72.8L19.5,72.8z"
			/>
		<path d="M35.5,72.8c-2.7,0-4.9,2.2-4.9,4.9c0,2.7,2.2,4.9,4.9,4.9c2.7,0,4.9-2.2,4.9-4.9C40.4,75,38.2,72.8,35.5,72.8L35.5,72.8z"
			/>
		<path d="M51.5,72.8c-2.7,0-4.9,2.2-4.9,4.9c0,2.7,2.2,4.9,4.9,4.9c2.7,0,4.9-2.2,4.9-4.9C56.4,75,54.2,72.8,51.5,72.8L51.5,72.8z"
			/>
		<g>
			<path d="M65.2,64.4c-2.3,0-4.2-1.9-4.2-4.2V28.4c0-2.3,1.9-4.2,4.2-4.2c2.3,0,4.2,1.9,4.2,4.2v31.9
				C69.4,62.6,67.5,64.4,65.2,64.4L65.2,64.4z"/>
		</g>
	</g>
</g>
<g id="middleware">
</g>
<g id="container">
</g>
<g id="bare-metal">
</g>
<g id="application">
</g>
<g id="node">
</g>
</svg>
