<?xml version="1.0" encoding="utf-8"?>
<!-- Generator: Adobe Illustrator 18.1.1, SVG Export Plug-In . SVG Version: 6.00 Build 0)  -->
<svg version="1.1" xmlns="http://www.w3.org/2000/svg" xmlns:xlink="http://www.w3.org/1999/xlink" x="0px" y="0px"
	 viewBox="0 0 100 100" enable-background="new 0 0 100 100" xml:space="preserve">
<g id="workstation">
</g>
<g id="user">
</g>
<g id="search">
</g>
<g id="run-list">
</g>
<g id="role">
</g>
<g id="policy">
</g>
<g id="organization">
</g>
<g id="node">
</g>
<g id="group">
	<g>
		<g>
			<path d="M33.7,47.3c-10.3,0-18.7-9.4-18.7-20.9c0-11.5,8.4-20.9,18.7-20.9c10.3,0,18.7,9.4,18.7,20.9
				C52.4,37.9,44,47.3,33.7,47.3L33.7,47.3z M33.7,14.1c-5.6,0-10.1,5.5-10.1,12.3c0,6.8,4.5,12.3,10.1,12.3
				c5.6,0,10.1-5.5,10.1-12.3C43.8,19.6,39.2,14.1,33.7,14.1L33.7,14.1z"/>
		</g>
		<g>
			<path d="M61,94.6H5.6c-2.3,0-4.1-1.8-4.3-4L0,72.6C-0.4,65.7,4.7,58,11.5,55.5c14.1-5,29.5-5,43.5,0c6.9,2.5,12,10.2,11.5,17.1
				l-1.2,17.9C65.2,92.8,63.3,94.6,61,94.6L61,94.6z M9.6,85.9H57L58,72.1c0.2-2.8-2.4-7.2-5.9-8.4c-12-4.3-25.5-4.3-37.6,0
				c-3.5,1.3-6,5.7-5.9,8.4L9.6,85.9L9.6,85.9z"/>
		</g>
		<g>
			<path d="M61,94.6H5.6c-2.3,0-4.1-1.8-4.3-4L0,72.6C-0.4,65.7,4.7,58,11.5,55.5c14.1-5,29.5-5,43.5,0c6.9,2.5,12,10.2,11.5,17.1
				l-1.2,17.9C65.2,92.8,63.3,94.6,61,94.6L61,94.6z M9.6,85.9H57L58,72.1c0.2-2.8-2.4-7.2-5.9-8.4c-12-4.3-25.5-4.3-37.6,0
				c-3.5,1.3-6,5.7-5.9,8.4L9.6,85.9L9.6,85.9z"/>
		</g>
		<g>
			<path d="M94.6,94.6H72.5c-2.4,0-4.3-1.9-4.3-4.3c0-2.4,1.9-4.3,4.3-4.3h18.1l0.8-11.4c0.2-2.2-2-5.7-4.7-6.7
				c-4.8-1.7-9.9-2.7-15.1-2.7c-2.4,0-4.3-2-4.2-4.4c0-2.4,2-4.3,4.4-4.2c6.1,0.1,12.2,1.2,17.9,3.3c6.2,2.3,10.8,9.2,10.4,15.4
				l-1.1,15.5C98.8,92.8,96.9,94.6,94.6,94.6L94.6,94.6z"/>
		</g>
		<g>
			<path d="M77.6,51.8c-8.6,0-15.5-7.7-15.5-17.3s7-17.3,15.5-17.3c8.6,0,15.5,7.7,15.5,17.3S86.2,51.8,77.6,51.8L77.6,51.8z
				 M77.6,25.9c-3.8,0-6.9,3.9-6.9,8.6c0,4.8,3.1,8.6,6.9,8.6c3.8,0,6.9-3.9,6.9-8.6C84.5,29.8,81.4,25.9,77.6,25.9L77.6,25.9z"/>
		</g>
	</g>
</g>
<g id="environment">
</g>
<g id="data-bag">
</g>
<g id="cookbook">
</g>
<g id="client">
</g>
<g id="api">
</g>
</svg>
