<?xml version="1.0" standalone="no"?>
<!DOCTYPE svg>
<svg xmlns="http://www.w3.org/2000/svg" xmlns:xlink="http://www.w3.org/1999/xlink" width="100%" height="100%" preserveAspectRatio="xMinYMin meet">
  <style>
    <![CDATA[
      .base {
        fill: #3f5364;
      }
      .accent {
        fill: #f18b21;
      }
      svg.horizontal, svg.mark {
        display: none;
      }
    ]]>
  </style>
  <svg class="vertical" viewBox="0 0 446 480">
    <g id="chef-logo-mark">
      <g class="mark">
        <g class="band-0">
          <path class="base" d="M177.9,195.5c11.5,11.5,28.1,19,45.7,19v-27c-10.5,0-19.6-4-26.6-11L177.9,195.5z"/>
          <path class="base" d="M247.1,90l-10,25c8,3,14.5,9,19.1,16h29.1C279.7,112.5,265.1,97,247.1,90z"/>
          <path class="accent" d="M158.8,150c0,9,2,18,5.5,26l24.6-11c-2-4.5-3-9.5-3-15c0-20.5,17.1-37.5,37.6-37.5v-27 C187.9,85.5,158.8,114.5,158.8,150z"/>
          <path class="accent" d="M237,185l10,25c18.6-7,32.6-22.5,38.6-41.5h-29.1C252.1,176,245.1,182,237,185z"/>
        </g> 
        <g class="band-1">
          <path class="base" d="M223.5,217.5c-37.6,0-67.7-30.5-67.7-67.5s30.6-67.5,67.7-67.5c31.1,0,57.2,20.5,65.2,49h26.1 C306.3,89,268.7,57,223.5,57c-51.7,0-93.3,41.5-93.3,93s41.6,93,93.3,93c45.1,0,82.8-32,91.3-74h-26.1 C280.7,197,254.6,217.5,223.5,217.5z"/>
        </g>
        <g class="band-2">
          <path class="base" d="M223.5,54L223.5,54V28.5l0,0c-51.7,0-95.8,32-113.4,77.5l23.6,9C147.7,79.5,182.9,54,223.5,54z"/>
          <path class="base" d="M223.5,246v25.5c60.7,0,111.4-44.5,120.4-102.5h-26.1C309.3,213,270.2,246,223.5,246z"/>
          <path class="accent" d="M318.3,131.5h25.6c-6.5-43-36.6-79-76.3-94.5l-9,23.5C288.7,72.5,311.8,99,318.3,131.5z"/>
          <path class="accent" d="M127.2,150L127.2,150h-25.6l0,0c0,51,31.6,95,76.8,113l9.5-23.5C152.3,225,127.2,190.5,127.2,150z"/>
        </g>
        <g class="band-3">
          <path class="base" d="M346.9,131.5h25.6c-3-22-10.5-42.5-21.6-60.5l-21.6,13.5C338.4,98,344.4,114,346.9,131.5z"/>
          <path class="base" d="M73,150.1c0.8,31.1,6.6,50.1,13.3,64.8l24.8-10.2c-5.5-13.2-11.4-26.9-12.3-54.6"/>
          <path class="accent" d="M223.5,274.5c-34.6,0-65.7-14-88.3-36.5l-18.1,18c27.1,27.5,64.7,44,106.4,44c76.8,0,140-57.5,149.5-131.5 h-25.6C337.9,228.5,286.2,274.5,223.5,274.5z"/>
          <path class="accent" d="M223.5,25.5c28.1,0,53.7,9,74.7,25L313.8,30c-25.1-19-56.7-30-90.3-30C159.8,0,105.1,39.5,83,95.5l24.1,9.5 C125.2,58.5,170.8,25.5,223.5,25.5z"/>
        </g>
      </g>
    </g>
    <g id="chef-logo-type">
      <g class="type base">
        <path d="M0,421v-0.2c0-32.1,24-58.3,58.8-58.3c21.2,0,34,7.1,44.5,17.4L87.6,398c-8.8-7.9-17.6-12.6-28.8-12.6 c-19,0-32.6,15.7-32.6,35v0.2c0,19.3,13.3,35.5,32.6,35.5c12.9,0,20.7-5.2,29.5-13.1l15.7,15.9c-11.7,12.4-24.5,20.2-46.2,20.2 C24.5,478.9,0,453.4,0,421z"/>
        <path d="M123.8,364.6h24.8v44.6h45.8v-44.6h24.8v112.8h-24.8v-45.3h-45.8v45.3h-24.8V364.6z"/>
        <path d="M249.2,364.6h85v22.1h-60.5v22.8h53.1v22.1h-53.1v23.6h61.2v22.1h-85.7V364.6z"/>
        <path d="M360.3,364.6H446v22.6h-60.9v24h53.8v22.6h-53.8v43.6h-24.8V364.6z"/>
      </g>
    </g>
    <g id="chef-logo-tag-line">
      <g class="tag-line accent">
        <text/>
      </g>
    </g>
  </svg>

  <svg class="horizontal" viewBox="0 0 2048 480">
    <use xlink:href="#chef-logo-mark" transform="translate(-114, 2) scale(1.58)"/>
    <use xlink:href="#chef-logo-type" transform="translate(544, -746) scale(2.18)"/>
    <use xlink:href="#chef-logo-tag-line" transform="translate(550, 422) scale(7.5)"/>
  </svg>

  <svg class="mark" viewBox="0 0 446 446">
    <use xlink:href="#chef-logo-mark" transform="translate(-108, 0) scale(1.484)"/>
  </svg>
</svg>
