<?xml version="1.0" encoding="utf-8"?>
<!-- Generator: Adobe Illustrator 16.0.0, SVG Export Plug-In . SVG Version: 6.00 Build 0)  -->
<!DOCTYPE svg PUBLIC "-//W3C//DTD SVG 1.1//EN" "http://www.w3.org/Graphics/SVG/1.1/DTD/svg11.dtd">
<svg version="1.1" id="Layer_1" xmlns="http://www.w3.org/2000/svg" xmlns:xlink="http://www.w3.org/1999/xlink" x="0px" y="0px"
	 width="235.061px" height="55px" viewBox="0 0 235.061 55" enable-background="new 0 0 235.061 55" xml:space="preserve">
<g>
	<defs>
		<rect id="SVGID_1_" x="-468.661" y="-339.791" width="1224" height="792"/>
	</defs>
	<clipPath id="SVGID_2_">
		<use xlink:href="#SVGID_1_"  overflow="visible"/>
	</clipPath>
	<path clip-path="url(#SVGID_2_)" fill="#FFFFFF" d="M63.287,27.403v-0.124c0-12.331,9.295-22.432,22.618-22.432
		c8.18,0,13.075,2.727,17.103,6.693l-6.072,7.002c-3.347-3.036-6.755-4.895-11.092-4.895c-7.312,0-12.58,6.073-12.58,13.508v0.124
		c0,7.436,5.143,13.633,12.58,13.633c4.957,0,7.993-1.983,11.401-5.081l6.073,6.134c-4.461,4.771-9.418,7.746-17.785,7.746
		C72.769,49.711,63.287,39.858,63.287,27.403"/>
	<polygon clip-path="url(#SVGID_2_)" fill="#FFFFFF" points="110.94,5.591 120.482,5.591 120.482,22.756 138.081,22.756 
		138.081,5.591 147.624,5.591 147.624,48.967 138.081,48.967 138.081,31.555 120.482,31.555 120.482,48.967 110.94,48.967 	"/>
	<polygon clip-path="url(#SVGID_2_)" fill="#FFFFFF" points="159.274,5.591 191.993,5.591 191.993,14.081 168.756,14.081 
		168.756,22.88 189.204,22.88 189.204,31.369 168.756,31.369 168.756,40.478 192.303,40.478 192.303,48.967 159.274,48.967 	"/>
	<polygon clip-path="url(#SVGID_2_)" fill="#FFFFFF" points="202.032,5.591 235.061,5.591 235.061,14.267 211.575,14.267 
		211.575,23.499 232.271,23.499 232.271,32.175 211.575,32.175 211.575,48.967 202.032,48.967 	"/>
	<path clip-path="url(#SVGID_2_)" fill="#FFFFFF" d="M27.501,39.886c-6.83,0-12.386-5.556-12.386-12.386s5.556-12.386,12.386-12.386
		c5.638,0,10.403,3.787,11.897,8.949h4.793c-1.595-7.753-8.472-13.602-16.691-13.602c-9.395,0-17.039,7.644-17.039,17.039
		c0,9.395,7.644,17.038,17.039,17.038c8.219,0,15.096-5.848,16.691-13.601h-4.793C37.904,36.1,33.139,39.886,27.501,39.886"/>
	<path clip-path="url(#SVGID_2_)" fill="#FFFFFF" d="M19.152,35.849c2.139,2.139,5.093,3.464,8.349,3.464v-4.938
		c-1.898,0-3.617-0.77-4.861-2.014L19.152,35.849z"/>
	<path clip-path="url(#SVGID_2_)" fill="#F38B00" d="M15.688,27.5c0,1.691,0.36,3.299,1.002,4.755l4.518-1.987
		c-0.373-0.847-0.582-1.783-0.582-2.768c0-3.797,3.079-6.875,6.875-6.875v-4.938C20.987,15.686,15.688,20.986,15.688,27.5"/>
	<path clip-path="url(#SVGID_2_)" fill="#FFFFFF" d="M31.785,16.491l-1.791,4.604c1.462,0.57,2.683,1.624,3.461,2.968h5.348
		C37.747,20.595,35.135,17.799,31.785,16.491"/>
	<path clip-path="url(#SVGID_2_)" fill="#F38B00" d="M29.994,33.905l1.791,4.604c3.35-1.309,5.962-4.104,7.019-7.572h-5.349
		C32.676,32.281,31.456,33.335,29.994,33.905"/>
	<path clip-path="url(#SVGID_2_)" fill="#FFFFFF" d="M5.646,34.108c-0.079-0.259-0.153-0.52-0.222-0.782
		c-0.004-0.016-0.008-0.032-0.013-0.047c-0.064-0.243-0.123-0.487-0.179-0.731c-0.012-0.05-0.021-0.1-0.033-0.15
		c-0.047-0.211-0.09-0.422-0.131-0.635c-0.019-0.094-0.034-0.189-0.051-0.284c-0.03-0.169-0.06-0.339-0.086-0.509
		c-0.022-0.146-0.042-0.292-0.061-0.438c-0.134-0.996-0.206-2.008-0.206-3.033H0c-0.001,1.118,0.069,2.222,0.201,3.311H0.2
		c0.003,0.024,0.007,0.048,0.01,0.071c0.037,0.297,0.078,0.593,0.124,0.887c0.013,0.081,0.027,0.161,0.041,0.242
		c0.04,0.241,0.082,0.483,0.128,0.723c0.025,0.127,0.052,0.254,0.078,0.381c0.04,0.191,0.08,0.382,0.124,0.571
		c0.038,0.167,0.081,0.333,0.122,0.499c0.038,0.148,0.074,0.297,0.114,0.445c0.053,0.196,0.109,0.391,0.166,0.585
		c0.024,0.082,0.045,0.165,0.069,0.245l0.003-0.001c0.322,1.066,0.704,2.105,1.147,3.112l4.275-1.879
		C6.231,35.855,5.914,34.993,5.646,34.108z"/>
	<path clip-path="url(#SVGID_2_)" fill="#F38B00" d="M27.501,50.336c-6.296,0-12.003-2.563-16.138-6.699l-3.305,3.305
		C13.034,51.919,19.907,55,27.501,55c14.024,0,25.595-10.497,27.287-24.062H50.08C48.417,41.905,38.925,50.336,27.501,50.336"/>
	<path clip-path="url(#SVGID_2_)" fill="#F38B00" d="M27.501,4.663c5.115,0,9.841,1.691,13.651,4.543l2.795-3.746
		C39.361,2.031,33.668,0,27.501,0C15.832,0,5.861,7.269,1.868,17.525l4.352,1.693C9.542,10.708,17.829,4.663,27.501,4.663"/>
	<path clip-path="url(#SVGID_2_)" fill="#FFFFFF" d="M50.079,24.062h4.708c-0.504-4.047-1.889-7.821-3.955-11.125l-3.965,2.474
		C48.486,17.997,49.603,20.926,50.079,24.062"/>
	<path clip-path="url(#SVGID_2_)" fill="#F38B00" d="M44.775,24.062H49.5c-1.233-7.921-6.658-14.47-13.926-17.308l-1.688,4.337
		C39.414,13.25,43.595,18.121,44.775,24.062"/>
	<path clip-path="url(#SVGID_2_)" fill="#FFFFFF" d="M27.501,9.888L27.501,9.888l0-4.652h0c-9.43,0-17.508,5.893-20.747,14.19
		l4.335,1.687C13.651,14.55,20.042,9.888,27.501,9.888"/>
	<path clip-path="url(#SVGID_2_)" fill="#F38B00" d="M9.89,27.5L9.89,27.5H5.237c0,9.356,5.803,17.377,13.997,20.667l1.727-4.318
		C14.479,41.246,9.89,34.9,9.89,27.5"/>
	<path clip-path="url(#SVGID_2_)" fill="#FFFFFF" d="M27.501,45.111v4.652c11.107,0,20.34-8.176,21.999-18.826h-4.724
		C43.172,39.008,36.036,45.111,27.501,45.111"/>
</g>
</svg>
